<svg xmlns="http://www.w3.org/2000/svg" version="1.1" viewBox="0.00 0.00 1024.00 1024.00">
<g id="Parent-Group"><g fill="rgba(0,0,0,0)" id="Group-rgba(0,0,0,0)">
<path d="   M 1024.00 0.00   L 1024.00 1024.00   L 903.76 1024.00   Q 904.65 1006.34 904.54 984.24   Q 904.26 926.03 904.67 845.36   Q 904.67 844.73 905.30 844.74   C 928.71 844.82 951.53 844.93 974.33 842.79   Q 974.54 842.77 974.52 842.56   L 974.50 842.28   Q 974.47 841.75 973.93 841.75   Q 897.72 842.40 827.75 841.90   Q 666.47 840.75 505.26 839.87   Q 495.33 839.82 485.25 839.81   Q 277.62 839.55 69.50 839.76   C 64.81 839.76 62.00 841.09 58.38 837.04   C 55.46 833.77 53.83 829.87 54.59 825.39   Q 55.56 819.76 55.96 813.87   C 56.34 808.26 58.15 803.67 64.63 803.64   Q 111.35 803.46 155.24 803.42   C 156.87 803.42 158.33 804.20 160.08 804.20   Q 195.94 804.18 232.11 804.11   C 233.73 804.10 235.00 803.14 236.77 803.13   Q 567.86 801.99 816.51 802.25   Q 838.65 802.27 858.29 802.04   C 864.43 801.97 869.91 802.99 875.82 803.62   C 886.26 804.73 897.90 804.79 908.74 802.30   C 910.18 801.97 911.79 801.79 913.26 801.80   Q 948.68 802.06 977.75 802.70   A 1.66 1.66 0.0 0 1 979.24 803.73   C 981.50 809.23 983.92 815.19 984.00 821.15   Q 984.08 827.00 983.66 832.82   C 983.40 836.30 980.17 839.10 977.41 840.88   Q 973.36 843.48 978.00 842.19   C 982.26 841.01 986.01 838.54 987.11 833.99   Q 987.33 833.09 987.56 826.98   Q 987.75 821.72 987.18 818.02   C 986.63 814.48 982.11 801.43 977.00 800.98   Q 963.53 799.82 947.81 799.39   Q 912.09 798.43 876.90 798.05   Q 876.56 798.05 876.55 797.71   L 876.40 791.90   A 0.59 0.58 87.6 0 0 875.79 791.33   L 855.74 792.24   Q 855.12 792.27 855.02 791.66   Q 854.03 785.80 853.12 779.85   Q 852.85 778.05 852.19 776.25   Q 851.96 775.62 852.59 775.40   Q 852.98 775.26 853.37 775.15   C 854.56 774.85 855.11 773.48 854.26 772.49   A 1.28 1.25 70.9 0 0 853.42 772.07   L 852.24 771.96   Q 851.68 771.91 851.56 771.36   L 848.93 758.52   A 0.54 0.53 -4.6 0 1 849.48 757.88   C 850.37 757.91 851.63 758.07 852.20 757.20   C 852.71 756.43 852.29 755.25 851.40 754.98   Q 850.03 754.56 848.51 754.55   A 0.83 0.82 83.3 0 1 847.71 753.91   C 846.70 749.67 846.15 744.55 844.30 740.55   Q 844.00 739.90 844.72 739.90   Q 845.97 739.91 846.11 738.74   C 846.47 735.81 840.56 735.84 838.87 735.92   A 0.26 0.25 -76.1 0 1 838.64 735.53   L 851.13 714.71   Q 851.67 713.83 851.00 713.04   Q 848.52 710.11 845.09 708.50   A 1.57 1.57 0.0 0 1 844.20 706.87   Q 844.32 706.00 843.71 705.51   C 842.15 704.28 840.56 706.07 839.01 704.04   A 1.79 1.78 44.5 0 0 836.15 704.06   Q 826.02 717.81 816.96 734.52   Q 816.67 735.05 816.09 735.22   Q 815.39 735.42 814.67 735.41   Q 809.55 735.41 804.22 735.08   Q 803.69 735.04 803.38 735.47   Q 802.98 736.01 802.78 736.66   A 0.99 0.97 7.2 0 1 801.86 737.36   Q 800.22 737.40 798.72 737.77   Q 797.58 738.04 797.57 739.10   A 1.66 1.66 0.0 0 0 798.89 740.74   Q 800.47 741.06 801.94 740.82   Q 802.47 740.73 802.42 741.26   Q 801.77 748.18 800.00 754.63   Q 799.83 755.25 799.18 755.27   L 794.88 755.40   A 1.37 1.37 0.0 0 0 793.55 756.90   L 793.64 757.81   Q 793.76 759.02 794.98 759.07   L 798.46 759.22   A 0.51 0.51 0.0 0 1 798.93 759.87   Q 796.79 767.06 795.73 773.98   Q 795.60 774.81 794.75 774.82   L 789.61 774.84   Q 789.04 774.84 788.83 775.36   Q 788.69 775.69 788.84 776.02   Q 789.09 776.54 789.66 776.65   Q 792.00 777.07 794.08 776.88   Q 795.05 776.79 794.88 777.75   L 792.42 791.52   A 0.64 0.64 0.0 0 0 793.02 792.27   L 794.27 792.31   Q 794.94 792.33 795.04 791.66   Q 795.63 787.38 796.23 783.08   Q 796.24 782.97 796.35 783.00   L 796.64 783.10   Q 796.71 783.13 796.72 783.21   Q 796.94 787.62 795.69 791.57   Q 795.50 792.17 796.13 792.18   C 797.97 792.21 799.79 791.94 801.62 791.92   Q 823.79 791.68 846.99 791.63   Q 848.15 791.63 848.10 790.47   L 847.54 779.04   Q 847.46 777.46 845.87 777.46   L 830.68 777.54   Q 830.08 777.54 830.19 776.95   L 830.28 776.48   Q 830.39 775.86 831.02 775.86   L 847.33 775.77   A 0.61 0.59 81.4 0 1 847.90 776.20   C 849.41 781.30 849.80 786.83 851.52 791.89   Q 851.69 792.39 851.16 792.45   Q 846.78 792.94 842.51 793.11   C 816.54 794.16 792.31 793.37 764.51 792.33   A 0.68 0.67 -89.2 0 0 763.82 793.01   L 763.82 796.76   A 0.74 0.73 -90.0 0 1 763.09 797.50   Q 645.98 797.56 528.75 797.71   Q 518.74 797.72 508.75 797.78   Q 398.91 798.39 290.50 798.26   Q 267.02 798.23 235.24 798.70   Q 234.71 798.70 234.67 798.18   Q 233.24 777.86 217.40 766.75   C 211.19 762.40 203.19 759.92 195.41 759.96   A 0.51 0.50 -88.9 0 1 194.91 759.43   Q 195.15 752.32 195.26 744.75   Q 195.28 743.47 195.74 743.01   Q 212.40 726.23 227.62 708.81   Q 228.22 708.12 229.05 708.48   C 235.67 711.35 240.93 702.75 235.99 698.00   C 234.08 696.16 230.81 695.43 228.42 696.77   Q 223.89 699.31 225.18 705.06   Q 225.29 705.54 224.91 705.87   Q 223.62 706.99 222.53 708.07   Q 206.72 723.65 191.20 739.65   A 3.59 3.57 67.4 0 0 190.19 742.12   L 190.01 760.02   Q 190.00 760.29 189.74 760.33   C 169.93 763.40 157.15 778.66 156.37 798.48   Q 156.34 799.14 155.68 799.15   Q 113.62 799.67 71.09 800.90   C 68.87 800.96 66.76 800.35 64.57 800.46   Q 54.34 800.96 53.31 811.06   Q 52.64 817.65 51.52 823.79   Q 50.61 828.76 51.71 832.30   C 53.27 837.29 57.49 842.71 62.99 843.16   C 65.10 843.34 66.46 841.92 68.50 841.98   Q 84.20 842.42 98.00 842.52   Q 338.53 844.30 516.75 844.58   Q 700.57 844.86 901.85 844.86   Q 902.38 844.86 902.35 845.39   C 899.12 895.12 898.86 944.99 898.92 995.00   Q 898.94 1009.56 900.29 1024.00   L 0.00 1024.00   L 0.00 0.00   L 1024.00 0.00   Z   M 597.92 671.69   Q 597.89 671.14 598.43 671.14   Q 717.76 671.32 833.72 671.72   Q 837.16 671.73 840.65 671.41   Q 841.15 671.36 841.16 670.87   Q 842.28 621.26 842.23 593.97   Q 841.96 434.17 837.44 273.79   A 1.07 1.07 0.0 0 0 836.38 272.75   C 799.28 272.23 762.14 271.42 724.99 271.08   Q 587.73 269.84 450.47 268.73   C 376.84 268.13 303.16 268.69 229.25 269.22   C 208.99 269.36 188.62 268.97 168.45 268.79   A 0.47 0.47 0.0 0 0 167.97 269.26   L 168.46 669.20   Q 168.46 669.93 169.20 669.93   L 432.30 670.92   A 0.30 0.30 0.0 0 1 432.60 671.22   Q 432.83 727.94 435.36 784.00   Q 435.50 787.14 435.91 790.22   Q 435.98 790.72 436.49 790.72   Q 499.54 790.56 570.75 790.16   Q 587.18 790.07 603.01 789.70   A 0.56 0.56 0.0 0 0 603.55 789.12   Q 601.27 732.53 597.92 671.69   Z   M 124.05 702.23   A 5.08 5.08 0.0 0 0 118.97 697.15   A 5.08 5.08 0.0 0 0 113.89 702.23   A 5.08 5.08 0.0 0 0 118.97 707.31   A 5.08 5.08 0.0 0 0 124.05 702.23   Z   M 313.94 730.86   A 2.97 2.97 0.0 0 0 310.97 727.89   A 2.97 2.97 0.0 0 0 308.00 730.86   A 2.97 2.97 0.0 0 0 310.97 733.83   A 2.97 2.97 0.0 0 0 313.94 730.86   Z   M 718.2701 739.2806   A 3.06 2.92 85.5 0 0 720.9410 736.0009   A 3.06 2.92 85.5 0 0 717.7899 733.1794   A 3.06 2.92 85.5 0 0 715.1190 736.4591   A 3.06 2.92 85.5 0 0 718.2701 739.2806   Z   M 947.66 736.23   A 3.01 3.01 0.0 0 0 944.65 733.22   A 3.01 3.01 0.0 0 0 941.64 736.23   A 3.01 3.01 0.0 0 0 944.65 739.24   A 3.01 3.01 0.0 0 0 947.66 736.23   Z   M 136.2353 813.3472   A 1.41 1.41 0.0 0 0 134.6989 812.0762   L 134.5396 812.0912   A 1.41 1.41 0.0 0 0 133.2685 813.6277   L 133.5847 816.9728   A 1.41 1.41 0.0 0 0 135.1211 818.2438   L 135.2804 818.2288   A 1.41 1.41 0.0 0 0 136.5515 816.6923   L 136.2353 813.3472   Z   M 698.0952 816.5264   A 1.67 1.67 0.0 0 0 696.3735 814.9096   L 696.1936 814.9153   A 1.67 1.67 0.0 0 0 694.5769 816.6369   L 694.7848 823.2536   A 1.67 1.67 0.0 0 0 696.5065 824.8704   L 696.6864 824.8647   A 1.67 1.67 0.0 0 0 698.3031 823.1431   L 698.0952 816.5264   Z   M 961.5137 816.5034   A 1.39 1.39 0.0 0 0 960.0996 815.1378   L 959.7797 815.1434   A 1.39 1.39 0.0 0 0 958.4142 816.5575   L 958.5063 821.8366   A 1.39 1.39 0.0 0 0 959.9204 823.2022   L 960.2403 823.1966   A 1.39 1.39 0.0 0 0 961.6058 821.7825   L 961.5137 816.5034   Z   M 364.7600 830.7730   A 3.21 2.31 95.9 0 0 367.3878 827.8175   A 3.21 2.31 95.9 0 0 365.4200 824.3870   A 3.21 2.31 95.9 0 0 362.7922 827.3425   A 3.21 2.31 95.9 0 0 364.7600 830.7730   Z   M 123.26 990.59   Q 124.20 1007.67 126.04 1023.52   Q 126.07 1023.74 126.29 1023.73   L 126.63 1023.70   Q 126.97 1023.68 126.97 1023.33   C 125.69 967.66 124.49 912.22 122.26 856.75   Q 122.01 850.52 121.53 843.84   Q 121.51 843.56 121.23 843.56   L 120.94 843.57   A 0.54 0.53 -0.0 0 0 120.41 844.09   Q 119.02 893.93 120.71 936.59   Q 121.79 963.86 123.26 990.59   Z   M 133.09 873.95   Q 133.36 874.89 134.29 875.21   Q 134.55 875.30 134.82 875.27   Q 136.70 875.04 136.56 873.16   Q 136.21 868.46 134.44 862.96   Q 134.15 862.05 133.43 861.56   Q 131.92 860.54 131.66 862.34   Q 131.04 866.66 133.09 873.95   Z   M 828.85 865.87   L 828.81 866.23   Q 828.74 866.97 829.48 867.01   Q 843.43 867.86 856.91 866.71   Q 857.59 866.65 857.96 866.08   L 858.13 865.82   A 0.46 0.45 15.3 0 0 857.73 865.12   Q 844.22 865.63 829.93 864.94   Q 828.94 864.89 828.85 865.87   Z   M 159.9905 876.1760   A 5.46 2.05 78.8 0 0 160.9410 870.4218   A 5.46 2.05 78.8 0 0 157.8695 865.4640   A 5.46 2.05 78.8 0 0 156.9190 871.2182   A 5.46 2.05 78.8 0 0 159.9905 876.1760   Z   M 146.1796 867.7106   A 1.48 1.48 0.0 0 0 144.5325 866.4191   L 144.3736 866.4384   A 1.48 1.48 0.0 0 0 143.0822 868.0854   L 143.6804 873.0294   A 1.48 1.48 0.0 0 0 145.3275 874.3209   L 145.4864 874.3016   A 1.48 1.48 0.0 0 0 146.7778 872.6546   L 146.1796 867.7106   Z   M 854.52 871.09   C 846.68 872.00 840.22 873.05 831.61 873.20   A 0.81 0.80 3.9 0 0 830.84 873.87   Q 830.75 874.45 831.29 874.93   A 0.98 0.98 0.0 0 0 831.97 875.18   Q 844.25 874.77 854.88 872.23   Q 855.23 872.14 855.17 871.79   L 855.12 871.54   Q 855.03 871.03 854.52 871.09   Z   M 278.4793 883.8841   A 3.36 1.70 86.6 0 0 279.9770 880.4292   A 3.36 1.70 86.6 0 0 278.0807 877.1759   A 3.36 1.70 86.6 0 0 276.5830 880.6308   A 3.36 1.70 86.6 0 0 278.4793 883.8841   Z   M 293.9853 880.6113   A 1.49 1.49 0.0 0 0 292.3806 879.2456   L 292.2211 879.2584   A 1.49 1.49 0.0 0 0 290.8554 880.8631   L 291.2147 885.3287   A 1.49 1.49 0.0 0 0 292.8194 886.6944   L 292.9789 886.6816   A 1.49 1.49 0.0 0 0 294.3446 885.0769   L 293.9853 880.6113   Z   M 671.65 900.44   L 669.93 920.03   A 1.51 1.50 24.2 0 0 670.40 921.25   Q 671.52 922.30 672.33 921.37   Q 672.67 920.97 672.82 920.48   Q 675.36 912.20 675.41 904.11   Q 675.42 901.82 674.07 900.10   Q 673.67 899.59 673.04 899.44   Q 671.76 899.13 671.65 900.44   Z   M 185.10 937.45   Q 188.09 932.07 190.72 925.63   Q 191.28 924.25 191.19 922.84   A 0.99 0.99 0.0 0 0 189.57 922.14   Q 188.47 923.04 187.73 924.25   Q 184.21 930.05 181.71 935.68   Q 180.92 937.44 182.63 938.35   Q 182.80 938.44 182.98 938.47   Q 184.40 938.71 185.10 937.45   Z   M 791.26 944.72   C 795.73 943.16 795.81 926.98 792.62 924.59   A 1.29 1.28 31.5 0 0 790.69 925.05   C 789.04 928.43 788.20 941.68 790.29 944.43   Q 790.67 944.92 791.26 944.72   Z   M 490.3674 934.3349   A 2.91 1.75 93.4 0 0 492.2869 931.5338   A 2.91 1.75 93.4 0 0 490.7126 928.5251   A 2.91 1.75 93.4 0 0 488.7931 931.3262   A 2.91 1.75 93.4 0 0 490.3674 934.3349   Z   M 340.40 939.06   L 336.01 958.54   Q 335.90 959.06 336.39 959.28   Q 337.21 959.63 337.61 958.82   Q 341.12 951.64 343.53 941.02   Q 343.88 939.44 342.62 938.33   A 1.36 1.36 0.0 0 0 340.40 939.06   Z" />
<circle cx="208.86" cy="284.23" r="5.81" />
<circle cx="230.62" cy="284.57" r="5.82" />
<rect x="-6.69" y="-1.48" transform="translate(509.61,281.02) rotate(-2.9)" width="13.38" height="2.96" rx="1.31" />
<rect x="-4.23" y="-1.29" transform="translate(510.72,288.20) rotate(-1.3)" width="8.46" height="2.58" rx="1.23" />
<path d="   M 203.25 610.13   Q 202.57 610.12 202.57 609.44   L 201.23 302.07   Q 201.23 301.56 201.75 301.56   C 398.18 300.73 605.29 300.30 807.18 299.19   A 0.39 0.38 -0.0 0 1 807.57 299.57   C 808.79 404.20 809.91 508.88 809.73 613.53   A 0.60 0.60 0.0 0 1 809.13 614.13   C 607.17 613.08 405.20 612.16 203.25 610.13   Z   M 492.46 392.59   C 496.07 392.39 497.70 391.52 497.43 387.60   Q 495.13 354.53 490.91 325.89   C 490.37 322.24 489.94 319.90 485.30 319.65   Q 468.25 318.73 451.51 318.46   Q 417.12 317.90 384.46 317.58   C 381.36 317.55 378.57 317.88 378.39 321.72   Q 376.69 357.99 377.45 394.03   A 1.64 1.64 0.0 0 0 378.61 395.57   Q 380.46 396.14 382.50 396.13   Q 437.42 395.64 492.46 392.59   Z   M 673.68 400.99   Q 727.43 400.52 771.79 398.95   C 774.92 398.84 780.22 399.04 780.03 394.45   Q 778.68 363.45 773.25 326.68   C 772.90 324.29 771.49 322.81 769.03 322.65   Q 765.93 322.44 762.95 322.36   Q 722.57 321.22 663.83 321.45   Q 659.71 321.47 659.47 325.65   Q 658.97 334.43 660.32 360.36   Q 661.26 378.22 662.59 398.77   A 2.11 2.11 0.0 0 0 664.56 400.74   Q 669.14 401.03 673.68 400.99   Z   M 642.46 387.70   Q 640.14 354.67 635.42 327.31   Q 634.89 324.25 631.85 324.13   Q 585.03 322.20 531.92 321.84   Q 527.67 321.81 523.79 322.20   Q 523.30 322.25 522.94 322.59   Q 521.12 324.33 521.15 327.56   Q 521.56 367.14 524.09 399.58   Q 524.14 400.33 524.76 400.93   Q 525.64 401.81 527.01 401.81   Q 579.12 401.96 637.75 399.80   C 641.14 399.67 643.33 398.28 643.02 394.69   Q 642.69 390.97 642.46 387.70   Z   M 355.89 399.61   Q 358.10 398.57 357.95 396.00   Q 356.02 361.54 351.06 329.80   C 350.56 326.62 350.36 324.40 346.50 324.25   C 308.83 322.83 274.24 321.81 238.26 322.07   Q 233.38 322.11 233.30 326.49   C 232.92 349.32 234.81 375.87 236.31 400.40   A 1.83 1.81 6.9 0 0 237.61 402.04   Q 239.70 402.68 242.36 402.65   C 280.72 402.24 317.02 402.01 353.72 400.15   A 5.63 5.62 31.0 0 0 355.89 399.61   Z   M 456.58 410.83   A 7.48 7.48 0.0 0 0 449.10 403.35   A 7.48 7.48 0.0 0 0 441.62 410.83   A 7.48 7.48 0.0 0 0 449.10 418.31   A 7.48 7.48 0.0 0 0 456.58 410.83   Z   M 396.1900 407.7756   A 0.89 0.89 0.0 0 0 395.2969 406.8887   L 394.5569 406.8913   A 0.89 0.89 0.0 0 0 393.6700 407.7844   L 393.6900 413.5044   A 0.89 0.89 0.0 0 0 394.5831 414.3913   L 395.3231 414.3887   A 0.89 0.89 0.0 0 0 396.2100 413.4956   L 396.1900 407.7756   Z   M 422.3746 408.3323   A 0.68 0.68 0.0 0 0 421.6958 407.6511   L 420.4758 407.6489   A 0.68 0.68 0.0 0 0 419.7946 408.3278   L 419.7854 413.5877   A 0.68 0.68 0.0 0 0 420.4642 414.2689   L 421.6842 414.2711   A 0.68 0.68 0.0 0 0 422.3654 413.5922   L 422.3746 408.3323   Z   M 745.41 420.28   A 7.63 7.63 0.0 0 0 737.78 412.65   A 7.63 7.63 0.0 0 0 730.15 420.28   A 7.63 7.63 0.0 0 0 737.78 427.91   A 7.63 7.63 0.0 0 0 745.41 420.28   Z   M 694.31 421.90   A 7.57 7.57 0.0 0 0 686.74 414.33   A 7.57 7.57 0.0 0 0 679.17 421.90   A 7.57 7.57 0.0 0 0 686.74 429.47   A 7.57 7.57 0.0 0 0 694.31 421.90   Z   M 322.08 422.19   A 7.59 7.59 0.0 0 0 314.49 414.60   A 7.59 7.59 0.0 0 0 306.90 422.19   A 7.59 7.59 0.0 0 0 314.49 429.78   A 7.59 7.59 0.0 0 0 322.08 422.19   Z   M 559.57 422.11   A 7.52 7.52 0.0 0 0 552.05 414.59   A 7.52 7.52 0.0 0 0 544.53 422.11   A 7.52 7.52 0.0 0 0 552.05 429.63   A 7.52 7.52 0.0 0 0 559.57 422.11   Z   M 611.22 422.02   A 7.57 7.57 0.0 0 0 603.65 414.45   A 7.57 7.57 0.0 0 0 596.08 422.02   A 7.57 7.57 0.0 0 0 603.65 429.59   A 7.57 7.57 0.0 0 0 611.22 422.02   Z   M 271.75 422.55   A 7.51 7.51 0.0 0 0 264.24 415.04   A 7.51 7.51 0.0 0 0 256.73 422.55   A 7.51 7.51 0.0 0 0 264.24 430.06   A 7.51 7.51 0.0 0 0 271.75 422.55   Z   M 712.4812 418.6289   A 0.76 0.76 0.0 0 0 711.7093 417.8810   L 710.5095 417.8998   A 0.76 0.76 0.0 0 0 709.7615 418.6717   L 709.8388 423.5911   A 0.76 0.76 0.0 0 0 710.6107 424.3390   L 711.8105 424.3202   A 0.76 0.76 0.0 0 0 712.5585 423.5483   L 712.4812 418.6289   Z   M 578.7153 419.6262   A 0.73 0.73 0.0 0 0 577.9777 418.9039   L 576.7778 418.9165   A 0.73 0.73 0.0 0 0 576.0555 419.6541   L 576.1047 424.3538   A 0.73 0.73 0.0 0 0 576.8423 425.0761   L 578.0422 425.0635   A 0.73 0.73 0.0 0 0 578.7645 424.3259   L 578.7153 419.6262   Z   M 290.0653 420.1652   A 0.80 0.80 0.0 0 0 289.2433 419.3878   L 288.2836 419.4146   A 0.80 0.80 0.0 0 0 287.5063 420.2366   L 287.6347 424.8348   A 0.80 0.80 0.0 0 0 288.4567 425.6122   L 289.4164 425.5854   A 0.80 0.80 0.0 0 0 290.1937 424.7634   L 290.0653 420.1652   Z   M 330.26 559.98   Q 337.38 560.55 343.73 560.91   C 347.35 561.12 351.20 559.92 351.16 555.67   Q 350.58 493.71 347.66 450.65   Q 347.46 447.75 344.72 447.74   Q 327.41 447.71 306.85 448.39   Q 269.75 449.62 229.59 451.25   Q 226.94 451.35 224.35 451.62   C 221.18 451.94 220.99 457.49 220.86 459.88   Q 218.71 499.89 218.38 552.26   C 218.37 554.44 220.07 555.74 222.17 555.78   Q 248.77 556.29 274.10 556.75   Q 294.50 557.12 330.26 559.98   Z   M 774.49 447.93   C 740.49 447.64 702.99 449.11 667.24 450.89   C 663.39 451.08 663.07 454.61 662.57 457.84   Q 662.30 459.63 662.16 461.85   Q 659.41 505.14 658.94 548.75   Q 658.87 554.47 659.04 560.26   Q 659.14 563.61 662.47 564.02   Q 666.63 564.53 670.66 564.73   C 690.35 565.73 710.88 566.13 730.89 567.77   Q 751.34 569.45 774.47 570.65   C 780.75 570.98 780.86 566.72 780.83 562.00   Q 780.49 508.62 777.52 451.46   Q 777.34 447.95 774.49 447.93   Z   M 542.62 558.22   C 572.53 560.49 601.50 563.00 632.25 565.26   C 636.55 565.58 642.53 565.95 642.57 560.75   Q 642.96 509.18 640.40 453.76   Q 640.28 451.05 638.23 450.86   Q 634.60 450.53 631.00 450.45   Q 576.52 449.33 526.74 450.09   Q 521.83 450.16 521.35 455.24   C 518.39 486.36 517.62 518.06 517.76 552.18   Q 517.77 555.49 520.77 555.95   Q 528.85 557.17 542.62 558.22   Z   M 427.91 559.98   C 447.32 560.85 471.65 563.54 495.10 564.85   C 499.16 565.08 502.16 563.89 502.08 559.26   Q 501.29 509.02 498.35 457.11   C 498.17 453.78 498.42 451.06 494.64 450.96   Q 438.41 449.48 382.39 450.14   C 379.51 450.18 375.60 449.74 374.76 453.44   Q 373.89 457.26 373.56 462.27   Q 370.57 507.49 371.35 551.06   Q 371.39 553.32 372.03 554.98   A 1.17 1.15 -0.4 0 0 372.74 555.67   Q 375.10 556.52 377.46 556.72   Q 403.13 558.86 427.91 559.98   Z   M 557.98 573.92   A 7.47 7.47 0.0 0 0 550.51 566.45   A 7.47 7.47 0.0 0 0 543.04 573.92   A 7.47 7.47 0.0 0 0 550.51 581.39   A 7.47 7.47 0.0 0 0 557.98 573.92   Z   M 265.36 574.47   A 7.47 7.47 0.0 0 0 257.89 567.00   A 7.47 7.47 0.0 0 0 250.42 574.47   A 7.47 7.47 0.0 0 0 257.89 581.94   A 7.47 7.47 0.0 0 0 265.36 574.47   Z   M 317.45 574.80   A 7.44 7.44 0.0 0 0 310.01 567.36   A 7.44 7.44 0.0 0 0 302.57 574.80   A 7.44 7.44 0.0 0 0 310.01 582.24   A 7.44 7.44 0.0 0 0 317.45 574.80   Z   M 418.61 574.70   A 7.44 7.44 0.0 0 0 411.17 567.26   A 7.44 7.44 0.0 0 0 403.73 574.70   A 7.44 7.44 0.0 0 0 411.17 582.14   A 7.44 7.44 0.0 0 0 418.61 574.70   Z   M 467.93 574.90   A 7.42 7.42 0.0 0 0 460.51 567.48   A 7.42 7.42 0.0 0 0 453.09 574.90   A 7.42 7.42 0.0 0 0 460.51 582.32   A 7.42 7.42 0.0 0 0 467.93 574.90   Z   M 609.47 575.06   A 7.38 7.38 0.0 0 0 602.09 567.68   A 7.38 7.38 0.0 0 0 594.71 575.06   A 7.38 7.38 0.0 0 0 602.09 582.44   A 7.38 7.38 0.0 0 0 609.47 575.06   Z   M 282.6090 571.4708   A 0.46 0.46 0.0 0 0 282.1379 571.0222   L 280.5984 571.0598   A 0.46 0.46 0.0 0 0 280.1498 571.5309   L 280.2910 577.3092   A 0.46 0.46 0.0 0 0 280.7621 577.7578   L 282.3016 577.7202   A 0.46 0.46 0.0 0 0 282.7502 577.2491   L 282.6090 571.4708   Z   M 575.4415 571.4951   A 0.59 0.59 0.0 0 0 574.8393 570.9175   L 573.5796 570.9439   A 0.59 0.59 0.0 0 0 573.0020 571.5462   L 573.1185 577.1049   A 0.59 0.59 0.0 0 0 573.7207 577.6825   L 574.9804 577.6561   A 0.59 0.59 0.0 0 0 575.5580 577.0538   L 575.4415 571.4951   Z   M 435.7611 571.8973   A 0.57 0.57 0.0 0 0 435.1852 571.3333   L 433.8653 571.3471   A 0.57 0.57 0.0 0 0 433.3013 571.9230   L 433.3589 577.4227   A 0.57 0.57 0.0 0 0 433.9348 577.9867   L 435.2547 577.9729   A 0.57 0.57 0.0 0 0 435.8187 577.3970   L 435.7611 571.8973   Z   M 701.46 581.07   A 7.52 7.52 0.0 0 0 693.94 573.55   A 7.52 7.52 0.0 0 0 686.42 581.07   A 7.52 7.52 0.0 0 0 693.94 588.59   A 7.52 7.52 0.0 0 0 701.46 581.07   Z   M 752.40 582.58   A 7.45 7.45 0.0 0 0 744.95 575.13   A 7.45 7.45 0.0 0 0 737.50 582.58   A 7.45 7.45 0.0 0 0 744.95 590.03   A 7.45 7.45 0.0 0 0 752.40 582.58   Z   M 718.5115 577.6792   A 0.49 0.49 0.0 0 0 718.0055 577.2057   L 716.4264 577.2581   A 0.49 0.49 0.0 0 0 715.9529 577.7641   L 716.1485 583.6608   A 0.49 0.49 0.0 0 0 716.6545 584.1343   L 718.2336 584.0819   A 0.49 0.49 0.0 0 0 718.7071 583.5759   L 718.5115 577.6792   Z" />
<path d="   M 487.19 323.58   Q 490.33 354.28 495.43 388.12   Q 495.70 389.92 493.90 390.16   Q 491.76 390.44 489.42 390.48   Q 435.19 391.38 381.36 392.58   A 0.91 0.91 0.0 0 1 380.43 391.63   Q 381.90 357.09 382.02 321.93   A 0.57 0.57 0.0 0 1 382.60 321.37   L 487.02 323.43   Q 487.17 323.43 487.19 323.58   Z   M 424.48 356.34   Q 426.18 362.10 427.71 367.94   Q 428.17 369.70 428.93 371.32   A 1.81 1.81 0.0 0 0 432.19 371.39   Q 432.59 370.62 432.92 369.69   Q 437.23 357.68 441.57 346.86   A 0.55 0.55 0.0 0 1 442.55 346.79   C 443.72 348.73 446.00 351.49 448.59 351.06   Q 449.09 350.97 449.37 350.56   L 451.74 347.08   A 0.73 0.73 0.0 0 1 452.91 347.03   L 455.51 350.25   A 1.69 1.69 0.0 0 0 458.33 349.97   C 459.63 347.44 460.33 343.85 462.36 341.89   A 0.60 0.59 -37.3 0 1 463.29 342.01   C 465.20 345.29 466.35 348.13 471.16 347.22   Q 472.39 346.98 472.81 345.80   L 472.92 345.47   Q 473.36 344.22 472.03 344.25   L 468.90 344.33   A 1.79 1.79 0.0 0 1 467.32 343.47   Q 466.14 341.55 465.03 339.45   C 463.94 337.38 461.52 336.64 460.37 339.25   Q 458.71 343.01 456.96 346.11   A 0.64 0.64 0.0 0 1 455.89 346.17   C 454.82 344.74 453.59 341.44 451.22 343.97   Q 449.52 345.79 448.20 347.73   Q 447.74 348.40 447.20 347.80   L 443.33 343.48   A 1.74 1.74 0.0 0 0 440.57 343.68   Q 439.04 346.01 437.84 348.91   Q 434.47 357.08 431.00 365.94   Q 430.44 367.35 430.10 365.87   Q 428.37 358.36 425.83 350.34   A 1.80 1.80 0.0 0 0 422.49 350.10   Q 421.51 352.13 420.85 354.44   Q 418.66 362.11 416.66 370.10   Q 416.39 371.20 416.04 370.13   Q 414.82 366.46 413.39 362.69   C 412.42 360.12 409.64 360.66 408.33 362.50   Q 407.35 363.87 406.36 365.30   Q 405.47 366.59 405.21 365.04   Q 404.35 359.73 403.32 354.36   Q 402.92 352.32 401.81 350.58   A 1.62 1.61 -45.4 0 0 399.08 350.60   L 392.86 360.59   A 1.28 1.25 59.6 0 0 392.68 361.31   Q 392.76 362.60 393.40 362.74   Q 395.10 363.11 395.93 361.81   Q 397.56 359.23 399.21 356.45   Q 400.48 354.32 400.81 356.78   Q 401.51 361.99 402.29 367.20   Q 402.56 369.04 403.66 370.42   A 1.53 1.53 0.0 0 0 406.03 370.45   L 409.98 365.71   Q 410.60 364.96 411.03 365.84   Q 413.20 370.35 414.72 375.14   Q 415.17 376.58 416.35 377.37   A 1.29 1.28 24.4 0 0 418.31 376.64   L 423.59 356.36   Q 424.01 354.76 424.48 356.34   Z" />
<path d="   M 665.76 396.81   L 663.15 325.72   A 0.66 0.66 0.0 0 1 663.81 325.04   L 768.98 326.11   A 0.66 0.66 0.0 0 1 769.63 326.70   L 777.63 394.32   A 0.66 0.66 0.0 0 1 776.99 395.06   L 666.43 397.45   A 0.66 0.66 0.0 0 1 665.76 396.81   Z   M 713.98 374.02   Q 713.56 372.25 713.39 370.45   Q 712.40 359.92 710.31 350.61   Q 710.08 349.54 709.60 348.50   Q 709.38 348.02 708.86 347.91   Q 707.08 347.55 706.49 349.31   Q 703.07 359.52 700.83 368.82   Q 700.61 369.74 700.22 368.88   Q 698.52 365.15 696.19 361.00   C 695.12 359.10 692.77 359.10 691.46 360.72   Q 689.69 362.91 688.12 365.21   Q 687.31 366.41 687.15 364.98   C 686.78 361.82 686.43 355.61 684.79 353.22   A 1.55 1.55 0.0 0 0 682.19 353.30   Q 679.16 358.32 676.87 363.41   Q 676.48 364.27 676.65 365.29   Q 676.71 365.63 677.00 365.84   A 0.90 0.90 0.0 0 0 678.32 365.54   L 682.19 358.42   Q 682.77 357.36 682.95 358.56   Q 683.70 363.53 684.13 368.49   C 684.29 370.35 686.11 371.36 687.67 370.11   Q 691.56 366.99 693.20 363.40   A 0.60 0.60 0.0 0 1 694.28 363.39   Q 696.34 367.69 698.30 371.93   Q 699.01 373.46 700.31 374.40   Q 701.97 375.60 702.50 373.63   L 707.35 355.76   Q 707.67 354.60 708.03 355.75   Q 708.72 357.93 709.00 360.19   Q 710.13 369.36 711.35 378.76   Q 711.57 380.49 712.24 382.14   A 1.27 1.26 -42.4 0 0 714.53 382.24   Q 715.69 380.02 716.42 377.22   Q 719.85 364.04 723.21 351.17   Q 723.54 349.91 723.78 351.19   Q 724.93 357.28 726.21 362.81   Q 726.63 364.65 727.72 365.64   A 2.01 2.00 -52.6 0 0 730.76 365.23   Q 732.55 362.42 735.19 360.12   A 0.83 0.83 0.0 0 1 736.54 360.52   L 739.31 370.11   A 1.66 1.66 0.0 0 0 742.21 370.68   Q 742.88 369.82 743.24 368.80   Q 746.01 360.79 749.41 352.06   Q 750.12 350.25 750.67 352.11   C 751.36 354.41 751.83 358.07 755.01 357.92   Q 757.42 357.81 759.54 356.87   A 1.75 1.73 79.7 0 0 760.56 355.38   Q 760.67 353.49 759.65 353.69   Q 757.61 354.08 755.80 354.74   A 1.32 1.32 0.0 0 1 754.07 353.80   C 753.58 351.75 752.84 348.11 751.32 346.46   A 1.54 1.54 0.0 0 0 748.84 346.75   Q 744.64 354.29 741.50 364.24   Q 741.19 365.21 740.85 364.25   C 739.91 361.57 739.39 358.03 737.50 355.92   A 2.06 2.05 44.1 0 0 734.40 355.96   L 729.84 361.36   A 0.38 0.38 0.0 0 1 729.20 361.26   Q 728.41 359.39 728.15 357.65   Q 726.99 350.11 724.81 344.09   A 1.43 1.43 0.0 0 0 722.38 343.64   Q 721.43 344.74 721.02 346.43   Q 718.14 358.50 715.24 369.83   C 714.88 371.26 714.91 372.63 714.38 374.04   Q 714.14 374.67 713.98 374.02   Z" />
<path d="   M 640.29 395.99   L 527.82 398.38   Q 526.96 398.39 526.95 397.53   Q 526.47 363.51 524.69 326.41   A 0.67 0.66 86.0 0 1 525.29 325.71   Q 527.64 325.47 529.67 325.51   Q 582.88 326.58 631.63 326.47   Q 632.12 326.47 632.17 326.96   Q 634.92 354.56 639.75 388.04   Q 640.29 391.79 640.59 395.66   A 0.31 0.30 88.2 0 1 640.29 395.99   Z   M 598.92 336.76   Q 599.38 333.61 596.06 333.86   A 1.28 1.25 10.1 0 0 595.02 334.57   L 593.44 337.91   A 0.86 0.86 0.0 0 1 592.07 338.16   Q 591.06 337.22 589.71 337.20   A 0.63 0.63 0.0 0 1 589.08 336.54   L 589.19 334.44   Q 589.22 333.92 588.69 333.93   L 585.75 334.00   A 1.15 1.14 -75.9 0 0 584.79 334.58   L 583.10 337.61   Q 582.81 338.12 582.95 338.69   C 584.14 343.37 580.56 343.20 577.42 342.80   Q 576.72 342.71 576.84 342.01   L 577.32 339.21   Q 577.40 338.76 577.84 338.87   Q 578.54 339.04 579.29 339.01   Q 580.69 338.95 580.79 337.73   Q 580.83 337.19 580.40 336.87   Q 579.22 336.00 578.59 334.69   Q 578.34 334.19 577.80 334.05   C 575.50 333.47 574.51 335.19 573.91 336.97   Q 573.73 337.49 573.19 337.50   Q 571.24 337.52 569.36 336.96   C 566.44 336.08 565.90 337.95 565.19 340.24   Q 558.65 361.28 551.78 382.83   Q 551.40 384.04 552.66 384.19   Q 554.87 384.46 557.16 384.54   Q 574.33 385.10 592.03 385.56   A 0.81 0.80 -80.5 0 0 592.82 384.99   L 607.06 338.69   A 0.61 0.60 -73.5 0 0 606.65 337.93   Q 603.02 336.88 599.36 337.23   Q 598.84 337.28 598.92 336.76   Z" />
<path d="   M 347.20 326.86   C 349.15 349.46 352.33 372.05 355.45 395.16   Q 355.63 396.47 354.30 396.50   L 240.46 399.01   A 1.05 1.04 -1.1 0 1 239.39 397.99   Q 238.60 363.58 236.80 326.65   A 0.70 0.70 0.0 0 1 237.40 325.91   Q 238.82 325.71 240.01 325.73   C 275.28 326.10 311.32 326.71 346.91 326.60   Q 347.18 326.60 347.20 326.86   Z   M 311.09 348.11   Q 315.99 348.83 320.92 349.61   A 1.74 1.66 -50.8 0 0 321.82 349.50   Q 324.12 348.52 321.61 347.48   A 1.59 0.96 -13.9 0 0 321.35 347.40   Q 302.43 343.41 282.76 344.72   Q 273.59 345.34 264.06 346.19   Q 263.59 346.23 263.59 346.70   L 263.58 347.50   A 0.55 0.55 0.0 0 0 264.18 348.05   C 280.27 346.78 295.98 345.88 311.09 348.11   Z   M 256.68 348.84   C 257.88 349.49 259.42 350.21 260.55 348.94   Q 260.93 348.51 260.50 348.14   C 258.24 346.20 254.42 343.82 251.38 345.47   A 0.83 0.82 -48.2 0 0 251.46 346.96   C 253.19 347.66 255.02 347.93 256.68 348.84   Z   M 308.31 360.16   Q 316.86 361.64 326.60 363.93   A 0.67 0.65 23.5 0 0 327.29 363.67   Q 327.58 363.25 327.40 362.83   Q 327.04 361.99 326.15 361.78   Q 304.17 356.67 281.86 354.12   Q 272.41 353.04 262.90 352.89   A 0.94 0.93 7.6 0 0 261.96 353.60   L 261.86 354.01   A 0.59 0.59 0.0 0 0 262.42 354.75   C 277.77 355.11 293.08 357.51 308.31 360.16   Z   M 260.1516 358.8908   A 4.26 1.55 7.7 0 0 256.1377 356.7840   A 4.26 1.55 7.7 0 0 251.7084 357.7492   A 4.26 1.55 7.7 0 0 255.7223 359.8560   A 4.26 1.55 7.7 0 0 260.1516 358.8908   Z   M 265.71 361.59   Q 280.58 364.91 290.97 368.73   Q 291.94 369.08 292.55 368.25   Q 293.18 367.39 288.97 365.52   Q 288.26 365.20 287.53 364.92   Q 277.07 360.90 266.68 359.65   A 1.51 1.48 22.6 0 0 265.36 360.18   Q 264.96 360.66 265.29 361.27   A 0.61 0.60 -7.0 0 0 265.71 361.59   Z" />
<path d="   M 592.03 342.96   L 586.97 342.85   A 0.67 0.67 0.0 0 1 586.34 341.99   L 587.20 339.14   A 0.67 0.67 0.0 0 1 587.92 338.66   L 592.47 339.19   A 0.67 0.67 0.0 0 1 593.05 339.95   L 592.70 342.38   A 0.67 0.67 0.0 0 1 592.03 342.96   Z" />
<path d="   M 597.82 338.97   Q 600.22 339.44 602.99 339.15   Q 604.15 339.03 603.95 340.17   Q 603.78 341.14 603.07 342.20   Q 602.52 343.01 601.54 342.97   L 597.11 342.76   A 0.93 0.93 0.0 0 1 596.27 341.55   L 596.91 339.51   Q 597.13 338.84 597.82 338.97   Z" />
<path d="   M 572.33 342.65   L 567.62 342.68   A 0.34 0.34 0.0 0 1 567.30 342.22   L 568.29 339.59   A 0.34 0.34 0.0 0 1 568.60 339.37   L 573.32 339.32   A 0.34 0.34 0.0 0 1 573.64 339.78   L 572.64 342.43   A 0.34 0.34 0.0 0 1 572.33 342.65   Z" />
<path d="   M 566.23 344.80   L 601.53 345.04   A 0.50 0.50 0.0 0 1 602.00 345.70   Q 595.69 364.34 590.88 382.76   A 0.47 0.47 0.0 0 1 590.41 383.12   L 555.03 381.98   A 0.33 0.32 10.6 0 1 554.73 381.55   Q 560.70 364.05 565.86 345.08   Q 565.94 344.80 566.23 344.80   Z   M 573.9809 354.8496   A 1.16 1.16 0.0 0 0 573.1855 353.4148   L 573.1086 353.3928   A 1.16 1.16 0.0 0 0 571.6738 354.1881   L 568.5591 365.0504   A 1.16 1.16 0.0 0 0 569.3545 366.4852   L 569.4314 366.5072   A 1.16 1.16 0.0 0 0 570.8662 365.7119   L 573.9809 354.8496   Z   M 577.88 366.71   L 581.53 354.30   A 0.20 0.20 0.0 0 0 581.40 354.05   L 580.80 353.87   A 3.82 1.90 -73.6 0 0 577.90 357.00   L 576.29 362.47   A 3.82 1.90 -73.6 0 0 577.03 366.67   L 577.63 366.85   A 0.20 0.20 0.0 0 0 577.88 366.71   Z   M 589.8173 355.3072   A 1.14 1.14 0.0 0 0 589.0455 353.8917   L 588.9880 353.8748   A 1.14 1.14 0.0 0 0 587.5725 354.6465   L 584.5627 364.8728   A 1.14 1.14 0.0 0 0 585.3345 366.2883   L 585.3920 366.3052   A 1.14 1.14 0.0 0 0 586.8075 365.5335   L 589.8173 355.3072   Z" />
<path d="   M 295.98 553.56   Q 260.21 552.42 223.01 553.93   Q 221.56 553.99 221.26 552.57   Q 221.04 551.56 221.14 550.46   Q 225.26 506.03 223.39 460.62   C 223.31 458.78 223.51 456.74 223.63 454.85   Q 223.72 453.47 225.10 453.46   Q 285.05 453.33 343.75 451.61   A 0.97 0.97 0.0 0 1 344.74 452.57   Q 345.35 505.52 347.11 555.85   A 0.98 0.97 -88.7 0 1 346.07 556.85   C 328.76 555.53 312.68 554.10 295.98 553.56   Z   M 269.16 492.22   A 7.14 7.14 0.0 0 0 262.02 485.08   A 7.14 7.14 0.0 0 0 254.88 492.22   A 7.14 7.14 0.0 0 0 262.02 499.36   A 7.14 7.14 0.0 0 0 269.16 492.22   Z   M 286.05 514.25   A 1.56 1.55 -18.4 0 1 284.19 513.32   C 281.61 506.81 277.37 501.33 270.89 498.49   Q 270.14 498.16 269.64 498.81   Q 269.48 499.00 269.47 499.25   Q 269.40 500.27 270.30 500.75   C 277.03 504.39 279.43 508.89 282.61 515.14   C 285.46 520.76 291.40 511.48 295.62 517.33   C 298.56 521.40 301.32 528.02 307.70 523.65   Q 312.78 520.17 316.83 515.14   A 0.88 0.87 43.1 0 0 316.79 514.01   Q 316.64 513.84 316.42 513.79   Q 315.17 513.53 314.27 514.40   C 311.60 516.98 308.21 521.07 304.66 522.28   A 2.68 2.67 -27.7 0 1 301.66 521.35   C 298.60 517.27 295.60 511.55 289.46 513.29   Q 287.76 513.77 286.05 514.25   Z   M 331.48 505.55   A 7.24 7.24 0.0 0 0 324.24 498.31   A 7.24 7.24 0.0 0 0 317.00 505.55   A 7.24 7.24 0.0 0 0 324.24 512.79   A 7.24 7.24 0.0 0 0 331.48 505.55   Z   M 257.9967 503.4717   A 1.10 1.10 0.0 0 0 257.7266 501.9397   L 257.6938 501.9168   A 1.10 1.10 0.0 0 0 256.1618 502.1869   L 230.6033 538.6883   A 1.10 1.10 0.0 0 0 230.8734 540.2203   L 230.9062 540.2432   A 1.10 1.10 0.0 0 0 232.4382 539.9731   L 257.9967 503.4717   Z   M 327.8874 517.6274   A 1.09 1.09 0.0 0 0 326.5859 516.8015   L 326.5469 516.8102   A 1.09 1.09 0.0 0 0 325.7209 518.1117   L 331.8726 545.6326   A 1.09 1.09 0.0 0 0 333.1741 546.4585   L 333.2131 546.4498   A 1.09 1.09 0.0 0 0 334.0391 545.1483   L 327.8874 517.6274   Z" />
<path d="   M 734.60 564.01   Q 703.71 562.61 666.22 562.56   Q 664.51 562.56 662.97 562.26   A 1.55 1.55 0.0 0 1 661.70 560.76   Q 661.65 557.74 661.92 554.75   C 664.67 523.76 664.98 492.79 664.73 461.57   Q 664.70 458.19 665.08 454.67   A 1.92 1.91 2.7 0 1 666.97 452.96   L 774.05 451.79   A 0.57 0.56 -0.5 0 1 774.62 452.34   Q 775.68 508.07 777.25 565.60   Q 777.27 566.25 776.61 566.72   A 1.11 1.09 28.7 0 1 775.84 566.94   Q 751.02 564.76 734.60 564.01   Z   M 766.5070 470.1776   A 1.02 1.02 0.0 0 0 766.4189 468.7378   L 766.4039 468.7245   A 1.02 1.02 0.0 0 0 764.9641 468.8126   L 739.4930 497.6024   A 1.02 1.02 0.0 0 0 739.5811 499.0422   L 739.5961 499.0555   A 1.02 1.02 0.0 0 0 741.0359 498.9674   L 766.5070 470.1776   Z   M 724.56 506.16   Q 724.18 506.46 723.73 506.61   C 718.86 508.18 717.29 518.31 713.46 521.52   A 1.06 1.06 0.0 0 1 711.88 521.28   C 709.32 517.25 707.74 512.54 701.71 513.44   Q 697.52 514.07 693.31 514.59   A 0.99 0.98 76.8 0 0 692.51 515.89   Q 692.70 516.41 693.08 516.79   A 1.67 1.65 59.5 0 0 694.70 517.22   Q 699.15 515.99 703.05 515.78   C 705.94 515.63 707.95 519.61 709.13 521.79   C 710.87 525.03 714.45 525.44 716.45 522.18   C 719.61 517.00 721.20 512.01 725.33 506.94   Q 725.75 506.43 726.31 506.78   C 730.56 509.50 736.58 508.05 738.26 503.00   C 740.23 497.05 734.87 491.23 728.91 492.64   C 723.00 494.04 721.14 500.62 724.67 505.33   Q 725.02 505.80 724.56 506.16   Z   M 694.20 505.89   A 7.19 7.19 0.0 0 0 687.01 498.70   A 7.19 7.19 0.0 0 0 679.82 505.89   A 7.19 7.19 0.0 0 0 687.01 513.08   A 7.19 7.19 0.0 0 0 694.20 505.89   Z   M 684.6695 518.6737   A 1.10 1.10 0.0 0 0 684.1527 517.2064   L 684.1167 517.1891   A 1.10 1.10 0.0 0 0 682.6494 517.7058   L 668.3905 547.4663   A 1.10 1.10 0.0 0 0 668.9073 548.9336   L 668.9433 548.9509   A 1.10 1.10 0.0 0 0 670.4106 548.4342   L 684.6695 518.6737   Z" />
<path d="   M 383.76 540.64   L 383.77 540.91   A 0.46 0.45 77.1 0 0 384.40 541.31   Q 396.44 536.02 408.29 531.36   C 409.20 531.00 410.08 530.39 410.78 529.71   Q 411.21 529.28 411.67 529.68   C 416.14 533.57 422.62 532.38 424.58 527.03   Q 424.80 526.45 425.40 526.61   C 434.35 528.99 443.86 530.00 450.81 524.24   Q 451.63 523.57 452.39 524.30   Q 455.44 527.24 459.50 526.22   A 1.00 1.00 0.0 0 1 460.74 527.19   L 460.70 557.82   A 0.45 0.45 0.0 0 1 460.22 558.27   C 432.95 556.34 403.91 556.28 375.69 554.79   Q 374.24 554.71 373.99 553.27   Q 373.80 552.12 373.88 551.01   C 375.96 520.54 376.21 488.49 376.18 458.32   Q 376.18 455.92 376.68 453.59   A 1.50 1.50 0.0 0 1 378.17 452.41   L 494.46 454.64   A 0.79 0.79 0.0 0 1 495.23 455.42   Q 496.29 506.01 498.42 559.41   Q 498.48 560.87 497.03 561.00   Q 495.85 561.12 494.25 560.99   Q 477.70 559.64 462.60 558.50   A 0.47 0.46 -88.0 0 1 462.17 558.03   L 462.12 527.50   Q 462.12 526.77 462.77 527.09   Q 464.16 527.78 465.29 529.02   Q 472.67 537.13 478.70 545.16   Q 479.57 546.32 480.76 547.39   Q 481.03 547.63 481.37 547.78   Q 481.91 548.01 482.10 547.72   Q 482.26 547.47 482.14 547.20   C 481.53 545.82 480.45 544.88 479.58 543.70   Q 472.47 534.04 463.44 525.03   Q 462.98 524.58 463.41 524.10   Q 468.49 518.41 462.59 512.07   A 1.83 1.80 -67.5 0 1 462.10 510.85   L 461.78 489.47   A 0.32 0.31 0.0 0 1 462.11 489.15   Q 466.79 489.30 471.35 489.27   C 473.99 489.25 476.69 488.92 476.86 485.58   C 477.05 482.03 477.14 478.28 476.38 474.77   C 476.02 473.10 474.35 472.43 472.81 472.44   Q 460.08 472.53 447.08 472.76   Q 445.60 472.79 444.18 473.24   A 1.29 1.28 -86.2 0 0 443.38 473.95   Q 442.83 475.16 442.82 476.58   Q 442.79 481.97 443.02 486.59   A 2.62 2.61 88.6 0 0 445.62 489.07   L 460.07 489.17   A 0.41 0.40 0.7 0 1 460.47 489.57   L 460.66 510.32   Q 460.67 511.41 459.59 511.21   Q 452.61 509.91 450.16 515.91   C 449.41 517.73 449.91 519.85 450.26 521.75   Q 450.36 522.30 449.93 522.64   C 442.83 528.25 434.77 527.33 426.01 525.27   Q 425.43 525.13 425.43 524.54   C 425.38 517.30 416.12 513.18 411.16 519.08   Q 407.85 523.01 410.41 528.01   Q 410.70 528.57 410.10 528.79   Q 398.04 533.29 384.47 539.50   Q 383.74 539.84 383.76 540.64   Z   M 428.46 478.04   A 10.92 10.92 0.0 0 0 417.54 467.12   A 10.92 10.92 0.0 0 0 406.62 478.04   A 10.92 10.92 0.0 0 0 417.54 488.96   A 10.92 10.92 0.0 0 0 428.46 478.04   Z" />
<path d="   M 527.28 504.48   L 527.31 504.74   A 0.66 0.66 0.0 0 0 527.98 505.32   Q 539.78 505.23 551.44 505.02   C 557.84 504.90 562.23 504.32 567.25 500.53   C 572.00 496.95 576.39 492.61 581.98 490.31   C 589.68 487.13 595.34 491.90 601.76 495.44   C 610.48 500.24 618.40 497.99 625.63 492.14   Q 631.09 487.73 636.71 482.76   A 0.64 0.63 -21.3 0 1 637.77 483.22   L 639.00 560.27   A 1.49 1.49 0.0 0 1 637.40 561.78   C 620.68 560.56 603.78 558.95 587.03 558.06   Q 555.42 556.37 524.00 554.76   Q 522.50 554.68 521.15 554.24   Q 520.65 554.08 520.54 553.57   Q 520.22 552.01 520.32 550.62   Q 522.71 520.18 523.01 488.66   Q 523.16 472.48 523.34 456.17   Q 523.36 454.52 523.96 453.10   Q 524.16 452.62 524.67 452.55   Q 526.24 452.32 527.75 452.35   Q 584.18 453.55 636.77 454.17   A 0.60 0.59 0.0 0 1 637.36 454.75   L 637.73 479.78   Q 637.74 480.29 637.35 480.61   Q 629.06 487.40 621.83 493.02   C 613.01 499.87 604.09 495.82 595.75 490.42   C 584.91 483.40 574.73 492.53 566.93 498.98   Q 561.63 503.37 554.75 503.60   Q 542.69 504.00 527.62 504.09   A 0.35 0.34 86.3 0 0 527.28 504.48   Z   M 556.48 473.15   A 10.94 10.94 0.0 0 0 545.54 462.21   A 10.94 10.94 0.0 0 0 534.60 473.15   A 10.94 10.94 0.0 0 0 545.54 484.09   A 10.94 10.94 0.0 0 0 556.48 473.15   Z   M 587.7891 498.6586   A 0.69 0.69 0.0 0 0 587.0979 497.9698   L 586.8179 497.9703   A 0.69 0.69 0.0 0 0 586.1291 498.6615   L 586.2109 545.5814   A 0.69 0.69 0.0 0 0 586.9021 546.2702   L 587.1821 546.2697   A 0.69 0.69 0.0 0 0 587.8709 545.5785   L 587.7891 498.6586   Z   M 605.1635 503.4873   A 0.57 0.57 0.0 0 0 604.5915 502.9193   L 604.1315 502.9209   A 0.57 0.57 0.0 0 0 603.5635 503.4929   L 603.6965 541.6127   A 0.57 0.57 0.0 0 0 604.2685 542.1807   L 604.7285 542.1791   A 0.57 0.57 0.0 0 0 605.2965 541.6071   L 605.1635 503.4873   Z   M 622.5221 503.7586   A 0.78 0.78 0.0 0 0 621.7407 502.9799   L 621.6207 502.9801   A 0.78 0.78 0.0 0 0 620.8421 503.7615   L 620.9179 547.1814   A 0.78 0.78 0.0 0 0 621.6993 547.9601   L 621.8193 547.9599   A 0.78 0.78 0.0 0 0 622.5979 547.1785   L 622.5221 503.7586   Z   M 571.4215 508.7786   A 0.66 0.66 0.0 0 0 570.7603 508.1197   L 570.4203 508.1203   A 0.66 0.66 0.0 0 0 569.7615 508.7815   L 569.8185 541.4814   A 0.66 0.66 0.0 0 0 570.4797 542.1403   L 570.8197 542.1397   A 0.66 0.66 0.0 0 0 571.4785 541.4785   L 571.4215 508.7786   Z   M 539.4750 512.5586   A 0.71 0.71 0.0 0 0 538.7638 511.8498   L 538.5038 511.8502   A 0.71 0.71 0.0 0 0 537.7950 512.5615   L 537.8450 541.1614   A 0.71 0.71 0.0 0 0 538.5562 541.8702   L 538.8162 541.8698   A 0.71 0.71 0.0 0 0 539.5250 541.1585   L 539.4750 512.5586   Z   M 555.2936 513.2374   A 0.67 0.67 0.0 0 0 554.6212 512.5697   L 554.4012 512.5705   A 0.67 0.67 0.0 0 0 553.7336 513.2428   L 553.8464 545.5826   A 0.67 0.67 0.0 0 0 554.5188 546.2503   L 554.7388 546.2495   A 0.67 0.67 0.0 0 0 555.4064 545.5772   L 555.2936 513.2374   Z" />
<circle cx="545.56" cy="473.16" r="9.37" />
<circle cx="417.53" cy="478.03" r="9.30" />
<path d="   M 446.11 474.13   L 468.75 474.28   A 1.92 1.92 0.0 0 1 470.66 476.15   L 470.92 485.84   A 1.92 1.92 0.0 0 1 468.98 487.81   L 446.33 487.65   A 1.92 1.92 0.0 0 1 444.42 485.78   L 444.18 476.10   A 1.92 1.92 0.0 0 1 446.11 474.13   Z   M 451.98 478.22   Q 450.06 478.35 450.34 480.25   Q 450.56 481.72 451.88 482.34   Q 453.97 483.33 454.31 481.04   Q 454.77 478.02 451.98 478.22   Z   M 461.55 478.54   L 459.53 478.65   A 0.73 0.73 0.0 0 0 458.84 479.41   L 458.91 480.83   A 2.49 1.53 87.0 0 0 460.57 483.24   L 460.99 483.22   A 2.49 1.53 87.0 0 0 462.39 480.65   L 462.31 479.23   A 0.73 0.73 0.0 0 0 461.55 478.54   Z" />
<circle cx="216.16" cy="634.36" r="8.15" />
<circle cx="250.14" cy="636.26" r="8.06" />
<circle cx="276.13" cy="636.97" r="7.83" />
<circle cx="512.40" cy="642.40" r="10.68" />
<circle cx="791.26" cy="642.09" r="8.03" />
<circle cx="769.23" cy="643.59" r="7.75" />
<rect x="-3.37" y="-3.38" transform="translate(459.31,687.53) rotate(-0.1)" width="6.74" height="6.76" rx="0.50" />
<path d="   M 476.91 691.26   L 470.37 691.33   A 0.31 0.31 0.0 0 1 470.06 691.00   L 470.34 685.18   A 0.31 0.31 0.0 0 1 470.64 684.89   L 476.86 684.83   A 0.31 0.31 0.0 0 1 477.17 685.14   L 477.22 690.95   A 0.31 0.31 0.0 0 1 476.91 691.26   Z" />
<rect x="-2.74" y="-2.87" transform="translate(492.58,697.78) rotate(-0.9)" width="5.48" height="5.74" rx="0.26" />
<rect x="-3.31" y="-2.96" transform="translate(459.43,698.79) rotate(-1.4)" width="6.62" height="5.92" rx="0.27" />
<path d="   M 837.72 709.86   C 840.34 712.10 842.38 713.65 845.73 714.45   Q 846.47 714.63 846.04 715.26   L 832.47 734.76   A 1.23 1.23 0.0 0 1 831.48 735.29   L 821.72 735.35   Q 820.68 735.35 821.30 734.52   Q 830.78 721.81 836.93 710.01   A 0.51 0.51 0.0 0 1 837.72 709.86   Z" />
<path d="   M 814.89 741.62   L 806.71 753.93   A 0.81 0.81 0.0 0 1 805.24 753.28   L 808.21 741.23   A 0.81 0.81 0.0 0 1 808.95 740.61   L 814.18 740.37   A 0.81 0.81 0.0 0 1 814.89 741.62   Z" />
<path d="   M 820.80 740.69   C 820.57 740.91 820.49 741.05 820.36 741.33   Q 820.00 742.15 819.65 741.33   L 819.50 740.98   Q 819.25 740.38 819.87 740.19   Q 820.25 740.07 820.66 740.16   A 0.31 0.31 0.0 0 1 820.80 740.69   Z" />
<path d="   M 822.29 741.29   L 822.14 740.70   Q 822.04 740.29 822.46 740.25   Q 822.63 740.24 822.80 740.37   Q 822.98 740.52 822.88 740.73   L 822.61 741.32   Q 822.40 741.76 822.29 741.29   Z" />
<path d="   M 824.91 742.20   C 824.81 741.72 824.33 741.16 824.15 740.63   Q 824.06 740.34 824.36 740.30   L 824.70 740.26   Q 824.96 740.23 824.97 740.49   Q 824.98 741.23 824.88 742.02   Q 824.87 742.08 824.89 742.12   Q 824.91 742.16 824.91 742.20   Z" />
<path d="   M 828.60 740.37   Q 828.82 740.47 828.82 740.71   Q 828.82 741.07 828.42 741.10   A 0.45 0.41 55.3 0 1 828.17 741.04   Q 827.87 740.85 827.97 740.62   Q 828.16 740.17 828.60 740.37   Z" />
<path d="   M 830.26 753.99   Q 830.15 747.47 832.65 741.48   Q 832.90 740.88 833.55 740.86   L 839.96 740.67   Q 840.55 740.66 840.66 741.24   L 842.97 753.88   Q 843.04 754.27 842.64 754.27   L 830.49 754.21   Q 830.27 754.21 830.26 753.99   Z" />
<ellipse cx="0.00" cy="0.00" transform="translate(824.93,748.46) rotate(91.2)" rx="5.77" ry="0.42" />
<ellipse cx="0.00" cy="0.00" transform="translate(822.23,748.98) rotate(92.8)" rx="5.09" ry="0.23" />
<rect x="-0.39" y="-4.87" transform="translate(819.83,749.09) rotate(3.5)" width="0.78" height="9.74" rx="0.33" />
<path d="   M 829.79 745.33   Q 829.46 745.53 829.09 745.39   Q 828.70 745.25 829.03 745.00   Q 829.30 744.80 829.63 744.79   Q 830.63 744.79 829.79 745.33   Z" />
<path d="   M 814.05 745.73   A 0.16 0.15 39.9 0 1 814.31 745.71   Q 814.70 746.20 814.61 746.83   Q 814.14 749.97 813.90 753.30   Q 813.84 754.06 813.12 754.30   Q 811.56 754.83 809.53 754.71   Q 808.64 754.66 809.17 753.94   Q 811.92 750.21 814.05 745.73   Z" />
<path d="   M 830.92 772.48   L 830.69 759.27   A 0.35 0.35 0.0 0 1 831.03 758.91   L 843.74 758.61   A 0.35 0.35 0.0 0 1 844.09 758.89   L 846.79 771.92   A 0.35 0.35 0.0 0 1 846.45 772.34   L 831.28 772.82   A 0.35 0.35 0.0 0 1 830.92 772.48   Z" />
<path d="   M 806.78 766.15   A 0.75 0.74 -84.1 0 0 807.53 767.08   L 809.01 767.02   A 1.16 1.15 4.5 0 0 810.09 766.10   Q 810.72 763.03 813.31 760.29   Q 813.78 759.80 813.84 760.47   L 815.05 773.17   Q 815.18 774.53 813.82 774.49   L 801.47 774.17   Q 800.89 774.15 800.97 773.59   Q 801.80 767.70 803.76 764.18   Q 804.66 762.57 805.33 760.80   Q 805.51 760.33 805.99 760.15   L 808.87 759.12   Q 810.76 758.44 809.60 760.08   Q 807.58 762.94 806.78 766.15   Z" />
<rect x="-0.30" y="-8.10" transform="translate(824.37,767.34) rotate(1.2)" width="0.60" height="16.20" rx="0.29" />
<path d="   M 822.36 759.55   A 0.16 0.16 0.0 0 1 822.52 759.72   L 822.37 764.01   A 8.39 0.30 -88.0 0 1 821.78 772.38   L 821.52 772.37   A 8.39 0.30 -88.0 0 1 821.51 763.98   L 821.66 759.69   A 0.16 0.16 0.0 0 1 821.82 759.53   L 822.36 759.55   Z" />
<rect x="-0.26" y="-6.16" transform="translate(819.71,765.94) rotate(0.8)" width="0.52" height="12.32" rx="0.25" />
<path d="   M 826.61 768.28   C 826.65 769.21 826.70 770.08 826.79 770.99   Q 826.81 771.21 826.59 771.18   L 826.58 771.18   Q 826.38 771.16 826.42 770.96   Q 826.67 769.74 826.58 768.37   Q 826.58 768.31 826.61 768.27   Q 826.61 768.27 826.61 768.27   Q 826.61 768.27 826.61 768.28   Z" />
<ellipse cx="0.00" cy="0.00" transform="translate(826.80,774.37) rotate(90.3)" rx="2.67" ry="0.20" />
<path d="   M 824.17 775.99   Q 824.35 775.55 824.56 775.98   Q 824.79 776.44 824.56 776.93   Q 824.41 777.28 824.23 776.94   Q 823.98 776.47 824.17 775.99   Z" />
<path d="   M 818.93 776.30   A 0.37 0.36 39.5 0 1 819.51 776.25   Q 819.73 776.48 819.67 776.79   Q 819.45 778.01 818.89 776.92   Q 818.73 776.62 818.93 776.30   Z" />
<path d="   M 799.06 777.41   A 0.12 0.12 0.0 0 1 798.94 777.29   L 798.94 777.20   A 1.23 1.01 0.0 0 1 800.17 776.19   L 814.05 776.19   A 1.23 1.01 0.0 0 1 815.28 777.20   L 815.28 777.29   A 0.12 0.12 0.0 0 1 815.16 777.41   L 799.06 777.41   Z" />
<path d="   M 821.42 776.38   Q 821.48 776.16 821.65 776.33   Q 821.82 776.50 821.77 776.75   Q 821.71 777.03 821.51 776.82   Q 821.34 776.64 821.42 776.38   Z" />
</g>
<g fill="#000000" id="Group-000000">
<path d="   M 597.92 671.69   Q 601.27 732.53 603.55 789.12   A 0.56 0.56 0.0 0 1 603.01 789.70   Q 587.18 790.07 570.75 790.16   Q 499.54 790.56 436.49 790.72   Q 435.98 790.72 435.91 790.22   Q 435.50 787.14 435.36 784.00   Q 432.83 727.94 432.60 671.22   A 0.30 0.30 0.0 0 0 432.30 670.92   L 169.20 669.93   Q 168.46 669.93 168.46 669.20   L 167.97 269.26   A 0.47 0.47 0.0 0 1 168.45 268.79   C 188.62 268.97 208.99 269.36 229.25 269.22   C 303.16 268.69 376.84 268.13 450.47 268.73   Q 587.73 269.84 724.99 271.08   C 762.14 271.42 799.28 272.23 836.38 272.75   A 1.07 1.07 0.0 0 1 837.44 273.79   Q 841.96 434.17 842.23 593.97   Q 842.28 621.26 841.16 670.87   Q 841.15 671.36 840.65 671.41   Q 837.16 671.73 833.72 671.72   Q 717.76 671.32 598.43 671.14   Q 597.89 671.14 597.92 671.69   Z   M 214.67 284.23   A 5.81 5.81 0.0 0 0 208.86 278.42   A 5.81 5.81 0.0 0 0 203.05 284.23   A 5.81 5.81 0.0 0 0 208.86 290.04   A 5.81 5.81 0.0 0 0 214.67 284.23   Z   M 236.44 284.57   A 5.82 5.82 0.0 0 0 230.62 278.75   A 5.82 5.82 0.0 0 0 224.80 284.57   A 5.82 5.82 0.0 0 0 230.62 290.39   A 5.82 5.82 0.0 0 0 236.44 284.57   Z   M 516.2828 280.5118   A 1.31 1.31 0.0 0 0 514.9082 279.2697   L 504.1620 279.8141   A 1.31 1.31 0.0 0 0 502.9200 281.1887   L 502.9372 281.5282   A 1.31 1.31 0.0 0 0 504.3118 282.7703   L 515.0580 282.2259   A 1.31 1.31 0.0 0 0 516.3000 280.8513   L 516.2828 280.5118   Z   M 514.9475 288.0440   A 1.23 1.23 0.0 0 0 513.6900 286.8423   L 507.6915 286.9784   A 1.23 1.23 0.0 0 0 506.4897 288.2360   L 506.4925 288.3560   A 1.23 1.23 0.0 0 0 507.7500 289.5577   L 513.7485 289.4216   A 1.23 1.23 0.0 0 0 514.9503 288.1640   L 514.9475 288.0440   Z   M 203.25 610.13   C 405.20 612.16 607.17 613.08 809.13 614.13   A 0.60 0.60 0.0 0 0 809.73 613.53   C 809.91 508.88 808.79 404.20 807.57 299.57   A 0.39 0.38 0.0 0 0 807.18 299.19   C 605.29 300.30 398.18 300.73 201.75 301.56   Q 201.23 301.56 201.23 302.07   L 202.57 609.44   Q 202.57 610.12 203.25 610.13   Z   M 224.31 634.36   A 8.15 8.15 0.0 0 0 216.16 626.21   A 8.15 8.15 0.0 0 0 208.01 634.36   A 8.15 8.15 0.0 0 0 216.16 642.51   A 8.15 8.15 0.0 0 0 224.31 634.36   Z   M 258.20 636.26   A 8.06 8.06 0.0 0 0 250.14 628.20   A 8.06 8.06 0.0 0 0 242.08 636.26   A 8.06 8.06 0.0 0 0 250.14 644.32   A 8.06 8.06 0.0 0 0 258.20 636.26   Z   M 283.96 636.97   A 7.83 7.83 0.0 0 0 276.13 629.14   A 7.83 7.83 0.0 0 0 268.30 636.97   A 7.83 7.83 0.0 0 0 276.13 644.80   A 7.83 7.83 0.0 0 0 283.96 636.97   Z   M 523.08 642.40   A 10.68 10.68 0.0 0 0 512.40 631.72   A 10.68 10.68 0.0 0 0 501.72 642.40   A 10.68 10.68 0.0 0 0 512.40 653.08   A 10.68 10.68 0.0 0 0 523.08 642.40   Z   M 799.29 642.09   A 8.03 8.03 0.0 0 0 791.26 634.06   A 8.03 8.03 0.0 0 0 783.23 642.09   A 8.03 8.03 0.0 0 0 791.26 650.12   A 8.03 8.03 0.0 0 0 799.29 642.09   Z   M 776.98 643.59   A 7.75 7.75 0.0 0 0 769.23 635.84   A 7.75 7.75 0.0 0 0 761.48 643.59   A 7.75 7.75 0.0 0 0 769.23 651.34   A 7.75 7.75 0.0 0 0 776.98 643.59   Z   M 462.6750 684.6441   A 0.50 0.50 0.0 0 0 462.1741 684.1450   L 456.4341 684.1550   A 0.50 0.50 0.0 0 0 455.9350 684.6559   L 455.9450 690.4159   A 0.50 0.50 0.0 0 0 456.4459 690.9150   L 462.1859 690.9050   A 0.50 0.50 0.0 0 0 462.6850 690.4041   L 462.6750 684.6441   Z   M 476.91 691.26   A 0.31 0.31 0.0 0 0 477.22 690.95   L 477.17 685.14   A 0.31 0.31 0.0 0 0 476.86 684.83   L 470.64 684.89   A 0.31 0.31 0.0 0 0 470.34 685.18   L 470.06 691.00   A 0.31 0.31 0.0 0 0 470.37 691.33   L 476.91 691.26   Z   M 495.2787 695.1273   A 0.26 0.26 0.0 0 0 495.0146 694.8714   L 490.0552 694.9493   A 0.26 0.26 0.0 0 0 489.7993 695.2134   L 489.8813 700.4327   A 0.26 0.26 0.0 0 0 490.1454 700.6886   L 495.1048 700.6107   A 0.26 0.26 0.0 0 0 495.3607 700.3466   L 495.2787 695.1273   Z   M 462.6733 696.0199   A 0.27 0.27 0.0 0 0 462.3968 695.7566   L 456.3186 695.9052   A 0.27 0.27 0.0 0 0 456.0553 696.1817   L 456.1867 701.5601   A 0.27 0.27 0.0 0 0 456.4632 701.8234   L 462.5414 701.6748   A 0.27 0.27 0.0 0 0 462.8047 701.3983   L 462.6733 696.0199   Z" />
<path d="   M 497.43 387.60   C 497.70 391.52 496.07 392.39 492.46 392.59   Q 437.42 395.64 382.50 396.13   Q 380.46 396.14 378.61 395.57   A 1.64 1.64 0.0 0 1 377.45 394.03   Q 376.69 357.99 378.39 321.72   C 378.57 317.88 381.36 317.55 384.46 317.58   Q 417.12 317.90 451.51 318.46   Q 468.25 318.73 485.30 319.65   C 489.94 319.90 490.37 322.24 490.91 325.89   Q 495.13 354.53 497.43 387.60   Z   M 487.19 323.58   Q 487.17 323.43 487.02 323.43   L 382.60 321.37   A 0.57 0.57 0.0 0 0 382.02 321.93   Q 381.90 357.09 380.43 391.63   A 0.91 0.91 0.0 0 0 381.36 392.58   Q 435.19 391.38 489.42 390.48   Q 491.76 390.44 493.90 390.16   Q 495.70 389.92 495.43 388.12   Q 490.33 354.28 487.19 323.58   Z" />
<path d="   M 673.68 400.99   Q 669.14 401.03 664.56 400.74   A 2.11 2.11 0.0 0 1 662.59 398.77   Q 661.26 378.22 660.32 360.36   Q 658.97 334.43 659.47 325.65   Q 659.71 321.47 663.83 321.45   Q 722.57 321.22 762.95 322.36   Q 765.93 322.44 769.03 322.65   C 771.49 322.81 772.90 324.29 773.25 326.68   Q 778.68 363.45 780.03 394.45   C 780.22 399.04 774.92 398.84 771.79 398.95   Q 727.43 400.52 673.68 400.99   Z   M 665.76 396.81   A 0.66 0.66 0.0 0 0 666.43 397.45   L 776.99 395.06   A 0.66 0.66 0.0 0 0 777.63 394.32   L 769.63 326.70   A 0.66 0.66 0.0 0 0 768.98 326.11   L 663.81 325.04   A 0.66 0.66 0.0 0 0 663.15 325.72   L 665.76 396.81   Z" />
<path d="   M 642.46 387.70   Q 642.69 390.97 643.02 394.69   C 643.33 398.28 641.14 399.67 637.75 399.80   Q 579.12 401.96 527.01 401.81   Q 525.64 401.81 524.76 400.93   Q 524.14 400.33 524.09 399.58   Q 521.56 367.14 521.15 327.56   Q 521.12 324.33 522.94 322.59   Q 523.30 322.25 523.79 322.20   Q 527.67 321.81 531.92 321.84   Q 585.03 322.20 631.85 324.13   Q 634.89 324.25 635.42 327.31   Q 640.14 354.67 642.46 387.70   Z   M 640.29 395.99   A 0.31 0.30 88.2 0 0 640.59 395.66   Q 640.29 391.79 639.75 388.04   Q 634.92 354.56 632.17 326.96   Q 632.12 326.47 631.63 326.47   Q 582.88 326.58 529.67 325.51   Q 527.64 325.47 525.29 325.71   A 0.67 0.66 86.0 0 0 524.69 326.41   Q 526.47 363.51 526.95 397.53   Q 526.96 398.39 527.82 398.38   L 640.29 395.99   Z" />
<path d="   M 355.89 399.61   A 5.63 5.62 31.0 0 1 353.72 400.15   C 317.02 402.01 280.72 402.24 242.36 402.65   Q 239.70 402.68 237.61 402.04   A 1.83 1.81 6.9 0 1 236.31 400.40   C 234.81 375.87 232.92 349.32 233.30 326.49   Q 233.38 322.11 238.26 322.07   C 274.24 321.81 308.83 322.83 346.50 324.25   C 350.36 324.40 350.56 326.62 351.06 329.80   Q 356.02 361.54 357.95 396.00   Q 358.10 398.57 355.89 399.61   Z   M 347.20 326.86   Q 347.18 326.60 346.91 326.60   C 311.32 326.71 275.28 326.10 240.01 325.73   Q 238.82 325.71 237.40 325.91   A 0.70 0.70 0.0 0 0 236.80 326.65   Q 238.60 363.58 239.39 397.99   A 1.05 1.04 -1.1 0 0 240.46 399.01   L 354.30 396.50   Q 355.63 396.47 355.45 395.16   C 352.33 372.05 349.15 349.46 347.20 326.86   Z" />
<path d="   M 599.36 337.23   Q 603.02 336.88 606.65 337.93   A 0.61 0.60 -73.5 0 1 607.06 338.69   L 592.82 384.99   A 0.81 0.80 -80.5 0 1 592.03 385.56   Q 574.33 385.10 557.16 384.54   Q 554.87 384.46 552.66 384.19   Q 551.40 384.04 551.78 382.83   Q 558.65 361.28 565.19 340.24   C 565.90 337.95 566.44 336.08 569.36 336.96   Q 571.24 337.52 573.19 337.50   Q 573.73 337.49 573.91 336.97   C 574.51 335.19 575.50 333.47 577.80 334.05   Q 578.34 334.19 578.59 334.69   Q 579.22 336.00 580.40 336.87   Q 580.83 337.19 580.79 337.73   Q 580.69 338.95 579.29 339.01   Q 578.54 339.04 577.84 338.87   Q 577.40 338.76 577.32 339.21   L 576.84 342.01   Q 576.72 342.71 577.42 342.80   C 580.56 343.20 584.14 343.37 582.95 338.69   Q 582.81 338.12 583.10 337.61   L 584.79 334.58   A 1.15 1.14 -75.9 0 1 585.75 334.00   L 588.69 333.93   Q 589.22 333.92 589.19 334.44   L 589.08 336.54   A 0.63 0.63 0.0 0 0 589.71 337.20   Q 591.06 337.22 592.07 338.16   A 0.86 0.86 0.0 0 0 593.44 337.91   L 595.02 334.57   A 1.28 1.25 10.1 0 1 596.06 333.86   Q 599.38 333.61 598.92 336.76   Q 598.84 337.28 599.36 337.23   Z   M 592.03 342.96   A 0.67 0.67 0.0 0 0 592.70 342.38   L 593.05 339.95   A 0.67 0.67 0.0 0 0 592.47 339.19   L 587.92 338.66   A 0.67 0.67 0.0 0 0 587.20 339.14   L 586.34 341.99   A 0.67 0.67 0.0 0 0 586.97 342.85   L 592.03 342.96   Z   M 597.82 338.97   Q 597.13 338.84 596.91 339.51   L 596.27 341.55   A 0.93 0.93 0.0 0 0 597.11 342.76   L 601.54 342.97   Q 602.52 343.01 603.07 342.20   Q 603.78 341.14 603.95 340.17   Q 604.15 339.03 602.99 339.15   Q 600.22 339.44 597.82 338.97   Z   M 572.33 342.65   A 0.34 0.34 0.0 0 0 572.64 342.43   L 573.64 339.78   A 0.34 0.34 0.0 0 0 573.32 339.32   L 568.60 339.37   A 0.34 0.34 0.0 0 0 568.29 339.59   L 567.30 342.22   A 0.34 0.34 0.0 0 0 567.62 342.68   L 572.33 342.65   Z   M 601.53 345.04   L 566.23 344.80   Q 565.94 344.80 565.86 345.08   Q 560.70 364.05 554.73 381.55   A 0.33 0.32 10.6 0 0 555.03 381.98   L 590.41 383.12   A 0.47 0.47 0.0 0 0 590.88 382.76   Q 595.69 364.34 602.00 345.70   A 0.50 0.50 0.0 0 0 601.53 345.04   Z" />
<path d="   M 424.48 356.34   Q 424.01 354.76 423.59 356.36   L 418.31 376.64   A 1.29 1.28 24.4 0 1 416.35 377.37   Q 415.17 376.58 414.72 375.14   Q 413.20 370.35 411.03 365.84   Q 410.60 364.96 409.98 365.71   L 406.03 370.45   A 1.53 1.53 0.0 0 1 403.66 370.42   Q 402.56 369.04 402.29 367.20   Q 401.51 361.99 400.81 356.78   Q 400.48 354.32 399.21 356.45   Q 397.56 359.23 395.93 361.81   Q 395.10 363.11 393.40 362.74   Q 392.76 362.60 392.68 361.31   A 1.28 1.25 59.6 0 1 392.86 360.59   L 399.08 350.60   A 1.62 1.61 -45.4 0 1 401.81 350.58   Q 402.92 352.32 403.32 354.36   Q 404.35 359.73 405.21 365.04   Q 405.47 366.59 406.36 365.30   Q 407.35 363.87 408.33 362.50   C 409.64 360.66 412.42 360.12 413.39 362.69   Q 414.82 366.46 416.04 370.13   Q 416.39 371.20 416.66 370.10   Q 418.66 362.11 420.85 354.44   Q 421.51 352.13 422.49 350.10   A 1.80 1.80 0.0 0 1 425.83 350.34   Q 428.37 358.36 430.10 365.87   Q 430.44 367.35 431.00 365.94   Q 434.47 357.08 437.84 348.91   Q 439.04 346.01 440.57 343.68   A 1.74 1.74 0.0 0 1 443.33 343.48   L 447.20 347.80   Q 447.74 348.40 448.20 347.73   Q 449.52 345.79 451.22 343.97   C 453.59 341.44 454.82 344.74 455.89 346.17   A 0.64 0.64 0.0 0 0 456.96 346.11   Q 458.71 343.01 460.37 339.25   C 461.52 336.64 463.94 337.38 465.03 339.45   Q 466.14 341.55 467.32 343.47   A 1.79 1.79 0.0 0 0 468.90 344.33   L 472.03 344.25   Q 473.36 344.22 472.92 345.47   L 472.81 345.80   Q 472.39 346.98 471.16 347.22   C 466.35 348.13 465.20 345.29 463.29 342.01   A 0.60 0.59 -37.3 0 0 462.36 341.89   C 460.33 343.85 459.63 347.44 458.33 349.97   A 1.69 1.69 0.0 0 1 455.51 350.25   L 452.91 347.03   A 0.73 0.73 0.0 0 0 451.74 347.08   L 449.37 350.56   Q 449.09 350.97 448.59 351.06   C 446.00 351.49 443.72 348.73 442.55 346.79   A 0.55 0.55 0.0 0 0 441.57 346.86   Q 437.23 357.68 432.92 369.69   Q 432.59 370.62 432.19 371.39   A 1.81 1.81 0.0 0 1 428.93 371.32   Q 428.17 369.70 427.71 367.94   Q 426.18 362.10 424.48 356.34   Z" />
<path d="   M 714.38 374.04   C 714.91 372.63 714.88 371.26 715.24 369.83   Q 718.14 358.50 721.02 346.43   Q 721.43 344.74 722.38 343.64   A 1.43 1.43 0.0 0 1 724.81 344.09   Q 726.99 350.11 728.15 357.65   Q 728.41 359.39 729.20 361.26   A 0.38 0.38 0.0 0 0 729.84 361.36   L 734.40 355.96   A 2.06 2.05 44.1 0 1 737.50 355.92   C 739.39 358.03 739.91 361.57 740.85 364.25   Q 741.19 365.21 741.50 364.24   Q 744.64 354.29 748.84 346.75   A 1.54 1.54 0.0 0 1 751.32 346.46   C 752.84 348.11 753.58 351.75 754.07 353.80   A 1.32 1.32 0.0 0 0 755.80 354.74   Q 757.61 354.08 759.65 353.69   Q 760.67 353.49 760.56 355.38   A 1.75 1.73 79.7 0 1 759.54 356.87   Q 757.42 357.81 755.01 357.92   C 751.83 358.07 751.36 354.41 750.67 352.11   Q 750.12 350.25 749.41 352.06   Q 746.01 360.79 743.24 368.80   Q 742.88 369.82 742.21 370.68   A 1.66 1.66 0.0 0 1 739.31 370.11   L 736.54 360.52   A 0.83 0.83 0.0 0 0 735.19 360.12   Q 732.55 362.42 730.76 365.23   A 2.01 2.00 -52.6 0 1 727.72 365.64   Q 726.63 364.65 726.21 362.81   Q 724.93 357.28 723.78 351.19   Q 723.54 349.91 723.21 351.17   Q 719.85 364.04 716.42 377.22   Q 715.69 380.02 714.53 382.24   A 1.27 1.26 -42.4 0 1 712.24 382.14   Q 711.57 380.49 711.35 378.76   Q 710.13 369.36 709.00 360.19   Q 708.72 357.93 708.03 355.75   Q 707.67 354.60 707.35 355.76   L 702.50 373.63   Q 701.97 375.60 700.31 374.40   Q 699.01 373.46 698.30 371.93   Q 696.34 367.69 694.28 363.39   A 0.60 0.60 0.0 0 0 693.20 363.40   Q 691.56 366.99 687.67 370.11   C 686.11 371.36 684.29 370.35 684.13 368.49   Q 683.70 363.53 682.95 358.56   Q 682.77 357.36 682.19 358.42   L 678.32 365.54   A 0.90 0.90 0.0 0 1 677.00 365.84   Q 676.71 365.63 676.65 365.29   Q 676.48 364.27 676.87 363.41   Q 679.16 358.32 682.19 353.30   A 1.55 1.55 0.0 0 1 684.79 353.22   C 686.43 355.61 686.78 361.82 687.15 364.98   Q 687.31 366.41 688.12 365.21   Q 689.69 362.91 691.46 360.72   C 692.77 359.10 695.12 359.10 696.19 361.00   Q 698.52 365.15 700.22 368.88   Q 700.61 369.74 700.83 368.82   Q 703.07 359.52 706.49 349.31   Q 707.08 347.55 708.86 347.91   Q 709.38 348.02 709.60 348.50   Q 710.08 349.54 710.31 350.61   Q 712.40 359.92 713.39 370.45   Q 713.56 372.25 713.98 374.02   Q 714.14 374.67 714.38 374.04   Z" />
<path d="   M 311.09 348.11   C 295.98 345.88 280.27 346.78 264.18 348.05   A 0.55 0.55 0.0 0 1 263.58 347.50   L 263.59 346.70   Q 263.59 346.23 264.06 346.19   Q 273.59 345.34 282.76 344.72   Q 302.43 343.41 321.35 347.40   A 1.59 0.96 -13.9 0 1 321.61 347.48   Q 324.12 348.52 321.82 349.50   A 1.74 1.66 -50.8 0 1 320.92 349.61   Q 315.99 348.83 311.09 348.11   Z" />
<path d="   M 256.68 348.84   C 255.02 347.93 253.19 347.66 251.46 346.96   A 0.83 0.82 -48.2 0 1 251.38 345.47   C 254.42 343.82 258.24 346.20 260.50 348.14   Q 260.93 348.51 260.55 348.94   C 259.42 350.21 257.88 349.49 256.68 348.84   Z" />
<path d="   M 308.31 360.16   C 293.08 357.51 277.77 355.11 262.42 354.75   A 0.59 0.59 0.0 0 1 261.86 354.01   L 261.96 353.60   A 0.94 0.93 7.6 0 1 262.90 352.89   Q 272.41 353.04 281.86 354.12   Q 304.17 356.67 326.15 361.78   Q 327.04 361.99 327.40 362.83   Q 327.58 363.25 327.29 363.67   A 0.67 0.65 23.5 0 1 326.60 363.93   Q 316.86 361.64 308.31 360.16   Z" />
<rect x="-1.20" y="-6.81" transform="translate(571.27,359.95) rotate(16.0)" width="2.40" height="13.62" rx="1.16" />
<path d="   M 577.88 366.71   A 0.20 0.20 0.0 0 1 577.63 366.85   L 577.03 366.67   A 3.82 1.90 -73.6 0 1 576.29 362.47   L 577.90 357.00   A 3.82 1.90 -73.6 0 1 580.80 353.87   L 581.40 354.05   A 0.20 0.20 0.0 0 1 581.53 354.30   L 577.88 366.71   Z" />
<rect x="-1.17" y="-6.47" transform="translate(587.19,360.09) rotate(16.4)" width="2.34" height="12.94" rx="1.14" />
<ellipse cx="0.00" cy="0.00" transform="translate(255.93,358.32) rotate(7.7)" rx="4.26" ry="1.55" />
<path d="   M 265.71 361.59   A 0.61 0.60 -7.0 0 1 265.29 361.27   Q 264.96 360.66 265.36 360.18   A 1.51 1.48 22.6 0 1 266.68 359.65   Q 277.07 360.90 287.53 364.92   Q 288.26 365.20 288.97 365.52   Q 293.18 367.39 292.55 368.25   Q 291.94 369.08 290.97 368.73   Q 280.58 364.91 265.71 361.59   Z" />
<circle cx="449.10" cy="410.83" r="7.48" />
<rect x="-1.26" y="-3.75" transform="translate(394.94,410.64) rotate(-0.2)" width="2.52" height="7.50" rx="0.89" />
<rect x="-1.29" y="-3.31" transform="translate(421.08,410.96) rotate(0.1)" width="2.58" height="6.62" rx="0.68" />
<circle cx="737.78" cy="420.28" r="7.63" />
<circle cx="686.74" cy="421.90" r="7.57" />
<circle cx="314.49" cy="422.19" r="7.59" />
<circle cx="552.05" cy="422.11" r="7.52" />
<circle cx="603.65" cy="422.02" r="7.57" />
<circle cx="264.24" cy="422.55" r="7.51" />
<rect x="-1.36" y="-3.22" transform="translate(711.16,421.11) rotate(-0.9)" width="2.72" height="6.44" rx="0.76" />
<rect x="-1.33" y="-3.08" transform="translate(577.41,421.99) rotate(-0.6)" width="2.66" height="6.16" rx="0.73" />
<rect x="-1.28" y="-3.10" transform="translate(288.85,422.50) rotate(-1.6)" width="2.56" height="6.20" rx="0.80" />
<path d="   M 330.26 559.98   Q 294.50 557.12 274.10 556.75   Q 248.77 556.29 222.17 555.78   C 220.07 555.74 218.37 554.44 218.38 552.26   Q 218.71 499.89 220.86 459.88   C 220.99 457.49 221.18 451.94 224.35 451.62   Q 226.94 451.35 229.59 451.25   Q 269.75 449.62 306.85 448.39   Q 327.41 447.71 344.72 447.74   Q 347.46 447.75 347.66 450.65   Q 350.58 493.71 351.16 555.67   C 351.20 559.92 347.35 561.12 343.73 560.91   Q 337.38 560.55 330.26 559.98   Z   M 295.98 553.56   C 312.68 554.10 328.76 555.53 346.07 556.85   A 0.98 0.97 -88.7 0 0 347.11 555.85   Q 345.35 505.52 344.74 452.57   A 0.97 0.97 0.0 0 0 343.75 451.61   Q 285.05 453.33 225.10 453.46   Q 223.72 453.47 223.63 454.85   C 223.51 456.74 223.31 458.78 223.39 460.62   Q 225.26 506.03 221.14 550.46   Q 221.04 551.56 221.26 552.57   Q 221.56 553.99 223.01 553.93   Q 260.21 552.42 295.98 553.56   Z" />
<path d="   M 667.24 450.89   C 702.99 449.11 740.49 447.64 774.49 447.93   Q 777.34 447.95 777.52 451.46   Q 780.49 508.62 780.83 562.00   C 780.86 566.72 780.75 570.98 774.47 570.65   Q 751.34 569.45 730.89 567.77   C 710.88 566.13 690.35 565.73 670.66 564.73   Q 666.63 564.53 662.47 564.02   Q 659.14 563.61 659.04 560.26   Q 658.87 554.47 658.94 548.75   Q 659.41 505.14 662.16 461.85   Q 662.30 459.63 662.57 457.84   C 663.07 454.61 663.39 451.08 667.24 450.89   Z   M 734.60 564.01   Q 751.02 564.76 775.84 566.94   A 1.11 1.09 28.7 0 0 776.61 566.72   Q 777.27 566.25 777.25 565.60   Q 775.68 508.07 774.62 452.34   A 0.57 0.56 -0.5 0 0 774.05 451.79   L 666.97 452.96   A 1.92 1.91 2.7 0 0 665.08 454.67   Q 664.70 458.19 664.73 461.57   C 664.98 492.79 664.67 523.76 661.92 554.75   Q 661.65 557.74 661.70 560.76   A 1.55 1.55 0.0 0 0 662.97 562.26   Q 664.51 562.56 666.22 562.56   Q 703.71 562.61 734.60 564.01   Z" />
<path d="   M 542.62 558.22   Q 528.85 557.17 520.77 555.95   Q 517.77 555.49 517.76 552.18   C 517.62 518.06 518.39 486.36 521.35 455.24   Q 521.83 450.16 526.74 450.09   Q 576.52 449.33 631.00 450.45   Q 634.60 450.53 638.23 450.86   Q 640.28 451.05 640.40 453.76   Q 642.96 509.18 642.57 560.75   C 642.53 565.95 636.55 565.58 632.25 565.26   C 601.50 563.00 572.53 560.49 542.62 558.22   Z   M 527.28 504.48   A 0.35 0.34 86.3 0 1 527.62 504.09   Q 542.69 504.00 554.75 503.60   Q 561.63 503.37 566.93 498.98   C 574.73 492.53 584.91 483.40 595.75 490.42   C 604.09 495.82 613.01 499.87 621.83 493.02   Q 629.06 487.40 637.35 480.61   Q 637.74 480.29 637.73 479.78   L 637.36 454.75   A 0.60 0.59 0.0 0 0 636.77 454.17   Q 584.18 453.55 527.75 452.35   Q 526.24 452.32 524.67 452.55   Q 524.16 452.62 523.96 453.10   Q 523.36 454.52 523.34 456.17   Q 523.16 472.48 523.01 488.66   Q 522.71 520.18 520.32 550.62   Q 520.22 552.01 520.54 553.57   Q 520.65 554.08 521.15 554.24   Q 522.50 554.68 524.00 554.76   Q 555.42 556.37 587.03 558.06   C 603.78 558.95 620.68 560.56 637.40 561.78   A 1.49 1.49 0.0 0 0 639.00 560.27   L 637.77 483.22   A 0.64 0.63 -21.3 0 0 636.71 482.76   Q 631.09 487.73 625.63 492.14   C 618.40 497.99 610.48 500.24 601.76 495.44   C 595.34 491.90 589.68 487.13 581.98 490.31   C 576.39 492.61 572.00 496.95 567.25 500.53   C 562.23 504.32 557.84 504.90 551.44 505.02   Q 539.78 505.23 527.98 505.32   A 0.66 0.66 0.0 0 1 527.31 504.74   L 527.28 504.48   Z" />
<path d="   M 427.91 559.98   Q 403.13 558.86 377.46 556.72   Q 375.10 556.52 372.74 555.67   A 1.17 1.15 -0.4 0 1 372.03 554.98   Q 371.39 553.32 371.35 551.06   Q 370.57 507.49 373.56 462.27   Q 373.89 457.26 374.76 453.44   C 375.60 449.74 379.51 450.18 382.39 450.14   Q 438.41 449.48 494.64 450.96   C 498.42 451.06 498.17 453.78 498.35 457.11   Q 501.29 509.02 502.08 559.26   C 502.16 563.89 499.16 565.08 495.10 564.85   C 471.65 563.54 447.32 560.85 427.91 559.98   Z   M 383.76 540.64   Q 383.74 539.84 384.47 539.50   Q 398.04 533.29 410.10 528.79   Q 410.70 528.57 410.41 528.01   Q 407.85 523.01 411.16 519.08   C 416.12 513.18 425.38 517.30 425.43 524.54   Q 425.43 525.13 426.01 525.27   C 434.77 527.33 442.83 528.25 449.93 522.64   Q 450.36 522.30 450.26 521.75   C 449.91 519.85 449.41 517.73 450.16 515.91   Q 452.61 509.91 459.59 511.21   Q 460.67 511.41 460.66 510.32   L 460.47 489.57   A 0.41 0.40 0.7 0 0 460.07 489.17   L 445.62 489.07   A 2.62 2.61 88.6 0 1 443.02 486.59   Q 442.79 481.97 442.82 476.58   Q 442.83 475.16 443.38 473.95   A 1.29 1.28 -86.2 0 1 444.18 473.24   Q 445.60 472.79 447.08 472.76   Q 460.08 472.53 472.81 472.44   C 474.35 472.43 476.02 473.10 476.38 474.77   C 477.14 478.28 477.05 482.03 476.86 485.58   C 476.69 488.92 473.99 489.25 471.35 489.27   Q 466.79 489.30 462.11 489.15   A 0.32 0.31 0.0 0 0 461.78 489.47   L 462.10 510.85   A 1.83 1.80 -67.5 0 0 462.59 512.07   Q 468.49 518.41 463.41 524.10   Q 462.98 524.58 463.44 525.03   Q 472.47 534.04 479.58 543.70   C 480.45 544.88 481.53 545.82 482.14 547.20   Q 482.26 547.47 482.10 547.72   Q 481.91 548.01 481.37 547.78   Q 481.03 547.63 480.76 547.39   Q 479.57 546.32 478.70 545.16   Q 472.67 537.13 465.29 529.02   Q 464.16 527.78 462.77 527.09   Q 462.12 526.77 462.12 527.50   L 462.17 558.03   A 0.47 0.46 -88.0 0 0 462.60 558.50   Q 477.70 559.64 494.25 560.99   Q 495.85 561.12 497.03 561.00   Q 498.48 560.87 498.42 559.41   Q 496.29 506.01 495.23 455.42   A 0.79 0.79 0.0 0 0 494.46 454.64   L 378.17 452.41   A 1.50 1.50 0.0 0 0 376.68 453.59   Q 376.18 455.92 376.18 458.32   C 376.21 488.49 375.96 520.54 373.88 551.01   Q 373.80 552.12 373.99 553.27   Q 374.24 554.71 375.69 554.79   C 403.91 556.28 432.95 556.34 460.22 558.27   A 0.45 0.45 0.0 0 0 460.70 557.82   L 460.74 527.19   A 1.00 1.00 0.0 0 0 459.50 526.22   Q 455.44 527.24 452.39 524.30   Q 451.63 523.57 450.81 524.24   C 443.86 530.00 434.35 528.99 425.40 526.61   Q 424.80 526.45 424.58 527.03   C 422.62 532.38 416.14 533.57 411.67 529.68   Q 411.21 529.28 410.78 529.71   C 410.08 530.39 409.20 531.00 408.29 531.36   Q 396.44 536.02 384.40 541.31   A 0.46 0.45 77.1 0 1 383.77 540.91   L 383.76 540.64   Z   M 446.11 474.13   A 1.92 1.92 0.0 0 0 444.18 476.10   L 444.42 485.78   A 1.92 1.92 0.0 0 0 446.33 487.65   L 468.98 487.81   A 1.92 1.92 0.0 0 0 470.92 485.84   L 470.66 476.15   A 1.92 1.92 0.0 0 0 468.75 474.28   L 446.11 474.13   Z" />
<path d="   M 556.48 473.15   A 10.94 10.94 0.0 0 1 545.54 484.09   A 10.94 10.94 0.0 0 1 534.60 473.15   A 10.94 10.94 0.0 0 1 545.54 462.21   A 10.94 10.94 0.0 0 1 556.48 473.15   Z   M 554.93 473.16   A 9.37 9.37 0.0 0 0 545.56 463.79   A 9.37 9.37 0.0 0 0 536.19 473.16   A 9.37 9.37 0.0 0 0 545.56 482.53   A 9.37 9.37 0.0 0 0 554.93 473.16   Z" />
<path d="   M 428.46 478.04   A 10.92 10.92 0.0 0 1 417.54 488.96   A 10.92 10.92 0.0 0 1 406.62 478.04   A 10.92 10.92 0.0 0 1 417.54 467.12   A 10.92 10.92 0.0 0 1 428.46 478.04   Z   M 426.83 478.03   A 9.30 9.30 0.0 0 0 417.53 468.73   A 9.30 9.30 0.0 0 0 408.23 478.03   A 9.30 9.30 0.0 0 0 417.53 487.33   A 9.30 9.30 0.0 0 0 426.83 478.03   Z" />
<rect x="-1.03" y="-20.24" transform="translate(753.00,483.89) rotate(41.5)" width="2.06" height="40.48" rx="1.02" />
<path d="   M 451.98 478.22   Q 454.77 478.02 454.31 481.04   Q 453.97 483.33 451.88 482.34   Q 450.56 481.72 450.34 480.25   Q 450.06 478.35 451.98 478.22   Z" />
<path d="   M 461.55 478.54   A 0.73 0.73 0.0 0 1 462.31 479.23   L 462.39 480.65   A 2.49 1.53 87.0 0 1 460.99 483.22   L 460.57 483.24   A 2.49 1.53 87.0 0 1 458.91 480.83   L 458.84 479.41   A 0.73 0.73 0.0 0 1 459.53 478.65   L 461.55 478.54   Z" />
<circle cx="262.02" cy="492.22" r="7.14" />
<path d="   M 724.67 505.33   C 721.14 500.62 723.00 494.04 728.91 492.64   C 734.87 491.23 740.23 497.05 738.26 503.00   C 736.58 508.05 730.56 509.50 726.31 506.78   Q 725.75 506.43 725.33 506.94   C 721.20 512.01 719.61 517.00 716.45 522.18   C 714.45 525.44 710.87 525.03 709.13 521.79   C 707.95 519.61 705.94 515.63 703.05 515.78   Q 699.15 515.99 694.70 517.22   A 1.67 1.65 59.5 0 1 693.08 516.79   Q 692.70 516.41 692.51 515.89   A 0.99 0.98 76.8 0 1 693.31 514.59   Q 697.52 514.07 701.71 513.44   C 707.74 512.54 709.32 517.25 711.88 521.28   A 1.06 1.06 0.0 0 0 713.46 521.52   C 717.29 518.31 718.86 508.18 723.73 506.61   Q 724.18 506.46 724.56 506.16   Q 725.02 505.80 724.67 505.33   Z" />
<rect x="-0.83" y="-24.15" transform="translate(587.00,522.12) rotate(-0.1)" width="1.66" height="48.30" rx="0.69" />
<path d="   M 286.05 514.25   Q 287.76 513.77 289.46 513.29   C 295.60 511.55 298.60 517.27 301.66 521.35   A 2.68 2.67 -27.7 0 0 304.66 522.28   C 308.21 521.07 311.60 516.98 314.27 514.40   Q 315.17 513.53 316.42 513.79   Q 316.64 513.84 316.79 514.01   A 0.88 0.87 43.1 0 1 316.83 515.14   Q 312.78 520.17 307.70 523.65   C 301.32 528.02 298.56 521.40 295.62 517.33   C 291.40 511.48 285.46 520.76 282.61 515.14   C 279.43 508.89 277.03 504.39 270.30 500.75   Q 269.40 500.27 269.47 499.25   Q 269.48 499.00 269.64 498.81   Q 270.14 498.16 270.89 498.49   C 277.37 501.33 281.61 506.81 284.19 513.32   A 1.56 1.55 -18.4 0 0 286.05 514.25   Z" />
<circle cx="324.24" cy="505.55" r="7.24" />
<circle cx="687.01" cy="505.89" r="7.19" />
<rect x="-1.12" y="-23.38" transform="translate(244.30,521.08) rotate(35.0)" width="2.24" height="46.76" rx="1.10" />
<rect x="-0.80" y="-19.63" transform="translate(604.43,522.55) rotate(-0.2)" width="1.60" height="39.26" rx="0.57" />
<rect x="-0.84" y="-22.49" transform="translate(621.72,525.47) rotate(-0.1)" width="1.68" height="44.98" rx="0.78" />
<rect x="-0.83" y="-17.01" transform="translate(570.62,525.13) rotate(-0.1)" width="1.66" height="34.02" rx="0.66" />
<rect x="-0.84" y="-15.01" transform="translate(538.66,526.86) rotate(-0.1)" width="1.68" height="30.02" rx="0.71" />
<rect x="-0.78" y="-16.84" transform="translate(554.57,529.41) rotate(-0.2)" width="1.56" height="33.68" rx="0.67" />
<rect x="-1.11" y="-15.19" transform="translate(329.88,531.63) rotate(-12.6)" width="2.22" height="30.38" rx="1.09" />
<rect x="-1.12" y="-17.60" transform="translate(676.53,533.07) rotate(25.6)" width="2.24" height="35.20" rx="1.10" />
<circle cx="550.51" cy="573.92" r="7.47" />
<circle cx="257.89" cy="574.47" r="7.47" />
<circle cx="310.01" cy="574.80" r="7.44" />
<circle cx="411.17" cy="574.70" r="7.44" />
<circle cx="460.51" cy="574.90" r="7.42" />
<circle cx="602.09" cy="575.06" r="7.38" />
<rect x="-1.23" y="-3.35" transform="translate(281.45,574.39) rotate(-1.4)" width="2.46" height="6.70" rx="0.46" />
<rect x="-1.22" y="-3.37" transform="translate(574.28,574.30) rotate(-1.2)" width="2.44" height="6.74" rx="0.59" />
<rect x="-1.23" y="-3.32" transform="translate(434.56,574.66) rotate(-0.6)" width="2.46" height="6.64" rx="0.57" />
<circle cx="693.94" cy="581.07" r="7.52" />
<circle cx="744.95" cy="582.58" r="7.45" />
<rect x="-1.28" y="-3.44" transform="translate(717.33,580.67) rotate(-1.9)" width="2.56" height="6.88" rx="0.49" />
<path d="   M 903.76 1024.00   L 900.29 1024.00   Q 898.94 1009.56 898.92 995.00   C 898.86 944.99 899.12 895.12 902.35 845.39   Q 902.38 844.86 901.85 844.86   Q 700.57 844.86 516.75 844.58   Q 338.53 844.30 98.00 842.52   Q 84.20 842.42 68.50 841.98   C 66.46 841.92 65.10 843.34 62.99 843.16   C 57.49 842.71 53.27 837.29 51.71 832.30   Q 50.61 828.76 51.52 823.79   Q 52.64 817.65 53.31 811.06   Q 54.34 800.96 64.57 800.46   C 66.76 800.35 68.87 800.96 71.09 800.90   Q 113.62 799.67 155.68 799.15   Q 156.34 799.14 156.37 798.48   C 157.15 778.66 169.93 763.40 189.74 760.33   Q 190.00 760.29 190.01 760.02   L 190.19 742.12   A 3.59 3.57 67.4 0 1 191.20 739.65   Q 206.72 723.65 222.53 708.07   Q 223.62 706.99 224.91 705.87   Q 225.29 705.54 225.18 705.06   Q 223.89 699.31 228.42 696.77   C 230.81 695.43 234.08 696.16 235.99 698.00   C 240.93 702.75 235.67 711.35 229.05 708.48   Q 228.22 708.12 227.62 708.81   Q 212.40 726.23 195.74 743.01   Q 195.28 743.47 195.26 744.75   Q 195.15 752.32 194.91 759.43   A 0.51 0.50 -88.9 0 0 195.41 759.96   C 203.19 759.92 211.19 762.40 217.40 766.75   Q 233.24 777.86 234.67 798.18   Q 234.71 798.70 235.24 798.70   Q 267.02 798.23 290.50 798.26   Q 398.91 798.39 508.75 797.78   Q 518.74 797.72 528.75 797.71   Q 645.98 797.56 763.09 797.50   A 0.74 0.73 90.0 0 0 763.82 796.76   L 763.82 793.01   A 0.68 0.67 -89.2 0 1 764.51 792.33   C 792.31 793.37 816.54 794.16 842.51 793.11   Q 846.78 792.94 851.16 792.45   Q 851.69 792.39 851.52 791.89   C 849.80 786.83 849.41 781.30 847.90 776.20   A 0.61 0.59 81.4 0 0 847.33 775.77   L 831.02 775.86   Q 830.39 775.86 830.28 776.48   L 830.19 776.95   Q 830.08 777.54 830.68 777.54   L 845.87 777.46   Q 847.46 777.46 847.54 779.04   L 848.10 790.47   Q 848.15 791.63 846.99 791.63   Q 823.79 791.68 801.62 791.92   C 799.79 791.94 797.97 792.21 796.13 792.18   Q 795.50 792.17 795.69 791.57   Q 796.94 787.62 796.72 783.21   Q 796.71 783.13 796.64 783.10   L 796.35 783.00   Q 796.24 782.97 796.23 783.08   Q 795.63 787.38 795.04 791.66   Q 794.94 792.33 794.27 792.31   L 793.02 792.27   A 0.64 0.64 0.0 0 1 792.42 791.52   L 794.88 777.75   Q 795.05 776.79 794.08 776.88   Q 792.00 777.07 789.66 776.65   Q 789.09 776.54 788.84 776.02   Q 788.69 775.69 788.83 775.36   Q 789.04 774.84 789.61 774.84   L 794.75 774.82   Q 795.60 774.81 795.73 773.98   Q 796.79 767.06 798.93 759.87   A 0.51 0.51 0.0 0 0 798.46 759.22   L 794.98 759.07   Q 793.76 759.02 793.64 757.81   L 793.55 756.90   A 1.37 1.37 0.0 0 1 794.88 755.40   L 799.18 755.27   Q 799.83 755.25 800.00 754.63   Q 801.77 748.18 802.42 741.26   Q 802.47 740.73 801.94 740.82   Q 800.47 741.06 798.89 740.74   A 1.66 1.66 0.0 0 1 797.57 739.10   Q 797.58 738.04 798.72 737.77   Q 800.22 737.40 801.86 737.36   A 0.99 0.97 7.2 0 0 802.78 736.66   Q 802.98 736.01 803.38 735.47   Q 803.69 735.04 804.22 735.08   Q 809.55 735.41 814.67 735.41   Q 815.39 735.42 816.09 735.22   Q 816.67 735.05 816.96 734.52   Q 826.02 717.81 836.15 704.06   A 1.79 1.78 44.5 0 1 839.01 704.04   C 840.56 706.07 842.15 704.28 843.71 705.51   Q 844.32 706.00 844.20 706.87   A 1.57 1.57 0.0 0 0 845.09 708.50   Q 848.52 710.11 851.00 713.04   Q 851.67 713.83 851.13 714.71   L 838.64 735.53   A 0.26 0.25 -76.1 0 0 838.87 735.92   C 840.56 735.84 846.47 735.81 846.11 738.74   Q 845.97 739.91 844.72 739.90   Q 844.00 739.90 844.30 740.55   C 846.15 744.55 846.70 749.67 847.71 753.91   A 0.83 0.82 83.3 0 0 848.51 754.55   Q 850.03 754.56 851.40 754.98   C 852.29 755.25 852.71 756.43 852.20 757.20   C 851.63 758.07 850.37 757.91 849.48 757.88   A 0.54 0.53 -4.6 0 0 848.93 758.52   L 851.56 771.36   Q 851.68 771.91 852.24 771.96   L 853.42 772.07   A 1.28 1.25 70.9 0 1 854.26 772.49   C 855.11 773.48 854.56 774.85 853.37 775.15   Q 852.98 775.26 852.59 775.40   Q 851.96 775.62 852.19 776.25   Q 852.85 778.05 853.12 779.85   Q 854.03 785.80 855.02 791.66   Q 855.12 792.27 855.74 792.24   L 875.79 791.33   A 0.59 0.58 87.6 0 1 876.40 791.90   L 876.55 797.71   Q 876.56 798.05 876.90 798.05   Q 912.09 798.43 947.81 799.39   Q 963.53 799.82 977.00 800.98   C 982.11 801.43 986.63 814.48 987.18 818.02   Q 987.75 821.72 987.56 826.98   Q 987.33 833.09 987.11 833.99   C 986.01 838.54 982.26 841.01 978.00 842.19   Q 973.36 843.48 977.41 840.88   C 980.17 839.10 983.40 836.30 983.66 832.82   Q 984.08 827.00 984.00 821.15   C 983.92 815.19 981.50 809.23 979.24 803.73   A 1.66 1.66 0.0 0 0 977.75 802.70   Q 948.68 802.06 913.26 801.80   C 911.79 801.79 910.18 801.97 908.74 802.30   C 897.90 804.79 886.26 804.73 875.82 803.62   C 869.91 802.99 864.43 801.97 858.29 802.04   Q 838.65 802.27 816.51 802.25   Q 567.86 801.99 236.77 803.13   C 235.00 803.14 233.73 804.10 232.11 804.11   Q 195.94 804.18 160.08 804.20   C 158.33 804.20 156.87 803.42 155.24 803.42   Q 111.35 803.46 64.63 803.64   C 58.15 803.67 56.34 808.26 55.96 813.87   Q 55.56 819.76 54.59 825.39   C 53.83 829.87 55.46 833.77 58.38 837.04   C 62.00 841.09 64.81 839.76 69.50 839.76   Q 277.62 839.55 485.25 839.81   Q 495.33 839.82 505.26 839.87   Q 666.47 840.75 827.75 841.90   Q 897.72 842.40 973.93 841.75   Q 974.47 841.75 974.50 842.28   L 974.52 842.56   Q 974.54 842.77 974.33 842.79   C 951.53 844.93 928.71 844.82 905.30 844.74   Q 904.67 844.73 904.67 845.36   Q 904.26 926.03 904.54 984.24   Q 904.65 1006.34 903.76 1024.00   Z   M 845.73 714.45   C 842.38 713.65 840.34 712.10 837.72 709.86   A 0.51 0.51 0.0 0 0 836.93 710.01   Q 830.78 721.81 821.30 734.52   Q 820.68 735.35 821.72 735.35   L 831.48 735.29   A 1.23 1.23 0.0 0 0 832.47 734.76   L 846.04 715.26   Q 846.47 714.63 845.73 714.45   Z   M 814.89 741.62   A 0.81 0.81 0.0 0 0 814.18 740.37   L 808.95 740.61   A 0.81 0.81 0.0 0 0 808.21 741.23   L 805.24 753.28   A 0.81 0.81 0.0 0 0 806.71 753.93   L 814.89 741.62   Z   M 820.36 741.33   C 820.49 741.05 820.57 740.91 820.80 740.69   A 0.31 0.31 0.0 0 0 820.66 740.16   Q 820.25 740.07 819.87 740.19   Q 819.25 740.38 819.50 740.98   L 819.65 741.33   Q 820.00 742.15 820.36 741.33   Z   M 822.61 741.32   L 822.88 740.73   Q 822.98 740.52 822.80 740.37   Q 822.63 740.24 822.46 740.25   Q 822.04 740.29 822.14 740.70   L 822.29 741.29   Q 822.40 741.76 822.61 741.32   Z   M 824.15 740.63   C 824.33 741.16 824.81 741.72 824.91 742.20   Q 824.91 742.16 824.89 742.12   Q 824.87 742.08 824.88 742.02   Q 824.98 741.23 824.97 740.49   Q 824.96 740.23 824.70 740.26   L 824.36 740.30   Q 824.06 740.34 824.15 740.63   Z   M 828.60 740.37   Q 828.16 740.17 827.97 740.62   Q 827.87 740.85 828.17 741.04   A 0.45 0.41 55.3 0 0 828.42 741.10   Q 828.82 741.07 828.82 740.71   Q 828.82 740.47 828.60 740.37   Z   M 830.26 753.99   Q 830.27 754.21 830.49 754.21   L 842.64 754.27   Q 843.04 754.27 842.97 753.88   L 840.66 741.24   Q 840.55 740.66 839.96 740.67   L 833.55 740.86   Q 832.90 740.88 832.65 741.48   Q 830.15 747.47 830.26 753.99   Z   M 824.8092 754.2287   A 5.77 0.42 91.2 0 0 825.3499 748.4688   A 5.77 0.42 91.2 0 0 825.0508 742.6913   A 5.77 0.42 91.2 0 0 824.5101 748.4512   A 5.77 0.42 91.2 0 0 824.8092 754.2287   Z   M 821.9814 754.0639   A 5.09 0.23 92.8 0 0 822.4597 748.9912   A 5.09 0.23 92.8 0 0 822.4786 743.8961   A 5.09 0.23 92.8 0 0 822.0003 748.9688   A 5.09 0.23 92.8 0 0 821.9814 754.0639   Z   M 820.4964 744.5823   A 0.33 0.33 0.0 0 0 820.1872 744.2327   L 820.0674 744.2254   A 0.33 0.33 0.0 0 0 819.7179 744.5347   L 819.1636 753.5977   A 0.33 0.33 0.0 0 0 819.4728 753.9473   L 819.5926 753.9546   A 0.33 0.33 0.0 0 0 819.9421 753.6453   L 820.4964 744.5823   Z   M 829.63 744.79   Q 829.30 744.80 829.03 745.00   Q 828.70 745.25 829.09 745.39   Q 829.46 745.53 829.79 745.33   Q 830.63 744.79 829.63 744.79   Z   M 814.05 745.73   Q 811.92 750.21 809.17 753.94   Q 808.64 754.66 809.53 754.71   Q 811.56 754.83 813.12 754.30   Q 813.84 754.06 813.90 753.30   Q 814.14 749.97 814.61 746.83   Q 814.70 746.20 814.31 745.71   A 0.16 0.15 39.9 0 0 814.05 745.73   Z   M 830.92 772.48   A 0.35 0.35 0.0 0 0 831.28 772.82   L 846.45 772.34   A 0.35 0.35 0.0 0 0 846.79 771.92   L 844.09 758.89   A 0.35 0.35 0.0 0 0 843.74 758.61   L 831.03 758.91   A 0.35 0.35 0.0 0 0 830.69 759.27   L 830.92 772.48   Z   M 806.78 766.15   Q 807.58 762.94 809.60 760.08   Q 810.76 758.44 808.87 759.12   L 805.99 760.15   Q 805.51 760.33 805.33 760.80   Q 804.66 762.57 803.76 764.18   Q 801.80 767.70 800.97 773.59   Q 800.89 774.15 801.47 774.17   L 813.82 774.49   Q 815.18 774.53 815.05 773.17   L 813.84 760.47   Q 813.78 759.80 813.31 760.29   Q 810.72 763.03 810.09 766.10   A 1.16 1.15 4.5 0 1 809.01 767.02   L 807.53 767.08   A 0.75 0.74 -84.1 0 1 806.78 766.15   Z   M 824.8335 759.5380   A 0.29 0.29 0.0 0 0 824.5496 759.2420   L 824.5296 759.2416   A 0.29 0.29 0.0 0 0 824.2336 759.5254   L 823.9065 775.1420   A 0.29 0.29 0.0 0 0 824.1904 775.4380   L 824.2104 775.4384   A 0.29 0.29 0.0 0 0 824.5064 775.1546   L 824.8335 759.5380   Z   M 822.36 759.55   L 821.82 759.53   A 0.16 0.16 0.0 0 0 821.66 759.69   L 821.51 763.98   A 8.39 0.30 -88.0 0 0 821.52 772.37   L 821.78 772.38   A 8.39 0.30 -88.0 0 0 822.37 764.01   L 822.52 759.72   A 0.16 0.16 0.0 0 0 822.36 759.55   Z   M 820.0525 760.0342   A 0.25 0.25 0.0 0 0 819.8060 759.7807   L 819.7860 759.7805   A 0.25 0.25 0.0 0 0 819.5325 760.0269   L 819.3675 771.8458   A 0.25 0.25 0.0 0 0 819.6140 772.0993   L 819.6340 772.0995   A 0.25 0.25 0.0 0 0 819.8875 771.8531   L 820.0525 760.0342   Z   M 826.79 770.99   C 826.70 770.08 826.65 769.21 826.61 768.28   Q 826.61 768.27 826.61 768.27   Q 826.61 768.27 826.61 768.27   Q 826.58 768.31 826.58 768.37   Q 826.67 769.74 826.42 770.96   Q 826.38 771.16 826.58 771.18   L 826.59 771.18   Q 826.81 771.21 826.79 770.99   Z   M 826.7860 777.0400   A 2.67 0.20 90.3 0 0 827.0000 774.3710   A 2.67 0.20 90.3 0 0 826.8140 771.7000   A 2.67 0.20 90.3 0 0 826.6000 774.3690   A 2.67 0.20 90.3 0 0 826.7860 777.0400   Z   M 824.17 775.99   Q 823.98 776.47 824.23 776.94   Q 824.41 777.28 824.56 776.93   Q 824.79 776.44 824.56 775.98   Q 824.35 775.55 824.17 775.99   Z   M 818.93 776.30   Q 818.73 776.62 818.89 776.92   Q 819.45 778.01 819.67 776.79   Q 819.73 776.48 819.51 776.25   A 0.37 0.36 39.5 0 0 818.93 776.30   Z   M 799.06 777.41   L 815.16 777.41   A 0.12 0.12 0.0 0 0 815.28 777.29   L 815.28 777.20   A 1.23 1.01 -0.0 0 0 814.05 776.19   L 800.17 776.19   A 1.23 1.01 0.0 0 0 798.94 777.20   L 798.94 777.29   A 0.12 0.12 0.0 0 0 799.06 777.41   Z   M 821.42 776.38   Q 821.34 776.64 821.51 776.82   Q 821.71 777.03 821.77 776.75   Q 821.82 776.50 821.65 776.33   Q 821.48 776.16 821.42 776.38   Z" />
<circle cx="118.97" cy="702.23" r="5.08" />
<circle cx="310.97" cy="730.86" r="2.97" />
<ellipse cx="0.00" cy="0.00" transform="translate(718.03,736.23) rotate(85.5)" rx="3.06" ry="2.92" />
<circle cx="944.65" cy="736.23" r="3.01" />
<rect x="-1.49" y="-3.09" transform="translate(134.91,815.16) rotate(-5.4)" width="2.98" height="6.18" rx="1.41" />
<rect x="-1.76" y="-4.98" transform="translate(696.44,819.89) rotate(-1.8)" width="3.52" height="9.96" rx="1.67" />
<rect x="-1.55" y="-4.03" transform="translate(960.01,819.17) rotate(-1.0)" width="3.10" height="8.06" rx="1.39" />
<ellipse cx="0.00" cy="0.00" transform="translate(365.09,827.58) rotate(95.9)" rx="3.21" ry="2.31" />
<path d="   M 123.26 990.59   Q 121.79 963.86 120.71 936.59   Q 119.02 893.93 120.41 844.09   A 0.54 0.53 -0.0 0 1 120.94 843.57   L 121.23 843.56   Q 121.51 843.56 121.53 843.84   Q 122.01 850.52 122.26 856.75   C 124.49 912.22 125.69 967.66 126.97 1023.33   Q 126.97 1023.68 126.63 1023.70   L 126.29 1023.73   Q 126.07 1023.74 126.04 1023.52   Q 124.20 1007.67 123.26 990.59   Z" />
<path d="   M 133.09 873.95   Q 131.04 866.66 131.66 862.34   Q 131.92 860.54 133.43 861.56   Q 134.15 862.05 134.44 862.96   Q 136.21 868.46 136.56 873.16   Q 136.70 875.04 134.82 875.27   Q 134.55 875.30 134.29 875.21   Q 133.36 874.89 133.09 873.95   Z" />
<path d="   M 829.93 864.94   Q 844.22 865.63 857.73 865.12   A 0.46 0.45 15.3 0 1 858.13 865.82   L 857.96 866.08   Q 857.59 866.65 856.91 866.71   Q 843.43 867.86 829.48 867.01   Q 828.74 866.97 828.81 866.23   L 828.85 865.87   Q 828.94 864.89 829.93 864.94   Z" />
<ellipse cx="0.00" cy="0.00" transform="translate(158.93,870.82) rotate(78.8)" rx="5.46" ry="2.05" />
<rect x="-1.56" y="-3.97" transform="translate(144.93,870.37) rotate(-6.9)" width="3.12" height="7.94" rx="1.48" />
<path d="   M 831.61 873.20   C 840.22 873.05 846.68 872.00 854.52 871.09   Q 855.03 871.03 855.12 871.54   L 855.17 871.79   Q 855.23 872.14 854.88 872.23   Q 844.25 874.77 831.97 875.18   A 0.98 0.98 0.0 0 1 831.29 874.93   Q 830.75 874.45 830.84 873.87   A 0.81 0.80 3.9 0 1 831.61 873.20   Z" />
<ellipse cx="0.00" cy="0.00" transform="translate(278.28,880.53) rotate(86.6)" rx="3.36" ry="1.70" />
<rect x="-1.57" y="-3.73" transform="translate(292.60,882.97) rotate(-4.6)" width="3.14" height="7.46" rx="1.49" />
<path d="   M 671.65 900.44   Q 671.76 899.13 673.04 899.44   Q 673.67 899.59 674.07 900.10   Q 675.42 901.82 675.41 904.11   Q 675.36 912.20 672.82 920.48   Q 672.67 920.97 672.33 921.37   Q 671.52 922.30 670.40 921.25   A 1.51 1.50 24.2 0 1 669.93 920.03   L 671.65 900.44   Z" />
<path d="   M 185.10 937.45   Q 184.40 938.71 182.98 938.47   Q 182.80 938.44 182.63 938.35   Q 180.92 937.44 181.71 935.68   Q 184.21 930.05 187.73 924.25   Q 188.47 923.04 189.57 922.14   A 0.99 0.99 0.0 0 1 191.19 922.84   Q 191.28 924.25 190.72 925.63   Q 188.09 932.07 185.10 937.45   Z" />
<path d="   M 792.62 924.59   C 795.81 926.98 795.73 943.16 791.26 944.72   Q 790.67 944.92 790.29 944.43   C 788.20 941.68 789.04 928.43 790.69 925.05   A 1.29 1.28 31.5 0 1 792.62 924.59   Z" />
<ellipse cx="0.00" cy="0.00" transform="translate(490.54,931.43) rotate(93.4)" rx="2.91" ry="1.75" />
<path d="   M 336.01 958.54   L 340.40 939.06   A 1.36 1.36 0.0 0 1 342.62 938.33   Q 343.88 939.44 343.53 941.02   Q 341.12 951.64 337.61 958.82   Q 337.21 959.63 336.39 959.28   Q 335.90 959.06 336.01 958.54   Z" />
</g>
</g></svg>