<svg xmlns="http://www.w3.org/2000/svg" viewBox="0 0 1024 1024" version="1.1">
<g id="Parent-Group"><g id="Group-rgba(0,0,0,0)" fill="rgba(0,0,0,0)">
<path fill="rgba(0,0,0,0)" opacity="1.00" d=" M 0.00 0.00 L 1024.00 0.00 L 1024.00 1024.00 L 673.87 1024.00 C 674.13 999.41 674.22 974.37 667.39 950.52 C 660.44 925.43 645.62 901.76 623.63 887.29 C 611.53 879.22 597.38 874.83 583.13 872.48 C 551.36 867.44 519.13 866.97 487.06 865.61 C 465.99 864.91 444.45 864.52 424.04 870.65 C 401.25 877.12 379.00 890.13 366.68 910.95 C 367.89 888.31 366.37 865.66 366.53 843.01 C 366.48 833.12 366.49 823.24 366.52 813.35 C 366.83 800.22 367.04 786.97 369.64 774.05 C 371.11 766.37 374.74 758.89 380.97 753.96 C 391.29 745.61 405.08 743.39 418.01 743.48 C 469.19 744.16 520.39 746.99 571.58 744.98 C 587.06 744.62 602.55 743.68 618.05 744.18 C 630.25 744.80 643.11 749.18 650.63 759.33 C 657.30 768.11 659.36 779.40 660.18 790.14 C 661.70 809.04 661.32 828.02 661.38 846.97 C 661.50 873.29 660.07 899.61 661.15 925.93 C 661.26 931.99 663.66 938.86 669.58 941.50 C 675.49 944.40 684.28 941.98 685.92 935.05 C 688.64 923.95 688.42 912.39 688.62 901.03 C 688.58 876.70 687.87 852.37 687.25 828.05 C 686.69 820.58 686.99 812.14 682.00 806.00 C 677.66 800.90 669.72 801.26 664.76 805.24 C 664.71 798.78 664.21 792.34 663.58 785.91 C 677.59 784.51 691.84 779.07 701.02 767.98 C 710.16 757.42 713.24 742.66 710.77 729.08 C 743.86 729.25 776.94 730.22 810.03 730.35 C 848.13 730.76 886.24 730.84 924.34 730.75 C 924.61 754.83 924.55 778.92 924.70 803.01 C 924.81 846.00 925.62 888.99 924.89 931.98 C 925.08 935.30 924.30 938.96 925.87 942.04 C 928.88 944.75 933.46 943.88 937.18 943.72 C 940.49 943.44 942.44 940.22 942.04 937.07 C 942.72 888.73 942.60 840.38 943.00 792.03 C 943.32 771.57 942.97 751.10 943.51 730.64 C 953.32 730.88 963.14 730.55 972.97 730.74 C 974.96 730.65 977.10 730.95 979.01 730.14 C 980.65 728.97 979.98 726.71 980.18 725.02 C 980.00 719.96 980.36 714.89 980.03 709.85 C 980.05 707.67 977.74 707.22 976.05 707.31 C 960.76 707.38 945.47 707.18 930.19 707.21 C 930.29 690.80 929.73 674.40 929.81 657.99 C 929.69 654.55 930.09 651.06 929.39 647.67 C 926.18 644.98 921.39 646.87 917.56 646.40 C 919.67 635.60 921.94 624.82 924.10 614.03 C 925.17 611.32 922.35 610.25 920.45 609.37 C 921.26 605.63 922.30 601.91 922.64 598.10 C 923.26 596.21 919.75 595.36 919.53 597.35 C 918.55 601.27 917.91 605.26 917.11 609.22 C 915.46 609.23 912.54 607.81 911.89 610.11 C 908.69 622.05 907.62 634.51 903.97 646.35 C 901.05 646.40 898.12 646.33 895.24 645.94 C 888.26 628.43 881.43 610.87 874.71 593.26 C 873.38 590.03 872.56 586.43 870.24 583.74 C 869.25 582.71 867.87 583.38 866.77 583.72 C 861.63 585.65 856.52 587.71 851.53 590.01 C 852.14 593.81 853.58 597.40 854.99 600.97 C 860.64 615.90 866.38 630.79 872.17 645.67 C 869.63 645.68 865.03 645.11 865.30 648.91 C 865.14 668.35 864.33 687.78 864.29 707.22 C 855.98 707.33 847.69 706.72 839.38 706.90 C 839.42 703.70 839.06 699.25 835.14 698.57 C 829.70 697.82 824.16 698.48 818.69 698.31 C 818.75 696.51 818.83 694.72 818.91 692.94 C 826.08 693.02 833.28 688.31 834.50 680.96 C 839.76 648.70 844.22 616.30 849.59 584.06 C 850.26 579.70 849.56 574.81 846.47 571.47 C 843.55 568.37 839.16 567.20 835.02 567.30 C 810.34 567.51 785.67 567.62 761.00 567.55 C 755.23 567.59 749.00 566.85 743.78 569.86 C 739.73 572.12 737.33 576.46 736.51 580.92 C 730.26 611.55 723.84 642.14 717.82 672.82 C 716.80 677.65 716.72 683.11 719.71 687.31 C 721.83 690.79 725.68 692.68 729.61 693.30 C 729.50 694.98 729.41 696.66 729.32 698.35 C 724.05 698.48 718.71 697.76 713.49 698.67 C 710.27 699.47 709.25 702.97 708.44 705.76 C 706.65 705.50 704.50 706.10 702.98 705.08 C 700.75 700.00 699.71 694.47 697.78 689.27 C 693.74 679.04 693.72 666.57 685.03 658.69 C 687.67 651.85 687.89 643.54 683.76 637.23 C 682.17 634.67 679.28 633.52 676.73 632.19 C 681.58 623.28 685.20 613.78 689.55 604.62 C 690.70 602.08 691.97 599.57 692.75 596.88 C 689.96 593.91 686.08 591.70 682.05 591.05 C 679.21 591.04 679.17 594.93 677.19 596.15 C 675.12 596.07 673.05 595.43 671.00 595.82 C 668.16 597.92 667.20 601.58 665.72 604.63 C 663.61 610.04 660.69 615.26 659.74 621.05 C 660.24 623.50 662.95 624.03 664.90 624.88 C 664.25 627.01 663.33 629.05 662.15 630.95 C 656.42 629.04 650.17 630.07 644.87 632.74 C 635.66 624.41 624.90 617.89 613.16 613.83 C 597.27 608.33 580.70 605.02 564.12 602.46 C 563.68 596.27 563.71 590.07 563.26 583.88 C 585.17 583.86 607.08 583.78 628.99 583.85 C 652.97 584.48 676.97 584.20 700.96 584.66 C 704.71 584.49 709.38 585.41 712.13 582.15 C 715.09 579.23 714.37 574.74 714.45 570.99 C 713.67 524.64 713.60 478.28 714.19 431.94 C 714.59 388.61 714.74 345.29 714.84 301.97 C 714.62 298.23 715.76 293.89 713.28 290.68 C 710.56 287.31 705.80 288.03 701.97 287.87 C 679.33 287.53 656.68 287.00 634.03 287.46 C 602.37 288.08 570.68 288.14 539.02 287.20 C 462.04 284.64 385.01 286.35 308.02 287.71 C 282.00 288.07 255.97 287.89 229.98 286.72 C 225.00 286.73 220.00 286.18 215.03 286.62 C 211.97 286.93 210.23 290.05 210.39 292.90 C 210.27 305.61 210.25 318.33 210.04 331.04 C 208.90 370.38 212.04 409.70 210.86 449.04 C 210.34 472.35 209.56 495.67 209.80 518.99 C 209.71 536.99 210.36 554.98 210.35 572.98 C 210.44 575.71 210.13 578.79 212.00 581.05 C 213.34 583.01 215.93 582.88 218.03 582.92 C 235.70 582.67 253.38 582.61 271.04 583.11 C 307.80 583.43 344.56 583.67 381.32 583.82 C 375.73 612.45 370.25 641.10 364.79 669.76 C 351.72 670.51 338.62 670.80 325.57 671.87 C 322.72 672.22 319.69 672.56 317.27 674.25 C 313.72 676.70 312.00 681.00 308.45 683.45 C 306.27 684.93 303.54 685.00 301.00 685.13 C 300.75 683.35 300.46 681.60 300.24 679.83 C 300.01 676.41 299.78 672.91 300.66 669.56 C 302.93 662.21 309.52 656.73 310.41 648.88 C 311.04 650.07 312.20 651.16 312.19 652.59 C 308.54 659.12 303.21 664.71 300.38 671.71 C 303.20 671.91 305.98 673.08 308.80 672.82 C 311.85 671.10 313.18 667.66 314.54 664.63 C 316.01 660.95 318.37 657.03 316.92 652.96 C 316.33 649.73 313.54 646.29 309.92 647.29 C 307.09 646.35 303.64 643.44 300.80 645.73 C 298.65 648.65 297.30 652.07 295.21 655.03 C 295.53 646.67 294.30 638.38 292.66 630.22 C 292.12 628.16 289.66 628.59 288.08 628.72 C 276.37 630.31 264.62 631.58 252.86 632.80 C 251.17 633.08 249.28 633.04 247.87 634.14 C 246.69 635.84 247.33 638.02 247.49 639.93 C 248.66 647.69 249.85 655.44 250.79 663.23 C 251.17 665.26 251.38 668.46 254.00 668.78 C 259.04 669.04 263.90 667.16 268.92 666.79 C 269.07 669.15 269.28 671.51 269.62 673.86 C 267.11 674.08 264.60 674.23 262.10 674.34 C 260.68 685.74 261.43 697.28 261.10 708.74 C 253.43 708.71 245.77 708.73 238.11 708.75 C 237.92 688.17 238.32 667.59 238.00 647.01 C 237.63 644.95 238.57 641.74 235.99 640.89 C 230.71 640.17 225.35 640.82 220.04 640.62 C 219.46 638.00 220.36 634.71 218.41 632.60 C 213.82 631.55 209.04 632.50 204.38 632.05 C 204.27 629.54 204.42 626.92 203.39 624.57 C 201.26 623.60 198.82 623.78 196.55 623.49 C 196.33 621.72 196.09 619.96 195.81 618.21 C 186.78 617.02 177.65 617.89 168.57 617.68 C 166.01 613.34 163.58 608.67 159.46 605.60 C 156.81 603.73 153.07 604.67 151.03 606.99 C 147.55 610.82 145.53 615.67 143.13 620.20 C 137.04 620.80 130.91 620.62 124.81 621.04 C 123.19 621.18 123.40 623.37 122.75 624.48 C 120.38 624.99 117.67 625.13 115.85 626.95 C 113.94 628.72 114.07 631.51 113.64 633.88 C 108.45 633.99 103.19 633.55 98.06 634.47 C 96.04 634.92 95.17 637.04 95.38 638.94 C 95.60 662.28 96.34 685.60 96.44 708.94 C 83.97 708.86 71.50 708.87 59.03 708.82 C 57.33 708.88 54.62 708.86 54.25 711.02 C 53.89 715.64 54.45 720.28 54.77 724.89 C 54.85 726.69 55.70 729.02 57.94 728.73 C 66.03 728.80 74.12 728.44 82.21 728.57 C 82.54 785.02 83.10 841.47 83.50 897.91 C 83.67 906.11 83.35 914.32 83.80 922.52 C 84.62 922.47 86.26 922.36 87.08 922.31 C 88.07 921.15 87.63 919.45 87.81 918.07 C 87.50 854.89 86.86 791.71 86.52 728.52 C 133.69 727.57 180.88 727.23 228.04 728.31 C 234.44 728.47 240.84 728.55 247.24 728.73 C 247.43 759.81 248.44 790.87 248.49 821.95 C 248.47 846.95 248.63 871.95 248.44 896.94 C 248.53 905.62 247.99 914.33 248.77 922.98 C 249.12 925.97 252.65 926.33 255.04 926.37 C 257.85 926.49 261.81 926.20 262.81 923.01 C 263.41 920.06 263.23 917.04 263.31 914.06 C 263.63 861.36 262.47 808.68 262.12 755.98 C 261.86 746.93 261.82 737.87 261.65 728.81 C 288.43 729.16 315.21 729.31 342.00 729.12 C 343.31 729.17 344.63 729.25 345.95 729.39 C 344.79 731.44 343.65 733.51 342.55 735.60 C 333.07 754.75 323.82 774.38 319.63 795.47 C 317.99 804.56 316.01 814.14 318.84 823.21 C 322.44 834.26 332.64 842.25 343.67 845.09 C 345.09 868.73 342.95 892.49 345.57 916.06 C 346.46 923.10 347.52 931.12 353.69 935.66 C 343.36 963.84 343.19 994.37 343.37 1024.00 L 0.00 1024.00 L 0.00 0.00 M 770.73 204.06 C 769.79 207.45 770.80 211.27 773.35 213.71 C 776.09 216.54 780.28 216.93 783.98 217.29 C 795.98 217.85 807.97 216.11 819.97 216.85 C 825.25 217.11 827.63 223.30 826.29 227.83 C 825.84 229.90 824.41 233.86 828.10 233.33 C 833.55 227.02 830.55 214.23 821.48 212.83 C 807.99 211.23 794.38 214.18 780.89 212.62 C 777.12 212.43 773.56 208.86 775.02 204.94 C 775.58 201.09 778.84 198.79 781.40 196.25 C 782.53 194.82 780.86 193.62 779.90 192.77 C 775.85 195.49 771.83 199.10 770.73 204.06 M 860.94 206.89 C 863.01 208.54 865.47 209.56 867.90 210.57 C 865.94 215.26 862.64 220.61 865.25 225.71 C 867.91 229.40 873.08 228.16 876.99 228.68 C 880.15 228.87 880.84 232.52 881.57 234.98 C 882.67 239.36 880.27 243.39 878.20 247.04 C 876.58 248.61 879.43 250.53 880.85 249.53 C 886.05 243.78 887.55 234.47 883.15 227.85 C 879.58 223.25 873.19 225.48 868.46 223.46 C 868.08 219.97 868.56 215.90 871.57 213.63 C 872.48 212.64 874.51 211.89 873.87 210.19 C 871.03 207.47 867.39 205.74 863.98 203.88 C 862.21 202.53 859.33 205.19 860.94 206.89 M 745.54 208.64 C 741.66 212.20 738.61 216.83 737.52 222.03 C 736.64 226.15 739.02 230.80 743.02 232.27 C 747.93 234.48 754.07 232.89 758.40 236.55 C 759.80 239.83 756.49 243.59 758.43 246.66 C 761.21 248.73 764.80 249.44 768.15 250.08 C 770.10 250.58 771.66 247.48 770.01 246.35 C 767.51 245.55 764.91 245.12 762.38 244.51 C 762.79 241.14 764.17 237.24 761.76 234.30 C 757.68 229.21 750.40 229.84 745.13 226.79 C 743.10 225.63 742.09 223.08 743.05 220.88 C 744.03 216.61 747.26 213.50 749.65 210.01 C 749.05 208.41 746.93 207.20 745.54 208.64 M 804.85 254.73 C 803.38 258.67 804.45 263.13 804.10 267.27 C 799.73 267.55 795.33 267.01 790.99 267.62 C 788.87 267.82 788.85 270.37 788.82 271.99 C 788.80 296.18 788.73 320.38 788.76 344.57 C 774.13 344.47 759.49 344.04 744.86 344.09 C 743.28 343.95 741.55 345.31 741.70 346.97 C 741.56 352.97 741.44 358.97 741.49 364.97 C 741.26 366.72 742.53 368.41 744.33 368.49 C 795.44 368.71 846.56 370.36 897.68 370.23 C 897.88 381.55 897.48 392.90 898.31 404.20 C 898.47 407.49 902.59 407.83 905.11 407.75 C 907.61 407.96 910.48 406.43 910.52 403.65 C 910.87 392.49 910.36 381.32 910.64 370.16 C 919.11 370.43 927.58 370.03 936.05 370.20 C 938.04 370.33 940.73 369.47 940.70 367.04 C 940.98 360.38 940.85 353.69 940.76 347.02 C 940.85 345.49 939.58 344.18 938.06 344.28 C 929.96 344.03 921.86 344.38 913.76 344.32 C 913.35 333.14 914.18 321.89 913.45 310.75 C 911.24 309.13 908.18 310.08 905.65 309.92 C 905.54 306.50 905.59 303.08 905.43 299.67 C 899.55 297.60 893.12 299.26 887.00 298.75 C 884.28 299.03 880.08 297.74 878.73 300.95 C 878.57 303.91 878.84 306.88 878.85 309.85 C 875.67 309.74 872.46 309.63 869.34 310.35 C 868.99 311.88 868.67 313.43 868.75 315.02 C 868.86 324.91 868.69 334.80 868.74 344.69 C 862.22 344.64 855.71 344.71 849.19 344.79 C 849.02 320.18 849.06 295.56 849.18 270.95 C 849.22 269.48 848.83 267.36 846.93 267.39 C 843.37 266.99 839.78 267.30 836.22 267.32 C 835.76 263.10 837.42 258.40 835.41 254.53 C 829.72 253.51 823.80 254.40 818.03 254.14 C 813.65 254.44 809.08 253.44 804.85 254.73 M 775.08 389.31 C 773.27 389.55 771.94 391.14 772.19 392.97 C 771.95 437.22 770.75 481.48 771.39 525.73 C 771.22 527.75 773.14 528.95 774.99 528.84 C 813.02 528.90 851.06 528.85 889.09 528.88 C 891.24 529.07 892.71 526.96 892.50 524.96 C 892.55 481.64 892.02 438.31 892.21 394.98 C 892.47 392.32 891.48 388.66 888.09 389.15 C 850.42 389.30 812.73 388.93 775.08 389.31 M 309.38 634.42 C 306.02 635.93 303.26 640.37 305.09 643.92 C 308.34 646.36 314.14 648.13 316.91 644.09 C 320.66 639.42 314.82 632.06 309.38 634.42 Z" />
<path fill="rgba(0,0,0,0)" opacity="1.00" d=" M 468.57 604.69 C 485.31 600.04 502.88 598.56 520.14 600.64 C 534.26 602.20 548.34 604.14 562.39 606.24 C 576.11 608.49 589.81 611.08 603.20 614.84 C 618.15 619.12 632.59 626.22 643.56 637.43 C 654.17 648.27 663.13 660.55 673.08 671.97 C 682.42 683.11 692.01 694.21 699.16 706.94 C 704.04 716.57 707.58 727.14 707.73 738.02 C 707.87 747.78 704.72 757.70 698.23 765.09 C 689.71 775.49 676.30 780.53 663.24 781.86 C 661.80 773.29 659.37 764.66 654.18 757.55 C 647.91 749.07 638.22 743.50 627.90 741.62 C 623.30 740.64 618.60 740.30 613.92 739.99 C 609.81 729.66 605.34 719.48 600.56 709.45 C 599.80 707.65 598.31 705.33 596.19 707.07 C 595.66 709.28 596.86 711.31 597.74 713.26 C 602.14 722.01 605.64 731.18 609.63 740.12 C 586.40 740.19 563.21 741.78 539.99 741.77 C 501.65 741.86 463.33 740.36 425.00 739.57 C 414.06 739.26 402.65 739.31 392.36 743.50 C 394.12 737.43 394.70 731.11 395.92 724.92 C 398.88 709.17 402.35 693.51 406.25 677.97 C 407.30 673.31 408.92 668.77 409.42 664.01 C 408.33 663.74 407.25 663.49 406.17 663.24 C 404.01 668.31 403.17 673.81 401.75 679.11 C 396.33 700.89 392.05 722.93 388.16 745.02 C 379.08 748.66 371.40 755.98 368.20 765.32 C 364.09 776.96 363.55 789.47 362.97 801.69 C 362.94 802.28 362.87 803.48 362.83 804.08 C 360.77 801.30 357.60 799.13 353.98 799.59 C 348.83 799.88 345.48 804.78 344.82 809.51 C 343.35 819.91 344.20 830.44 343.67 840.90 C 335.16 838.36 327.26 832.69 323.56 824.43 C 320.54 818.06 320.98 810.77 322.02 803.99 C 325.34 780.38 335.47 758.47 346.14 737.39 C 359.04 712.15 375.11 688.71 388.99 664.02 C 393.66 656.25 397.77 648.17 402.36 640.36 C 407.15 632.19 415.20 626.72 423.42 622.42 C 437.79 614.95 452.95 608.94 468.57 604.69 Z" />
<path fill="rgba(0,0,0,0)" opacity="1.00" d=" M 914.75 612.34 C 916.84 612.60 918.92 612.93 921.02 613.31 C 920.36 616.07 916.66 614.49 914.68 614.57 C 914.69 614.01 914.73 612.89 914.75 612.34 Z" />
<path fill="rgba(0,0,0,0)" opacity="1.00" d=" M 913.43 617.58 C 915.49 617.90 917.56 618.13 919.66 618.36 C 917.78 627.67 915.96 636.99 914.05 646.29 C 911.89 646.34 909.73 646.38 907.59 646.44 C 910.27 636.98 911.68 627.23 913.43 617.58 Z" />
</g>
<g id="Group-000000" fill="#000000">
<path fill="#000000" opacity="1.00" d=" M 770.73 204.06 C 771.83 199.10 775.85 195.49 779.90 192.77 C 780.86 193.62 782.53 194.82 781.40 196.25 C 778.84 198.79 775.58 201.09 775.02 204.94 C 773.56 208.86 777.12 212.43 780.89 212.62 C 794.38 214.18 807.99 211.23 821.48 212.83 C 830.55 214.23 833.55 227.02 828.10 233.33 C 824.41 233.86 825.84 229.90 826.29 227.83 C 827.63 223.30 825.25 217.11 819.97 216.85 C 807.97 216.11 795.98 217.85 783.98 217.29 C 780.28 216.93 776.09 216.54 773.35 213.71 C 770.80 211.27 769.79 207.45 770.73 204.06 Z" />
</g>
<g id="Group-000000" fill="#000000">
<path fill="#000000" opacity="1.00" d=" M 860.94 206.89 C 859.33 205.19 862.21 202.53 863.98 203.88 C 867.39 205.74 871.03 207.47 873.87 210.19 C 874.51 211.89 872.48 212.64 871.57 213.63 C 868.56 215.90 868.08 219.97 868.46 223.46 C 873.19 225.48 879.58 223.25 883.15 227.85 C 887.55 234.47 886.05 243.78 880.85 249.53 C 879.43 250.53 876.58 248.61 878.20 247.04 C 880.27 243.39 882.67 239.36 881.57 234.98 C 880.84 232.52 880.15 228.87 876.99 228.68 C 873.08 228.16 867.91 229.40 865.25 225.71 C 862.64 220.61 865.94 215.26 867.90 210.57 C 865.47 209.56 863.01 208.54 860.94 206.89 Z" />
<path fill="#000000" opacity="1.00" d=" M 308.02 287.71 C 385.01 286.35 462.04 284.64 539.02 287.20 C 570.68 288.14 602.37 288.08 634.03 287.46 C 656.68 287.00 679.33 287.53 701.97 287.87 C 705.80 288.03 710.56 287.31 713.28 290.68 C 715.76 293.89 714.62 298.23 714.84 301.97 C 714.74 345.29 714.59 388.61 714.19 431.94 C 713.60 478.28 713.67 524.64 714.45 570.99 C 714.37 574.74 715.09 579.23 712.13 582.15 C 709.38 585.41 704.71 584.49 700.96 584.66 C 676.97 584.20 652.97 584.48 628.99 583.85 C 607.08 583.78 585.17 583.86 563.26 583.88 C 563.71 590.07 563.68 596.27 564.12 602.46 C 580.70 605.02 597.27 608.33 613.16 613.83 C 624.90 617.89 635.66 624.41 644.87 632.74 C 650.17 630.07 656.42 629.04 662.15 630.95 C 663.33 629.05 664.25 627.01 664.90 624.88 C 662.95 624.03 660.24 623.50 659.74 621.05 C 660.69 615.26 663.61 610.04 665.72 604.63 C 667.20 601.58 668.16 597.92 671.00 595.82 C 673.05 595.43 675.12 596.07 677.19 596.15 C 679.17 594.93 679.21 591.04 682.05 591.05 C 686.08 591.70 689.96 593.91 692.75 596.88 C 691.97 599.57 690.70 602.08 689.55 604.62 C 685.20 613.78 681.58 623.28 676.73 632.19 C 679.28 633.52 682.17 634.67 683.76 637.23 C 687.89 643.54 687.67 651.85 685.03 658.69 C 693.72 666.57 693.74 679.04 697.78 689.27 C 699.71 694.47 700.75 700.00 702.98 705.08 C 704.50 706.10 706.65 705.50 708.44 705.76 C 709.25 702.97 710.27 699.47 713.49 698.67 C 718.71 697.76 724.05 698.48 729.32 698.35 C 729.41 696.66 729.50 694.98 729.61 693.30 C 725.68 692.68 721.83 690.79 719.71 687.31 C 716.72 683.11 716.80 677.65 717.82 672.82 C 723.84 642.14 730.26 611.55 736.51 580.92 C 737.33 576.46 739.73 572.12 743.78 569.86 C 749.00 566.85 755.23 567.59 761.00 567.55 C 785.67 567.62 810.34 567.51 835.02 567.30 C 839.16 567.20 843.55 568.37 846.47 571.47 C 849.56 574.81 850.26 579.70 849.59 584.06 C 844.22 616.30 839.76 648.70 834.50 680.96 C 833.28 688.31 826.08 693.02 818.91 692.94 C 818.83 694.72 818.75 696.51 818.69 698.31 C 824.16 698.48 829.70 697.82 835.14 698.57 C 839.06 699.25 839.42 703.70 839.38 706.90 C 847.69 706.72 855.98 707.33 864.29 707.22 C 864.33 687.78 865.14 668.35 865.30 648.91 C 865.03 645.11 869.63 645.68 872.17 645.67 C 866.38 630.79 860.64 615.90 854.99 600.97 C 853.58 597.40 852.14 593.81 851.53 590.01 C 856.52 587.71 861.63 585.65 866.77 583.72 C 867.87 583.38 869.25 582.71 870.24 583.74 C 872.56 586.43 873.38 590.03 874.71 593.26 C 881.43 610.87 888.26 628.43 895.24 645.94 C 898.12 646.33 901.05 646.40 903.97 646.35 C 907.62 634.51 908.69 622.05 911.89 610.11 C 912.54 607.81 915.46 609.23 917.11 609.22 C 917.91 605.26 918.55 601.27 919.53 597.35 C 919.75 595.36 923.26 596.21 922.64 598.10 C 922.30 601.91 921.26 605.63 920.45 609.37 C 922.35 610.25 925.17 611.32 924.10 614.03 C 921.94 624.82 919.67 635.60 917.56 646.40 C 921.39 646.87 926.18 644.98 929.39 647.67 C 930.09 651.06 929.69 654.55 929.81 657.99 C 929.73 674.40 930.29 690.80 930.19 707.21 C 945.47 707.18 960.76 707.38 976.05 707.31 C 977.74 707.22 980.05 707.67 980.03 709.85 C 980.36 714.89 980.00 719.96 980.18 725.02 C 979.98 726.71 980.65 728.97 979.01 730.14 C 977.10 730.95 974.96 730.65 972.97 730.74 C 963.14 730.55 953.32 730.88 943.51 730.64 C 942.97 751.10 943.32 771.57 943.00 792.03 C 942.60 840.38 942.72 888.73 942.04 937.07 C 942.44 940.22 940.49 943.44 937.18 943.72 C 933.46 943.88 928.88 944.75 925.87 942.04 C 924.30 938.96 925.08 935.30 924.89 931.98 C 925.62 888.99 924.81 846.00 924.70 803.01 C 924.55 778.92 924.61 754.83 924.34 730.75 C 886.24 730.84 848.13 730.76 810.03 730.35 C 776.94 730.22 743.86 729.25 710.77 729.08 C 713.24 742.66 710.16 757.42 701.02 767.98 C 691.84 779.07 677.59 784.51 663.58 785.91 C 664.21 792.34 664.71 798.78 664.76 805.24 C 669.72 801.26 677.66 800.90 682.00 806.00 C 686.99 812.14 686.69 820.58 687.25 828.05 C 687.87 852.37 688.58 876.70 688.62 901.03 C 688.42 912.39 688.64 923.95 685.92 935.05 C 684.28 941.98 675.49 944.40 669.58 941.50 C 663.66 938.86 661.26 931.99 661.15 925.93 C 660.07 899.61 661.50 873.29 661.38 846.97 C 661.32 828.02 661.70 809.04 660.18 790.14 C 659.36 779.40 657.30 768.11 650.63 759.33 C 651.81 758.73 652.99 758.14 654.18 757.55 C 659.37 764.66 661.80 773.29 663.24 781.86 C 676.30 780.53 689.71 775.49 698.23 765.09 C 704.72 757.70 707.87 747.78 707.73 738.02 C 707.58 727.14 704.04 716.57 699.16 706.94 C 692.01 694.21 682.42 683.11 673.08 671.97 C 663.13 660.55 654.17 648.27 643.56 637.43 C 632.59 626.22 618.15 619.12 603.20 614.84 C 589.81 611.08 576.11 608.49 562.39 606.24 C 561.78 605.08 561.53 603.70 560.62 602.76 C 558.61 602.24 556.58 601.88 554.63 601.19 C 556.48 601.38 558.34 601.56 560.20 601.75 C 560.16 595.78 560.10 589.74 559.03 583.85 C 558.75 581.40 556.22 580.51 554.26 579.74 C 536.59 573.67 517.77 570.42 499.07 571.80 C 490.22 572.62 481.30 574.23 473.27 578.18 C 469.42 579.98 464.84 582.20 463.87 586.79 C 462.58 592.03 462.23 597.46 460.87 602.69 C 462.42 602.27 463.99 601.85 465.55 601.42 C 466.55 602.50 467.56 603.59 468.57 604.69 C 452.95 608.94 437.79 614.95 423.42 622.42 C 415.20 626.72 407.15 632.19 402.36 640.36 C 397.77 648.17 393.66 656.25 388.99 664.02 C 375.11 688.71 359.04 712.15 346.14 737.39 C 344.94 736.79 343.74 736.19 342.55 735.60 C 343.65 733.51 344.79 731.44 345.95 729.39 C 344.63 729.25 343.31 729.17 342.00 729.12 C 315.21 729.31 288.43 729.16 261.65 728.81 C 261.82 737.87 261.86 746.93 262.12 755.98 C 262.47 808.68 263.63 861.36 263.31 914.06 C 263.23 917.04 263.41 920.06 262.81 923.01 C 261.81 926.20 257.85 926.49 255.04 926.37 C 252.65 926.33 249.12 925.97 248.77 922.98 C 247.99 914.33 248.53 905.62 248.44 896.94 C 248.63 871.95 248.47 846.95 248.49 821.95 C 248.44 790.87 247.43 759.81 247.24 728.73 C 240.84 728.55 234.44 728.47 228.04 728.31 C 227.26 727.40 226.48 726.49 225.71 725.59 C 230.63 724.31 235.81 725.81 240.67 724.12 C 264.78 724.27 288.89 724.67 313.00 724.62 C 324.98 724.55 336.97 724.86 348.93 724.25 C 350.95 720.17 353.31 716.30 355.67 712.42 C 333.58 712.47 311.50 712.85 289.41 712.78 C 285.52 711.35 281.34 712.39 277.36 711.65 C 276.50 710.75 275.91 709.64 275.28 708.60 C 271.06 702.16 272.55 692.37 279.19 688.15 C 284.62 684.55 291.41 685.26 297.59 685.24 C 297.29 682.00 297.05 678.76 297.17 675.51 C 298.62 678.55 297.47 682.29 299.46 685.12 C 299.80 683.37 300.08 681.60 300.24 679.83 C 300.46 681.60 300.75 683.35 301.00 685.13 C 303.54 685.00 306.27 684.93 308.45 683.45 C 312.00 681.00 313.72 676.70 317.27 674.25 C 319.69 672.56 322.72 672.22 325.57 671.87 C 338.62 670.80 351.72 670.51 364.79 669.76 C 370.25 641.10 375.73 612.45 381.32 583.82 C 344.56 583.67 307.80 583.43 271.04 583.11 C 253.38 582.61 235.70 582.67 218.03 582.92 C 215.93 582.88 213.34 583.01 212.00 581.05 C 210.13 578.79 210.44 575.71 210.35 572.98 C 210.36 554.98 209.71 536.99 209.80 518.99 C 209.56 495.67 210.34 472.35 210.86 449.04 C 212.04 409.70 208.90 370.38 210.04 331.04 C 210.25 318.33 210.27 305.61 210.39 292.90 C 210.23 290.05 211.97 286.93 215.03 286.62 C 220.00 286.18 225.00 286.73 229.98 286.72 C 255.97 287.89 282.00 288.07 308.02 287.71 M 229.40 304.24 C 229.25 335.45 228.67 366.68 230.07 397.87 C 231.08 427.21 230.14 456.57 228.93 485.88 C 228.43 510.85 228.74 535.82 229.35 560.77 C 256.22 560.34 283.10 560.37 309.98 560.22 C 364.75 560.11 419.52 559.89 474.29 559.79 C 473.95 556.42 473.74 552.92 472.21 549.85 C 470.97 548.30 468.77 548.34 467.01 548.00 C 462.81 547.58 458.68 546.72 454.69 545.36 C 454.62 544.82 454.48 543.74 454.41 543.20 C 454.84 542.75 455.69 541.84 456.12 541.39 C 461.50 543.48 467.36 543.59 472.84 545.28 C 476.13 546.28 477.01 550.10 477.63 553.05 C 478.58 559.25 478.57 565.60 477.76 571.82 C 499.39 565.08 522.79 566.65 544.46 572.38 C 544.16 566.57 544.23 560.76 543.85 554.97 C 526.54 556.70 508.61 557.50 491.78 552.30 C 481.92 549.32 473.28 542.89 467.23 534.60 C 458.31 522.64 452.65 508.09 451.96 493.13 C 449.71 494.41 444.87 493.91 447.01 490.35 C 453.26 488.24 460.38 485.92 463.56 479.56 C 466.88 472.32 466.76 463.52 463.71 456.21 C 461.57 450.81 455.66 447.64 449.98 448.24 C 445.68 448.06 442.15 450.96 437.98 451.34 C 437.11 442.77 438.62 434.23 440.28 425.85 C 438.34 425.04 436.44 424.15 434.55 423.27 C 434.33 424.61 434.12 425.96 433.90 427.31 C 433.21 425.37 432.83 423.19 431.24 421.75 L 431.48 420.74 C 426.27 416.00 421.43 410.55 418.90 403.88 C 414.33 392.22 414.77 379.01 418.19 367.10 C 422.94 352.11 432.24 338.15 445.48 329.41 C 459.48 320.40 476.81 319.53 492.97 320.07 C 509.24 320.55 525.81 325.02 538.68 335.32 C 549.28 343.26 556.84 354.31 565.89 363.79 C 566.50 353.83 566.35 343.84 566.85 333.88 C 566.81 332.18 568.36 331.01 569.93 330.87 C 601.28 331.32 632.67 330.95 664.02 331.62 C 666.32 331.53 667.32 334.05 667.29 335.97 C 667.81 355.98 666.46 375.97 666.37 395.98 C 666.20 402.33 666.37 408.69 666.06 415.04 C 666.01 417.25 664.43 419.73 661.95 419.46 C 649.92 419.47 637.89 419.49 625.88 419.19 C 626.23 424.02 626.18 428.87 626.15 433.71 C 638.45 433.73 650.74 434.29 663.04 434.20 C 666.07 434.12 666.54 437.74 666.41 440.05 C 666.43 464.38 665.13 488.68 664.88 513.01 C 665.14 515.46 664.01 518.82 661.07 518.74 C 643.69 518.57 626.30 518.39 608.94 517.87 C 606.32 518.04 603.54 517.35 601.05 518.31 C 598.69 521.81 596.49 525.43 593.69 528.62 C 582.67 542.81 565.45 550.85 548.13 554.22 C 547.55 556.57 547.97 559.04 547.88 561.45 C 595.48 560.40 643.08 561.28 690.69 561.85 C 690.15 526.91 690.14 491.97 690.26 457.04 C 690.14 406.42 691.31 355.82 691.16 305.21 C 684.45 305.30 677.77 304.68 671.06 304.79 C 640.02 304.24 608.99 305.83 577.95 305.42 C 539.29 304.91 500.65 303.31 461.98 303.51 C 408.96 303.62 355.94 304.31 302.94 305.35 C 278.41 305.90 253.91 304.94 229.40 304.24 M 571.09 335.25 C 570.60 345.80 570.23 356.41 570.28 366.98 C 574.03 360.24 578.74 353.12 586.41 350.52 C 598.67 346.11 614.18 354.75 615.80 367.92 C 616.34 377.27 610.98 385.83 604.15 391.79 C 614.70 394.87 622.75 404.03 624.89 414.74 C 637.16 415.21 649.43 415.22 661.70 415.41 C 662.16 388.87 663.20 362.33 663.05 335.80 C 632.40 335.18 601.74 335.42 571.09 335.25 M 625.48 438.19 C 624.59 454.39 621.21 470.32 616.21 485.73 C 620.49 486.02 624.81 485.87 629.05 486.59 C 630.60 486.76 630.66 488.79 629.67 489.71 C 624.75 490.18 619.79 489.75 614.89 489.32 C 611.95 497.75 607.93 505.73 603.96 513.71 C 622.84 513.90 641.72 514.44 660.60 514.64 C 660.80 507.40 660.78 500.16 661.12 492.93 C 661.15 474.71 662.50 456.48 661.94 438.27 C 652.63 438.22 643.32 438.31 634.02 437.90 C 631.17 437.84 628.29 437.64 625.48 438.19 M 856.12 592.23 C 856.69 593.92 857.33 595.60 857.99 597.27 C 861.85 595.53 865.54 593.40 869.56 592.03 C 869.22 590.30 868.81 588.50 867.31 587.40 C 863.67 589.21 859.78 590.48 856.12 592.23 M 753.75 594.51 C 753.00 596.98 752.38 599.49 751.94 602.04 C 747.63 624.81 742.65 647.46 737.64 670.08 C 736.96 671.70 737.80 673.94 739.84 673.56 C 762.21 673.46 784.60 673.05 806.98 673.70 C 809.15 673.66 812.85 674.22 812.97 671.06 C 816.31 648.71 820.14 626.42 823.68 604.09 C 824.03 601.23 825.18 598.28 824.53 595.41 C 822.49 593.78 819.42 594.86 816.98 594.63 C 795.90 595.07 774.80 593.63 753.75 594.51 M 859.16 600.44 C 859.86 602.77 860.87 605.00 862.16 607.08 C 866.15 605.82 869.98 604.13 873.96 602.83 C 873.01 600.32 872.05 597.81 871.27 595.26 C 866.97 596.30 863.07 598.44 859.16 600.44 M 670.73 601.80 C 668.12 607.07 665.83 612.52 663.81 618.05 C 662.46 619.90 665.04 620.73 666.12 621.53 C 669.70 614.73 672.29 607.45 675.60 600.52 C 676.14 598.98 673.94 599.30 673.08 599.32 C 671.76 599.34 671.36 600.91 670.73 601.80 M 863.36 609.55 C 862.49 611.63 864.54 613.83 865.29 615.79 C 869.36 614.91 873.02 612.86 876.97 611.62 C 876.44 609.53 875.66 607.53 874.95 605.52 C 871.22 607.25 867.40 608.77 863.36 609.55 M 914.75 612.34 C 914.73 612.89 914.69 614.01 914.68 614.57 C 916.66 614.49 920.36 616.07 921.02 613.31 C 918.92 612.93 916.84 612.60 914.75 612.34 M 866.35 618.70 C 867.09 620.74 867.82 622.79 868.81 624.74 C 872.65 622.89 876.55 621.16 880.34 619.21 C 879.66 617.60 878.98 616.01 878.26 614.44 C 874.33 615.97 870.34 617.35 866.35 618.70 M 913.43 617.58 C 911.68 627.23 910.27 636.98 907.59 646.44 C 909.73 646.38 911.89 646.34 914.05 646.29 C 915.96 636.99 917.78 627.67 919.66 618.36 C 917.56 618.13 915.49 617.90 913.43 617.58 M 869.96 627.41 C 870.40 630.16 871.70 632.66 872.96 635.12 C 876.92 634.10 880.46 631.91 884.47 631.08 C 883.83 628.13 882.60 625.37 881.78 622.49 C 877.62 623.58 874.10 626.26 869.96 627.41 M 654.99 633.03 C 656.01 636.95 657.23 640.84 657.50 644.91 C 657.66 648.98 661.53 651.33 663.63 654.45 C 664.86 655.55 665.86 658.32 667.96 657.21 C 672.34 655.67 677.06 655.88 681.60 656.62 C 683.61 650.13 684.07 640.37 676.92 636.88 C 673.80 634.97 674.01 641.29 670.99 640.68 C 664.71 640.01 661.54 632.62 654.99 633.03 M 647.06 634.81 C 649.29 637.07 651.48 639.38 653.22 642.07 C 653.32 639.52 652.89 637.02 652.33 634.57 C 650.57 634.69 648.81 634.79 647.06 634.81 M 873.84 638.14 C 874.57 639.92 875.33 641.69 876.04 643.49 C 879.80 641.73 883.49 639.83 887.28 638.14 C 886.70 636.64 886.17 635.15 885.68 633.64 C 881.79 635.29 877.90 636.95 873.84 638.14 M 876.81 645.50 C 881.33 646.80 886.20 645.61 890.87 645.91 C 890.01 644.15 889.13 642.42 888.25 640.70 C 884.68 642.82 880.67 644.03 876.81 645.50 M 869.19 650.04 C 869.13 668.49 868.35 686.93 868.49 705.38 C 887.60 705.31 906.73 705.28 925.84 705.64 C 926.20 687.26 925.50 668.82 925.63 650.41 C 906.81 650.28 888.00 650.35 869.19 650.04 M 669.28 661.76 C 674.76 667.98 680.47 674.01 685.28 680.79 C 687.07 680.27 688.88 679.84 690.72 679.47 C 689.23 673.58 687.13 667.64 683.30 662.86 C 679.65 659.23 673.54 659.14 669.28 661.76 M 688.01 684.27 C 690.39 687.14 692.65 690.11 694.90 693.09 C 694.62 689.60 692.82 686.51 691.59 683.30 C 690.39 683.61 689.19 683.93 688.01 684.27 M 705.38 709.88 C 706.88 714.89 708.84 719.75 709.98 724.87 C 744.67 725.32 779.36 726.19 814.06 726.30 C 868.03 727.04 922.02 726.55 975.99 726.69 C 976.29 721.67 976.01 716.65 976.26 711.63 C 953.50 711.13 930.73 711.54 907.97 711.72 C 874.63 711.84 841.30 710.92 807.97 710.79 C 793.66 710.97 779.37 711.11 765.07 710.53 C 745.18 709.83 725.23 711.75 705.38 709.88 Z" />
<path fill="#000000" opacity="1.00" d=" M 613.26 391.72 C 613.47 390.63 612.98 388.40 614.88 388.76 C 621.42 388.47 627.98 388.43 634.51 388.92 C 634.49 389.72 634.44 391.33 634.42 392.13 C 627.37 392.08 620.25 392.76 613.26 391.72 Z" />
<path fill="#000000" opacity="1.00" d=" M 415.09 446.18 C 419.99 444.64 425.58 450.02 423.12 454.90 C 421.99 459.20 416.45 460.66 412.99 458.19 C 408.51 455.36 409.75 447.18 415.09 446.18 Z" />
<path fill="#000000" opacity="1.00" d=" M 340.06 535.20 C 343.86 533.73 348.13 534.51 352.09 534.87 C 352.70 536.75 352.84 539.63 350.65 540.55 C 347.33 541.37 343.75 541.40 340.45 540.48 C 338.63 539.32 339.43 536.80 340.06 535.20 Z" />
<path fill="#000000" opacity="1.00" d=" M 355.79 535.86 C 356.77 534.77 358.07 535.58 359.19 535.91 C 359.17 537.25 359.67 539.12 358.04 539.76 C 355.67 540.63 354.75 537.47 355.79 535.86 Z" />
<path fill="#000000" opacity="1.00" d=" M 799.76 638.99 C 800.26 636.59 802.53 634.43 805.05 634.23 C 807.24 634.22 807.76 636.55 808.20 638.22 C 811.08 638.36 813.97 638.17 816.86 638.46 C 814.22 638.78 811.50 638.63 808.95 639.38 C 807.35 640.86 805.94 642.61 803.92 643.55 C 802.11 642.47 800.53 640.98 799.76 638.99 Z" />
<path fill="#000000" opacity="1.00" d=" M 749.38 647.27 C 751.24 644.12 755.75 645.24 757.64 647.82 C 757.26 650.33 755.52 652.64 753.01 653.31 C 750.16 653.18 747.51 649.92 749.38 647.27 Z" />
<path fill="#000000" opacity="1.00" d=" M 344.82 809.51 C 345.48 804.78 348.83 799.88 353.98 799.59 C 357.60 799.13 360.77 801.30 362.83 804.08 C 362.87 803.48 362.94 802.28 362.97 801.69 C 365.22 805.18 365.48 809.42 366.52 813.35 C 366.49 823.24 366.48 833.12 366.53 843.01 C 366.37 865.66 367.89 888.31 366.68 910.95 C 379.00 890.13 401.25 877.12 424.04 870.65 C 444.45 864.52 465.99 864.91 487.06 865.61 C 519.13 866.97 551.36 867.44 583.13 872.48 C 597.38 874.83 611.53 879.22 623.63 887.29 C 645.62 901.76 660.44 925.43 667.39 950.52 C 674.22 974.37 674.13 999.41 673.87 1024.00 L 596.19 1024.00 C 596.30 1010.07 596.86 996.06 595.16 982.20 C 593.89 972.39 590.02 962.34 582.01 956.10 C 572.68 948.71 560.56 946.55 549.04 945.20 C 540.09 944.15 531.08 943.48 522.07 943.29 C 522.49 970.19 523.04 997.09 523.09 1024.00 L 505.42 1024.00 C 504.85 996.84 503.84 969.68 503.34 942.52 C 488.92 942.08 474.45 941.90 460.05 943.00 C 448.28 943.95 436.04 948.04 428.29 957.40 C 420.93 966.14 419.22 977.95 418.44 988.98 C 417.55 1000.63 417.77 1012.32 417.80 1024.00 L 343.37 1024.00 C 343.19 994.37 343.36 963.84 353.69 935.66 C 347.52 931.12 346.46 923.10 345.57 916.06 C 342.95 892.49 345.09 868.73 343.67 845.09 C 343.61 843.69 343.62 842.29 343.67 840.90 C 344.20 830.44 343.35 819.91 344.82 809.51 Z" />
</g>
<g id="Group-000000" fill="#000000">
<path fill="#000000" opacity="1.00" d=" M 745.54 208.64 C 746.93 207.20 749.05 208.41 749.65 210.01 C 747.26 213.50 744.03 216.61 743.05 220.88 C 742.09 223.08 743.10 225.63 745.13 226.79 C 750.40 229.84 757.68 229.21 761.76 234.30 C 764.17 237.24 762.79 241.14 762.38 244.51 C 764.91 245.12 767.51 245.55 770.01 246.35 C 771.66 247.48 770.10 250.58 768.15 250.08 C 764.80 249.44 761.21 248.73 758.43 246.66 C 756.49 243.59 759.80 239.83 758.40 236.55 C 754.07 232.89 747.93 234.48 743.02 232.27 C 739.02 230.80 736.64 226.15 737.52 222.03 C 738.61 216.83 741.66 212.20 745.54 208.64 Z" />
<path fill="#000000" opacity="1.00" d=" M 804.85 254.73 C 809.08 253.44 813.65 254.44 818.03 254.14 C 823.80 254.40 829.72 253.51 835.41 254.53 C 837.42 258.40 835.76 263.10 836.22 267.32 C 839.78 267.30 843.37 266.99 846.93 267.39 C 848.83 267.36 849.22 269.48 849.18 270.95 C 849.06 295.56 849.02 320.18 849.19 344.79 C 855.71 344.71 862.22 344.64 868.74 344.69 C 868.69 334.80 868.86 324.91 868.75 315.02 C 868.67 313.43 868.99 311.88 869.34 310.35 C 872.46 309.63 875.67 309.74 878.85 309.85 C 878.84 306.88 878.57 303.91 878.73 300.95 C 880.08 297.74 884.28 299.03 887.00 298.75 C 893.12 299.26 899.55 297.60 905.43 299.67 C 905.59 303.08 905.54 306.50 905.65 309.92 C 908.18 310.08 911.24 309.13 913.45 310.75 C 914.18 321.89 913.35 333.14 913.76 344.32 C 921.86 344.38 929.96 344.03 938.06 344.28 C 939.58 344.18 940.85 345.49 940.76 347.02 C 940.85 353.69 940.98 360.38 940.70 367.04 C 940.73 369.47 938.04 370.33 936.05 370.20 C 927.58 370.03 919.11 370.43 910.64 370.16 C 910.36 381.32 910.87 392.49 910.52 403.65 C 910.48 406.43 907.61 407.96 905.11 407.75 C 902.59 407.83 898.47 407.49 898.31 404.20 C 897.48 392.90 897.88 381.55 897.68 370.23 C 846.56 370.36 795.44 368.71 744.33 368.49 C 742.53 368.41 741.26 366.72 741.49 364.97 C 741.44 358.97 741.56 352.97 741.70 346.97 C 741.55 345.31 743.28 343.95 744.86 344.09 C 759.49 344.04 774.13 344.47 788.76 344.57 C 788.73 320.38 788.80 296.18 788.82 271.99 C 788.85 270.37 788.87 267.82 790.99 267.62 C 795.33 267.01 799.73 267.55 804.10 267.27 C 804.45 263.13 803.38 258.67 804.85 254.73 M 807.90 257.86 C 807.85 260.97 807.79 264.08 808.04 267.19 C 816.10 267.13 824.16 267.24 832.21 267.13 C 832.31 264.05 832.37 260.96 832.40 257.88 C 824.23 257.89 816.07 257.97 807.90 257.86 M 792.51 271.44 C 793.08 295.77 792.51 320.12 792.67 344.46 C 810.21 344.86 827.75 344.67 845.29 344.81 C 845.26 320.27 845.22 295.73 845.27 271.19 C 835.86 270.61 826.42 270.98 817.00 270.92 C 808.84 271.43 800.64 270.70 792.51 271.44 M 882.61 309.72 C 888.88 309.94 895.15 309.82 901.42 309.92 C 901.55 307.58 901.62 305.23 901.64 302.88 C 895.36 302.91 889.08 302.81 882.80 303.07 C 882.73 305.28 882.69 307.50 882.61 309.72 M 872.57 313.63 C 872.62 323.96 872.54 334.29 872.59 344.62 C 885.02 344.56 897.45 344.42 909.87 344.31 C 909.86 334.11 909.84 323.91 909.90 313.71 C 897.46 313.48 885.01 313.83 872.57 313.63 M 745.86 348.15 C 745.53 353.55 745.80 358.97 745.77 364.38 C 760.84 364.27 775.92 364.60 791.00 364.83 C 819.99 365.44 849.00 365.70 878.00 366.14 C 897.47 366.39 916.96 365.94 936.43 366.30 C 937.16 360.33 936.72 354.27 936.80 348.27 C 873.15 348.80 809.50 349.24 745.86 348.15 Z" />
<path fill="#000000" opacity="1.00" d=" M 617.70 377.89 C 625.46 377.58 633.25 377.74 641.02 377.99 C 643.78 377.46 643.94 382.05 641.18 381.60 C 633.42 381.67 625.63 381.79 617.89 381.22 C 617.84 380.38 617.74 378.72 617.70 377.89 Z" />
</g>
<g id="Group-000000" fill="#000000">
<path fill="rgba(0,0,0,0)" opacity="1.00" d=" M 807.90 257.86 C 816.07 257.97 824.23 257.89 832.40 257.88 C 832.37 260.96 832.31 264.05 832.21 267.13 C 824.16 267.24 816.10 267.13 808.04 267.19 C 807.79 264.08 807.85 260.97 807.90 257.86 Z" />
<path fill="rgba(0,0,0,0)" opacity="1.00" d=" M 820.98 422.13 C 822.74 420.13 824.68 418.29 826.72 416.58 C 828.94 418.85 832.05 420.06 834.07 422.52 C 829.70 422.23 825.34 422.26 820.98 422.13 Z" />
<path fill="rgba(0,0,0,0)" opacity="1.00" d=" M 791.52 504.25 C 804.91 504.12 818.32 504.40 831.72 504.41 C 831.72 506.84 831.66 509.28 831.58 511.73 C 818.22 511.69 804.85 511.63 791.49 511.58 C 791.39 509.13 791.41 506.69 791.52 504.25 Z" />
<path fill="rgba(0,0,0,0)" opacity="1.00" d=" M 670.73 601.80 C 671.36 600.91 671.76 599.34 673.08 599.32 C 673.94 599.30 676.14 598.98 675.60 600.52 C 672.29 607.45 669.70 614.73 666.12 621.53 C 665.04 620.73 662.46 619.90 663.81 618.05 C 665.83 612.52 668.12 607.07 670.73 601.80 Z" />
<path fill="rgba(0,0,0,0)" opacity="1.00" d=" M 151.95 612.01 C 152.99 610.62 154.10 608.97 155.92 608.65 C 159.04 609.23 160.60 612.35 162.25 614.73 C 165.81 620.60 168.58 626.91 171.40 633.17 C 161.11 633.27 150.82 633.38 140.53 633.51 C 144.47 626.41 147.58 618.86 151.95 612.01 Z" />
<path fill="rgba(0,0,0,0)" opacity="1.00" d=" M 170.57 621.76 C 177.91 621.36 185.27 621.37 192.62 621.36 C 192.60 623.35 192.63 625.34 192.75 627.34 C 195.34 627.46 197.93 627.41 200.53 627.44 C 200.73 629.09 200.92 630.74 201.12 632.41 C 192.76 632.88 184.36 632.82 175.99 633.06 C 173.84 629.52 172.59 625.42 170.57 621.76 Z" />
<path fill="rgba(0,0,0,0)" opacity="1.00" d=" M 126.33 625.16 C 131.22 624.48 136.18 624.66 141.09 624.11 C 139.38 627.16 137.86 630.31 136.54 633.55 C 130.25 633.86 123.94 633.50 117.65 633.88 C 117.68 632.29 117.90 630.71 118.26 629.18 C 120.83 628.46 123.51 628.35 126.16 628.20 C 126.20 627.44 126.29 625.92 126.33 625.16 Z" />
<path fill="rgba(0,0,0,0)" opacity="1.00" d=" M 654.99 633.03 C 661.54 632.62 664.71 640.01 670.99 640.68 C 674.01 641.29 673.80 634.97 676.92 636.88 C 684.07 640.37 683.61 650.13 681.60 656.62 C 677.06 655.88 672.34 655.67 667.96 657.21 C 665.86 658.32 664.86 655.55 663.63 654.45 C 661.53 651.33 657.66 648.98 657.50 644.91 C 657.23 640.84 656.01 636.95 654.99 633.03 Z" />
<path fill="rgba(0,0,0,0)" opacity="1.00" d=" M 220.09 644.86 C 224.65 644.86 229.23 644.66 233.78 645.09 C 233.60 666.30 233.83 687.51 233.71 708.72 C 229.20 708.66 224.68 708.74 220.18 708.75 C 219.60 687.46 220.04 666.16 220.09 644.86 Z" />
<path fill="rgba(0,0,0,0)" opacity="1.00" d=" M 281.23 665.02 C 284.48 664.75 287.60 663.78 290.81 663.29 C 289.43 665.80 287.69 668.13 286.92 670.93 C 286.53 672.90 283.95 671.87 282.62 672.30 C 282.06 669.89 281.57 667.46 281.23 665.02 Z" />
<path fill="rgba(0,0,0,0)" opacity="1.00" d=" M 271.94 666.23 C 274.18 666.18 276.41 665.94 278.63 665.62 C 278.40 667.96 278.72 670.28 279.65 672.46 C 277.17 672.50 274.72 672.90 272.33 673.54 C 272.09 671.10 272.01 668.66 271.94 666.23 Z" />
<path fill="rgba(0,0,0,0)" opacity="1.00" d=" M 705.38 709.88 C 725.23 711.75 745.18 709.83 765.07 710.53 C 779.37 711.11 793.66 710.97 807.97 710.79 C 841.30 710.92 874.63 711.84 907.97 711.72 C 930.73 711.54 953.50 711.13 976.26 711.63 C 976.01 716.65 976.29 721.67 975.99 726.69 C 922.02 726.55 868.03 727.04 814.06 726.30 C 779.36 726.19 744.67 725.32 709.98 724.87 C 708.84 719.75 706.88 714.89 705.38 709.88 Z" />
<path fill="rgba(0,0,0,0)" opacity="1.00" d=" M 58.06 713.10 C 119.04 713.10 180.03 714.10 241.01 712.98 C 257.14 713.34 273.28 713.04 289.41 712.78 C 311.50 712.85 333.58 712.47 355.67 712.42 C 353.31 716.30 350.95 720.17 348.93 724.25 C 336.97 724.86 324.98 724.55 313.00 724.62 C 288.89 724.67 264.78 724.27 240.67 724.12 C 219.45 723.42 198.20 723.21 176.96 723.15 C 137.69 722.80 98.42 724.82 59.17 724.54 C 57.73 721.10 58.59 716.84 58.06 713.10 Z" />
</g>
<g id="Group-000000" fill="#000000">
<path fill="rgba(0,0,0,0)" opacity="1.00" d=" M 792.51 271.44 C 800.64 270.70 808.84 271.43 817.00 270.92 C 826.42 270.98 835.86 270.61 845.27 271.19 C 845.22 295.73 845.26 320.27 845.29 344.81 C 827.75 344.67 810.21 344.86 792.67 344.46 C 792.51 320.12 793.08 295.77 792.51 271.44 Z" />
<path fill="rgba(0,0,0,0)" opacity="1.00" d=" M 229.40 304.24 C 253.91 304.94 278.41 305.90 302.94 305.35 C 355.94 304.31 408.96 303.62 461.98 303.51 C 500.65 303.31 539.29 304.91 577.95 305.42 C 608.99 305.83 640.02 304.24 671.06 304.79 C 677.77 304.68 684.45 305.30 691.16 305.21 C 691.31 355.82 690.14 406.42 690.26 457.04 C 690.14 491.97 690.15 526.91 690.69 561.85 C 643.08 561.28 595.48 560.40 547.88 561.45 C 547.97 559.04 547.55 556.57 548.13 554.22 C 565.45 550.85 582.67 542.81 593.69 528.62 C 596.49 525.43 598.69 521.81 601.05 518.31 C 603.54 517.35 606.32 518.04 608.94 517.87 C 626.30 518.39 643.69 518.57 661.07 518.74 C 664.01 518.82 665.14 515.46 664.88 513.01 C 665.13 488.68 666.43 464.38 666.41 440.05 C 666.54 437.74 666.07 434.12 663.04 434.20 C 650.74 434.29 638.45 433.73 626.15 433.71 C 626.18 428.87 626.23 424.02 625.88 419.19 C 637.89 419.49 649.92 419.47 661.95 419.46 C 664.43 419.73 666.01 417.25 666.06 415.04 C 666.37 408.69 666.20 402.33 666.37 395.98 C 666.46 375.97 667.81 355.98 667.29 335.97 C 667.32 334.05 666.32 331.53 664.02 331.62 C 632.67 330.95 601.28 331.32 569.93 330.87 C 568.36 331.01 566.81 332.18 566.85 333.88 C 566.35 343.84 566.50 353.83 565.89 363.79 C 556.84 354.31 549.28 343.26 538.68 335.32 C 525.81 325.02 509.24 320.55 492.97 320.07 C 476.81 319.53 459.48 320.40 445.48 329.41 C 432.24 338.15 422.94 352.11 418.19 367.10 C 414.77 379.01 414.33 392.22 418.90 403.88 C 421.43 410.55 426.27 416.00 431.48 420.74 L 431.24 421.75 C 425.75 445.06 421.33 468.87 422.36 492.93 C 393.57 492.52 364.79 491.49 335.99 491.80 C 314.30 492.15 292.60 492.26 270.90 492.63 C 271.00 468.83 270.52 445.03 270.63 421.23 C 275.43 417.56 280.39 413.75 283.40 408.38 C 285.67 404.94 286.89 400.78 289.80 397.81 C 292.79 396.70 296.09 396.56 299.00 395.20 C 301.21 393.97 303.15 392.30 305.36 391.06 C 308.89 408.91 312.52 426.74 315.88 444.63 C 312.17 447.01 310.79 452.68 314.14 455.94 C 318.03 460.07 326.07 456.80 325.66 451.00 C 326.08 447.10 322.50 445.21 319.58 443.74 C 315.91 426.25 312.76 408.63 309.05 391.14 C 312.91 389.00 314.34 383.18 311.13 379.90 C 308.20 376.58 302.20 377.26 300.24 381.28 C 298.66 383.84 299.64 386.80 300.75 389.32 C 297.81 392.03 293.95 392.96 290.12 393.60 C 286.70 393.92 285.30 397.35 283.82 399.94 C 280.50 406.14 276.72 412.64 270.41 416.22 C 270.09 391.82 269.83 367.42 269.70 343.02 C 269.61 339.92 270.04 336.75 269.28 333.72 C 268.25 333.49 267.22 333.30 266.18 333.15 C 265.17 338.14 265.92 343.25 265.55 348.29 C 263.10 348.03 260.65 347.85 258.19 347.77 C 257.95 345.61 257.80 343.31 256.19 341.67 C 255.31 342.47 254.48 343.37 253.43 343.97 C 253.14 343.44 252.57 342.40 252.28 341.88 C 250.78 342.53 249.66 343.67 248.89 345.10 C 244.47 344.78 244.73 351.70 248.69 352.22 C 249.27 351.24 249.87 350.28 250.47 349.31 C 251.15 350.27 251.22 352.30 252.73 352.30 C 253.24 351.77 254.27 350.71 254.78 350.17 C 255.31 350.77 255.82 351.39 256.31 352.04 C 259.45 351.87 262.59 351.85 265.74 352.03 C 265.64 362.46 265.77 372.89 265.80 383.32 C 263.06 383.39 260.32 383.23 257.60 382.87 C 257.01 380.79 256.05 378.75 253.84 378.02 C 253.40 378.66 252.51 379.95 252.06 380.60 C 250.78 379.46 248.78 376.80 247.30 379.22 C 245.63 381.41 242.35 386.51 246.85 387.40 C 247.49 386.40 248.21 385.47 249.03 384.62 C 250.60 384.85 251.77 386.01 253.07 386.80 C 253.90 386.56 254.78 384.71 255.64 385.97 C 258.52 388.18 262.51 386.91 265.88 387.29 C 266.18 398.46 266.27 409.64 266.15 420.81 C 262.74 420.55 259.33 420.38 255.92 420.12 C 254.79 418.15 252.73 417.12 250.90 418.95 C 250.41 418.49 249.45 417.55 248.96 417.08 C 247.07 418.78 245.51 420.82 244.30 423.05 C 243.03 424.52 245.09 425.80 245.87 426.84 C 246.83 425.61 247.70 424.28 248.94 423.31 C 250.08 423.70 251.11 424.31 252.02 425.15 C 252.91 424.58 253.56 423.00 254.83 423.42 C 258.59 424.46 262.47 424.63 266.35 424.63 C 266.26 436.21 266.72 447.79 266.54 459.37 C 263.15 459.41 259.77 459.29 256.39 459.16 C 256.09 457.36 256.44 455.19 255.02 453.79 C 252.97 453.11 251.81 455.20 250.54 456.34 C 249.93 455.49 249.32 454.65 248.73 453.80 C 244.73 455.09 242.15 461.84 247.09 463.72 C 248.06 462.56 249.02 461.40 250.00 460.25 C 251.05 461.30 252.10 462.37 253.14 463.45 C 253.66 463.22 254.71 462.75 255.23 462.52 C 255.58 462.73 256.29 463.16 256.64 463.37 C 259.99 463.22 263.34 463.24 266.70 463.31 C 266.79 472.85 266.79 482.40 266.80 491.95 C 266.86 493.58 266.82 496.44 269.08 496.48 C 273.73 496.97 278.42 496.43 283.09 496.53 C 282.80 499.21 283.39 503.00 279.93 503.71 C 279.42 502.32 277.56 500.58 276.43 502.49 C 275.08 504.39 273.83 506.47 273.32 508.77 C 274.56 511.49 276.77 508.86 277.59 507.34 C 277.85 508.58 278.12 509.82 278.40 511.07 C 280.88 510.46 282.04 508.02 283.68 506.31 C 284.56 507.62 285.69 509.80 287.60 508.59 C 289.16 506.89 289.37 504.47 289.86 502.33 C 288.93 502.29 287.07 502.21 286.14 502.18 C 286.25 500.31 286.36 498.44 286.48 496.58 C 300.63 496.45 314.78 496.04 328.94 496.19 C 328.85 497.84 328.80 499.49 328.58 501.13 C 328.61 503.36 324.90 503.53 325.34 505.84 C 325.44 507.63 327.05 508.42 328.49 509.05 C 329.12 508.04 329.77 507.06 330.42 506.06 C 331.61 507.34 332.92 509.35 334.81 507.79 C 335.97 505.25 334.63 502.71 332.31 501.52 C 332.32 499.60 332.40 497.69 332.56 495.78 C 346.47 495.92 360.38 495.71 374.28 496.17 C 373.99 498.84 374.11 501.64 373.06 504.16 C 372.48 505.68 371.64 502.28 371.30 502.43 C 370.18 503.84 369.24 505.36 368.40 506.95 C 367.62 505.93 366.86 504.88 366.11 503.87 C 364.48 504.36 363.60 505.43 363.48 507.08 C 365.49 508.67 367.81 509.92 369.27 512.13 C 369.94 510.91 370.62 509.71 371.29 508.50 C 372.11 508.99 372.93 509.49 373.76 509.99 C 374.65 509.22 375.54 508.45 376.43 507.69 C 377.32 508.80 378.26 511.14 380.15 510.02 C 380.97 507.71 380.62 505.23 380.60 502.85 C 379.78 502.80 378.14 502.71 377.31 502.66 C 377.48 500.49 377.66 498.33 377.84 496.17 C 392.80 496.49 407.76 496.83 422.72 497.31 C 424.24 510.66 427.84 524.66 437.34 534.65 C 442.02 539.71 448.20 543.16 454.69 545.36 C 458.68 546.72 462.81 547.58 467.01 548.00 C 468.77 548.34 470.97 548.30 472.21 549.85 C 473.74 552.92 473.95 556.42 474.29 559.79 C 419.52 559.89 364.75 560.11 309.98 560.22 C 283.10 560.37 256.22 560.34 229.35 560.77 C 228.74 535.82 228.43 510.85 228.93 485.88 C 230.14 456.57 231.08 427.21 230.07 397.87 C 228.67 366.68 229.25 335.45 229.40 304.24 M 303.74 354.06 C 303.31 357.92 304.28 361.81 305.53 365.45 C 305.95 366.80 307.44 368.47 308.84 367.04 C 310.64 364.73 313.02 362.30 312.92 359.15 C 312.18 359.05 310.71 358.86 309.97 358.76 C 309.51 359.78 308.94 360.74 308.27 361.65 C 307.55 359.28 307.17 356.82 306.52 354.44 C 305.83 354.34 304.44 354.15 303.74 354.06 M 377.90 390.06 C 377.05 393.81 378.94 397.84 380.82 401.07 C 383.22 403.43 385.03 399.71 386.06 397.92 C 387.28 396.50 387.40 393.67 384.98 393.59 C 384.44 394.22 383.35 395.49 382.80 396.13 C 381.16 394.15 381.89 388.33 377.90 390.06 M 372.92 421.07 C 371.32 423.47 371.77 426.53 372.94 429.00 C 368.28 434.13 363.59 439.24 359.23 444.63 C 354.71 442.29 348.53 445.75 349.15 451.05 C 348.95 456.80 357.43 459.29 360.70 454.75 C 363.00 452.70 361.71 449.62 361.92 447.09 C 366.27 441.82 371.24 437.03 375.13 431.40 C 377.39 431.67 379.95 432.32 381.99 430.93 C 385.27 428.92 386.29 424.16 384.08 421.00 C 381.67 417.18 375.29 417.25 372.92 421.07 M 413.98 419.09 C 412.92 423.45 415.34 428.19 417.96 431.66 C 420.36 430.48 421.97 428.26 423.23 425.98 C 423.73 425.08 424.40 423.50 422.97 423.06 C 420.98 421.39 419.92 424.94 418.79 425.93 C 416.52 423.96 418.34 417.27 413.98 419.09 M 415.09 446.18 C 409.75 447.18 408.51 455.36 412.99 458.19 C 416.45 460.66 421.99 459.20 423.12 454.90 C 425.58 450.02 419.99 444.64 415.09 446.18 M 311.42 535.54 C 309.25 536.21 308.94 539.18 310.28 540.78 C 312.93 542.18 316.19 541.72 318.96 540.92 C 321.04 540.27 320.89 537.62 320.26 535.99 C 317.69 534.17 314.26 534.92 311.42 535.54 M 340.06 535.20 C 339.43 536.80 338.63 539.32 340.45 540.48 C 343.75 541.40 347.33 541.37 350.65 540.55 C 352.84 539.63 352.70 536.75 352.09 534.87 C 348.13 534.51 343.86 533.73 340.06 535.20 M 355.79 535.86 C 354.75 537.47 355.67 540.63 358.04 539.76 C 359.67 539.12 359.17 537.25 359.19 535.91 C 358.07 535.58 356.77 534.77 355.79 535.86 M 378.66 535.59 C 376.46 536.96 378.14 541.13 380.66 539.53 C 383.21 538.38 381.10 533.99 378.66 535.59 Z" />
<path fill="rgba(0,0,0,0)" opacity="1.00" d=" M 872.57 313.63 C 885.01 313.83 897.46 313.48 909.90 313.71 C 909.84 323.91 909.86 334.11 909.87 344.31 C 897.45 344.42 885.02 344.56 872.59 344.62 C 872.54 334.29 872.62 323.96 872.57 313.63 Z" />
<path fill="rgba(0,0,0,0)" opacity="1.00" d=" M 571.09 335.25 C 601.74 335.42 632.40 335.18 663.05 335.80 C 663.20 362.33 662.16 388.87 661.70 415.41 C 649.43 415.22 637.16 415.21 624.89 414.74 C 622.75 404.03 614.70 394.87 604.15 391.79 C 610.98 385.83 616.34 377.27 615.80 367.92 C 614.18 354.75 598.67 346.11 586.41 350.52 C 578.74 353.12 574.03 360.24 570.28 366.98 C 570.23 356.41 570.60 345.80 571.09 335.25 M 640.31 348.40 C 640.26 349.51 640.22 350.64 640.21 351.77 C 645.31 352.22 650.49 352.37 655.57 351.65 C 655.48 350.60 655.39 349.55 655.30 348.51 C 650.30 348.29 645.30 348.12 640.31 348.40 M 641.11 359.11 C 641.12 359.87 641.13 361.39 641.14 362.16 C 645.15 362.44 649.21 362.52 653.21 361.99 C 653.29 361.47 653.44 360.45 653.52 359.94 C 650.12 357.49 645.11 358.90 641.11 359.11 M 617.70 377.89 C 617.74 378.72 617.84 380.38 617.89 381.22 C 625.63 381.79 633.42 381.67 641.18 381.60 C 643.94 382.05 643.78 377.46 641.02 377.99 C 633.25 377.74 625.46 377.58 617.70 377.89 M 613.26 391.72 C 620.25 392.76 627.37 392.08 634.42 392.13 C 634.44 391.33 634.49 389.72 634.51 388.92 C 627.98 388.43 621.42 388.47 614.88 388.76 C 612.98 388.40 613.47 390.63 613.26 391.72 Z" />
<path fill="rgba(0,0,0,0)" opacity="1.00" d=" M 745.86 348.15 C 809.50 349.24 873.15 348.80 936.80 348.27 C 936.72 354.27 937.16 360.33 936.43 366.30 C 916.96 365.94 897.47 366.39 878.00 366.14 C 849.00 365.70 819.99 365.44 791.00 364.83 C 775.92 364.60 760.84 364.27 745.77 364.38 C 745.80 358.97 745.53 353.55 745.86 348.15 Z" />
<path fill="rgba(0,0,0,0)" opacity="1.00" d=" M 776.53 393.69 C 813.53 393.47 850.54 393.83 887.54 393.47 C 888.07 408.97 887.69 424.52 887.85 440.05 C 887.72 468.22 888.54 496.41 887.88 524.57 C 850.48 524.23 813.06 524.96 775.67 524.36 C 775.20 480.80 776.48 437.25 776.53 393.69 M 819.28 419.22 C 813.87 424.94 808.07 430.30 802.57 435.91 C 803.42 439.49 805.58 442.60 806.86 446.05 C 809.91 452.45 812.20 459.24 815.79 465.38 C 825.69 464.83 835.62 465.52 845.52 465.14 C 845.98 461.26 846.42 457.20 845.31 453.41 C 848.85 453.53 852.41 453.70 855.96 453.53 C 857.36 453.65 857.51 452.10 857.53 451.09 C 857.81 443.09 857.60 435.08 858.10 427.09 C 858.00 425.64 858.75 423.40 856.96 422.69 C 851.20 421.98 845.33 423.11 839.59 422.26 C 835.17 419.23 831.14 415.68 826.81 412.53 C 823.83 414.18 821.75 416.96 819.28 419.22 M 852.59 502.01 C 852.13 506.10 852.13 510.27 852.71 514.36 C 861.76 514.16 870.82 514.60 879.86 514.12 C 879.80 513.43 879.68 512.04 879.63 511.35 C 871.56 510.74 863.45 511.54 855.40 510.81 C 855.44 508.37 855.49 505.94 855.65 503.52 C 863.41 503.64 871.17 503.76 878.94 503.55 C 880.69 503.67 880.60 500.56 879.05 500.40 C 871.70 500.11 864.34 500.33 856.99 500.16 C 855.44 500.21 852.74 499.83 852.59 502.01 M 788.55 501.60 C 788.27 505.92 788.02 510.27 788.50 514.60 C 803.31 515.05 818.18 514.68 833.01 514.82 C 833.29 514.64 833.85 514.29 834.13 514.12 C 834.87 509.91 834.74 505.58 834.53 501.33 C 821.02 501.03 807.49 501.03 793.97 500.76 C 792.12 500.70 790.19 500.62 788.55 501.60 Z" />
<path fill="rgba(0,0,0,0)" opacity="1.00" d=" M 806.08 436.90 C 808.39 434.85 810.59 432.67 812.94 430.64 C 812.51 437.07 812.58 443.51 812.49 449.94 C 809.90 445.84 808.57 441.08 806.08 436.90 Z" />
<path fill="rgba(0,0,0,0)" opacity="1.00" d=" M 625.48 438.19 C 628.29 437.64 631.17 437.84 634.02 437.90 C 643.32 438.31 652.63 438.22 661.94 438.27 C 662.50 456.48 661.15 474.71 661.12 492.93 C 660.78 500.16 660.80 507.40 660.60 514.64 C 641.72 514.44 622.84 513.90 603.96 513.71 C 607.93 505.73 611.95 497.75 614.89 489.32 C 619.79 489.75 624.75 490.18 629.67 489.71 C 630.66 488.79 630.60 486.76 629.05 486.59 C 624.81 485.87 620.49 486.02 616.21 485.73 C 621.21 470.32 624.59 454.39 625.48 438.19 M 637.01 447.06 C 637.12 448.20 637.26 449.35 637.41 450.50 C 639.90 450.77 642.43 451.01 644.94 450.72 C 646.99 450.73 646.41 448.12 646.40 446.84 C 643.26 446.71 640.12 446.69 637.01 447.06 M 642.91 456.14 C 641.30 456.23 639.97 458.25 641.46 459.49 C 645.76 459.92 650.09 459.49 654.40 459.26 C 654.27 458.51 654.01 457.01 653.88 456.26 C 650.26 455.62 646.54 455.72 642.91 456.14 M 622.60 464.76 C 622.61 465.61 622.63 467.29 622.64 468.13 C 628.42 468.50 634.23 468.61 640.01 468.20 C 640.10 467.39 640.26 465.77 640.34 464.97 C 634.43 464.69 628.51 464.55 622.60 464.76 M 625.09 476.15 C 625.08 476.84 625.05 478.20 625.04 478.88 C 630.90 479.46 636.84 479.63 642.71 479.04 C 642.73 478.27 642.79 476.71 642.81 475.93 C 636.94 475.49 630.90 475.07 625.09 476.15 Z" />
<path fill="rgba(0,0,0,0)" opacity="1.00" d=" M 473.27 578.18 C 481.30 574.23 490.22 572.62 499.07 571.80 C 517.77 570.42 536.59 573.67 554.26 579.74 C 556.22 580.51 558.75 581.40 559.03 583.85 C 560.10 589.74 560.16 595.78 560.20 601.75 C 558.34 601.56 556.48 601.38 554.63 601.19 C 549.83 600.08 544.91 599.78 540.05 599.06 C 528.75 597.64 517.44 595.91 506.03 595.78 C 492.35 595.48 478.68 597.65 465.55 601.42 C 463.99 601.85 462.42 602.27 460.87 602.69 C 462.23 597.46 462.58 592.03 463.87 586.79 C 464.84 582.20 469.42 579.98 473.27 578.18 Z" />
<path fill="rgba(0,0,0,0)" opacity="1.00" d=" M 753.75 594.51 C 774.80 593.63 795.90 595.07 816.98 594.63 C 819.42 594.86 822.49 593.78 824.53 595.41 C 825.18 598.28 824.03 601.23 823.68 604.09 C 820.14 626.42 816.31 648.71 812.97 671.06 C 812.85 674.22 809.15 673.66 806.98 673.70 C 784.60 673.05 762.21 673.46 739.84 673.56 C 737.80 673.94 736.96 671.70 737.64 670.08 C 742.65 647.46 747.63 624.81 751.94 602.04 C 752.38 599.49 753.00 596.98 753.75 594.51 M 804.23 606.14 C 800.84 609.17 798.59 613.24 795.61 616.65 C 791.61 615.57 791.79 608.42 786.99 608.31 C 783.33 608.96 781.63 612.98 778.09 613.98 C 776.39 612.03 774.88 608.92 771.86 609.16 C 769.11 609.57 767.85 612.43 766.32 614.40 C 764.29 617.89 761.52 620.83 759.23 624.13 C 758.20 625.40 759.04 627.44 760.82 626.91 C 765.77 623.37 767.79 617.20 771.98 613.01 C 774.86 613.88 775.20 619.34 778.95 618.65 C 782.16 617.16 784.04 613.80 787.11 612.01 C 789.57 615.57 791.39 620.47 795.99 621.72 C 799.95 618.33 802.20 613.49 805.81 609.80 C 807.71 616.03 809.60 622.26 811.20 628.58 C 807.12 628.62 803.05 628.39 798.98 628.22 C 797.53 628.61 796.90 627.17 796.40 626.18 C 796.26 627.51 796.05 628.84 795.75 630.16 C 802.34 630.40 808.94 630.18 815.54 630.11 C 813.60 622.72 811.44 615.36 809.10 608.09 C 808.72 605.84 806.03 604.47 804.23 606.14 M 754.16 640.91 C 756.95 642.70 759.08 639.35 760.40 637.32 C 762.91 637.23 765.43 637.30 767.95 637.28 C 768.98 637.60 770.51 636.85 770.44 635.66 C 767.16 634.61 763.65 635.28 760.35 634.61 C 758.50 633.30 756.27 631.28 753.99 633.05 C 750.76 634.69 751.07 639.28 754.16 640.91 M 777.87 635.03 C 776.26 637.44 777.57 642.15 780.97 641.89 C 783.46 642.17 784.25 639.67 785.23 637.93 C 788.75 638.03 792.26 638.14 795.78 638.19 C 795.70 637.43 795.54 635.91 795.46 635.15 C 792.32 634.87 789.18 635.01 786.05 634.99 C 783.68 633.32 780.12 633.05 777.87 635.03 M 799.76 638.99 C 800.53 640.98 802.11 642.47 803.92 643.55 C 805.94 642.61 807.35 640.86 808.95 639.38 C 811.50 638.63 814.22 638.78 816.86 638.46 C 813.97 638.17 811.08 638.36 808.20 638.22 C 807.76 636.55 807.24 634.22 805.05 634.23 C 802.53 634.43 800.26 636.59 799.76 638.99 M 749.38 647.27 C 747.51 649.92 750.16 653.18 753.01 653.31 C 755.52 652.64 757.26 650.33 757.64 647.82 C 755.75 645.24 751.24 644.12 749.38 647.27 M 774.71 646.78 C 772.25 649.49 775.75 654.04 779.02 652.70 C 781.33 652.01 782.20 649.52 782.21 647.33 C 785.53 647.80 788.90 648.30 792.27 647.80 C 790.20 644.98 785.86 646.28 782.93 646.60 C 780.37 645.84 776.66 643.90 774.71 646.78 M 758.98 648.49 C 761.33 648.67 763.71 648.73 766.09 648.67 C 764.46 646.75 761.10 647.79 758.98 648.49 M 798.88 654.68 C 801.50 654.97 803.57 652.90 804.71 650.77 C 807.65 650.90 810.62 651.05 813.55 650.62 C 813.52 650.09 813.45 649.03 813.41 648.51 C 810.56 648.31 807.70 648.34 804.86 648.28 C 802.53 646.86 799.48 646.08 796.96 647.45 C 794.21 649.39 795.49 654.41 798.88 654.68 M 747.39 662.72 C 748.87 665.97 753.23 665.61 754.60 662.45 C 758.20 661.96 761.83 662.27 765.44 662.44 C 765.42 661.60 765.38 659.92 765.35 659.08 C 761.64 658.73 757.92 658.78 754.21 658.81 C 753.95 658.29 753.43 657.24 753.17 656.72 C 749.93 656.00 745.05 659.14 747.39 662.72 M 772.83 664.18 C 775.33 667.13 779.60 664.73 780.27 661.47 C 783.55 661.22 786.86 661.34 790.15 661.10 C 790.91 660.81 792.43 660.24 793.19 659.95 C 793.35 661.81 792.68 664.89 795.01 665.72 C 797.07 666.88 799.24 665.97 800.92 664.65 C 804.11 665.16 807.34 665.30 810.58 665.29 C 810.58 665.15 810.58 664.88 810.58 664.74 C 807.29 664.74 804.01 664.54 800.74 664.28 C 800.77 662.65 801.18 660.94 800.53 659.40 C 797.89 657.23 794.76 659.35 792.01 659.90 C 788.03 659.89 784.04 659.81 780.08 660.28 C 779.00 658.96 778.03 656.68 775.96 657.06 C 772.58 657.11 769.91 661.69 772.83 664.18 Z" />
<path fill="rgba(0,0,0,0)" opacity="1.00" d=" M 147.02 637.66 C 169.86 637.44 192.69 636.80 215.52 636.20 C 216.03 660.06 215.58 683.94 215.76 707.81 C 177.46 707.76 139.16 707.77 100.86 707.82 C 100.27 684.75 100.19 661.67 99.57 638.61 C 115.37 637.84 131.21 638.04 147.02 637.66 Z" />
<path fill="rgba(0,0,0,0)" opacity="1.00" d=" M 869.19 650.04 C 888.00 650.35 906.81 650.28 925.63 650.41 C 925.50 668.82 926.20 687.26 925.84 705.64 C 906.73 705.28 887.60 705.31 868.49 705.38 C 868.35 686.93 869.13 668.49 869.19 650.04 Z" />
<path fill="rgba(0,0,0,0)" opacity="1.00" d=" M 460.05 943.00 C 474.45 941.90 488.92 942.08 503.34 942.52 C 503.84 969.68 504.85 996.84 505.42 1024.00 L 417.80 1024.00 C 417.77 1012.32 417.55 1000.63 418.44 988.98 C 419.22 977.95 420.93 966.14 428.29 957.40 C 436.04 948.04 448.28 943.95 460.05 943.00 Z" />
<path fill="rgba(0,0,0,0)" opacity="1.00" d=" M 522.07 943.29 C 531.08 943.48 540.09 944.15 549.04 945.20 C 560.56 946.55 572.68 948.71 582.01 956.10 C 590.02 962.34 593.89 972.39 595.16 982.20 C 596.86 996.06 596.30 1010.07 596.19 1024.00 L 523.09 1024.00 C 523.04 997.09 522.49 970.19 522.07 943.29 Z" />
</g>
<g id="Group-000000" fill="#000000">
<path fill="rgba(0,0,0,0)" opacity="1.00" d=" M 882.61 309.72 C 882.69 307.50 882.73 305.28 882.80 303.07 C 889.08 302.81 895.36 302.91 901.64 302.88 C 901.62 305.23 901.55 307.58 901.42 309.92 C 895.15 309.82 888.88 309.94 882.61 309.72 Z" />
<path fill="rgba(0,0,0,0)" opacity="1.00" d=" M 859.16 600.44 C 863.07 598.44 866.97 596.30 871.27 595.26 C 872.05 597.81 873.01 600.32 873.96 602.83 C 869.98 604.13 866.15 605.82 862.16 607.08 C 860.87 605.00 859.86 602.77 859.16 600.44 Z" />
<path fill="rgba(0,0,0,0)" opacity="1.00" d=" M 688.01 684.27 C 689.19 683.93 690.39 683.61 691.59 683.30 C 692.82 686.51 694.62 689.60 694.90 693.09 C 692.65 690.11 690.39 687.14 688.01 684.27 Z" />
</g>
<g id="Group-000000" fill="#000000">
<path fill="#000000" opacity="1.00" d=" M 266.18 333.15 C 267.22 333.30 268.25 333.49 269.28 333.72 C 270.04 336.75 269.61 339.92 269.70 343.02 C 269.83 367.42 270.09 391.82 270.41 416.22 C 276.72 412.64 280.50 406.14 283.82 399.94 C 285.30 397.35 286.70 393.92 290.12 393.60 C 293.95 392.96 297.81 392.03 300.75 389.32 C 299.64 386.80 298.66 383.84 300.24 381.28 C 302.20 377.26 308.20 376.58 311.13 379.90 C 314.34 383.18 312.91 389.00 309.05 391.14 C 312.76 408.63 315.91 426.25 319.58 443.74 C 322.50 445.21 326.08 447.10 325.66 451.00 C 326.07 456.80 318.03 460.07 314.14 455.94 C 310.79 452.68 312.17 447.01 315.88 444.63 C 312.52 426.74 308.89 408.91 305.36 391.06 C 303.15 392.30 301.21 393.97 299.00 395.20 C 296.09 396.56 292.79 396.70 289.80 397.81 C 286.89 400.78 285.67 404.94 283.40 408.38 C 280.39 413.75 275.43 417.56 270.63 421.23 C 270.52 445.03 271.00 468.83 270.90 492.63 C 292.60 492.26 314.30 492.15 335.99 491.80 C 364.79 491.49 393.57 492.52 422.36 492.93 C 421.33 468.87 425.75 445.06 431.24 421.75 C 432.83 423.19 433.21 425.37 433.90 427.31 C 429.23 450.21 424.84 473.58 426.89 497.05 C 428.13 508.73 431.26 520.76 438.88 529.99 C 443.34 535.41 449.50 539.20 456.12 541.39 C 455.69 541.84 454.84 542.75 454.41 543.20 C 454.48 543.74 454.62 544.82 454.69 545.36 C 448.20 543.16 442.02 539.71 437.34 534.65 C 427.84 524.66 424.24 510.66 422.72 497.31 C 407.76 496.83 392.80 496.49 377.84 496.17 C 377.66 498.33 377.48 500.49 377.31 502.66 C 378.14 502.71 379.78 502.80 380.60 502.85 C 380.62 505.23 380.97 507.71 380.15 510.02 C 378.26 511.14 377.32 508.80 376.43 507.69 C 375.54 508.45 374.65 509.22 373.76 509.99 C 372.93 509.49 372.11 508.99 371.29 508.50 C 370.62 509.71 369.94 510.91 369.27 512.13 C 367.81 509.92 365.49 508.67 363.48 507.08 C 363.60 505.43 364.48 504.36 366.11 503.87 C 366.86 504.88 367.62 505.93 368.40 506.95 C 369.24 505.36 370.18 503.84 371.30 502.43 C 371.64 502.28 372.48 505.68 373.06 504.16 C 374.11 501.64 373.99 498.84 374.28 496.17 C 360.38 495.71 346.47 495.92 332.56 495.78 C 332.40 497.69 332.32 499.60 332.31 501.52 C 334.63 502.71 335.97 505.25 334.81 507.79 C 332.92 509.35 331.61 507.34 330.42 506.06 C 329.77 507.06 329.12 508.04 328.49 509.05 C 327.05 508.42 325.44 507.63 325.34 505.84 C 324.90 503.53 328.61 503.36 328.58 501.13 C 328.80 499.49 328.85 497.84 328.94 496.19 C 314.78 496.04 300.63 496.45 286.48 496.58 C 286.36 498.44 286.25 500.31 286.14 502.18 C 287.07 502.21 288.93 502.29 289.86 502.33 C 289.37 504.47 289.16 506.89 287.60 508.59 C 285.69 509.80 284.56 507.62 283.68 506.31 C 282.04 508.02 280.88 510.46 278.40 511.07 C 278.12 509.82 277.85 508.58 277.59 507.34 C 276.77 508.86 274.56 511.49 273.32 508.77 C 273.83 506.47 275.08 504.39 276.43 502.49 C 277.56 500.58 279.42 502.32 279.93 503.71 C 283.39 503.00 282.80 499.21 283.09 496.53 C 278.42 496.43 273.73 496.97 269.08 496.48 C 266.82 496.44 266.86 493.58 266.80 491.95 C 266.79 482.40 266.79 472.85 266.70 463.31 C 263.34 463.24 259.99 463.22 256.64 463.37 C 256.29 463.16 255.58 462.73 255.23 462.52 C 254.71 462.75 253.66 463.22 253.14 463.45 C 252.10 462.37 251.05 461.30 250.00 460.25 C 249.02 461.40 248.06 462.56 247.09 463.72 C 242.15 461.84 244.73 455.09 248.73 453.80 C 249.32 454.65 249.93 455.49 250.54 456.34 C 251.81 455.20 252.97 453.11 255.02 453.79 C 256.44 455.19 256.09 457.36 256.39 459.16 C 259.77 459.29 263.15 459.41 266.54 459.37 C 266.72 447.79 266.26 436.21 266.35 424.63 C 262.47 424.63 258.59 424.46 254.83 423.42 C 253.56 423.00 252.91 424.58 252.02 425.15 C 251.11 424.31 250.08 423.70 248.94 423.31 C 247.70 424.28 246.83 425.61 245.87 426.84 C 245.09 425.80 243.03 424.52 244.30 423.05 C 245.51 420.82 247.07 418.78 248.96 417.08 C 249.45 417.55 250.41 418.49 250.90 418.95 C 252.73 417.12 254.79 418.15 255.92 420.12 C 259.33 420.38 262.74 420.55 266.15 420.81 C 266.27 409.64 266.18 398.46 265.88 387.29 C 262.51 386.91 258.52 388.18 255.64 385.97 C 254.78 384.71 253.90 386.56 253.07 386.80 C 251.77 386.01 250.60 384.85 249.03 384.62 C 248.21 385.47 247.49 386.40 246.85 387.40 C 242.35 386.51 245.63 381.41 247.30 379.22 C 248.78 376.80 250.78 379.46 252.06 380.60 C 252.51 379.95 253.40 378.66 253.84 378.02 C 256.05 378.75 257.01 380.79 257.60 382.87 C 260.32 383.23 263.06 383.39 265.80 383.32 C 265.77 372.89 265.64 362.46 265.74 352.03 C 262.59 351.85 259.45 351.87 256.31 352.04 C 255.82 351.39 255.31 350.77 254.78 350.17 C 254.27 350.71 253.24 351.77 252.73 352.30 C 251.22 352.30 251.15 350.27 250.47 349.31 C 249.87 350.28 249.27 351.24 248.69 352.22 C 244.73 351.70 244.47 344.78 248.89 345.10 C 249.66 343.67 250.78 342.53 252.28 341.88 C 252.57 342.40 253.14 343.44 253.43 343.97 C 254.48 343.37 255.31 342.47 256.19 341.67 C 257.80 343.31 257.95 345.61 258.19 347.77 C 260.65 347.85 263.10 348.03 265.55 348.29 C 265.92 343.25 265.17 338.14 266.18 333.15 Z" />
<path fill="#000000" opacity="1.00" d=" M 775.08 389.31 C 812.73 388.93 850.42 389.30 888.09 389.15 C 891.48 388.66 892.47 392.32 892.21 394.98 C 892.02 438.31 892.55 481.64 892.50 524.96 C 892.71 526.96 891.24 529.07 889.09 528.88 C 851.06 528.85 813.02 528.90 774.99 528.84 C 773.14 528.95 771.22 527.75 771.39 525.73 C 770.75 481.48 771.95 437.22 772.19 392.97 C 771.94 391.14 773.27 389.55 775.08 389.31 M 776.53 393.69 C 776.48 437.25 775.20 480.80 775.67 524.36 C 813.06 524.96 850.48 524.23 887.88 524.57 C 888.54 496.41 887.72 468.22 887.85 440.05 C 887.69 424.52 888.07 408.97 887.54 393.47 C 850.54 393.83 813.53 393.47 776.53 393.69 Z" />
<path fill="#000000" opacity="1.00" d=" M 151.03 606.99 C 153.07 604.67 156.81 603.73 159.46 605.60 C 163.58 608.67 166.01 613.34 168.57 617.68 C 177.65 617.89 186.78 617.02 195.81 618.21 C 196.09 619.96 196.33 621.72 196.55 623.49 C 198.82 623.78 201.26 623.60 203.39 624.57 C 204.42 626.92 204.27 629.54 204.38 632.05 C 209.04 632.50 213.82 631.55 218.41 632.60 C 220.36 634.71 219.46 638.00 220.04 640.62 C 225.35 640.82 230.71 640.17 235.99 640.89 C 238.57 641.74 237.63 644.95 238.00 647.01 C 238.32 667.59 237.92 688.17 238.11 708.75 C 245.77 708.73 253.43 708.71 261.10 708.74 C 261.43 697.28 260.68 685.74 262.10 674.34 C 264.60 674.23 267.11 674.08 269.62 673.86 C 269.28 671.51 269.07 669.15 268.92 666.79 C 263.90 667.16 259.04 669.04 254.00 668.78 C 251.38 668.46 251.17 665.26 250.79 663.23 C 249.85 655.44 248.66 647.69 247.49 639.93 C 247.33 638.02 246.69 635.84 247.87 634.14 C 249.28 633.04 251.17 633.08 252.86 632.80 C 264.62 631.58 276.37 630.31 288.08 628.72 C 289.66 628.59 292.12 628.16 292.66 630.22 C 294.30 638.38 295.53 646.67 295.21 655.03 C 297.30 652.07 298.65 648.65 300.80 645.73 C 303.64 643.44 307.09 646.35 309.92 647.29 C 313.54 646.29 316.33 649.73 316.92 652.96 C 318.37 657.03 316.01 660.95 314.54 664.63 C 313.18 667.66 311.85 671.10 308.80 672.82 C 305.98 673.08 303.20 671.91 300.38 671.71 C 303.21 664.71 308.54 659.12 312.19 652.59 C 312.20 651.16 311.04 650.07 310.41 648.88 C 309.52 656.73 302.93 662.21 300.66 669.56 C 299.78 672.91 300.01 676.41 300.24 679.83 C 300.08 681.60 299.80 683.37 299.46 685.12 C 297.47 682.29 298.62 678.55 297.17 675.51 C 286.33 674.04 275.55 677.32 264.72 677.65 C 264.42 687.95 264.56 698.25 264.46 708.55 C 268.06 708.68 271.67 708.68 275.28 708.60 C 275.91 709.64 276.50 710.75 277.36 711.65 C 281.34 712.39 285.52 711.35 289.41 712.78 C 273.28 713.04 257.14 713.34 241.01 712.98 C 180.03 714.10 119.04 713.10 58.06 713.10 C 58.59 716.84 57.73 721.10 59.17 724.54 C 98.42 724.82 137.69 722.80 176.96 723.15 C 198.20 723.21 219.45 723.42 240.67 724.12 C 235.81 725.81 230.63 724.31 225.71 725.59 C 226.48 726.49 227.26 727.40 228.04 728.31 C 180.88 727.23 133.69 727.57 86.52 728.52 C 86.86 791.71 87.50 854.89 87.81 918.07 C 87.63 919.45 88.07 921.15 87.08 922.31 C 86.26 922.36 84.62 922.47 83.80 922.52 C 83.35 914.32 83.67 906.11 83.50 897.91 C 83.10 841.47 82.54 785.02 82.21 728.57 C 74.12 728.44 66.03 728.80 57.94 728.73 C 55.70 729.02 54.85 726.69 54.77 724.89 C 54.45 720.28 53.89 715.64 54.25 711.02 C 54.62 708.86 57.33 708.88 59.03 708.82 C 71.50 708.87 83.97 708.86 96.44 708.94 C 96.34 685.60 95.60 662.28 95.38 638.94 C 95.17 637.04 96.04 634.92 98.06 634.47 C 103.19 633.55 108.45 633.99 113.64 633.88 C 114.07 631.51 113.94 628.72 115.85 626.95 C 117.67 625.13 120.38 624.99 122.75 624.48 C 123.40 623.37 123.19 621.18 124.81 621.04 C 130.91 620.62 137.04 620.80 143.13 620.20 C 145.53 615.67 147.55 610.82 151.03 606.99 M 151.95 612.01 C 147.58 618.86 144.47 626.41 140.53 633.51 C 150.82 633.38 161.11 633.27 171.40 633.17 C 168.58 626.91 165.81 620.60 162.25 614.73 C 160.60 612.35 159.04 609.23 155.92 608.65 C 154.10 608.97 152.99 610.62 151.95 612.01 M 170.57 621.76 C 172.59 625.42 173.84 629.52 175.99 633.06 C 184.36 632.82 192.76 632.88 201.12 632.41 C 200.92 630.74 200.73 629.09 200.53 627.44 C 197.93 627.41 195.34 627.46 192.75 627.34 C 192.63 625.34 192.60 623.35 192.62 621.36 C 185.27 621.37 177.91 621.36 170.57 621.76 M 126.33 625.16 C 126.29 625.92 126.20 627.44 126.16 628.20 C 123.51 628.35 120.83 628.46 118.26 629.18 C 117.90 630.71 117.68 632.29 117.65 633.88 C 123.94 633.50 130.25 633.86 136.54 633.55 C 137.86 630.31 139.38 627.16 141.09 624.11 C 136.18 624.66 131.22 624.48 126.33 625.16 M 277.01 633.94 C 268.34 635.19 259.61 635.99 250.90 636.86 C 251.47 643.59 253.05 650.19 253.84 656.90 C 254.15 659.76 254.69 662.61 255.70 665.32 C 267.36 662.71 279.28 661.68 291.09 659.97 C 292.89 660.24 292.93 658.22 293.45 657.08 C 291.74 653.94 292.06 650.31 291.65 646.90 C 291.22 642.23 290.25 637.64 289.76 632.98 C 285.49 632.22 281.24 633.52 277.01 633.94 M 147.02 637.66 C 131.21 638.04 115.37 637.84 99.57 638.61 C 100.19 661.67 100.27 684.75 100.86 707.82 C 139.16 707.77 177.46 707.76 215.76 707.81 C 215.58 683.94 216.03 660.06 215.52 636.20 C 192.69 636.80 169.86 637.44 147.02 637.66 M 220.09 644.86 C 220.04 666.16 219.60 687.46 220.18 708.75 C 224.68 708.74 229.20 708.66 233.71 708.72 C 233.83 687.51 233.60 666.30 233.78 645.09 C 229.23 644.66 224.65 644.86 220.09 644.86 M 310.61 660.58 C 308.77 663.07 306.34 665.16 304.93 667.97 C 305.10 670.24 308.63 670.57 309.29 668.42 C 311.49 664.06 313.48 659.54 315.08 654.92 C 313.15 656.42 312.15 658.73 310.61 660.58 M 281.23 665.02 C 281.57 667.46 282.06 669.89 282.62 672.30 C 283.95 671.87 286.53 672.90 286.92 670.93 C 287.69 668.13 289.43 665.80 290.81 663.29 C 287.60 663.78 284.48 664.75 281.23 665.02 M 271.94 666.23 C 272.01 668.66 272.09 671.10 272.33 673.54 C 274.72 672.90 277.17 672.50 279.65 672.46 C 278.72 670.28 278.40 667.96 278.63 665.62 C 276.41 665.94 274.18 666.18 271.94 666.23 Z" />
</g>
<g id="Group-000000" fill="#000000">
<path fill="#000000" opacity="1.00" d=" M 640.31 348.40 C 645.30 348.12 650.30 348.29 655.30 348.51 C 655.39 349.55 655.48 350.60 655.57 351.65 C 650.49 352.37 645.31 352.22 640.21 351.77 C 640.22 350.64 640.26 349.51 640.31 348.40 Z" />
</g>
<g id="Group-000000" fill="#000000">
<path fill="#000000" opacity="1.00" d=" M 303.74 354.06 C 304.44 354.15 305.83 354.34 306.52 354.44 C 307.17 356.82 307.55 359.28 308.27 361.65 C 308.94 360.74 309.51 359.78 309.97 358.76 C 310.71 358.86 312.18 359.05 312.92 359.15 C 313.02 362.30 310.64 364.73 308.84 367.04 C 307.44 368.47 305.95 366.80 305.53 365.45 C 304.28 361.81 303.31 357.92 303.74 354.06 Z" />
</g>
<g id="Group-000000" fill="#000000">
<path fill="#000000" opacity="1.00" d=" M 641.11 359.11 C 645.11 358.90 650.12 357.49 653.52 359.94 C 653.44 360.45 653.29 361.47 653.21 361.99 C 649.21 362.52 645.15 362.44 641.14 362.16 C 641.13 361.39 641.12 359.87 641.11 359.11 Z" />
<path fill="#000000" opacity="1.00" d=" M 774.71 646.78 C 776.66 643.90 780.37 645.84 782.93 646.60 C 785.86 646.28 790.20 644.98 792.27 647.80 C 788.90 648.30 785.53 647.80 782.21 647.33 C 782.20 649.52 781.33 652.01 779.02 652.70 C 775.75 654.04 772.25 649.49 774.71 646.78 Z" />
</g>
<g id="Group-000000" fill="#000000">
<path fill="#000000" opacity="1.00" d=" M 377.90 390.06 C 381.89 388.33 381.16 394.15 382.80 396.13 C 383.35 395.49 384.44 394.22 384.98 393.59 C 387.40 393.67 387.28 396.50 386.06 397.92 C 385.03 399.71 383.22 403.43 380.82 401.07 C 378.94 397.84 377.05 393.81 377.90 390.06 Z" />
<path fill="#000000" opacity="1.00" d=" M 253.00 638.23 C 264.58 637.17 276.10 635.16 287.75 634.94 C 289.61 641.80 290.89 648.86 291.05 655.98 C 285.90 657.74 280.40 657.84 275.08 658.75 C 270.68 659.23 266.38 660.43 261.94 660.48 C 261.96 659.65 262.01 657.99 262.04 657.16 C 270.07 657.22 277.95 655.48 285.91 654.60 C 286.07 653.46 286.10 652.33 285.99 651.21 C 284.04 651.70 282.03 651.96 280.04 652.18 C 280.42 652.64 281.20 653.56 281.59 654.01 C 281.23 653.63 280.50 652.86 280.14 652.48 C 274.07 653.38 267.79 653.25 261.88 655.00 C 261.88 654.09 261.88 652.26 261.88 651.35 C 269.98 650.67 278.05 649.57 286.03 648.04 C 285.80 646.99 285.53 645.97 285.23 644.96 C 277.35 646.95 269.13 646.94 261.24 648.87 C 261.21 648.13 261.15 646.65 261.12 645.91 C 268.70 644.58 276.46 643.93 283.86 641.70 C 284.00 641.18 284.28 640.14 284.42 639.63 C 275.62 641.24 266.81 642.80 257.94 643.99 C 258.02 649.75 259.23 655.43 259.27 661.20 C 259.25 662.75 257.23 662.40 256.28 663.03 C 255.47 660.38 254.94 657.66 254.76 654.90 C 254.25 649.34 252.51 643.85 253.00 638.23 Z" />
</g>
<g id="Group-000000" fill="#000000">
<path fill="#000000" opacity="1.00" d=" M 819.28 419.22 C 821.75 416.96 823.83 414.18 826.81 412.53 C 831.14 415.68 835.17 419.23 839.59 422.26 C 845.33 423.11 851.20 421.98 856.96 422.69 C 858.75 423.40 858.00 425.64 858.10 427.09 C 857.60 435.08 857.81 443.09 857.53 451.09 C 857.51 452.10 857.36 453.65 855.96 453.53 C 852.41 453.70 848.85 453.53 845.31 453.41 C 846.42 457.20 845.98 461.26 845.52 465.14 C 835.62 465.52 825.69 464.83 815.79 465.38 C 812.20 459.24 809.91 452.45 806.86 446.05 C 805.58 442.60 803.42 439.49 802.57 435.91 C 808.07 430.30 813.87 424.94 819.28 419.22 M 820.98 422.13 C 825.34 422.26 829.70 422.23 834.07 422.52 C 832.05 420.06 828.94 418.85 826.72 416.58 C 824.68 418.29 822.74 420.13 820.98 422.13 M 816.50 426.31 C 816.12 434.09 815.71 441.91 816.18 449.70 C 828.91 449.72 841.65 449.91 854.38 450.46 C 854.44 442.22 854.76 433.99 854.90 425.75 C 845.61 425.83 836.33 425.85 827.05 425.80 C 823.52 425.82 819.97 425.62 816.50 426.31 M 806.08 436.90 C 808.57 441.08 809.90 445.84 812.49 449.94 C 812.58 443.51 812.51 437.07 812.94 430.64 C 810.59 432.67 808.39 434.85 806.08 436.90 M 813.96 453.22 C 815.04 456.07 816.08 458.95 817.52 461.65 C 825.91 461.86 834.32 461.97 842.72 461.78 C 842.64 458.99 842.60 456.21 842.59 453.43 C 833.05 453.26 823.50 452.88 813.96 453.22 Z" />
</g>
<g id="Group-000000" fill="#000000">
<path fill="#000000" opacity="1.00" d=" M 372.92 421.07 C 375.29 417.25 381.67 417.18 384.08 421.00 C 386.29 424.16 385.27 428.92 381.99 430.93 C 379.95 432.32 377.39 431.67 375.13 431.40 C 371.24 437.03 366.27 441.82 361.92 447.09 C 361.71 449.62 363.00 452.70 360.70 454.75 C 357.43 459.29 348.95 456.80 349.15 451.05 C 348.53 445.75 354.71 442.29 359.23 444.63 C 363.59 439.24 368.28 434.13 372.94 429.00 C 371.77 426.53 371.32 423.47 372.92 421.07 Z" />
</g>
<g id="Group-000000" fill="#000000">
<path fill="#000000" opacity="1.00" d=" M 413.98 419.09 C 418.34 417.27 416.52 423.96 418.79 425.93 C 419.92 424.94 420.98 421.39 422.97 423.06 C 424.40 423.50 423.73 425.08 423.23 425.98 C 421.97 428.26 420.36 430.48 417.96 431.66 C 415.34 428.19 412.92 423.45 413.98 419.09 Z" />
</g>
<g id="Group-000000" fill="#000000">
<path fill="rgba(0,0,0,0)" opacity="1.00" d=" M 434.55 423.27 C 436.44 424.15 438.34 425.04 440.28 425.85 C 438.62 434.23 437.11 442.77 437.98 451.34 C 442.15 450.96 445.68 448.06 449.98 448.24 C 455.66 447.64 461.57 450.81 463.71 456.21 C 466.76 463.52 466.88 472.32 463.56 479.56 C 460.38 485.92 453.26 488.24 447.01 490.35 C 444.87 493.91 449.71 494.41 451.96 493.13 C 452.65 508.09 458.31 522.64 467.23 534.60 C 473.28 542.89 481.92 549.32 491.78 552.30 C 508.61 557.50 526.54 556.70 543.85 554.97 C 544.23 560.76 544.16 566.57 544.46 572.38 C 522.79 566.65 499.39 565.08 477.76 571.82 C 478.57 565.60 478.58 559.25 477.63 553.05 C 477.01 550.10 476.13 546.28 472.84 545.28 C 467.36 543.59 461.50 543.48 456.12 541.39 C 449.50 539.20 443.34 535.41 438.88 529.99 C 431.26 520.76 428.13 508.73 426.89 497.05 C 424.84 473.58 429.23 450.21 433.90 427.31 C 434.12 425.96 434.33 424.61 434.55 423.27 M 443.81 453.74 C 446.23 460.49 449.84 467.71 447.17 475.03 C 446.77 476.61 444.83 480.38 448.02 480.25 C 450.59 478.93 451.17 475.69 451.61 473.10 C 452.17 466.40 451.27 459.02 446.96 453.61 C 446.18 453.64 444.60 453.71 443.81 453.74 Z" />
<path fill="rgba(0,0,0,0)" opacity="1.00" d=" M 816.50 426.31 C 819.97 425.62 823.52 425.82 827.05 425.80 C 836.33 425.85 845.61 425.83 854.90 425.75 C 854.76 433.99 854.44 442.22 854.38 450.46 C 841.65 449.91 828.91 449.72 816.18 449.70 C 815.71 441.91 816.12 434.09 816.50 426.31 Z" />
<path fill="rgba(0,0,0,0)" opacity="1.00" d=" M 813.96 453.22 C 823.50 452.88 833.05 453.26 842.59 453.43 C 842.60 456.21 842.64 458.99 842.72 461.78 C 834.32 461.97 825.91 461.86 817.52 461.65 C 816.08 458.95 815.04 456.07 813.96 453.22 Z" />
<path fill="rgba(0,0,0,0)" opacity="1.00" d=" M 669.28 661.76 C 673.54 659.14 679.65 659.23 683.30 662.86 C 687.13 667.64 689.23 673.58 690.72 679.47 C 688.88 679.84 687.07 680.27 685.28 680.79 C 680.47 674.01 674.76 667.98 669.28 661.76 Z" />
</g>
<g id="Group-000000" fill="#000000">
<path fill="#000000" opacity="1.00" d=" M 637.01 447.06 C 640.12 446.69 643.26 446.71 646.40 446.84 C 646.41 448.12 646.99 450.73 644.94 450.72 C 642.43 451.01 639.90 450.77 637.41 450.50 C 637.26 449.35 637.12 448.20 637.01 447.06 Z" />
</g>
<g id="Group-000000" fill="#000000">
<path fill="#000000" opacity="1.00" d=" M 443.81 453.74 C 444.60 453.71 446.18 453.64 446.96 453.61 C 451.27 459.02 452.17 466.40 451.61 473.10 C 451.17 475.69 450.59 478.93 448.02 480.25 C 444.83 480.38 446.77 476.61 447.17 475.03 C 449.84 467.71 446.23 460.49 443.81 453.74 Z" />
<path fill="#000000" opacity="1.00" d=" M 788.55 501.60 C 790.19 500.62 792.12 500.70 793.97 500.76 C 807.49 501.03 821.02 501.03 834.53 501.33 C 834.74 505.58 834.87 509.91 834.13 514.12 C 833.85 514.29 833.29 514.64 833.01 514.82 C 818.18 514.68 803.31 515.05 788.50 514.60 C 788.02 510.27 788.27 505.92 788.55 501.60 M 791.52 504.25 C 791.41 506.69 791.39 509.13 791.49 511.58 C 804.85 511.63 818.22 511.69 831.58 511.73 C 831.66 509.28 831.72 506.84 831.72 504.41 C 818.32 504.40 804.91 504.12 791.52 504.25 Z" />
</g>
<g id="Group-000000" fill="#000000">
<path fill="#000000" opacity="1.00" d=" M 642.91 456.14 C 646.54 455.72 650.26 455.62 653.88 456.26 C 654.01 457.01 654.27 458.51 654.40 459.26 C 650.09 459.49 645.76 459.92 641.46 459.49 C 639.97 458.25 641.30 456.23 642.91 456.14 Z" />
</g>
<g id="Group-000000" fill="#000000">
<path fill="#000000" opacity="1.00" d=" M 622.60 464.76 C 628.51 464.55 634.43 464.69 640.34 464.97 C 640.26 465.77 640.10 467.39 640.01 468.20 C 634.23 468.61 628.42 468.50 622.64 468.13 C 622.63 467.29 622.61 465.61 622.60 464.76 Z" />
</g>
<g id="Group-000000" fill="#000000">
<path fill="#000000" opacity="1.00" d=" M 625.09 476.15 C 630.90 475.07 636.94 475.49 642.81 475.93 C 642.79 476.71 642.73 478.27 642.71 479.04 C 636.84 479.63 630.90 479.46 625.04 478.88 C 625.05 478.20 625.08 476.84 625.09 476.15 Z" />
</g>
<g id="Group-000000" fill="#000000">
<path fill="#000000" opacity="1.00" d=" M 852.59 502.01 C 852.74 499.83 855.44 500.21 856.99 500.16 C 864.34 500.33 871.70 500.11 879.05 500.40 C 880.60 500.56 880.69 503.67 878.94 503.55 C 871.17 503.76 863.41 503.64 855.65 503.52 C 855.49 505.94 855.44 508.37 855.40 510.81 C 863.45 511.54 871.56 510.74 879.63 511.35 C 879.68 512.04 879.80 513.43 879.86 514.12 C 870.82 514.60 861.76 514.16 852.71 514.36 C 852.13 510.27 852.13 506.10 852.59 502.01 Z" />
</g>
<g id="Group-000000" fill="#000000">
<path fill="#000000" opacity="1.00" d=" M 311.42 535.54 C 314.26 534.92 317.69 534.17 320.26 535.99 C 320.89 537.62 321.04 540.27 318.96 540.92 C 316.19 541.72 312.93 542.18 310.28 540.78 C 308.94 539.18 309.25 536.21 311.42 535.54 Z" />
</g>
<g id="Group-000000" fill="#000000">
<path fill="#000000" opacity="1.00" d=" M 378.66 535.59 C 381.10 533.99 383.21 538.38 380.66 539.53 C 378.14 541.13 376.46 536.96 378.66 535.59 Z" />
<path fill="#000000" opacity="1.00" d=" M 758.98 648.49 C 761.10 647.79 764.46 646.75 766.09 648.67 C 763.71 648.73 761.33 648.67 758.98 648.49 Z" />
</g>
<g id="Group-000000" fill="#000000">
<path fill="rgba(0,0,0,0)" opacity="1.00" d=" M 856.12 592.23 C 859.78 590.48 863.67 589.21 867.31 587.40 C 868.81 588.50 869.22 590.30 869.56 592.03 C 865.54 593.40 861.85 595.53 857.99 597.27 C 857.33 595.60 856.69 593.92 856.12 592.23 Z" />
<path fill="rgba(0,0,0,0)" opacity="1.00" d=" M 647.06 634.81 C 648.81 634.79 650.57 634.69 652.33 634.57 C 652.89 637.02 653.32 639.52 653.22 642.07 C 651.48 639.38 649.29 637.07 647.06 634.81 Z" />
</g>
<g id="Group-000000" fill="#000000">
<path fill="#000000" opacity="1.00" d=" M 465.55 601.42 C 478.68 597.65 492.35 595.48 506.03 595.78 C 517.44 595.91 528.75 597.64 540.05 599.06 C 544.91 599.78 549.83 600.08 554.63 601.19 C 556.58 601.88 558.61 602.24 560.62 602.76 C 561.53 603.70 561.78 605.08 562.39 606.24 C 548.34 604.14 534.26 602.20 520.14 600.64 C 502.88 598.56 485.31 600.04 468.57 604.69 C 467.56 603.59 466.55 602.50 465.55 601.42 Z" />
<path fill="#000000" opacity="1.00" d=" M 406.17 663.24 C 407.25 663.49 408.33 663.74 409.42 664.01 C 408.92 668.77 407.30 673.31 406.25 677.97 C 402.35 693.51 398.88 709.17 395.92 724.92 C 394.70 731.11 394.12 737.43 392.36 743.50 C 402.65 739.31 414.06 739.26 425.00 739.57 C 463.33 740.36 501.65 741.86 539.99 741.77 C 563.21 741.78 586.40 740.19 609.63 740.12 C 605.64 731.18 602.14 722.01 597.74 713.26 C 596.86 711.31 595.66 709.28 596.19 707.07 C 598.31 705.33 599.80 707.65 600.56 709.45 C 605.34 719.48 609.81 729.66 613.92 739.99 C 618.60 740.30 623.30 740.64 627.90 741.62 C 638.22 743.50 647.91 749.07 654.18 757.55 C 652.99 758.14 651.81 758.73 650.63 759.33 C 643.11 749.18 630.25 744.80 618.05 744.18 C 602.55 743.68 587.06 744.62 571.58 744.98 C 520.39 746.99 469.19 744.16 418.01 743.48 C 405.08 743.39 391.29 745.61 380.97 753.96 C 374.74 758.89 371.11 766.37 369.64 774.05 C 367.04 786.97 366.83 800.22 366.52 813.35 C 365.48 809.42 365.22 805.18 362.97 801.69 C 363.55 789.47 364.09 776.96 368.20 765.32 C 371.40 755.98 379.08 748.66 388.16 745.02 C 392.05 722.93 396.33 700.89 401.75 679.11 C 403.17 673.81 404.01 668.31 406.17 663.24 Z" />
</g>
<g id="Group-000000" fill="#000000">
<path fill="#000000" opacity="1.00" d=" M 804.23 606.14 C 806.03 604.47 808.72 605.84 809.10 608.09 C 811.44 615.36 813.60 622.72 815.54 630.11 C 808.94 630.18 802.34 630.40 795.75 630.16 C 796.05 628.84 796.26 627.51 796.40 626.18 C 796.90 627.17 797.53 628.61 798.98 628.22 C 803.05 628.39 807.12 628.62 811.20 628.58 C 809.60 622.26 807.71 616.03 805.81 609.80 C 802.20 613.49 799.95 618.33 795.99 621.72 C 791.39 620.47 789.57 615.57 787.11 612.01 C 784.04 613.80 782.16 617.16 778.95 618.65 C 775.20 619.34 774.86 613.88 771.98 613.01 C 767.79 617.20 765.77 623.37 760.82 626.91 C 759.04 627.44 758.20 625.40 759.23 624.13 C 761.52 620.83 764.29 617.89 766.32 614.40 C 767.85 612.43 769.11 609.57 771.86 609.16 C 774.88 608.92 776.39 612.03 778.09 613.98 C 781.63 612.98 783.33 608.96 786.99 608.31 C 791.79 608.42 791.61 615.57 795.61 616.65 C 798.59 613.24 800.84 609.17 804.23 606.14 Z" />
</g>
<g id="Group-000000" fill="#000000">
<path fill="rgba(0,0,0,0)" opacity="1.00" d=" M 863.36 609.55 C 867.40 608.77 871.22 607.25 874.95 605.52 C 875.66 607.53 876.44 609.53 876.97 611.62 C 873.02 612.86 869.36 614.91 865.29 615.79 C 864.54 613.83 862.49 611.63 863.36 609.55 Z" />
</g>
<g id="Group-000000" fill="#000000">
<path fill="rgba(0,0,0,0)" opacity="1.00" d=" M 866.35 618.70 C 870.34 617.35 874.33 615.97 878.26 614.44 C 878.98 616.01 879.66 617.60 880.34 619.21 C 876.55 621.16 872.65 622.89 868.81 624.74 C 867.82 622.79 867.09 620.74 866.35 618.70 Z" />
</g>
<g id="Group-000000" fill="#000000">
<path fill="rgba(0,0,0,0)" opacity="1.00" d=" M 869.96 627.41 C 874.10 626.26 877.62 623.58 881.78 622.49 C 882.60 625.37 883.83 628.13 884.47 631.08 C 880.46 631.91 876.92 634.10 872.96 635.12 C 871.70 632.66 870.40 630.16 869.96 627.41 Z" />
</g>
<g id="Group-000000" fill="#000000">
<path fill="rgba(0,0,0,0)" opacity="1.00" d=" M 277.01 633.94 C 281.24 633.52 285.49 632.22 289.76 632.98 C 290.25 637.64 291.22 642.23 291.65 646.90 C 292.06 650.31 291.74 653.94 293.45 657.08 C 292.93 658.22 292.89 660.24 291.09 659.97 C 279.28 661.68 267.36 662.71 255.70 665.32 C 254.69 662.61 254.15 659.76 253.84 656.90 C 253.05 650.19 251.47 643.59 250.90 636.86 C 259.61 635.99 268.34 635.19 277.01 633.94 M 253.00 638.23 C 252.51 643.85 254.25 649.34 254.76 654.90 C 254.94 657.66 255.47 660.38 256.28 663.03 C 257.23 662.40 259.25 662.75 259.27 661.20 C 259.23 655.43 258.02 649.75 257.94 643.99 C 266.81 642.80 275.62 641.24 284.42 639.63 C 284.28 640.14 284.00 641.18 283.86 641.70 C 276.46 643.93 268.70 644.58 261.12 645.91 C 261.15 646.65 261.21 648.13 261.24 648.87 C 269.13 646.94 277.35 646.95 285.23 644.96 C 285.53 645.97 285.80 646.99 286.03 648.04 C 278.05 649.57 269.98 650.67 261.88 651.35 C 261.88 652.26 261.88 654.09 261.88 655.00 C 267.79 653.25 274.07 653.38 280.14 652.48 C 280.50 652.86 281.23 653.63 281.59 654.01 C 281.20 653.56 280.42 652.64 280.04 652.18 C 282.03 651.96 284.04 651.70 285.99 651.21 C 286.10 652.33 286.07 653.46 285.91 654.60 C 277.95 655.48 270.07 657.22 262.04 657.16 C 262.01 657.99 261.96 659.65 261.94 660.48 C 266.38 660.43 270.68 659.23 275.08 658.75 C 280.40 657.84 285.90 657.74 291.05 655.98 C 290.89 648.86 289.61 641.80 287.75 634.94 C 276.10 635.16 264.58 637.17 253.00 638.23 Z" />
</g>
<g id="Group-000000" fill="#000000">
<path fill="#000000" opacity="1.00" d=" M 754.16 640.91 C 751.07 639.28 750.76 634.69 753.99 633.05 C 756.27 631.28 758.50 633.30 760.35 634.61 C 763.65 635.28 767.16 634.61 770.44 635.66 C 770.51 636.85 768.98 637.60 767.95 637.28 C 765.43 637.30 762.91 637.23 760.40 637.32 C 759.08 639.35 756.95 642.70 754.16 640.91 Z" />
</g>
<g id="Group-000000" fill="#000000">
<path fill="#000000" opacity="1.00" d=" M 309.38 634.42 C 314.82 632.06 320.66 639.42 316.91 644.09 C 314.14 648.13 308.34 646.36 305.09 643.92 C 303.26 640.37 306.02 635.93 309.38 634.42 M 308.06 640.91 C 308.41 642.32 310.03 642.87 311.00 643.83 C 312.62 642.75 315.52 641.54 314.54 639.10 C 313.11 636.07 307.95 637.75 308.06 640.91 Z" />
<path fill="#000000" opacity="1.00" d=" M 319.63 795.47 C 323.82 774.38 333.07 754.75 342.55 735.60 C 343.74 736.19 344.94 736.79 346.14 737.39 C 335.47 758.47 325.34 780.38 322.02 803.99 C 320.98 810.77 320.54 818.06 323.56 824.43 C 327.26 832.69 335.16 838.36 343.67 840.90 C 343.62 842.29 343.61 843.69 343.67 845.09 C 332.64 842.25 322.44 834.26 318.84 823.21 C 316.01 814.14 317.99 804.56 319.63 795.47 Z" />
</g>
<g id="Group-000000" fill="#000000">
<path fill="#000000" opacity="1.00" d=" M 777.87 635.03 C 780.12 633.05 783.68 633.32 786.05 634.99 C 789.18 635.01 792.32 634.87 795.46 635.15 C 795.54 635.91 795.70 637.43 795.78 638.19 C 792.26 638.14 788.75 638.03 785.23 637.93 C 784.25 639.67 783.46 642.17 780.97 641.89 C 777.57 642.15 776.26 637.44 777.87 635.03 Z" />
</g>
<g id="Group-000000" fill="#000000">
<path fill="rgba(0,0,0,0)" opacity="1.00" d=" M 873.84 638.14 C 877.90 636.95 881.79 635.29 885.68 633.64 C 886.17 635.15 886.70 636.64 887.28 638.14 C 883.49 639.83 879.80 641.73 876.04 643.49 C 875.33 641.69 874.57 639.92 873.84 638.14 Z" />
<path fill="rgba(0,0,0,0)" opacity="1.00" d=" M 264.72 677.65 C 275.55 677.32 286.33 674.04 297.17 675.51 C 297.05 678.76 297.29 682.00 297.59 685.24 C 291.41 685.26 284.62 684.55 279.19 688.15 C 272.55 692.37 271.06 702.16 275.28 708.60 C 271.67 708.68 268.06 708.68 264.46 708.55 C 264.56 698.25 264.42 687.95 264.72 677.65 Z" />
</g>
<g id="Group-000000" fill="#000000">
<path fill="rgba(0,0,0,0)" opacity="1.00" d=" M 308.06 640.91 C 307.95 637.75 313.11 636.07 314.54 639.10 C 315.52 641.54 312.62 642.75 311.00 643.83 C 310.03 642.87 308.41 642.32 308.06 640.91 Z" />
</g>
<g id="Group-000000" fill="#000000">
<path fill="rgba(0,0,0,0)" opacity="1.00" d=" M 876.81 645.50 C 880.67 644.03 884.68 642.82 888.25 640.70 C 889.13 642.42 890.01 644.15 890.87 645.91 C 886.20 645.61 881.33 646.80 876.81 645.50 Z" />
</g>
<g id="Group-000000" fill="#000000">
<path fill="#000000" opacity="1.00" d=" M 798.88 654.68 C 795.49 654.41 794.21 649.39 796.96 647.45 C 799.48 646.08 802.53 646.86 804.86 648.28 C 807.70 648.34 810.56 648.31 813.41 648.51 C 813.45 649.03 813.52 650.09 813.55 650.62 C 810.62 651.05 807.65 650.90 804.71 650.77 C 803.57 652.90 801.50 654.97 798.88 654.68 Z" />
<path fill="#000000" opacity="1.00" d=" M 747.39 662.72 C 745.05 659.14 749.93 656.00 753.17 656.72 C 753.43 657.24 753.95 658.29 754.21 658.81 C 757.92 658.78 761.64 658.73 765.35 659.08 C 765.38 659.92 765.42 661.60 765.44 662.44 C 761.83 662.27 758.20 661.96 754.60 662.45 C 753.23 665.61 748.87 665.97 747.39 662.72 Z" />
</g>
<g id="Group-000000" fill="#000000">
<path fill="rgba(0,0,0,0)" opacity="1.00" d=" M 310.61 660.58 C 312.15 658.73 313.15 656.42 315.08 654.92 C 313.48 659.54 311.49 664.06 309.29 668.42 C 308.63 670.57 305.10 670.24 304.93 667.97 C 306.34 665.16 308.77 663.07 310.61 660.58 Z" />
</g>
<g id="Group-000000" fill="#000000">
<path fill="#000000" opacity="1.00" d=" M 772.83 664.18 C 769.91 661.69 772.58 657.11 775.96 657.06 C 778.03 656.68 779.00 658.96 780.08 660.28 C 784.04 659.81 788.03 659.89 792.01 659.90 C 794.76 659.35 797.89 657.23 800.53 659.40 C 801.18 660.94 800.77 662.65 800.74 664.28 C 804.01 664.54 807.29 664.74 810.58 664.74 C 810.58 664.88 810.58 665.15 810.58 665.29 C 807.34 665.30 804.11 665.16 800.92 664.65 C 799.24 665.97 797.07 666.88 795.01 665.72 C 792.68 664.89 793.35 661.81 793.19 659.95 C 792.43 660.24 790.91 660.81 790.15 661.10 C 786.86 661.34 783.55 661.22 780.27 661.47 C 779.60 664.73 775.33 667.13 772.83 664.18 Z" />
</g>
</g></svg>