<svg xmlns="http://www.w3.org/2000/svg" viewBox="0 0 1024 1024" version="1.1">
<g id="Parent-Group"><g id="Group-rgba(0,0,0,0)" fill="rgba(0,0,0,0)">
<path fill="rgba(0,0,0,0)" opacity="1.00" d=" M 0.00 0.00 L 770.65 0.00 C 770.81 9.31 770.44 18.65 770.94 27.95 C 768.02 27.84 764.20 28.50 763.70 32.01 C 763.62 38.92 764.06 45.87 763.35 52.78 C 769.42 53.92 775.86 54.63 781.94 53.28 C 784.43 48.93 783.29 43.71 783.44 38.94 C 783.35 36.30 783.81 33.56 783.01 30.99 C 781.58 28.26 778.07 28.20 775.44 27.62 C 775.45 18.41 777.22 9.22 776.38 0.00 L 1024.00 0.00 L 1024.00 826.26 C 1018.01 825.57 1011.98 826.47 1005.97 826.27 C 979.95 826.02 953.98 827.74 927.96 827.42 C 887.99 827.84 848.04 827.19 808.08 828.11 C 799.37 828.01 790.65 828.45 781.96 828.11 C 780.11 825.09 779.71 821.43 778.72 818.08 L 779.08 817.19 C 773.13 797.41 769.30 777.02 764.40 756.96 C 761.82 744.20 758.60 731.56 756.32 718.74 C 754.56 709.31 752.57 699.93 749.88 690.73 C 816.90 690.54 883.93 690.76 950.96 690.63 C 953.02 690.90 952.29 688.20 952.52 687.01 C 952.22 546.45 952.34 405.89 951.73 265.33 C 907.84 264.98 863.95 265.31 820.06 265.21 C 570.34 265.22 320.62 265.12 70.90 265.26 C 70.40 346.83 70.35 428.40 70.13 509.97 C 69.90 565.31 69.75 620.66 69.72 676.00 C 69.78 680.84 69.34 685.72 70.09 690.54 C 109.94 690.83 149.80 690.56 189.65 690.64 C 187.67 699.99 187.33 709.53 186.51 719.01 C 186.27 727.54 186.02 736.16 187.65 744.59 C 189.23 756.31 191.89 768.84 200.43 777.61 C 209.31 785.98 221.08 790.33 232.65 793.53 C 264.31 798.12 296.49 797.78 328.27 794.49 C 330.58 797.75 333.92 800.11 337.74 801.29 C 348.78 805.00 359.79 808.80 370.72 812.81 C 369.58 817.97 368.30 823.10 367.22 828.28 C 366.99 828.54 366.54 829.07 366.31 829.34 C 364.66 829.35 363.01 829.34 361.37 829.36 C 292.93 829.66 224.50 829.41 156.06 829.78 C 142.38 830.17 128.69 830.08 115.00 830.05 C 106.66 829.40 98.33 830.55 90.00 829.83 C 60.00 830.36 29.99 830.27 0.00 830.88 L 0.00 0.00 Z" />
<path fill="rgba(0,0,0,0)" opacity="1.00" d=" M 83.50 278.78 C 118.01 278.52 152.52 278.83 187.03 278.76 C 268.70 278.67 350.37 278.66 432.03 278.83 C 452.25 278.95 472.47 278.44 492.68 278.92 C 484.70 284.08 478.29 291.54 474.21 300.11 C 470.73 306.80 468.93 314.31 464.64 320.57 C 461.90 324.62 457.68 327.27 453.43 329.48 C 446.86 332.87 440.82 337.48 436.40 343.45 C 431.29 350.49 428.99 359.59 430.49 368.19 C 431.61 373.60 435.07 378.58 440.22 380.82 C 446.93 384.07 454.48 381.33 461.00 378.93 C 457.71 386.45 455.99 394.50 453.29 402.23 C 450.74 411.34 447.96 420.42 446.41 429.77 C 445.87 429.70 444.78 429.55 444.24 429.48 C 429.52 429.56 416.10 436.97 403.54 443.95 C 403.22 443.01 402.90 442.08 402.59 441.15 C 390.06 441.26 377.54 441.19 365.05 441.42 C 363.29 441.66 363.60 443.98 363.32 445.25 C 368.52 445.33 373.89 446.07 379.00 444.89 C 382.33 445.74 385.77 445.27 389.17 445.46 C 393.10 445.54 397.05 446.00 400.97 445.43 C 395.91 446.88 391.60 450.13 387.20 452.90 C 375.97 459.59 365.19 467.01 354.47 474.48 C 345.39 480.77 340.91 491.39 333.22 499.01 C 328.57 497.59 323.77 498.96 319.09 499.42 C 311.79 500.12 304.93 503.01 298.56 506.49 C 294.65 508.73 291.59 512.10 288.37 515.18 C 282.43 521.41 277.41 528.46 272.93 535.79 C 269.73 542.18 264.88 547.59 262.14 554.23 C 256.10 563.42 249.59 572.32 243.61 581.56 C 232.83 598.17 221.57 614.47 211.23 631.37 C 207.55 636.68 204.72 642.52 202.28 648.49 C 198.13 657.58 194.93 667.06 192.56 676.76 C 155.97 677.18 119.37 677.15 82.77 677.05 C 82.48 657.03 82.78 637.01 82.74 617.00 C 83.00 504.26 83.42 391.52 83.50 278.78 M 447.44 282.67 C 440.34 283.66 433.11 282.26 425.94 282.73 C 414.60 283.19 403.24 281.92 391.93 283.09 C 380.29 283.17 368.65 282.22 357.01 282.62 C 354.90 282.76 354.59 285.73 356.44 286.54 C 359.72 288.01 363.49 286.91 366.99 287.13 C 396.57 287.65 426.14 287.49 455.71 287.59 C 455.76 285.90 455.72 284.22 455.60 282.54 C 453.34 282.65 451.09 282.84 448.85 283.13 C 448.50 283.01 447.79 282.79 447.44 282.67 M 211.97 286.51 C 190.29 286.30 168.63 286.86 146.94 286.87 C 144.19 286.89 144.86 291.61 147.46 291.41 C 180.97 290.83 214.57 292.00 248.04 291.03 C 253.03 291.74 258.04 290.40 263.02 291.23 C 274.66 290.42 286.36 290.88 298.03 290.71 C 300.50 290.77 300.57 286.21 298.20 285.96 C 287.82 286.56 277.43 286.01 267.04 286.37 C 256.02 285.81 244.97 286.68 233.95 286.11 C 229.98 287.38 225.90 285.34 221.97 286.93 C 218.76 285.47 215.32 287.15 211.97 286.51 M 369.78 294.95 C 369.41 300.24 370.21 305.58 369.31 310.83 C 370.35 312.87 374.08 312.67 375.42 310.96 C 373.98 310.76 372.54 310.58 371.11 310.37 C 372.68 310.29 374.26 310.25 375.84 310.24 C 376.10 304.62 376.39 298.75 374.63 293.35 C 373.48 290.93 370.14 293.03 369.78 294.95 M 396.34 293.21 C 394.77 299.72 396.19 306.51 395.94 313.12 C 397.51 314.83 399.98 313.42 401.75 312.85 C 402.60 306.89 401.83 300.95 401.64 294.98 C 401.01 292.78 398.18 291.79 396.34 293.21 M 161.41 302.38 C 160.60 304.03 158.27 306.18 160.44 307.87 C 160.92 306.51 161.78 306.07 163.02 306.54 C 162.42 307.03 161.82 307.54 161.23 308.05 C 162.48 308.05 164.97 308.06 166.21 308.06 L 166.78 309.41 C 162.18 309.02 157.57 309.37 152.99 308.76 C 150.67 308.79 149.95 311.23 149.59 313.07 C 152.22 314.46 155.09 315.06 158.02 314.27 C 168.33 314.05 178.61 314.95 188.88 314.73 C 193.33 315.37 197.96 315.66 202.40 314.88 L 201.90 314.24 C 201.94 313.91 202.01 313.24 202.05 312.91 C 202.80 312.08 203.15 311.05 203.09 309.82 C 192.18 308.69 181.24 309.78 170.33 309.51 C 170.26 309.24 170.13 308.70 170.06 308.43 C 173.05 308.15 171.55 305.43 170.38 304.00 C 170.37 302.05 170.96 299.92 169.90 298.15 C 170.01 296.78 169.94 295.42 169.69 294.08 C 165.40 294.52 163.60 299.26 161.41 302.38 M 186.70 298.01 C 186.06 299.90 186.05 301.89 186.06 303.86 C 187.42 305.49 189.23 306.60 191.12 307.51 C 194.92 306.02 196.33 301.74 195.31 297.99 C 192.52 296.75 189.52 297.11 186.70 298.01 M 312.21 299.99 C 312.60 303.65 312.02 307.37 312.95 310.98 C 312.56 318.28 312.69 325.59 312.60 332.91 C 313.04 349.23 312.56 365.54 312.74 381.87 C 312.58 389.62 311.43 397.32 310.13 404.95 C 309.94 406.68 309.74 408.41 309.49 410.14 C 307.99 409.25 307.89 407.37 307.29 405.91 C 304.83 399.35 303.72 392.40 301.38 385.79 C 299.89 381.81 299.80 377.26 297.12 373.79 C 293.47 375.85 290.82 379.17 288.29 382.43 C 284.06 387.95 280.01 393.70 277.16 400.07 C 273.30 391.72 268.97 383.58 265.45 375.07 C 263.22 370.61 262.17 365.63 259.63 361.34 C 257.66 359.44 255.85 362.18 255.56 364.02 C 249.45 384.67 245.39 405.89 238.51 426.31 C 236.08 417.95 232.18 410.16 228.94 402.12 C 227.19 397.99 226.62 393.08 223.09 389.97 C 219.44 394.19 218.66 399.96 215.66 404.57 C 211.95 410.48 208.55 417.20 202.55 421.07 C 198.32 415.21 195.95 408.33 193.27 401.70 C 192.75 400.23 191.24 398.12 189.50 399.41 C 186.54 406.36 184.81 413.82 181.47 420.61 C 180.49 412.12 177.55 404.07 175.21 395.90 C 174.48 394.03 174.29 391.37 172.02 390.71 C 170.35 391.04 169.84 392.83 169.29 394.20 C 166.45 403.06 163.33 411.86 159.15 420.20 C 158.20 421.98 157.87 424.00 157.44 425.96 C 155.57 416.78 155.56 407.38 155.31 398.06 C 155.01 396.25 155.61 393.36 153.10 393.08 C 151.22 393.67 150.32 395.67 149.21 397.15 C 144.71 404.54 140.76 412.25 137.30 420.19 C 137.52 403.83 138.11 387.40 136.77 371.09 C 136.97 368.04 137.29 365.00 137.51 361.96 C 137.56 342.02 137.43 322.06 137.83 302.12 C 137.14 300.62 136.31 299.19 135.13 298.03 C 134.17 299.19 132.33 300.21 132.64 302.00 C 132.86 318.31 132.82 334.61 132.72 350.91 C 132.03 357.51 133.91 364.02 133.37 370.60 C 134.08 373.11 132.69 375.47 132.77 377.99 C 132.69 396.00 132.69 414.02 132.39 432.03 C 132.49 434.96 131.75 438.81 134.90 440.43 C 136.58 438.99 137.96 437.10 138.33 434.88 C 138.27 432.43 137.23 429.86 138.33 427.51 C 142.38 419.24 146.35 410.92 150.82 402.87 C 150.95 413.66 151.83 424.49 154.30 435.01 C 155.84 436.85 158.15 434.35 158.82 432.82 C 163.64 422.38 168.03 411.73 172.24 401.04 C 175.02 409.68 176.70 418.60 178.37 427.51 C 178.59 429.52 180.31 433.29 182.50 430.52 C 186.52 424.06 187.75 416.26 191.36 409.62 C 193.81 415.96 197.41 421.81 202.21 426.64 C 211.37 420.01 218.67 410.79 222.79 400.25 C 228.32 411.66 233.31 423.48 236.18 435.88 C 237.58 435.78 239.31 436.50 240.48 435.46 C 242.02 431.16 243.13 426.71 244.60 422.38 C 250.24 405.52 253.61 388.03 258.44 370.94 C 264.42 383.56 269.94 396.39 276.19 408.87 C 277.32 409.16 278.19 408.82 278.81 407.87 C 280.91 405.32 281.27 401.88 282.85 399.05 C 286.37 392.67 290.34 386.50 295.23 381.07 C 298.93 392.92 301.32 405.27 306.47 416.62 C 307.05 418.80 310.77 420.32 311.50 417.57 C 311.78 416.92 312.34 415.62 312.62 414.97 C 313.08 418.97 312.79 422.99 312.74 427.01 C 313.52 430.59 311.20 435.15 314.99 437.60 C 316.08 436.62 317.98 435.75 317.71 433.97 C 317.50 406.05 317.93 378.13 317.61 350.21 C 317.08 337.84 318.00 325.40 316.66 313.06 C 317.35 308.01 317.85 302.94 317.17 297.83 C 315.24 297.27 312.29 297.36 312.21 299.99 M 350.29 309.87 C 350.58 316.59 350.28 323.32 350.64 330.04 C 350.05 349.05 350.50 368.08 350.30 387.08 C 350.83 400.37 349.80 413.71 350.07 426.98 C 351.93 427.51 354.92 427.46 355.28 425.01 C 355.46 421.98 354.96 418.96 355.13 415.93 C 355.61 392.66 354.42 369.39 354.99 346.14 C 354.41 337.11 355.03 328.06 354.73 319.02 C 354.27 315.21 356.74 310.60 353.48 307.52 C 352.02 306.12 349.99 308.25 350.29 309.87 M 411.25 320.90 C 410.35 330.93 411.04 341.01 410.59 351.05 C 409.61 353.76 411.99 355.75 414.04 357.02 C 415.26 355.26 417.36 353.58 416.67 351.19 C 416.67 341.31 416.07 331.42 416.25 321.56 C 414.93 320.17 412.89 320.39 411.25 320.90 M 154.49 446.99 C 154.87 448.70 156.56 447.52 157.58 447.27 C 157.17 447.72 156.34 448.63 155.93 449.08 C 165.60 448.36 175.27 449.72 184.95 449.33 C 188.28 449.07 191.70 449.86 194.95 448.92 C 197.62 448.09 200.48 450.29 202.99 448.65 C 205.73 450.49 209.03 448.72 212.06 449.41 C 224.36 449.46 236.66 449.80 248.96 449.80 C 257.64 449.52 266.30 450.49 274.98 450.19 C 278.62 450.24 282.54 450.68 285.86 448.84 C 286.42 447.76 287.10 444.99 285.01 445.25 C 256.71 444.09 228.37 444.94 200.06 444.81 C 199.48 445.02 198.33 445.43 197.76 445.64 C 197.45 445.30 196.85 444.61 196.55 444.27 C 190.03 444.23 183.51 444.15 177.00 443.81 C 170.26 444.11 163.41 444.30 156.75 443.22 C 155.76 444.30 154.99 445.60 154.49 446.99 M 148.99 486.12 C 154.36 485.61 159.70 486.62 165.08 486.20 C 210.76 486.20 256.29 486.59 301.98 486.20 C 304.37 486.01 303.70 483.18 303.54 481.64 C 292.02 481.21 280.49 481.60 268.97 481.34 C 240.30 480.98 211.65 481.54 182.98 481.30 C 171.67 481.65 160.36 481.59 149.05 481.33 C 146.43 481.44 146.30 486.02 148.99 486.12 M 157.13 490.65 C 157.52 490.67 158.29 490.69 158.68 490.71 C 157.46 493.06 156.16 495.39 155.33 497.92 C 155.58 498.32 156.10 499.11 156.35 499.50 C 157.05 499.55 158.46 499.64 159.16 499.69 C 159.08 500.62 158.93 502.49 158.85 503.42 C 159.82 504.95 161.71 503.20 163.03 503.17 C 162.96 500.83 164.66 497.28 162.28 495.76 C 162.55 495.48 163.10 494.91 163.37 494.63 C 161.65 492.55 163.35 489.04 161.07 486.96 C 159.82 488.23 159.24 490.62 157.13 490.65 M 182.98 492.87 C 181.17 495.37 181.51 498.82 182.37 501.62 C 183.92 504.81 188.74 504.13 189.98 501.01 C 191.06 497.86 189.48 494.60 188.46 491.65 C 186.63 491.92 184.39 491.37 182.98 492.87 M 159.67 505.43 C 159.53 507.74 156.58 506.69 155.07 507.08 C 151.62 507.45 146.30 505.35 145.44 510.32 C 149.39 512.11 153.79 511.33 157.97 511.25 C 169.68 511.22 181.39 510.52 193.11 510.99 C 193.87 510.45 194.62 509.92 195.38 509.39 C 195.03 508.49 195.57 507.01 194.51 506.59 C 184.07 505.85 173.60 507.23 163.17 506.75 C 162.48 505.62 160.86 503.63 159.67 505.43 M 133.43 519.07 C 133.02 523.37 133.76 527.66 133.78 531.96 C 133.31 538.97 133.88 546.00 133.76 553.02 C 133.69 556.31 133.66 559.62 134.18 562.88 C 133.61 564.88 133.78 566.99 133.79 569.05 C 133.74 591.04 133.03 613.05 133.09 635.03 C 133.04 636.73 134.91 637.65 136.08 638.55 C 137.88 638.50 138.46 636.43 139.27 635.17 C 140.47 633.48 138.52 631.76 138.70 629.97 C 138.88 607.36 138.69 584.74 138.54 562.13 C 139.81 563.36 141.28 564.53 142.60 562.55 C 154.29 549.47 166.29 536.61 176.68 522.45 C 176.85 522.36 177.18 522.17 177.35 522.08 C 180.74 528.39 184.73 534.35 188.45 540.48 C 192.49 546.77 195.61 553.59 199.25 560.12 C 201.61 559.01 203.82 557.57 205.68 555.73 C 212.84 548.84 220.51 542.50 227.54 535.47 C 232.15 542.66 233.14 551.68 237.50 559.05 C 239.10 563.91 240.12 569.00 242.28 573.67 C 242.83 573.80 243.91 574.06 244.46 574.18 C 244.79 568.53 241.91 563.38 240.58 558.02 C 239.67 552.39 236.86 547.35 235.24 541.92 C 233.35 537.64 232.47 532.64 229.12 529.20 C 224.78 531.66 222.02 535.94 218.07 538.89 C 212.44 544.32 206.52 549.42 200.81 554.76 C 195.92 542.53 187.47 532.27 181.51 520.61 C 180.22 518.99 178.93 515.41 176.39 516.43 C 173.65 519.08 171.68 522.39 169.22 525.29 C 161.43 534.19 154.18 543.54 146.41 552.48 C 143.96 555.48 140.55 557.58 138.46 560.89 C 138.56 545.27 138.36 529.66 138.79 514.04 C 139.23 511.72 137.21 510.21 135.97 508.60 C 132.29 510.84 133.63 515.54 133.43 519.07 M 148.68 639.92 C 148.94 641.25 148.68 643.13 150.19 643.82 C 154.36 644.97 158.77 644.61 163.02 644.20 C 167.35 644.66 171.68 644.51 176.01 644.23 C 180.85 644.45 185.88 644.85 190.59 643.45 C 190.79 642.26 190.93 641.08 191.00 639.89 C 188.09 638.99 185.02 639.26 182.03 639.22 C 176.02 639.52 170.01 639.05 164.01 639.53 C 158.91 639.90 153.67 638.31 148.68 639.92 Z" />
<path fill="rgba(0,0,0,0)" opacity="1.00" d=" M 549.69 278.52 C 572.43 278.98 595.20 278.54 617.95 278.68 C 725.05 278.67 832.15 278.74 939.25 278.74 C 939.46 349.15 939.25 419.57 939.53 489.99 C 939.68 552.34 939.79 614.69 939.77 677.03 C 907.51 677.19 875.24 677.05 842.98 677.09 C 810.83 676.97 778.67 677.35 746.54 676.89 C 746.01 676.86 744.96 676.78 744.43 676.74 C 735.45 652.44 719.96 630.38 699.48 614.41 C 690.23 607.36 680.20 601.42 670.06 595.75 C 649.56 584.55 629.08 573.28 607.84 563.51 C 604.89 553.21 603.88 542.39 600.33 532.23 C 593.33 534.67 586.20 536.79 578.89 538.06 C 578.85 532.79 578.57 527.52 578.56 522.24 C 585.20 519.92 591.28 516.09 596.32 511.20 C 601.66 505.84 605.19 498.95 607.50 491.81 C 611.79 496.06 618.26 497.79 624.01 495.62 C 633.43 492.42 638.80 483.25 642.49 474.60 C 646.94 465.37 649.05 455.23 650.16 445.10 C 654.39 444.30 658.58 442.82 661.99 440.12 C 668.11 435.34 671.57 427.95 673.41 420.57 C 675.62 410.38 675.14 399.26 670.21 389.90 C 668.37 385.54 664.54 381.13 666.21 376.12 C 668.01 371.07 671.12 366.59 672.69 361.44 C 674.84 354.57 675.31 347.06 673.55 340.05 C 672.28 336.27 669.79 332.77 666.28 330.77 C 659.64 326.93 651.44 325.72 644.04 327.92 C 644.00 320.20 640.64 312.16 634.09 307.77 C 626.34 302.28 616.30 300.95 607.07 302.35 C 600.77 303.04 594.37 305.33 588.04 303.61 C 581.59 302.02 577.98 295.72 572.12 293.00 C 563.42 288.09 552.30 288.51 543.91 293.88 C 546.30 290.61 548.69 287.17 549.36 283.09 C 549.55 281.57 549.59 280.04 549.69 278.52 M 760.40 288.60 C 760.72 290.10 762.63 290.29 763.91 290.22 C 771.82 290.01 779.74 290.23 787.64 290.80 C 787.67 293.17 786.04 294.94 784.88 296.84 C 785.79 298.88 786.05 301.19 785.04 303.25 C 785.35 305.60 786.02 307.88 786.76 310.13 C 784.42 310.05 782.03 309.99 779.87 311.01 C 779.89 312.34 779.93 313.67 779.99 315.00 C 783.96 315.51 787.97 315.15 791.97 315.45 C 801.28 315.09 810.61 315.86 819.92 315.64 C 822.17 315.22 821.63 312.58 821.62 310.96 C 811.00 310.01 800.33 310.75 789.68 310.56 C 789.45 304.03 789.64 297.49 789.26 290.96 C 794.18 290.58 799.10 291.20 804.03 291.31 C 806.06 291.42 808.11 291.35 810.10 290.81 C 811.70 291.22 813.35 291.34 815.02 291.26 C 834.39 290.17 853.70 291.05 873.10 290.79 C 876.49 291.61 880.03 291.44 883.38 290.41 C 884.37 289.14 883.44 287.54 882.91 286.29 C 859.39 286.51 835.81 286.05 812.32 286.33 C 807.90 285.93 803.44 287.05 799.09 286.05 C 787.08 286.44 775.09 285.46 763.08 285.40 C 761.36 285.18 759.80 286.95 760.40 288.60 M 809.41 297.59 C 804.90 299.30 806.97 307.29 811.95 306.58 C 816.14 306.78 816.69 301.28 815.39 298.44 C 814.09 296.30 811.36 296.85 809.41 297.59 M 655.12 299.19 C 654.04 300.27 654.21 302.82 655.98 303.15 C 659.47 304.75 663.34 303.71 667.03 303.86 C 678.38 304.31 689.70 305.32 701.07 305.10 C 703.27 303.37 703.35 299.23 699.99 298.85 C 693.99 298.60 687.98 299.21 681.97 299.15 C 673.66 299.06 665.20 300.01 657.01 298.30 C 656.54 298.52 655.59 298.96 655.12 299.19 M 920.17 311.92 C 920.83 322.92 920.54 333.93 920.53 344.95 C 920.38 349.99 921.05 355.04 920.38 360.08 C 920.81 375.04 920.35 390.02 920.23 404.99 C 919.05 408.62 920.60 412.31 920.02 415.98 C 919.29 421.35 920.39 426.73 920.19 432.12 C 919.75 434.74 923.23 435.28 924.87 433.92 C 925.06 433.41 925.43 432.39 925.62 431.88 C 924.64 422.58 925.71 413.21 925.27 403.88 C 925.66 375.94 925.38 348.00 925.39 320.05 C 925.53 316.33 924.90 312.54 925.93 308.90 C 925.25 307.40 924.46 305.95 922.93 305.21 C 921.50 307.17 919.70 309.31 920.17 311.92 M 751.49 314.01 C 751.63 333.66 752.20 353.34 752.07 373.00 C 752.75 375.66 753.11 378.42 751.98 381.03 C 752.24 386.30 752.34 391.60 751.94 396.86 C 752.40 405.90 752.28 414.96 752.39 424.00 C 752.72 429.08 751.85 434.19 752.75 439.24 C 754.33 439.05 757.21 439.57 757.18 437.14 C 757.83 431.11 756.92 425.05 757.21 419.00 C 756.85 406.01 757.63 392.99 756.64 380.01 C 755.72 376.65 757.21 373.31 756.99 369.91 C 756.92 352.94 756.59 335.96 756.57 318.98 C 756.41 317.00 756.65 314.86 755.70 313.04 C 754.66 311.63 751.34 311.82 751.49 314.01 M 677.17 315.05 C 676.46 315.90 676.06 316.88 675.98 317.98 C 676.27 322.38 676.60 326.78 676.69 331.19 C 676.15 333.29 675.57 335.79 677.98 336.95 C 680.54 338.41 681.50 334.81 682.41 333.16 C 682.19 327.77 682.38 322.25 680.85 317.04 C 680.43 315.62 678.61 313.48 677.17 315.05 M 693.00 316.87 C 692.65 322.28 692.43 327.81 693.23 333.19 C 692.19 335.05 691.81 337.82 694.04 338.99 C 696.15 340.49 698.20 337.86 698.26 335.89 C 698.69 329.97 698.61 324.00 698.26 318.08 C 698.65 315.32 693.30 313.58 693.00 316.87 M 707.29 316.30 C 705.73 318.18 706.46 320.82 706.26 323.06 C 706.75 341.66 705.22 360.28 706.18 378.84 C 707.26 380.81 706.95 382.97 706.09 384.96 C 706.99 387.30 706.06 389.72 705.90 392.10 C 705.72 403.33 705.86 414.59 705.63 425.81 C 706.18 429.18 705.06 432.65 706.16 435.96 C 706.37 437.51 707.76 438.08 709.16 438.33 C 709.86 436.59 710.77 434.92 711.11 433.06 C 710.60 418.68 711.03 404.28 710.58 389.89 C 710.14 387.60 709.20 385.37 709.89 383.00 C 711.67 373.75 710.26 364.30 711.10 354.97 C 711.24 342.98 711.64 331.01 711.68 319.03 C 711.86 316.93 709.14 314.40 707.29 316.30 M 895.32 346.18 C 895.02 355.15 894.71 364.11 894.76 373.10 C 894.79 374.42 894.83 375.74 894.88 377.08 C 891.84 380.31 889.56 384.18 888.32 388.45 C 885.63 397.25 883.60 406.25 880.51 414.92 C 878.56 406.28 873.05 398.21 865.03 394.20 C 863.57 393.76 863.44 395.94 862.76 396.73 C 858.85 404.80 856.88 413.57 854.32 422.12 C 850.63 416.89 847.55 411.25 844.32 405.74 C 842.86 403.48 842.04 400.08 838.92 399.71 C 836.26 403.74 834.90 408.42 832.62 412.64 C 828.60 406.94 823.82 401.87 818.76 397.10 C 820.40 384.70 821.52 372.24 823.42 359.87 C 823.74 358.20 823.64 356.49 823.40 354.81 C 822.59 354.85 820.96 354.92 820.14 354.95 C 818.53 360.12 818.04 365.72 817.54 371.13 C 815.39 384.71 814.07 398.42 812.56 412.09 C 810.66 406.25 809.38 400.24 807.55 394.38 C 806.90 392.83 806.20 391.10 804.64 390.27 C 803.24 390.48 802.49 391.81 801.82 392.90 C 799.84 396.37 798.52 400.16 797.31 403.95 C 796.61 395.98 796.04 387.99 795.04 380.05 C 794.75 378.42 794.39 375.79 792.17 376.03 C 786.68 381.03 782.23 387.10 778.34 393.41 C 777.46 394.64 777.07 396.36 775.64 397.08 C 775.30 392.75 775.99 388.39 775.44 384.09 C 775.27 381.83 772.44 382.16 770.89 381.71 C 769.98 390.22 771.58 398.67 771.17 407.17 C 771.08 408.47 772.48 410.21 773.92 409.62 C 775.54 409.62 775.93 407.77 776.61 406.66 C 780.03 398.04 785.47 390.46 790.84 382.97 C 791.55 392.32 792.10 401.70 793.34 410.99 C 793.63 415.41 790.07 419.86 792.07 424.06 C 793.77 423.96 795.27 423.31 796.36 421.98 C 797.86 422.88 800.27 423.29 800.69 420.97 C 800.69 416.95 798.54 412.91 799.91 408.92 C 800.95 405.74 802.46 402.75 803.67 399.64 C 806.45 407.45 808.64 415.51 811.97 423.11 C 812.20 424.66 814.24 425.75 815.38 424.35 C 817.64 417.66 817.52 410.42 818.67 403.48 C 823.29 407.55 826.72 412.76 830.59 417.51 C 831.43 418.50 832.42 419.89 833.96 419.53 C 837.60 416.58 837.86 411.51 840.27 407.79 C 843.70 414.18 847.75 420.20 851.71 426.26 C 852.94 427.78 853.97 429.77 855.93 430.45 C 857.49 430.13 857.78 428.37 858.19 427.11 C 860.45 417.66 862.74 408.14 866.63 399.21 C 871.73 402.98 873.57 409.27 875.68 414.94 C 876.99 418.16 876.13 421.96 878.14 424.92 C 878.85 426.12 880.50 427.61 881.56 425.81 C 886.17 414.90 888.79 403.28 892.07 391.92 C 892.81 389.86 892.78 387.31 894.53 385.78 C 894.78 392.85 894.20 399.94 894.84 407.00 C 895.27 413.23 894.10 419.42 894.22 425.65 C 895.53 425.52 896.88 425.49 898.18 425.16 C 898.44 420.48 899.01 415.82 899.29 411.14 C 899.65 407.87 898.02 404.25 900.30 401.40 C 900.11 401.06 899.73 400.37 899.54 400.03 C 899.43 392.52 899.70 384.97 899.45 377.46 C 899.89 367.29 899.81 357.09 900.20 346.91 C 898.68 346.12 897.00 345.66 895.32 346.18 M 903.35 387.79 C 903.71 404.81 903.23 421.84 904.35 438.85 C 905.41 438.77 907.51 438.63 908.57 438.56 C 907.94 421.98 908.27 405.37 908.15 388.80 C 907.82 386.26 904.93 387.35 903.35 387.79 M 768.36 446.83 C 768.83 447.02 769.79 447.41 770.27 447.60 C 782.47 447.13 794.72 448.72 806.91 447.94 C 807.46 447.78 808.57 447.45 809.12 447.28 C 815.57 449.16 822.45 447.75 829.06 448.58 C 837.97 448.29 846.89 449.04 855.80 449.05 C 867.21 449.30 878.61 449.68 890.03 449.69 C 892.37 449.92 896.56 447.41 893.92 444.94 C 888.02 443.83 881.97 444.60 876.02 443.96 C 853.63 443.97 831.20 443.29 808.83 443.88 C 808.48 443.57 807.79 442.96 807.45 442.65 C 802.26 443.03 797.07 442.57 791.90 442.34 C 784.90 442.42 777.91 442.55 770.92 442.09 C 768.02 441.56 768.62 445.05 768.36 446.83 M 661.78 458.25 C 665.17 459.04 668.70 458.50 672.12 459.20 C 678.76 458.34 685.46 460.05 692.10 459.28 C 694.04 459.05 696.36 460.68 697.99 459.16 C 699.95 457.92 698.16 454.50 696.09 454.87 C 692.04 455.17 688.00 453.97 683.99 454.85 C 678.05 453.74 671.96 455.37 666.02 453.97 C 663.38 453.18 661.39 455.80 661.78 458.25 M 662.25 480.30 C 659.78 481.49 661.33 485.46 663.97 484.86 C 676.67 484.50 689.40 484.82 702.09 484.44 C 703.98 484.45 706.21 485.39 707.64 483.62 C 708.47 482.13 706.80 480.74 706.23 479.49 C 699.20 479.89 692.06 480.62 685.04 479.84 C 684.40 480.00 683.12 480.32 682.47 480.49 C 675.74 480.09 668.88 480.59 662.25 480.30 M 774.06 480.17 C 772.36 480.62 772.89 482.94 772.96 484.24 C 792.31 484.98 811.70 484.46 831.07 484.94 C 834.94 484.53 838.88 485.35 842.72 484.47 L 842.41 485.20 C 854.27 484.95 866.14 485.34 878.01 485.22 C 887.61 485.13 897.26 485.74 906.81 484.64 C 906.70 483.15 906.76 481.57 905.81 480.33 C 903.53 480.12 901.25 480.25 898.99 480.03 C 879.97 479.89 860.93 479.68 841.90 479.78 C 819.30 480.15 796.67 480.16 774.06 480.17 M 784.62 491.64 C 782.67 493.64 781.01 496.23 780.65 499.04 C 780.80 500.85 782.97 500.90 784.23 501.60 C 785.13 499.69 785.32 496.80 787.71 496.14 C 787.40 500.06 786.02 503.82 783.77 507.04 C 783.08 508.57 781.88 510.66 782.79 512.23 C 788.02 513.91 793.63 512.00 799.02 512.56 C 806.06 512.17 813.11 512.54 820.15 512.07 C 820.40 510.50 820.48 508.91 820.43 507.34 C 811.90 507.38 803.40 507.79 794.89 507.98 C 793.76 505.76 791.37 505.88 789.22 505.89 C 791.70 502.54 793.19 498.12 791.94 494.00 C 790.74 491.37 787.11 490.59 784.62 491.64 M 811.42 491.66 C 808.39 492.99 808.71 497.26 809.19 499.99 C 809.71 503.33 814.19 504.45 816.73 502.81 C 818.46 499.91 818.15 496.06 817.16 492.97 C 816.36 490.50 813.31 491.13 811.42 491.66 M 707.30 496.92 C 707.91 518.30 706.93 539.68 707.59 561.07 C 707.29 572.71 707.37 584.38 707.98 596.02 C 708.62 602.32 707.74 608.69 708.46 614.99 C 708.63 616.88 710.58 617.30 712.16 617.30 C 712.05 604.17 711.95 591.08 712.54 577.97 C 712.89 573.97 711.82 569.80 713.20 565.94 C 712.69 564.67 712.12 563.40 711.75 562.10 C 712.71 557.74 712.54 553.27 712.62 548.84 C 712.06 541.56 712.74 534.27 712.48 526.97 C 712.20 521.60 713.03 516.23 712.19 510.90 C 713.02 507.62 712.01 504.29 712.51 500.99 C 712.69 498.69 713.51 495.32 710.77 494.19 C 708.91 492.82 707.12 495.11 707.30 496.92 M 754.76 506.10 C 754.64 511.07 754.65 516.05 754.90 521.02 C 755.59 525.99 754.47 530.97 755.11 535.95 C 754.38 543.01 755.63 550.05 755.09 557.10 C 754.86 580.75 754.68 604.40 754.29 628.05 C 754.10 630.28 756.31 631.62 758.00 632.56 C 759.24 630.90 760.26 629.09 761.08 627.20 C 760.51 626.22 760.21 625.19 760.16 624.10 C 760.49 584.74 758.97 545.34 760.10 505.98 C 759.65 504.09 758.46 502.51 757.10 501.18 C 755.87 502.55 754.59 504.12 754.76 506.10 M 925.03 502.94 C 922.13 506.60 924.54 511.65 923.39 515.91 C 925.03 521.53 923.03 527.32 924.10 533.00 C 923.96 544.32 924.13 555.66 924.17 567.00 C 924.08 581.04 925.60 595.55 920.51 608.98 C 919.74 603.46 917.65 598.27 916.19 592.93 C 914.93 588.59 914.03 584.13 912.19 579.99 C 911.43 580.04 909.91 580.13 909.15 580.18 C 906.89 589.20 904.66 598.24 901.56 607.02 C 898.76 598.15 895.94 587.74 886.92 583.21 C 883.76 587.05 880.03 590.43 877.61 594.83 C 876.77 592.17 875.81 589.55 874.87 586.93 C 869.77 573.24 866.76 558.90 862.29 545.01 C 861.30 542.41 860.94 538.06 857.07 539.05 C 854.66 545.13 852.83 551.42 850.36 557.48 C 847.66 565.09 844.09 572.34 841.24 579.89 C 839.17 576.10 837.34 572.18 835.76 568.17 C 834.58 565.35 833.56 562.25 830.98 560.39 C 829.39 561.89 828.31 563.79 827.68 565.87 C 823.99 576.09 819.21 585.87 813.63 595.18 C 804.21 574.71 794.52 554.30 787.31 532.91 C 787.06 530.90 784.06 530.37 783.19 532.22 C 779.99 536.89 778.66 542.48 776.36 547.59 C 774.74 551.16 774.16 555.10 772.68 558.74 C 769.80 566.29 768.15 574.21 765.79 581.93 C 764.93 584.93 764.04 587.97 764.01 591.13 C 765.28 591.28 766.57 591.28 767.86 591.12 C 772.95 573.95 777.40 556.51 784.49 540.01 C 792.80 560.49 801.40 580.85 811.30 600.65 C 811.93 602.37 813.45 603.29 815.17 603.76 C 820.11 592.50 826.58 581.99 831.34 570.64 C 834.39 575.73 836.15 581.49 839.22 586.59 C 839.93 587.68 840.59 588.94 841.89 589.48 C 844.90 588.15 844.27 584.06 845.63 581.51 C 849.72 570.86 854.63 560.54 858.41 549.77 C 864.31 566.61 867.47 584.49 875.39 600.61 C 875.93 602.32 878.38 603.66 879.45 601.63 C 882.15 597.05 884.14 591.98 887.90 588.09 C 892.11 591.08 892.82 596.51 894.60 600.99 C 897.04 606.75 897.40 613.20 900.29 618.79 C 900.76 618.83 901.70 618.90 902.16 618.94 C 904.43 615.70 905.07 611.69 906.29 608.01 C 907.90 602.99 909.21 597.86 911.16 592.96 C 913.49 600.92 916.02 608.83 918.32 616.80 C 918.62 618.61 920.85 619.90 922.37 618.48 C 923.22 616.92 923.88 615.27 924.67 613.67 C 924.50 620.02 924.36 626.43 925.14 632.74 C 926.44 632.79 927.76 632.85 929.09 632.92 C 930.18 629.74 929.36 626.34 929.46 623.07 C 929.37 601.73 929.54 580.39 929.29 559.06 C 928.51 541.35 928.87 523.61 928.75 505.89 C 929.05 503.95 926.86 500.99 925.03 502.94 M 667.13 546.05 C 662.92 551.49 659.27 557.34 655.77 563.25 C 652.75 560.84 652.56 555.99 648.95 554.28 C 642.00 554.65 635.03 554.70 628.07 554.80 C 625.70 554.89 623.15 553.61 620.99 555.11 C 619.88 556.54 620.85 559.42 622.94 559.03 C 627.64 558.36 632.33 559.79 637.04 559.19 C 640.55 558.80 644.18 558.65 647.64 559.46 C 650.47 562.98 651.85 567.50 655.10 570.74 C 660.67 565.45 663.96 558.23 668.34 551.99 C 671.90 557.18 674.32 563.04 677.57 568.42 C 682.59 577.57 688.27 586.33 693.83 595.15 C 695.30 597.17 697.94 602.29 700.62 599.07 C 699.97 596.76 698.43 594.86 697.27 592.81 C 688.24 577.99 679.43 563.02 671.32 547.68 C 670.75 546.14 668.38 543.99 667.13 546.05 M 868.14 634.13 C 856.71 633.57 845.33 634.34 833.92 633.93 C 831.65 634.32 829.33 634.71 827.12 633.85 C 824.71 634.25 822.26 634.76 819.83 634.31 C 803.90 634.13 787.97 634.74 772.03 634.25 C 769.95 634.65 769.44 637.63 771.22 638.71 C 773.21 640.27 775.76 639.09 778.03 639.20 C 782.02 639.31 786.03 639.42 790.01 638.92 C 802.31 639.57 814.69 638.86 827.03 639.21 C 849.13 638.59 871.31 638.59 893.44 638.59 C 894.94 637.70 895.03 635.39 893.87 634.21 C 892.03 633.34 889.96 634.06 888.03 633.94 C 881.40 633.40 874.77 634.36 868.14 634.13 Z" />
<path fill="rgba(0,0,0,0)" opacity="1.00" d=" M 305.07 508.87 C 319.53 502.59 336.87 502.08 351.23 508.93 C 361.30 513.60 369.01 522.40 373.65 532.36 C 375.24 535.95 376.39 539.77 378.46 543.15 C 377.75 548.93 374.22 553.72 371.93 558.93 C 367.10 568.83 361.98 578.61 356.11 587.95 C 354.66 590.12 353.89 593.06 351.35 594.25 C 349.61 595.37 347.25 596.11 346.92 598.49 C 346.43 598.46 345.46 598.41 344.98 598.39 C 340.62 601.85 335.86 604.77 331.90 608.71 C 325.33 613.04 319.90 618.82 313.57 623.46 C 292.86 641.05 272.89 659.52 253.16 678.22 C 242.75 688.43 231.65 697.92 221.49 708.41 C 220.50 709.48 219.61 710.68 219.14 712.09 C 219.96 712.93 220.90 713.65 221.79 714.44 C 246.90 689.97 272.35 665.84 298.46 642.45 C 310.72 631.32 323.49 620.78 336.50 610.54 C 340.35 607.11 344.74 604.37 348.86 601.28 C 359.63 593.03 372.34 588.05 384.67 582.67 C 395.77 577.82 407.49 574.74 418.97 570.98 C 432.62 566.70 446.59 563.37 460.70 561.04 C 463.91 563.22 467.62 564.42 471.24 565.72 C 493.84 574.09 517.95 577.73 541.96 578.36 C 562.06 578.83 582.41 577.38 601.80 571.78 C 604.14 571.14 606.39 570.18 608.52 569.00 C 624.12 576.22 639.37 584.17 654.35 592.59 C 664.28 597.89 674.09 603.41 683.68 609.30 C 712.64 626.79 734.58 655.74 743.40 688.42 C 747.01 694.69 747.94 701.97 749.90 708.85 C 755.37 737.18 761.42 765.38 768.34 793.39 C 771.23 804.39 773.22 815.62 776.48 826.52 C 776.54 826.94 776.66 827.78 776.72 828.20 C 751.89 828.05 727.04 829.07 702.22 828.27 C 702.22 827.47 702.21 825.85 702.21 825.04 C 703.48 823.40 704.70 821.72 705.84 819.99 C 710.16 814.11 713.82 807.77 718.23 801.96 C 719.41 800.32 720.78 798.68 720.82 796.56 C 721.02 796.61 721.41 796.70 721.61 796.75 C 729.26 785.45 736.83 774.07 743.35 762.07 C 744.23 760.55 743.70 758.75 743.52 757.13 C 742.25 750.03 740.43 742.98 737.54 736.36 C 736.58 734.44 735.61 731.75 733.02 731.81 C 730.06 732.73 728.85 735.93 727.13 738.23 C 717.92 751.64 708.37 764.82 699.00 778.11 C 698.00 768.04 698.21 757.87 696.77 747.86 C 706.69 729.45 715.35 710.38 722.68 690.80 C 723.70 688.83 723.05 686.96 720.64 686.98 C 719.25 688.40 718.80 690.42 718.00 692.19 C 711.17 707.78 704.87 723.67 696.46 738.51 C 694.77 712.94 692.86 687.37 690.64 661.85 C 689.09 661.38 685.91 660.05 686.36 662.99 C 689.84 713.37 693.53 763.76 696.52 814.18 C 696.90 818.84 697.34 823.50 697.67 828.17 C 682.78 828.83 667.88 828.12 652.99 828.60 C 637.99 828.91 622.98 828.81 607.99 829.01 C 597.66 828.26 587.33 829.56 577.00 829.00 C 533.49 829.57 489.96 828.98 446.44 829.28 C 421.50 829.31 396.56 829.39 371.62 829.40 C 376.63 809.13 380.14 788.53 383.55 767.94 C 387.17 745.85 391.22 723.82 394.00 701.60 C 395.81 691.68 397.17 681.68 399.02 671.76 C 397.67 671.36 396.20 669.59 394.83 670.87 C 390.51 687.78 389.77 705.40 385.65 722.34 C 383.63 715.32 381.76 708.23 380.21 701.10 C 377.11 682.82 374.39 664.47 371.54 646.13 C 370.96 642.95 370.96 639.70 370.49 636.51 C 369.92 634.12 365.85 634.23 366.12 636.93 C 366.17 644.64 367.84 652.26 368.75 659.91 C 369.70 669.34 371.93 678.59 372.84 688.03 C 374.04 694.79 374.91 701.62 376.47 708.33 C 378.56 717.67 382.73 726.51 384.20 735.96 C 382.21 745.83 381.38 755.93 378.83 765.69 C 365.60 757.41 352.08 749.60 339.02 741.05 C 335.22 738.42 331.14 736.23 327.01 734.20 C 319.13 736.25 314.83 743.91 312.32 751.03 C 311.91 753.94 317.10 754.61 317.60 751.64 C 318.56 746.37 321.77 740.80 327.14 739.20 C 330.73 739.99 333.69 742.35 336.76 744.25 C 350.40 753.21 364.34 761.72 378.38 770.04 C 376.57 782.82 374.26 795.53 371.46 808.13 C 366.35 806.45 361.59 803.84 356.37 802.46 C 349.22 800.06 341.77 798.29 335.05 794.79 C 332.22 793.64 331.67 788.79 328.05 789.68 C 306.83 792.52 285.37 792.92 264.00 792.11 C 253.31 791.05 242.49 790.83 231.91 788.84 C 221.24 785.41 210.02 781.46 202.23 772.99 C 193.76 763.03 192.98 749.33 191.04 736.98 C 190.08 719.20 192.85 701.45 196.63 684.13 C 197.38 677.66 199.91 671.59 200.95 665.20 C 202.14 662.14 203.23 659.03 204.03 655.84 C 206.21 650.76 208.25 645.59 210.90 640.73 C 219.85 625.64 229.46 610.99 239.24 596.42 C 248.14 582.38 257.59 568.69 266.90 554.91 C 268.16 553.49 266.65 550.68 269.27 550.36 C 277.41 538.69 284.13 525.79 294.69 515.99 C 297.75 513.12 301.12 510.43 305.07 508.87 M 326.05 514.99 C 320.72 522.45 315.06 529.74 310.94 537.98 C 309.71 540.53 307.76 543.00 308.06 546.00 C 311.78 546.35 313.06 542.39 314.81 539.91 C 320.18 531.88 325.06 523.52 330.73 515.70 C 331.30 514.98 331.65 514.17 331.80 513.28 C 329.83 511.87 327.23 513.17 326.05 514.99 M 304.18 514.76 C 298.32 521.28 293.70 528.80 288.83 536.06 C 286.32 541.35 282.61 545.90 279.79 551.03 C 280.27 551.97 280.93 552.78 281.77 553.48 C 286.07 551.80 287.14 547.04 290.20 544.03 C 296.55 535.82 301.96 526.92 307.15 517.95 C 307.47 516.04 305.39 515.57 304.18 514.76 M 351.37 517.86 C 348.33 522.08 346.12 526.82 343.18 531.11 C 338.13 538.34 333.85 546.10 330.35 554.18 C 331.15 554.71 331.95 555.24 332.76 555.77 C 337.08 549.99 341.01 543.89 345.15 537.96 C 347.83 531.98 351.87 526.78 354.65 520.85 C 353.93 519.48 352.72 518.54 351.37 517.86 M 362.12 536.99 C 356.89 544.86 351.96 552.94 347.35 561.20 C 346.39 563.18 346.08 565.37 345.89 567.55 C 350.44 568.53 352.45 563.48 354.43 560.40 C 359.24 553.35 363.39 545.89 367.50 538.43 C 368.43 536.74 368.51 534.35 366.65 533.28 C 364.17 531.31 363.31 535.51 362.12 536.99 M 340.72 625.78 C 313.02 649.63 286.56 674.85 260.81 700.77 C 261.51 701.64 262.21 702.52 262.91 703.41 C 272.84 695.27 281.58 685.81 290.99 677.09 C 316.64 653.90 341.87 630.19 369.16 608.91 C 368.40 607.89 367.64 606.89 366.89 605.90 C 357.33 611.32 349.33 619.03 340.72 625.78 M 230.09 659.21 C 224.93 660.15 220.33 662.97 216.47 666.42 C 211.61 673.00 208.25 680.65 206.19 688.55 C 205.26 691.07 208.80 693.55 210.73 691.66 C 211.97 689.85 211.82 687.52 212.39 685.48 C 214.61 677.80 218.07 669.64 225.36 665.50 C 231.75 662.37 239.09 663.47 245.93 663.68 C 252.33 663.30 258.83 663.46 265.16 662.30 C 266.93 662.20 268.13 660.76 266.98 659.12 C 264.38 657.50 261.25 659.05 258.44 659.08 C 251.63 659.38 244.80 659.32 237.99 659.04 C 235.36 658.71 232.68 658.51 230.09 659.21 Z" />
</g>
<g id="Group-000000" fill="#000000">
<path fill="#000000" opacity="1.00" d=" M 770.65 0.00 L 776.38 0.00 C 777.22 9.22 775.45 18.41 775.44 27.62 C 778.07 28.20 781.58 28.26 783.01 30.99 C 783.81 33.56 783.35 36.30 783.44 38.94 C 783.29 43.71 784.43 48.93 781.94 53.28 C 775.86 54.63 769.42 53.92 763.35 52.78 C 764.06 45.87 763.62 38.92 763.70 32.01 C 764.20 28.50 768.02 27.84 770.94 27.95 C 770.44 18.65 770.81 9.31 770.65 0.00 Z" />
</g>
<g id="Group-000000" fill="#000000">
<path fill="#000000" opacity="1.00" d=" M 70.90 265.26 C 320.62 265.12 570.34 265.22 820.06 265.21 C 863.95 265.31 907.84 264.98 951.73 265.33 C 952.34 405.89 952.22 546.45 952.52 687.01 C 952.29 688.20 953.02 690.90 950.96 690.63 C 883.93 690.76 816.90 690.54 749.88 690.73 C 749.34 685.96 746.29 681.75 746.54 676.89 C 778.67 677.35 810.83 676.97 842.98 677.09 C 875.24 677.05 907.51 677.19 939.77 677.03 C 939.79 614.69 939.68 552.34 939.53 489.99 C 939.25 419.57 939.46 349.15 939.25 278.74 C 832.15 278.74 725.05 278.67 617.95 278.68 C 595.20 278.54 572.43 278.98 549.69 278.52 C 549.59 280.04 549.55 281.57 549.36 283.09 C 550.21 276.54 544.22 271.19 538.02 270.95 C 526.61 270.18 515.00 270.85 503.91 273.79 C 499.87 274.83 496.57 277.52 492.68 278.92 C 472.47 278.44 452.25 278.95 432.03 278.83 C 350.37 278.66 268.70 278.67 187.03 278.76 C 152.52 278.83 118.01 278.52 83.50 278.78 C 83.42 391.52 83.00 504.26 82.74 617.00 C 82.78 637.01 82.48 657.03 82.77 677.05 C 119.37 677.15 155.97 677.18 192.56 676.76 C 194.93 667.06 198.13 657.58 202.28 648.49 C 202.65 649.11 203.40 650.35 203.77 650.97 C 203.67 652.60 203.72 654.23 204.03 655.84 C 203.23 659.03 202.14 662.14 200.95 665.20 C 199.91 671.59 197.38 677.66 196.63 684.13 C 192.85 701.45 190.08 719.20 191.04 736.98 C 192.98 749.33 193.76 763.03 202.23 772.99 C 210.02 781.46 221.24 785.41 231.91 788.84 C 242.49 790.83 253.31 791.05 264.00 792.11 C 285.37 792.92 306.83 792.52 328.05 789.68 C 331.67 788.79 332.22 793.64 335.05 794.79 C 341.77 798.29 349.22 800.06 356.37 802.46 C 361.59 803.84 366.35 806.45 371.46 808.13 C 374.26 795.53 376.57 782.82 378.38 770.04 C 364.34 761.72 350.40 753.21 336.76 744.25 C 333.69 742.35 330.73 739.99 327.14 739.20 C 321.77 740.80 318.56 746.37 317.60 751.64 C 317.10 754.61 311.91 753.94 312.32 751.03 C 314.83 743.91 319.13 736.25 327.01 734.20 C 331.14 736.23 335.22 738.42 339.02 741.05 C 352.08 749.60 365.60 757.41 378.83 765.69 C 381.38 755.93 382.21 745.83 384.20 735.96 C 382.73 726.51 378.56 717.67 376.47 708.33 C 376.66 705.45 378.45 703.21 380.21 701.10 C 381.76 708.23 383.63 715.32 385.65 722.34 C 389.77 705.40 390.51 687.78 394.83 670.87 C 396.20 669.59 397.67 671.36 399.02 671.76 C 397.17 681.68 395.81 691.68 394.00 701.60 C 391.22 723.82 387.17 745.85 383.55 767.94 C 380.14 788.53 376.63 809.13 371.62 829.40 C 371.45 829.46 371.11 829.57 370.94 829.63 C 370.70 828.44 370.47 827.28 370.24 826.11 C 369.23 826.82 368.20 827.51 367.22 828.28 C 368.30 823.10 369.58 817.97 370.72 812.81 C 359.79 808.80 348.78 805.00 337.74 801.29 C 333.92 800.11 330.58 797.75 328.27 794.49 C 296.49 797.78 264.31 798.12 232.65 793.53 C 221.08 790.33 209.31 785.98 200.43 777.61 C 191.89 768.84 189.23 756.31 187.65 744.59 C 186.02 736.16 186.27 727.54 186.51 719.01 C 187.33 709.53 187.67 699.99 189.65 690.64 C 149.80 690.56 109.94 690.83 70.09 690.54 C 69.34 685.72 69.78 680.84 69.72 676.00 C 69.75 620.66 69.90 565.31 70.13 509.97 C 70.35 428.40 70.40 346.83 70.90 265.26 Z" />
<path fill="#000000" opacity="1.00" d=" M 754.76 506.10 C 754.59 504.12 755.87 502.55 757.10 501.18 C 758.46 502.51 759.65 504.09 760.10 505.98 C 758.97 545.34 760.49 584.74 760.16 624.10 C 760.21 625.19 760.51 626.22 761.08 627.20 C 760.26 629.09 759.24 630.90 758.00 632.56 C 756.31 631.62 754.10 630.28 754.29 628.05 C 754.68 604.40 754.86 580.75 755.09 557.10 C 755.63 550.05 754.38 543.01 755.11 535.95 C 754.47 530.97 755.59 525.99 754.90 521.02 C 754.65 516.05 754.64 511.07 754.76 506.10 Z" />
</g>
<g id="Group-000000" fill="#000000">
<path fill="#000000" opacity="1.00" d=" M 503.91 273.79 C 515.00 270.85 526.61 270.18 538.02 270.95 C 544.22 271.19 550.21 276.54 549.36 283.09 C 548.69 287.17 546.30 290.61 543.91 293.88 C 552.30 288.51 563.42 288.09 572.12 293.00 C 577.98 295.72 581.59 302.02 588.04 303.61 C 594.37 305.33 600.77 303.04 607.07 302.35 C 616.30 300.95 626.34 302.28 634.09 307.77 C 640.64 312.16 644.00 320.20 644.04 327.92 C 651.44 325.72 659.64 326.93 666.28 330.77 C 669.79 332.77 672.28 336.27 673.55 340.05 C 675.31 347.06 674.84 354.57 672.69 361.44 C 671.12 366.59 668.01 371.07 666.21 376.12 C 664.54 381.13 668.37 385.54 670.21 389.90 C 675.14 399.26 675.62 410.38 673.41 420.57 C 671.57 427.95 668.11 435.34 661.99 440.12 C 658.58 442.82 654.39 444.30 650.16 445.10 C 649.05 455.23 646.94 465.37 642.49 474.60 C 638.80 483.25 633.43 492.42 624.01 495.62 C 618.26 497.79 611.79 496.06 607.50 491.81 C 605.19 498.95 601.66 505.84 596.32 511.20 C 591.28 516.09 585.20 519.92 578.56 522.24 C 578.57 527.52 578.85 532.79 578.89 538.06 C 586.20 536.79 593.33 534.67 600.33 532.23 C 603.88 542.39 604.89 553.21 607.84 563.51 C 608.12 565.32 608.33 567.17 608.52 569.00 C 606.39 570.18 604.14 571.14 601.80 571.78 C 582.41 577.38 562.06 578.83 541.96 578.36 C 517.95 577.73 493.84 574.09 471.24 565.72 C 467.62 564.42 463.91 563.22 460.70 561.04 C 460.83 559.44 460.97 557.84 461.11 556.26 C 463.36 547.89 465.08 539.39 467.33 531.02 C 467.75 529.85 467.86 528.42 468.82 527.54 C 473.75 529.02 478.51 531.00 483.42 532.57 C 483.57 525.79 483.02 519.02 483.62 512.25 C 474.83 510.31 465.71 508.31 458.39 502.74 C 453.26 499.32 449.84 494.08 447.20 488.63 C 445.88 487.61 444.40 486.81 442.94 486.04 C 444.00 485.70 445.06 485.38 446.13 485.07 C 445.64 482.83 445.12 480.60 444.62 478.37 C 443.35 478.30 442.08 478.20 440.82 478.06 C 439.12 475.53 442.12 473.84 443.32 471.97 C 443.51 467.57 443.02 463.16 443.02 458.75 C 438.56 461.45 434.20 464.30 429.88 467.23 C 428.93 465.88 427.69 464.61 427.51 462.90 C 431.54 457.83 437.62 455.16 443.05 451.95 C 443.92 449.15 443.76 446.17 443.89 443.29 C 436.10 447.33 428.10 451.00 420.63 455.64 C 418.48 456.99 415.70 454.28 416.44 452.05 C 418.68 449.01 422.21 447.37 425.44 445.63 C 431.90 442.69 438.15 439.31 444.86 436.95 C 444.88 436.25 444.93 434.85 444.95 434.14 C 444.42 433.99 443.35 433.69 442.82 433.54 C 443.29 432.18 443.76 430.83 444.24 429.48 C 444.78 429.55 445.87 429.70 446.41 429.77 C 447.96 420.42 450.74 411.34 453.29 402.23 C 455.99 394.50 457.71 386.45 461.00 378.93 C 454.48 381.33 446.93 384.07 440.22 380.82 C 435.07 378.58 431.61 373.60 430.49 368.19 C 428.99 359.59 431.29 350.49 436.40 343.45 C 440.82 337.48 446.86 332.87 453.43 329.48 C 457.68 327.27 461.90 324.62 464.64 320.57 C 468.93 314.31 470.73 306.80 474.21 300.11 C 478.29 291.54 484.70 284.08 492.68 278.92 C 496.57 277.52 499.87 274.83 503.91 273.79 M 462.52 390.49 C 460.44 398.39 458.03 406.19 455.80 414.06 C 450.78 433.23 447.50 453.24 450.14 473.06 C 450.49 479.44 452.83 485.57 456.11 491.01 C 462.17 499.71 472.21 504.38 482.10 507.29 C 483.51 507.46 484.91 507.37 486.32 507.01 C 487.63 507.78 488.79 508.75 489.89 509.82 C 489.38 510.40 488.36 511.56 487.86 512.14 C 487.79 519.35 487.91 526.57 487.95 533.79 C 515.84 541.64 545.55 543.88 574.17 538.92 C 573.56 533.99 573.65 529.01 573.55 524.05 C 563.21 526.24 552.50 527.66 542.01 525.59 C 523.46 522.68 506.93 510.73 497.21 494.82 C 493.74 489.90 492.11 483.91 492.08 477.94 C 491.87 463.81 496.82 450.29 501.87 437.30 C 496.79 435.04 496.32 428.76 498.21 424.16 C 494.02 425.72 489.86 423.74 486.62 421.14 C 487.28 428.38 486.61 435.95 483.72 442.68 C 482.04 446.64 478.53 450.28 474.06 450.67 C 470.73 450.94 466.99 450.92 464.21 448.80 C 460.19 445.32 460.14 438.45 463.97 434.81 C 466.13 432.98 469.12 433.08 471.78 432.80 C 471.71 424.51 471.65 416.23 472.13 407.96 C 469.47 405.43 464.63 404.88 463.13 400.94 C 460.71 396.67 462.63 392.01 464.01 387.80 C 463.26 388.55 462.76 389.45 462.52 390.49 M 477.14 420.14 C 476.76 425.64 476.30 431.18 476.67 436.70 C 474.06 437.87 470.89 436.71 468.31 438.24 C 467.70 439.75 466.63 441.31 467.21 443.01 C 468.17 446.09 472.25 447.89 475.06 446.11 C 477.09 444.85 478.36 442.70 479.64 440.75 C 482.31 432.85 482.21 424.36 482.28 416.11 C 482.47 412.64 480.94 409.37 478.73 406.78 C 476.56 410.81 476.67 415.68 477.14 420.14 Z" />
</g>
<g id="Group-000000" fill="#000000">
<path fill="#000000" opacity="1.00" d=" M 447.44 282.67 C 447.79 282.79 448.50 283.01 448.85 283.13 C 451.09 282.84 453.34 282.65 455.60 282.54 C 455.72 284.22 455.76 285.90 455.71 287.59 C 426.14 287.49 396.57 287.65 366.99 287.13 C 363.49 286.91 359.72 288.01 356.44 286.54 C 354.59 285.73 354.90 282.76 357.01 282.62 C 368.65 282.22 380.29 283.17 391.93 283.09 C 403.24 281.92 414.60 283.19 425.94 282.73 C 433.11 282.26 440.34 283.66 447.44 282.67 Z" />
<path fill="#000000" opacity="1.00" d=" M 230.09 659.21 C 232.68 658.51 235.36 658.71 237.99 659.04 C 244.80 659.32 251.63 659.38 258.44 659.08 C 261.25 659.05 264.38 657.50 266.98 659.12 C 268.13 660.76 266.93 662.20 265.16 662.30 C 258.83 663.46 252.33 663.30 245.93 663.68 C 239.09 663.47 231.75 662.37 225.36 665.50 C 218.07 669.64 214.61 677.80 212.39 685.48 C 211.82 687.52 211.97 689.85 210.73 691.66 C 208.80 693.55 205.26 691.07 206.19 688.55 C 208.25 680.65 211.61 673.00 216.47 666.42 C 220.33 662.97 224.93 660.15 230.09 659.21 Z" />
</g>
<g id="Group-000000" fill="#000000">
<path fill="#000000" opacity="1.00" d=" M 211.97 286.51 C 215.32 287.15 218.76 285.47 221.97 286.93 C 225.90 285.34 229.98 287.38 233.95 286.11 C 244.97 286.68 256.02 285.81 267.04 286.37 C 277.43 286.01 287.82 286.56 298.20 285.96 C 300.57 286.21 300.50 290.77 298.03 290.71 C 286.36 290.88 274.66 290.42 263.02 291.23 C 258.04 290.40 253.03 291.74 248.04 291.03 C 214.57 292.00 180.97 290.83 147.46 291.41 C 144.86 291.61 144.19 286.89 146.94 286.87 C 168.63 286.86 190.29 286.30 211.97 286.51 Z" />
<path fill="#000000" opacity="1.00" d=" M 809.41 297.59 C 811.36 296.85 814.09 296.30 815.39 298.44 C 816.69 301.28 816.14 306.78 811.95 306.58 C 806.97 307.29 804.90 299.30 809.41 297.59 Z" />
</g>
<g id="Group-000000" fill="#000000">
<path fill="#000000" opacity="1.00" d=" M 760.40 288.60 C 759.80 286.95 761.36 285.18 763.08 285.40 C 775.09 285.46 787.08 286.44 799.09 286.05 C 803.44 287.05 807.90 285.93 812.32 286.33 C 809.40 287.19 806.36 287.38 803.34 287.35 C 803.57 288.67 803.79 289.98 804.03 291.31 C 799.10 291.20 794.18 290.58 789.26 290.96 C 789.64 297.49 789.45 304.03 789.68 310.56 C 800.33 310.75 811.00 310.01 821.62 310.96 C 821.63 312.58 822.17 315.22 819.92 315.64 C 810.61 315.86 801.28 315.09 791.97 315.45 C 787.97 315.15 783.96 315.51 779.99 315.00 C 779.93 313.67 779.89 312.34 779.87 311.01 C 782.03 309.99 784.42 310.05 786.76 310.13 C 786.02 307.88 785.35 305.60 785.04 303.25 C 786.05 301.19 785.79 298.88 784.88 296.84 C 786.04 294.94 787.67 293.17 787.64 290.80 C 779.74 290.23 771.82 290.01 763.91 290.22 C 762.63 290.29 760.72 290.10 760.40 288.60 Z" />
</g>
<g id="Group-000000" fill="#000000">
<path fill="#000000" opacity="1.00" d=" M 812.32 286.33 C 835.81 286.05 859.39 286.51 882.91 286.29 C 883.44 287.54 884.37 289.14 883.38 290.41 C 880.03 291.44 876.49 291.61 873.10 290.79 C 853.70 291.05 834.39 290.17 815.02 291.26 C 813.35 291.34 811.70 291.22 810.10 290.81 C 808.11 291.35 806.06 291.42 804.03 291.31 C 803.79 289.98 803.57 288.67 803.34 287.35 C 806.36 287.38 809.40 287.19 812.32 286.33 Z" />
</g>
<g id="Group-000000" fill="#000000">
<path fill="#000000" opacity="1.00" d=" M 369.78 294.95 C 370.14 293.03 373.48 290.93 374.63 293.35 C 376.39 298.75 376.10 304.62 375.84 310.24 C 374.26 310.25 372.68 310.29 371.11 310.37 C 372.54 310.58 373.98 310.76 375.42 310.96 C 374.08 312.67 370.35 312.87 369.31 310.83 C 370.21 305.58 369.41 300.24 369.78 294.95 Z" />
</g>
<g id="Group-000000" fill="#000000">
<path fill="#000000" opacity="1.00" d=" M 396.34 293.21 C 398.18 291.79 401.01 292.78 401.64 294.98 C 401.83 300.95 402.60 306.89 401.75 312.85 C 399.98 313.42 397.51 314.83 395.94 313.12 C 396.19 306.51 394.77 299.72 396.34 293.21 Z" />
</g>
<g id="Group-000000" fill="#000000">
<path fill="#000000" opacity="1.00" d=" M 161.41 302.38 C 163.60 299.26 165.40 294.52 169.69 294.08 C 169.94 295.42 170.01 296.78 169.90 298.15 C 170.96 299.92 170.37 302.05 170.38 304.00 C 171.55 305.43 173.05 308.15 170.06 308.43 C 170.13 308.70 170.26 309.24 170.33 309.51 C 181.24 309.78 192.18 308.69 203.09 309.82 C 203.15 311.05 202.80 312.08 202.05 312.91 C 202.01 313.24 201.94 313.91 201.90 314.24 L 202.40 314.88 C 197.96 315.66 193.33 315.37 188.88 314.73 C 178.61 314.95 168.33 314.05 158.02 314.27 C 155.09 315.06 152.22 314.46 149.59 313.07 C 149.95 311.23 150.67 308.79 152.99 308.76 C 157.57 309.37 162.18 309.02 166.78 309.41 L 166.21 308.06 C 164.97 308.06 162.48 308.05 161.23 308.05 C 161.82 307.54 162.42 307.03 163.02 306.54 C 161.78 306.07 160.92 306.51 160.44 307.87 C 158.27 306.18 160.60 304.03 161.41 302.38 M 163.56 304.11 C 164.35 306.00 167.33 303.75 165.78 302.47 C 164.41 302.16 163.67 302.70 163.56 304.11 Z" />
</g>
<g id="Group-000000" fill="#000000">
<path fill="#000000" opacity="1.00" d=" M 186.70 298.01 C 189.52 297.11 192.52 296.75 195.31 297.99 C 196.33 301.74 194.92 306.02 191.12 307.51 C 189.23 306.60 187.42 305.49 186.06 303.86 C 186.05 301.89 186.06 299.90 186.70 298.01 Z" />
</g>
<g id="Group-000000" fill="#000000">
<path fill="#000000" opacity="1.00" d=" M 312.21 299.99 C 312.29 297.36 315.24 297.27 317.17 297.83 C 317.85 302.94 317.35 308.01 316.66 313.06 C 318.00 325.40 317.08 337.84 317.61 350.21 C 317.93 378.13 317.50 406.05 317.71 433.97 C 317.98 435.75 316.08 436.62 314.99 437.60 C 311.20 435.15 313.52 430.59 312.74 427.01 C 312.79 422.99 313.08 418.97 312.62 414.97 C 312.34 415.62 311.78 416.92 311.50 417.57 C 311.21 415.90 310.89 414.26 310.55 412.61 C 311.44 412.06 312.32 411.49 313.17 410.89 C 312.78 409.72 312.09 408.68 311.63 407.56 C 311.76 406.40 311.88 405.25 312.03 404.11 C 311.55 404.32 310.61 404.74 310.13 404.95 C 311.43 397.32 312.58 389.62 312.74 381.87 C 312.56 365.54 313.04 349.23 312.60 332.91 C 312.69 325.59 312.56 318.28 312.95 310.98 C 312.02 307.37 312.60 303.65 312.21 299.99 Z" />
<path fill="#000000" opacity="1.00" d=" M 696.52 814.18 C 698.09 813.85 699.68 813.56 701.26 813.25 C 701.40 814.56 701.54 815.89 701.76 817.21 C 701.92 817.33 702.24 817.57 702.40 817.69 C 703.56 818.41 704.74 819.13 705.84 819.99 C 704.70 821.72 703.48 823.40 702.21 825.04 C 702.21 825.85 702.22 827.47 702.22 828.27 C 727.04 829.07 751.89 828.05 776.72 828.20 C 776.66 827.78 776.54 826.94 776.48 826.52 C 776.93 823.34 776.55 820.14 776.04 817.00 C 776.62 817.99 777.22 818.98 777.82 819.99 C 778.05 819.51 778.49 818.56 778.72 818.08 C 779.71 821.43 780.11 825.09 781.96 828.11 C 790.65 828.45 799.37 828.01 808.08 828.11 C 807.64 829.55 807.20 830.99 806.78 832.45 C 798.92 832.06 791.06 832.73 783.20 832.38 C 783.42 833.83 783.67 835.29 783.94 836.75 C 809.96 837.31 835.99 837.18 862.02 837.38 C 916.02 837.63 970.01 838.10 1024.00 838.31 L 1024.00 1024.00 L 0.00 1024.00 L 0.00 830.88 C 29.99 830.27 60.00 830.36 90.00 829.83 C 98.33 830.55 106.66 829.40 115.00 830.05 C 128.69 830.08 142.38 830.17 156.06 829.78 C 224.50 829.41 292.93 829.66 361.37 829.36 C 359.45 830.48 357.28 831.53 356.52 833.82 C 347.58 833.86 338.63 833.60 329.69 834.02 C 328.59 833.93 327.51 833.83 326.43 833.72 C 326.42 833.86 326.42 834.13 326.42 834.26 C 339.60 834.47 352.79 834.28 365.97 834.53 C 366.31 834.77 366.99 835.26 367.33 835.51 C 368.18 835.08 369.02 834.64 369.89 834.25 C 384.57 835.20 399.33 834.56 414.05 834.76 C 508.82 835.21 603.60 835.58 698.37 836.25 C 698.31 835.42 698.19 833.77 698.13 832.94 C 690.11 832.60 682.08 832.55 674.06 832.63 C 667.03 833.01 659.98 831.83 652.99 833.06 C 623.66 833.50 594.34 832.45 565.03 833.21 C 559.98 832.60 554.90 832.74 549.87 833.36 C 535.27 832.97 520.64 833.40 506.03 833.24 C 490.00 833.95 473.96 832.82 457.93 833.60 C 455.66 833.68 453.38 833.67 451.11 833.55 C 451.23 833.00 451.46 831.91 451.58 831.37 C 449.74 830.97 447.81 830.70 446.44 829.28 C 489.96 828.98 533.49 829.57 577.00 829.00 C 587.33 829.56 597.66 828.26 607.99 829.01 C 622.98 828.81 637.99 828.91 652.99 828.60 C 667.88 828.12 682.78 828.83 697.67 828.17 C 697.34 823.50 696.90 818.84 696.52 814.18 M 742.93 832.79 C 736.33 832.06 729.72 833.02 723.12 832.58 C 716.46 832.74 709.79 832.52 703.13 832.85 C 703.15 833.68 703.19 835.32 703.21 836.14 C 728.55 836.53 753.90 836.55 779.25 836.70 C 778.82 835.26 778.36 833.85 777.86 832.46 C 772.94 832.54 768.01 832.73 763.11 832.30 C 757.77 831.93 752.43 833.09 747.10 832.41 C 745.68 832.17 744.28 832.41 742.93 832.79 M 222.45 833.29 C 223.43 834.53 226.23 834.44 227.70 833.80 C 227.01 832.14 223.88 832.61 222.45 833.29 M 234.73 833.36 C 236.50 834.52 241.03 836.28 241.40 833.03 C 239.17 832.98 236.94 833.04 234.73 833.36 M 241.74 835.00 C 243.71 834.57 247.32 836.03 247.52 833.01 C 245.50 833.13 242.58 832.52 241.74 835.00 M 249.63 833.07 C 249.80 833.46 250.13 834.23 250.29 834.62 C 252.85 834.94 255.44 834.98 258.02 834.96 C 259.36 835.10 260.09 834.48 260.22 833.10 C 256.69 833.30 253.16 833.25 249.63 833.07 M 261.93 833.25 C 261.91 833.65 261.86 834.44 261.84 834.84 C 267.98 835.09 274.14 834.80 280.29 834.87 C 279.81 832.39 276.74 833.37 274.95 833.09 C 270.61 833.54 266.26 832.74 261.93 833.25 M 282.59 833.57 C 282.41 833.83 282.04 834.34 281.86 834.60 C 289.57 835.26 297.33 835.04 305.06 834.80 C 304.83 834.54 304.37 834.02 304.14 833.76 C 301.13 833.32 298.01 833.65 294.96 833.48 C 290.84 833.18 286.71 833.46 282.59 833.57 M 306.58 833.57 C 306.39 833.86 306.02 834.42 305.83 834.70 C 309.26 835.05 312.73 835.12 316.18 834.79 C 315.59 833.96 314.80 833.34 313.75 833.56 C 311.36 833.65 308.97 833.49 306.58 833.57 M 319.04 833.07 C 318.78 833.52 318.26 834.44 318.00 834.90 C 320.13 834.98 322.26 835.01 324.40 834.98 C 324.27 832.35 320.75 833.60 319.04 833.07 Z" />
</g>
<g id="Group-000000" fill="#000000">
<path fill="#000000" opacity="1.00" d=" M 132.64 302.00 C 132.33 300.21 134.17 299.19 135.13 298.03 C 136.31 299.19 137.14 300.62 137.83 302.12 C 137.43 322.06 137.56 342.02 137.51 361.96 C 137.29 365.00 136.97 368.04 136.77 371.09 C 138.11 387.40 137.52 403.83 137.30 420.19 C 140.76 412.25 144.71 404.54 149.21 397.15 C 150.32 395.67 151.22 393.67 153.10 393.08 C 155.61 393.36 155.01 396.25 155.31 398.06 C 155.56 407.38 155.57 416.78 157.44 425.96 C 157.87 424.00 158.20 421.98 159.15 420.20 C 163.33 411.86 166.45 403.06 169.29 394.20 C 169.84 392.83 170.35 391.04 172.02 390.71 C 174.29 391.37 174.48 394.03 175.21 395.90 C 177.55 404.07 180.49 412.12 181.47 420.61 C 184.81 413.82 186.54 406.36 189.50 399.41 C 191.24 398.12 192.75 400.23 193.27 401.70 C 195.95 408.33 198.32 415.21 202.55 421.07 C 208.55 417.20 211.95 410.48 215.66 404.57 C 218.66 399.96 219.44 394.19 223.09 389.97 C 226.62 393.08 227.19 397.99 228.94 402.12 C 232.18 410.16 236.08 417.95 238.51 426.31 C 245.39 405.89 249.45 384.67 255.56 364.02 C 255.85 362.18 257.66 359.44 259.63 361.34 C 262.17 365.63 263.22 370.61 265.45 375.07 C 268.97 383.58 273.30 391.72 277.16 400.07 C 280.01 393.70 284.06 387.95 288.29 382.43 C 290.82 379.17 293.47 375.85 297.12 373.79 C 299.80 377.26 299.89 381.81 301.38 385.79 C 303.72 392.40 304.83 399.35 307.29 405.91 C 307.89 407.37 307.99 409.25 309.49 410.14 C 309.74 408.41 309.94 406.68 310.13 404.95 C 310.61 404.74 311.55 404.32 312.03 404.11 C 311.88 405.25 311.76 406.40 311.63 407.56 C 312.09 408.68 312.78 409.72 313.17 410.89 C 312.32 411.49 311.44 412.06 310.55 412.61 C 310.89 414.26 311.21 415.90 311.50 417.57 C 310.77 420.32 307.05 418.80 306.47 416.62 C 301.32 405.27 298.93 392.92 295.23 381.07 C 290.34 386.50 286.37 392.67 282.85 399.05 C 281.27 401.88 280.91 405.32 278.81 407.87 C 278.19 408.82 277.32 409.16 276.19 408.87 C 269.94 396.39 264.42 383.56 258.44 370.94 C 253.61 388.03 250.24 405.52 244.60 422.38 C 243.13 426.71 242.02 431.16 240.48 435.46 C 239.31 436.50 237.58 435.78 236.18 435.88 C 233.31 423.48 228.32 411.66 222.79 400.25 C 218.67 410.79 211.37 420.01 202.21 426.64 C 197.41 421.81 193.81 415.96 191.36 409.62 C 187.75 416.26 186.52 424.06 182.50 430.52 C 180.31 433.29 178.59 429.52 178.37 427.51 C 176.70 418.60 175.02 409.68 172.24 401.04 C 168.03 411.73 163.64 422.38 158.82 432.82 C 158.15 434.35 155.84 436.85 154.30 435.01 C 151.83 424.49 150.95 413.66 150.82 402.87 C 146.35 410.92 142.38 419.24 138.33 427.51 C 137.23 429.86 138.27 432.43 138.33 434.88 C 137.96 437.10 136.58 438.99 134.90 440.43 C 131.75 438.81 132.49 434.96 132.39 432.03 C 132.69 414.02 132.69 396.00 132.77 377.99 C 132.69 375.47 134.08 373.11 133.37 370.60 C 133.91 364.02 132.03 357.51 132.72 350.91 C 132.82 334.61 132.86 318.31 132.64 302.00 Z" />
<path fill="#000000" opacity="1.00" d=" M 148.99 486.12 C 146.30 486.02 146.43 481.44 149.05 481.33 C 160.36 481.59 171.67 481.65 182.98 481.30 C 211.65 481.54 240.30 480.98 268.97 481.34 C 280.49 481.60 292.02 481.21 303.54 481.64 C 303.70 483.18 304.37 486.01 301.98 486.20 C 256.29 486.59 210.76 486.20 165.08 486.20 C 159.70 486.62 154.36 485.61 148.99 486.12 Z" />
</g>
<g id="Group-000000" fill="#000000">
<path fill="#000000" opacity="1.00" d=" M 655.12 299.19 C 655.59 298.96 656.54 298.52 657.01 298.30 C 665.20 300.01 673.66 299.06 681.97 299.15 C 687.98 299.21 693.99 298.60 699.99 298.85 C 703.35 299.23 703.27 303.37 701.07 305.10 C 689.70 305.32 678.38 304.31 667.03 303.86 C 663.34 303.71 659.47 304.75 655.98 303.15 C 654.21 302.82 654.04 300.27 655.12 299.19 Z" />
<path fill="#000000" opacity="1.00" d=" M 662.25 480.30 C 668.88 480.59 675.74 480.09 682.47 480.49 C 683.12 480.32 684.40 480.00 685.04 479.84 C 692.06 480.62 699.20 479.89 706.23 479.49 C 706.80 480.74 708.47 482.13 707.64 483.62 C 706.21 485.39 703.98 484.45 702.09 484.44 C 689.40 484.82 676.67 484.50 663.97 484.86 C 661.33 485.46 659.78 481.49 662.25 480.30 Z" />
<path fill="#000000" opacity="1.00" d=" M 362.12 536.99 C 363.31 535.51 364.17 531.31 366.65 533.28 C 368.51 534.35 368.43 536.74 367.50 538.43 C 363.39 545.89 359.24 553.35 354.43 560.40 C 352.45 563.48 350.44 568.53 345.89 567.55 C 346.08 565.37 346.39 563.18 347.35 561.20 C 351.96 552.94 356.89 544.86 362.12 536.99 Z" />
</g>
<g id="Group-000000" fill="#000000">
<path fill="rgba(0,0,0,0)" opacity="1.00" d=" M 163.56 304.11 C 163.67 302.70 164.41 302.16 165.78 302.47 C 167.33 303.75 164.35 306.00 163.56 304.11 Z" />
<path fill="rgba(0,0,0,0)" opacity="1.00" d=" M 326.43 833.72 C 327.51 833.83 328.59 833.93 329.69 834.02 C 338.63 833.60 347.58 833.86 356.52 833.82 C 359.36 833.78 362.20 833.68 365.03 833.86 C 365.27 834.02 365.74 834.36 365.97 834.53 C 352.79 834.28 339.60 834.47 326.42 834.26 C 326.42 834.13 326.42 833.86 326.43 833.72 Z" />
<path fill="rgba(0,0,0,0)" opacity="1.00" d=" M 369.89 834.25 C 371.17 833.61 372.60 833.48 374.03 833.53 C 399.72 833.70 425.42 833.31 451.11 833.55 C 453.38 833.67 455.66 833.68 457.93 833.60 C 473.96 832.82 490.00 833.95 506.03 833.24 C 520.64 833.40 535.27 832.97 549.87 833.36 C 554.90 832.74 559.98 832.60 565.03 833.21 C 594.34 832.45 623.66 833.50 652.99 833.06 C 659.98 831.83 667.03 833.01 674.06 832.63 C 682.08 832.55 690.11 832.60 698.13 832.94 C 698.19 833.77 698.31 835.42 698.37 836.25 C 603.60 835.58 508.82 835.21 414.05 834.76 C 399.33 834.56 384.57 835.20 369.89 834.25 Z" />
</g>
<g id="Group-000000" fill="#000000">
<path fill="#000000" opacity="1.00" d=" M 920.17 311.92 C 919.70 309.31 921.50 307.17 922.93 305.21 C 924.46 305.95 925.25 307.40 925.93 308.90 C 924.90 312.54 925.53 316.33 925.39 320.05 C 925.38 348.00 925.66 375.94 925.27 403.88 C 925.71 413.21 924.64 422.58 925.62 431.88 C 925.43 432.39 925.06 433.41 924.87 433.92 C 923.23 435.28 919.75 434.74 920.19 432.12 C 920.39 426.73 919.29 421.35 920.02 415.98 C 920.60 412.31 919.05 408.62 920.23 404.99 C 920.35 390.02 920.81 375.04 920.38 360.08 C 921.05 355.04 920.38 349.99 920.53 344.95 C 920.54 333.93 920.83 322.92 920.17 311.92 Z" />
</g>
<g id="Group-000000" fill="#000000">
<path fill="#000000" opacity="1.00" d=" M 350.29 309.87 C 349.99 308.25 352.02 306.12 353.48 307.52 C 356.74 310.60 354.27 315.21 354.73 319.02 C 355.03 328.06 354.41 337.11 354.99 346.14 C 354.42 369.39 355.61 392.66 355.13 415.93 C 354.96 418.96 355.46 421.98 355.28 425.01 C 354.92 427.46 351.93 427.51 350.07 426.98 C 349.80 413.71 350.83 400.37 350.30 387.08 C 350.50 368.08 350.05 349.05 350.64 330.04 C 350.28 323.32 350.58 316.59 350.29 309.87 Z" />
<path fill="#000000" opacity="1.00" d=" M 272.93 535.79 C 277.41 528.46 282.43 521.41 288.37 515.18 C 290.47 515.48 292.57 515.78 294.69 515.99 C 284.13 525.79 277.41 538.69 269.27 550.36 C 266.65 550.68 268.16 553.49 266.90 554.91 C 257.59 568.69 248.14 582.38 239.24 596.42 C 229.46 610.99 219.85 625.64 210.90 640.73 C 208.25 645.59 206.21 650.76 204.03 655.84 C 203.72 654.23 203.67 652.60 203.77 650.97 C 203.40 650.35 202.65 649.11 202.28 648.49 C 204.72 642.52 207.55 636.68 211.23 631.37 C 221.57 614.47 232.83 598.17 243.61 581.56 C 249.59 572.32 256.10 563.42 262.14 554.23 C 264.88 547.59 269.73 542.18 272.93 535.79 Z" />
</g>
<g id="Group-000000" fill="#000000">
<path fill="#000000" opacity="1.00" d=" M 751.49 314.01 C 751.34 311.82 754.66 311.63 755.70 313.04 C 756.65 314.86 756.41 317.00 756.57 318.98 C 756.59 335.96 756.92 352.94 756.99 369.91 C 757.21 373.31 755.72 376.65 756.64 380.01 C 757.63 392.99 756.85 406.01 757.21 419.00 C 756.92 425.05 757.83 431.11 757.18 437.14 C 757.21 439.57 754.33 439.05 752.75 439.24 C 751.85 434.19 752.72 429.08 752.39 424.00 C 752.28 414.96 752.40 405.90 751.94 396.86 C 752.34 391.60 752.24 386.30 751.98 381.03 C 753.11 378.42 752.75 375.66 752.07 373.00 C 752.20 353.34 751.63 333.66 751.49 314.01 Z" />
</g>
<g id="Group-000000" fill="#000000">
<path fill="#000000" opacity="1.00" d=" M 677.17 315.05 C 678.61 313.48 680.43 315.62 680.85 317.04 C 682.38 322.25 682.19 327.77 682.41 333.16 C 681.50 334.81 680.54 338.41 677.98 336.95 C 675.57 335.79 676.15 333.29 676.69 331.19 C 676.60 326.78 676.27 322.38 675.98 317.98 C 676.06 316.88 676.46 315.90 677.17 315.05 Z" />
<path fill="#000000" opacity="1.00" d=" M 148.68 639.92 C 153.67 638.31 158.91 639.90 164.01 639.53 C 170.01 639.05 176.02 639.52 182.03 639.22 C 185.02 639.26 188.09 638.99 191.00 639.89 C 190.93 641.08 190.79 642.26 190.59 643.45 C 185.88 644.85 180.85 644.45 176.01 644.23 C 171.68 644.51 167.35 644.66 163.02 644.20 C 158.77 644.61 154.36 644.97 150.19 643.82 C 148.68 643.13 148.94 641.25 148.68 639.92 Z" />
</g>
<g id="Group-000000" fill="#000000">
<path fill="#000000" opacity="1.00" d=" M 693.00 316.87 C 693.30 313.58 698.65 315.32 698.26 318.08 C 698.61 324.00 698.69 329.97 698.26 335.89 C 698.20 337.86 696.15 340.49 694.04 338.99 C 691.81 337.82 692.19 335.05 693.23 333.19 C 692.43 327.81 692.65 322.28 693.00 316.87 Z" />
</g>
<g id="Group-000000" fill="#000000">
<path fill="#000000" opacity="1.00" d=" M 707.29 316.30 C 709.14 314.40 711.86 316.93 711.68 319.03 C 711.64 331.01 711.24 342.98 711.10 354.97 C 710.26 364.30 711.67 373.75 709.89 383.00 C 709.20 385.37 710.14 387.60 710.58 389.89 C 711.03 404.28 710.60 418.68 711.11 433.06 C 710.77 434.92 709.86 436.59 709.16 438.33 C 707.76 438.08 706.37 437.51 706.16 435.96 C 705.06 432.65 706.18 429.18 705.63 425.81 C 705.86 414.59 705.72 403.33 705.90 392.10 C 706.06 389.72 706.99 387.30 706.09 384.96 C 706.95 382.97 707.26 380.81 706.18 378.84 C 705.22 360.28 706.75 341.66 706.26 323.06 C 706.46 320.82 705.73 318.18 707.29 316.30 Z" />
<path fill="#000000" opacity="1.00" d=" M 903.35 387.79 C 904.93 387.35 907.82 386.26 908.15 388.80 C 908.27 405.37 907.94 421.98 908.57 438.56 C 907.51 438.63 905.41 438.77 904.35 438.85 C 903.23 421.84 903.71 404.81 903.35 387.79 Z" />
<path fill="#000000" opacity="1.00" d=" M 607.84 563.51 C 629.08 573.28 649.56 584.55 670.06 595.75 C 680.20 601.42 690.23 607.36 699.48 614.41 C 719.96 630.38 735.45 652.44 744.43 676.74 C 744.96 676.78 746.01 676.86 746.54 676.89 C 746.29 681.75 749.34 685.96 749.88 690.73 C 752.57 699.93 754.56 709.31 756.32 718.74 C 758.60 731.56 761.82 744.20 764.40 756.96 C 769.30 777.02 773.13 797.41 779.08 817.19 L 778.72 818.08 C 778.49 818.56 778.05 819.51 777.82 819.99 C 777.22 818.98 776.62 817.99 776.04 817.00 C 776.55 820.14 776.93 823.34 776.48 826.52 C 773.22 815.62 771.23 804.39 768.34 793.39 C 761.42 765.38 755.37 737.18 749.90 708.85 C 747.94 701.97 747.01 694.69 743.40 688.42 C 734.58 655.74 712.64 626.79 683.68 609.30 C 674.09 603.41 664.28 597.89 654.35 592.59 C 639.37 584.17 624.12 576.22 608.52 569.00 C 608.33 567.17 608.12 565.32 607.84 563.51 Z" />
</g>
<g id="Group-000000" fill="#000000">
<path fill="#000000" opacity="1.00" d=" M 411.25 320.90 C 412.89 320.39 414.93 320.17 416.25 321.56 C 416.07 331.42 416.67 341.31 416.67 351.19 C 417.36 353.58 415.26 355.26 414.04 357.02 C 411.99 355.75 409.61 353.76 410.59 351.05 C 411.04 341.01 410.35 330.93 411.25 320.90 Z" />
</g>
<g id="Group-000000" fill="#000000">
<path fill="#000000" opacity="1.00" d=" M 895.32 346.18 C 897.00 345.66 898.68 346.12 900.20 346.91 C 899.81 357.09 899.89 367.29 899.45 377.46 C 899.02 375.04 898.71 372.59 898.59 370.14 C 897.99 371.35 897.39 372.55 896.81 373.76 C 896.30 373.59 895.27 373.26 894.76 373.10 C 894.71 364.11 895.02 355.15 895.32 346.18 Z" />
</g>
<g id="Group-000000" fill="#000000">
<path fill="#000000" opacity="1.00" d=" M 820.14 354.95 C 820.96 354.92 822.59 354.85 823.40 354.81 C 823.64 356.49 823.74 358.20 823.42 359.87 C 821.52 372.24 820.40 384.70 818.76 397.10 C 823.82 401.87 828.60 406.94 832.62 412.64 C 834.90 408.42 836.26 403.74 838.92 399.71 C 842.04 400.08 842.86 403.48 844.32 405.74 C 847.55 411.25 850.63 416.89 854.32 422.12 C 856.88 413.57 858.85 404.80 862.76 396.73 C 863.44 395.94 863.57 393.76 865.03 394.20 C 873.05 398.21 878.56 406.28 880.51 414.92 C 883.60 406.25 885.63 397.25 888.32 388.45 C 889.56 384.18 891.84 380.31 894.88 377.08 C 894.83 375.74 894.79 374.42 894.76 373.10 C 895.27 373.26 896.30 373.59 896.81 373.76 C 897.39 372.55 897.99 371.35 898.59 370.14 C 898.71 372.59 899.02 375.04 899.45 377.46 C 899.70 384.97 899.43 392.52 899.54 400.03 C 899.73 400.37 900.11 401.06 900.30 401.40 C 898.02 404.25 899.65 407.87 899.29 411.14 C 899.01 415.82 898.44 420.48 898.18 425.16 C 896.88 425.49 895.53 425.52 894.22 425.65 C 894.10 419.42 895.27 413.23 894.84 407.00 C 894.20 399.94 894.78 392.85 894.53 385.78 C 892.78 387.31 892.81 389.86 892.07 391.92 C 888.79 403.28 886.17 414.90 881.56 425.81 C 880.50 427.61 878.85 426.12 878.14 424.92 C 876.13 421.96 876.99 418.16 875.68 414.94 C 873.57 409.27 871.73 402.98 866.63 399.21 C 862.74 408.14 860.45 417.66 858.19 427.11 C 857.78 428.37 857.49 430.13 855.93 430.45 C 853.97 429.77 852.94 427.78 851.71 426.26 C 847.75 420.20 843.70 414.18 840.27 407.79 C 837.86 411.51 837.60 416.58 833.96 419.53 C 832.42 419.89 831.43 418.50 830.59 417.51 C 826.72 412.76 823.29 407.55 818.67 403.48 C 817.52 410.42 817.64 417.66 815.38 424.35 C 814.24 425.75 812.20 424.66 811.97 423.11 C 808.64 415.51 806.45 407.45 803.67 399.64 C 802.46 402.75 800.95 405.74 799.91 408.92 C 798.54 412.91 800.69 416.95 800.69 420.97 C 800.27 423.29 797.86 422.88 796.36 421.98 C 795.27 423.31 793.77 423.96 792.07 424.06 C 790.07 419.86 793.63 415.41 793.34 410.99 C 792.10 401.70 791.55 392.32 790.84 382.97 C 785.47 390.46 780.03 398.04 776.61 406.66 C 775.93 407.77 775.54 409.62 773.92 409.62 C 772.48 410.21 771.08 408.47 771.17 407.17 C 771.58 398.67 769.98 390.22 770.89 381.71 C 772.44 382.16 775.27 381.83 775.44 384.09 C 775.99 388.39 775.30 392.75 775.64 397.08 C 777.07 396.36 777.46 394.64 778.34 393.41 C 782.23 387.10 786.68 381.03 792.17 376.03 C 794.39 375.79 794.75 378.42 795.04 380.05 C 796.04 387.99 796.61 395.98 797.31 403.95 C 798.52 400.16 799.84 396.37 801.82 392.90 C 802.49 391.81 803.24 390.48 804.64 390.27 C 806.20 391.10 806.90 392.83 807.55 394.38 C 809.38 400.24 810.66 406.25 812.56 412.09 C 814.07 398.42 815.39 384.71 817.54 371.13 C 818.04 365.72 818.53 360.12 820.14 354.95 Z" />
<path fill="#000000" opacity="1.00" d=" M 363.32 445.25 C 363.60 443.98 363.29 441.66 365.05 441.42 C 377.54 441.19 390.06 441.26 402.59 441.15 C 402.90 442.08 403.22 443.01 403.54 443.95 C 402.41 445.14 402.19 446.59 402.93 448.09 C 399.48 450.32 395.88 452.33 392.61 454.83 C 380.99 461.25 370.59 469.64 358.99 476.09 C 356.17 477.81 352.28 478.28 350.53 481.38 C 346.62 487.53 342.25 493.39 337.82 499.17 C 341.92 500.23 346.07 501.19 349.99 502.83 C 362.91 508.21 373.41 518.96 378.62 531.93 C 379.06 531.24 379.52 530.55 379.98 529.88 C 380.94 530.60 381.90 531.33 382.87 532.07 C 381.88 533.67 380.83 535.27 380.26 537.08 C 380.59 540.37 383.32 543.54 381.89 546.90 C 380.41 550.00 379.22 553.21 378.31 556.52 C 373.43 567.28 367.89 577.73 362.09 588.03 C 372.10 583.61 381.89 578.63 392.29 575.16 C 403.46 570.75 415.06 567.57 426.56 564.16 C 437.83 560.60 449.48 558.33 461.11 556.26 C 460.97 557.84 460.83 559.44 460.70 561.04 C 446.59 563.37 432.62 566.70 418.97 570.98 C 407.49 574.74 395.77 577.82 384.67 582.67 C 372.34 588.05 359.63 593.03 348.86 601.28 C 347.56 600.30 346.28 599.33 344.98 598.39 C 345.46 598.41 346.43 598.46 346.92 598.49 C 347.25 596.11 349.61 595.37 351.35 594.25 C 353.89 593.06 354.66 590.12 356.11 587.95 C 361.98 578.61 367.10 568.83 371.93 558.93 C 374.22 553.72 377.75 548.93 378.46 543.15 C 376.39 539.77 375.24 535.95 373.65 532.36 C 369.01 522.40 361.30 513.60 351.23 508.93 C 336.87 502.08 319.53 502.59 305.07 508.87 C 301.12 510.43 297.75 513.12 294.69 515.99 C 292.57 515.78 290.47 515.48 288.37 515.18 C 291.59 512.10 294.65 508.73 298.56 506.49 C 304.93 503.01 311.79 500.12 319.09 499.42 C 323.77 498.96 328.57 497.59 333.22 499.01 C 340.91 491.39 345.39 480.77 354.47 474.48 C 365.19 467.01 375.97 459.59 387.20 452.90 C 391.60 450.13 395.91 446.88 400.97 445.43 C 397.05 446.00 393.10 445.54 389.17 445.46 C 385.77 445.27 382.33 445.74 379.00 444.89 C 373.89 446.07 368.52 445.33 363.32 445.25 Z" />
<path fill="#000000" opacity="1.00" d=" M 340.72 625.78 C 349.33 619.03 357.33 611.32 366.89 605.90 C 367.64 606.89 368.40 607.89 369.16 608.91 C 341.87 630.19 316.64 653.90 290.99 677.09 C 281.58 685.81 272.84 695.27 262.91 703.41 C 262.21 702.52 261.51 701.64 260.81 700.77 C 286.56 674.85 313.02 649.63 340.72 625.78 Z" />
</g>
<g id="Group-000000" fill="#000000">
<path fill="rgba(0,0,0,0)" opacity="1.00" d=" M 462.52 390.49 C 462.76 389.45 463.26 388.55 464.01 387.80 C 462.63 392.01 460.71 396.67 463.13 400.94 C 464.63 404.88 469.47 405.43 472.13 407.96 C 471.65 416.23 471.71 424.51 471.78 432.80 C 469.12 433.08 466.13 432.98 463.97 434.81 C 460.14 438.45 460.19 445.32 464.21 448.80 C 466.99 450.92 470.73 450.94 474.06 450.67 C 478.53 450.28 482.04 446.64 483.72 442.68 C 486.61 435.95 487.28 428.38 486.62 421.14 C 489.86 423.74 494.02 425.72 498.21 424.16 C 496.32 428.76 496.79 435.04 501.87 437.30 C 496.82 450.29 491.87 463.81 492.08 477.94 C 492.11 483.91 493.74 489.90 497.21 494.82 C 506.93 510.73 523.46 522.68 542.01 525.59 C 552.50 527.66 563.21 526.24 573.55 524.05 C 573.65 529.01 573.56 533.99 574.17 538.92 C 545.55 543.88 515.84 541.64 487.95 533.79 C 487.91 526.57 487.79 519.35 487.86 512.14 C 488.36 511.56 489.38 510.40 489.89 509.82 C 488.79 508.75 487.63 507.78 486.32 507.01 C 484.91 507.37 483.51 507.46 482.10 507.29 C 472.21 504.38 462.17 499.71 456.11 491.01 C 452.83 485.57 450.49 479.44 450.14 473.06 C 447.50 453.24 450.78 433.23 455.80 414.06 C 458.03 406.19 460.44 398.39 462.52 390.49 Z" />
<path fill="rgba(0,0,0,0)" opacity="1.00" d=" M 421.91 440.84 C 428.68 438.02 435.12 432.95 442.82 433.54 C 443.35 433.69 444.42 433.99 444.95 434.14 C 444.93 434.85 444.88 436.25 444.86 436.95 C 438.15 439.31 431.90 442.69 425.44 445.63 C 422.21 447.37 418.68 449.01 416.44 452.05 C 415.70 454.28 418.48 456.99 420.63 455.64 C 428.10 451.00 436.10 447.33 443.89 443.29 C 443.76 446.17 443.92 449.15 443.05 451.95 C 437.62 455.16 431.54 457.83 427.51 462.90 C 427.69 464.61 428.93 465.88 429.88 467.23 C 434.20 464.30 438.56 461.45 443.02 458.75 C 443.02 463.16 443.51 467.57 443.32 471.97 C 442.12 473.84 439.12 475.53 440.82 478.06 C 442.08 478.20 443.35 478.30 444.62 478.37 C 445.12 480.60 445.64 482.83 446.13 485.07 C 445.06 485.38 444.00 485.70 442.94 486.04 C 434.48 490.87 426.72 496.96 419.75 503.76 C 417.86 505.58 416.09 507.62 415.12 510.09 C 417.43 513.86 421.95 515.24 425.51 517.53 C 429.93 520.33 434.78 522.70 438.55 526.40 C 440.17 528.02 438.46 529.99 437.02 530.97 C 434.17 532.89 430.45 534.62 427.07 532.98 C 417.48 529.15 408.34 524.29 399.06 519.75 C 396.03 518.45 393.34 516.11 390.06 515.59 C 385.85 519.67 383.53 525.25 379.98 529.88 C 379.52 530.55 379.06 531.24 378.62 531.93 C 373.41 518.96 362.91 508.21 349.99 502.83 C 346.07 501.19 341.92 500.23 337.82 499.17 C 342.25 493.39 346.62 487.53 350.53 481.38 C 352.28 478.28 356.17 477.81 358.99 476.09 C 370.59 469.64 380.99 461.25 392.61 454.83 C 395.88 452.33 399.48 450.32 402.93 448.09 C 404.73 446.60 406.90 447.62 408.94 447.74 C 413.44 445.79 417.31 442.61 421.91 440.84 Z" />
<path fill="rgba(0,0,0,0)" opacity="1.00" d=" M 420.47 509.10 C 428.08 500.84 436.96 493.37 447.20 488.63 C 449.84 494.08 453.26 499.32 458.39 502.74 C 465.71 508.31 474.83 510.31 483.62 512.25 C 483.02 519.02 483.57 525.79 483.42 532.57 C 478.51 531.00 473.75 529.02 468.82 527.54 C 467.86 528.42 467.75 529.85 467.33 531.02 C 465.08 539.39 463.36 547.89 461.11 556.26 C 449.48 558.33 437.83 560.60 426.56 564.16 C 415.06 567.57 403.46 570.75 392.29 575.16 C 381.89 578.63 372.10 583.61 362.09 588.03 C 367.89 577.73 373.43 567.28 378.31 556.52 C 379.22 553.21 380.41 550.00 381.89 546.90 C 383.32 543.54 380.59 540.37 380.26 537.08 C 380.83 535.27 381.88 533.67 382.87 532.07 C 385.63 527.99 387.95 523.64 390.70 519.56 C 401.01 525.86 412.06 530.83 422.96 536.02 C 425.51 537.06 428.13 538.90 431.02 538.05 C 436.05 537.14 441.47 534.63 443.76 529.78 C 445.32 526.87 443.06 523.97 440.94 522.14 C 434.71 516.92 427.25 513.50 420.47 509.10 Z" />
</g>
<g id="Group-000000" fill="#000000">
<path fill="rgba(0,0,0,0)" opacity="1.00" d=" M 477.14 420.14 C 476.67 415.68 476.56 410.81 478.73 406.78 C 480.94 409.37 482.47 412.64 482.28 416.11 C 482.21 424.36 482.31 432.85 479.64 440.75 C 478.36 442.70 477.09 444.85 475.06 446.11 C 472.25 447.89 468.17 446.09 467.21 443.01 C 466.63 441.31 467.70 439.75 468.31 438.24 C 470.89 436.71 474.06 437.87 476.67 436.70 C 476.30 431.18 476.76 425.64 477.14 420.14 Z" />
</g>
<g id="Group-000000" fill="#000000">
<path fill="#000000" opacity="1.00" d=" M 403.54 443.95 C 416.10 436.97 429.52 429.56 444.24 429.48 C 443.76 430.83 443.29 432.18 442.82 433.54 C 435.12 432.95 428.68 438.02 421.91 440.84 C 417.31 442.61 413.44 445.79 408.94 447.74 C 406.90 447.62 404.73 446.60 402.93 448.09 C 402.19 446.59 402.41 445.14 403.54 443.95 Z" />
</g>
<g id="Group-000000" fill="#000000">
<path fill="#000000" opacity="1.00" d=" M 768.36 446.83 C 768.62 445.05 768.02 441.56 770.92 442.09 C 777.91 442.55 784.90 442.42 791.90 442.34 C 797.07 442.57 802.26 443.03 807.45 442.65 C 807.79 442.96 808.48 443.57 808.83 443.88 C 831.20 443.29 853.63 443.97 876.02 443.96 C 881.97 444.60 888.02 443.83 893.92 444.94 C 896.56 447.41 892.37 449.92 890.03 449.69 C 878.61 449.68 867.21 449.30 855.80 449.05 C 846.89 449.04 837.97 448.29 829.06 448.58 C 822.45 447.75 815.57 449.16 809.12 447.28 C 808.57 447.45 807.46 447.78 806.91 447.94 C 794.72 448.72 782.47 447.13 770.27 447.60 C 769.79 447.41 768.83 447.02 768.36 446.83 Z" />
</g>
<g id="Group-000000" fill="#000000">
<path fill="#000000" opacity="1.00" d=" M 154.49 446.99 C 154.99 445.60 155.76 444.30 156.75 443.22 C 163.41 444.30 170.26 444.11 177.00 443.81 C 183.51 444.15 190.03 444.23 196.55 444.27 C 196.85 444.61 197.45 445.30 197.76 445.64 C 198.33 445.43 199.48 445.02 200.06 444.81 C 228.37 444.94 256.71 444.09 285.01 445.25 C 287.10 444.99 286.42 447.76 285.86 448.84 C 282.54 450.68 278.62 450.24 274.98 450.19 C 266.30 450.49 257.64 449.52 248.96 449.80 C 236.66 449.80 224.36 449.46 212.06 449.41 C 209.03 448.72 205.73 450.49 202.99 448.65 C 200.48 450.29 197.62 448.09 194.95 448.92 C 191.70 449.86 188.28 449.07 184.95 449.33 C 175.27 449.72 165.60 448.36 155.93 449.08 C 156.34 448.63 157.17 447.72 157.58 447.27 C 156.56 447.52 154.87 448.70 154.49 446.99 Z" />
</g>
<g id="Group-000000" fill="#000000">
<path fill="#000000" opacity="1.00" d=" M 661.78 458.25 C 661.39 455.80 663.38 453.18 666.02 453.97 C 671.96 455.37 678.05 453.74 683.99 454.85 C 688.00 453.97 692.04 455.17 696.09 454.87 C 698.16 454.50 699.95 457.92 697.99 459.16 C 696.36 460.68 694.04 459.05 692.10 459.28 C 685.46 460.05 678.76 458.34 672.12 459.20 C 668.70 458.50 665.17 459.04 661.78 458.25 Z" />
<path fill="#000000" opacity="1.00" d=" M 707.30 496.92 C 707.12 495.11 708.91 492.82 710.77 494.19 C 713.51 495.32 712.69 498.69 712.51 500.99 C 712.01 504.29 713.02 507.62 712.19 510.90 C 713.03 516.23 712.20 521.60 712.48 526.97 C 712.74 534.27 712.06 541.56 712.62 548.84 C 712.54 553.27 712.71 557.74 711.75 562.10 C 712.12 563.40 712.69 564.67 713.20 565.94 C 711.82 569.80 712.89 573.97 712.54 577.97 C 711.95 591.08 712.05 604.17 712.16 617.30 C 710.58 617.30 708.63 616.88 708.46 614.99 C 707.74 608.69 708.62 602.32 707.98 596.02 C 707.37 584.38 707.29 572.71 707.59 561.07 C 706.93 539.68 707.91 518.30 707.30 496.92 Z" />
</g>
<g id="Group-000000" fill="#000000">
<path fill="#000000" opacity="1.00" d=" M 774.06 480.17 C 796.67 480.16 819.30 480.15 841.90 479.78 C 842.46 480.62 843.03 481.47 843.62 482.32 C 843.39 482.86 842.94 483.93 842.72 484.47 C 838.88 485.35 834.94 484.53 831.07 484.94 C 811.70 484.46 792.31 484.98 772.96 484.24 C 772.89 482.94 772.36 480.62 774.06 480.17 Z" />
<path fill="#000000" opacity="1.00" d=" M 182.98 492.87 C 184.39 491.37 186.63 491.92 188.46 491.65 C 189.48 494.60 191.06 497.86 189.98 501.01 C 188.74 504.13 183.92 504.81 182.37 501.62 C 181.51 498.82 181.17 495.37 182.98 492.87 Z" />
</g>
<g id="Group-000000" fill="#000000">
<path fill="#000000" opacity="1.00" d=" M 841.90 479.78 C 860.93 479.68 879.97 479.89 898.99 480.03 C 901.25 480.25 903.53 480.12 905.81 480.33 C 906.76 481.57 906.70 483.15 906.81 484.64 C 897.26 485.74 887.61 485.13 878.01 485.22 C 866.14 485.34 854.27 484.95 842.41 485.20 L 842.72 484.47 C 842.94 483.93 843.39 482.86 843.62 482.32 C 843.03 481.47 842.46 480.62 841.90 479.78 Z" />
<path fill="#000000" opacity="1.00" d=" M 686.36 662.99 C 685.91 660.05 689.09 661.38 690.64 661.85 C 692.86 687.37 694.77 712.94 696.46 738.51 C 704.87 723.67 711.17 707.78 718.00 692.19 C 718.80 690.42 719.25 688.40 720.64 686.98 C 723.05 686.96 723.70 688.83 722.68 690.80 C 715.35 710.38 706.69 729.45 696.77 747.86 C 698.21 757.87 698.00 768.04 699.00 778.11 C 708.37 764.82 717.92 751.64 727.13 738.23 C 728.85 735.93 730.06 732.73 733.02 731.81 C 735.61 731.75 736.58 734.44 737.54 736.36 C 740.43 742.98 742.25 750.03 743.52 757.13 C 743.70 758.75 744.23 760.55 743.35 762.07 C 736.83 774.07 729.26 785.45 721.61 796.75 C 721.41 796.70 721.02 796.61 720.82 796.56 C 720.78 798.68 719.41 800.32 718.23 801.96 C 713.82 807.77 710.16 814.11 705.84 819.99 C 704.74 819.13 703.56 818.41 702.40 817.69 C 713.69 800.85 725.24 784.14 735.84 766.84 C 737.00 764.32 739.21 762.04 739.35 759.19 C 738.23 751.59 736.34 743.99 733.08 737.01 C 728.54 743.66 724.51 750.79 719.00 756.69 C 718.25 758.32 717.45 759.95 716.30 761.35 C 711.67 767.10 707.79 773.39 703.30 779.25 C 701.34 782.11 698.73 785.22 699.55 788.95 C 700.40 797.03 700.39 805.17 701.26 813.25 C 699.68 813.56 698.09 813.85 696.52 814.18 C 693.53 763.76 689.84 713.37 686.36 662.99 Z" />
</g>
<g id="Group-000000" fill="#000000">
<path fill="#000000" opacity="1.00" d=" M 419.75 503.76 C 426.72 496.96 434.48 490.87 442.94 486.04 C 444.40 486.81 445.88 487.61 447.20 488.63 C 436.96 493.37 428.08 500.84 420.47 509.10 C 427.25 513.50 434.71 516.92 440.94 522.14 C 443.06 523.97 445.32 526.87 443.76 529.78 C 441.47 534.63 436.05 537.14 431.02 538.05 C 428.13 538.90 425.51 537.06 422.96 536.02 C 412.06 530.83 401.01 525.86 390.70 519.56 C 387.95 523.64 385.63 527.99 382.87 532.07 C 381.90 531.33 380.94 530.60 379.98 529.88 C 383.53 525.25 385.85 519.67 390.06 515.59 C 393.34 516.11 396.03 518.45 399.06 519.75 C 408.34 524.29 417.48 529.15 427.07 532.98 C 430.45 534.62 434.17 532.89 437.02 530.97 C 438.46 529.99 440.17 528.02 438.55 526.40 C 434.78 522.70 429.93 520.33 425.51 517.53 C 421.95 515.24 417.43 513.86 415.12 510.09 C 416.09 507.62 417.86 505.58 419.75 503.76 Z" />
<path fill="#000000" opacity="1.00" d=" M 331.90 608.71 C 335.86 604.77 340.62 601.85 344.98 598.39 C 346.28 599.33 347.56 600.30 348.86 601.28 C 344.74 604.37 340.35 607.11 336.50 610.54 C 323.49 620.78 310.72 631.32 298.46 642.45 C 272.35 665.84 246.90 689.97 221.79 714.44 C 220.90 713.65 219.96 712.93 219.14 712.09 C 219.61 710.68 220.50 709.48 221.49 708.41 C 231.65 697.92 242.75 688.43 253.16 678.22 C 272.89 659.52 292.86 641.05 313.57 623.46 C 319.90 618.82 325.33 613.04 331.90 608.71 Z" />
</g>
<g id="Group-000000" fill="#000000">
<path fill="#000000" opacity="1.00" d=" M 157.13 490.65 C 159.24 490.62 159.82 488.23 161.07 486.96 C 163.35 489.04 161.65 492.55 163.37 494.63 C 163.10 494.91 162.55 495.48 162.28 495.76 C 164.66 497.28 162.96 500.83 163.03 503.17 C 161.71 503.20 159.82 504.95 158.85 503.42 C 158.93 502.49 159.08 500.62 159.16 499.69 C 158.46 499.64 157.05 499.55 156.35 499.50 C 156.10 499.11 155.58 498.32 155.33 497.92 C 156.16 495.39 157.46 493.06 158.68 490.71 C 158.29 490.69 157.52 490.67 157.13 490.65 Z" />
</g>
<g id="Group-000000" fill="#000000">
<path fill="#000000" opacity="1.00" d=" M 784.62 491.64 C 787.11 490.59 790.74 491.37 791.94 494.00 C 793.19 498.12 791.70 502.54 789.22 505.89 C 791.37 505.88 793.76 505.76 794.89 507.98 C 803.40 507.79 811.90 507.38 820.43 507.34 C 820.48 508.91 820.40 510.50 820.15 512.07 C 813.11 512.54 806.06 512.17 799.02 512.56 C 793.63 512.00 788.02 513.91 782.79 512.23 C 781.88 510.66 783.08 508.57 783.77 507.04 C 786.02 503.82 787.40 500.06 787.71 496.14 C 785.32 496.80 785.13 499.69 784.23 501.60 C 782.97 500.90 780.80 500.85 780.65 499.04 C 781.01 496.23 782.67 493.64 784.62 491.64 Z" />
</g>
<g id="Group-000000" fill="#000000">
<path fill="#000000" opacity="1.00" d=" M 811.42 491.66 C 813.31 491.13 816.36 490.50 817.16 492.97 C 818.15 496.06 818.46 499.91 816.73 502.81 C 814.19 504.45 809.71 503.33 809.19 499.99 C 808.71 497.26 808.39 492.99 811.42 491.66 Z" />
</g>
<g id="Group-000000" fill="#000000">
<path fill="#000000" opacity="1.00" d=" M 925.03 502.94 C 926.86 500.99 929.05 503.95 928.75 505.89 C 928.87 523.61 928.51 541.35 929.29 559.06 C 929.54 580.39 929.37 601.73 929.46 623.07 C 929.36 626.34 930.18 629.74 929.09 632.92 C 927.76 632.85 926.44 632.79 925.14 632.74 C 924.36 626.43 924.50 620.02 924.67 613.67 C 923.88 615.27 923.22 616.92 922.37 618.48 C 920.85 619.90 918.62 618.61 918.32 616.80 C 916.02 608.83 913.49 600.92 911.16 592.96 C 909.21 597.86 907.90 602.99 906.29 608.01 C 905.07 611.69 904.43 615.70 902.16 618.94 C 901.70 618.90 900.76 618.83 900.29 618.79 C 897.40 613.20 897.04 606.75 894.60 600.99 C 892.82 596.51 892.11 591.08 887.90 588.09 C 884.14 591.98 882.15 597.05 879.45 601.63 C 878.38 603.66 875.93 602.32 875.39 600.61 C 867.47 584.49 864.31 566.61 858.41 549.77 C 854.63 560.54 849.72 570.86 845.63 581.51 C 844.27 584.06 844.90 588.15 841.89 589.48 C 840.59 588.94 839.93 587.68 839.22 586.59 C 836.15 581.49 834.39 575.73 831.34 570.64 C 826.58 581.99 820.11 592.50 815.17 603.76 C 813.45 603.29 811.93 602.37 811.30 600.65 C 801.40 580.85 792.80 560.49 784.49 540.01 C 777.40 556.51 772.95 573.95 767.86 591.12 C 766.57 591.28 765.28 591.28 764.01 591.13 C 764.04 587.97 764.93 584.93 765.79 581.93 C 768.15 574.21 769.80 566.29 772.68 558.74 C 774.16 555.10 774.74 551.16 776.36 547.59 C 778.66 542.48 779.99 536.89 783.19 532.22 C 784.06 530.37 787.06 530.90 787.31 532.91 C 794.52 554.30 804.21 574.71 813.63 595.18 C 819.21 585.87 823.99 576.09 827.68 565.87 C 828.31 563.79 829.39 561.89 830.98 560.39 C 833.56 562.25 834.58 565.35 835.76 568.17 C 837.34 572.18 839.17 576.10 841.24 579.89 C 844.09 572.34 847.66 565.09 850.36 557.48 C 852.83 551.42 854.66 545.13 857.07 539.05 C 860.94 538.06 861.30 542.41 862.29 545.01 C 866.76 558.90 869.77 573.24 874.87 586.93 C 875.81 589.55 876.77 592.17 877.61 594.83 C 880.03 590.43 883.76 587.05 886.92 583.21 C 895.94 587.74 898.76 598.15 901.56 607.02 C 904.66 598.24 906.89 589.20 909.15 580.18 C 909.91 580.13 911.43 580.04 912.19 579.99 C 914.03 584.13 914.93 588.59 916.19 592.93 C 917.65 598.27 919.74 603.46 920.51 608.98 C 925.60 595.55 924.08 581.04 924.17 567.00 C 924.13 555.66 923.96 544.32 924.10 533.00 C 923.03 527.32 925.03 521.53 923.39 515.91 C 924.54 511.65 922.13 506.60 925.03 502.94 Z" />
<path fill="#000000" opacity="1.00" d=" M 868.14 634.13 C 874.77 634.36 881.40 633.40 888.03 633.94 C 889.96 634.06 892.03 633.34 893.87 634.21 C 895.03 635.39 894.94 637.70 893.44 638.59 C 871.31 638.59 849.13 638.59 827.03 639.21 C 814.69 638.86 802.31 639.57 790.01 638.92 C 786.03 639.42 782.02 639.31 778.03 639.20 C 775.76 639.09 773.21 640.27 771.22 638.71 C 769.44 637.63 769.95 634.65 772.03 634.25 C 787.97 634.74 803.90 634.13 819.83 634.31 C 822.26 634.76 824.71 634.25 827.12 633.85 C 829.33 634.71 831.65 634.32 833.92 633.93 C 845.33 634.34 856.71 633.57 868.14 634.13 Z" />
</g>
<g id="Group-000000" fill="#000000">
<path fill="#000000" opacity="1.00" d=" M 159.67 505.43 C 160.86 503.63 162.48 505.62 163.17 506.75 C 173.60 507.23 184.07 505.85 194.51 506.59 C 195.57 507.01 195.03 508.49 195.38 509.39 C 194.62 509.92 193.87 510.45 193.11 510.99 C 181.39 510.52 169.68 511.22 157.97 511.25 C 153.79 511.33 149.39 512.11 145.44 510.32 C 146.30 505.35 151.62 507.45 155.07 507.08 C 156.58 506.69 159.53 507.74 159.67 505.43 Z" />
</g>
<g id="Group-000000" fill="#000000">
<path fill="#000000" opacity="1.00" d=" M 133.43 519.07 C 133.63 515.54 132.29 510.84 135.97 508.60 C 137.21 510.21 139.23 511.72 138.79 514.04 C 138.36 529.66 138.56 545.27 138.46 560.89 C 140.55 557.58 143.96 555.48 146.41 552.48 C 154.18 543.54 161.43 534.19 169.22 525.29 C 171.68 522.39 173.65 519.08 176.39 516.43 C 178.93 515.41 180.22 518.99 181.51 520.61 C 187.47 532.27 195.92 542.53 200.81 554.76 C 206.52 549.42 212.44 544.32 218.07 538.89 C 222.02 535.94 224.78 531.66 229.12 529.20 C 232.47 532.64 233.35 537.64 235.24 541.92 C 236.86 547.35 239.67 552.39 240.58 558.02 C 241.91 563.38 244.79 568.53 244.46 574.18 C 243.91 574.06 242.83 573.80 242.28 573.67 C 240.12 569.00 239.10 563.91 237.50 559.05 C 233.14 551.68 232.15 542.66 227.54 535.47 C 220.51 542.50 212.84 548.84 205.68 555.73 C 203.82 557.57 201.61 559.01 199.25 560.12 C 195.61 553.59 192.49 546.77 188.45 540.48 C 184.73 534.35 180.74 528.39 177.35 522.08 C 177.18 522.17 176.85 522.36 176.68 522.45 C 166.29 536.61 154.29 549.47 142.60 562.55 C 141.28 564.53 139.81 563.36 138.54 562.13 C 138.69 584.74 138.88 607.36 138.70 629.97 C 138.52 631.76 140.47 633.48 139.27 635.17 C 138.46 636.43 137.88 638.50 136.08 638.55 C 134.91 637.65 133.04 636.73 133.09 635.03 C 133.03 613.05 133.74 591.04 133.79 569.05 C 133.78 566.99 133.61 564.88 134.18 562.88 C 133.66 559.62 133.69 556.31 133.76 553.02 C 133.88 546.00 133.31 538.97 133.78 531.96 C 133.76 527.66 133.02 523.37 133.43 519.07 Z" />
<path fill="#000000" opacity="1.00" d=" M 304.18 514.76 C 305.39 515.57 307.47 516.04 307.15 517.95 C 301.96 526.92 296.55 535.82 290.20 544.03 C 287.14 547.04 286.07 551.80 281.77 553.48 C 280.93 552.78 280.27 551.97 279.79 551.03 C 282.61 545.90 286.32 541.35 288.83 536.06 C 293.70 528.80 298.32 521.28 304.18 514.76 Z" />
</g>
<g id="Group-000000" fill="#000000">
<path fill="#000000" opacity="1.00" d=" M 326.05 514.99 C 327.23 513.17 329.83 511.87 331.80 513.28 C 331.65 514.17 331.30 514.98 330.73 515.70 C 325.06 523.52 320.18 531.88 314.81 539.91 C 313.06 542.39 311.78 546.35 308.06 546.00 C 307.76 543.00 309.71 540.53 310.94 537.98 C 315.06 529.74 320.72 522.45 326.05 514.99 Z" />
</g>
<g id="Group-000000" fill="#000000">
<path fill="#000000" opacity="1.00" d=" M 351.37 517.86 C 352.72 518.54 353.93 519.48 354.65 520.85 C 351.87 526.78 347.83 531.98 345.15 537.96 C 341.01 543.89 337.08 549.99 332.76 555.77 C 331.95 555.24 331.15 554.71 330.35 554.18 C 333.85 546.10 338.13 538.34 343.18 531.11 C 346.12 526.82 348.33 522.08 351.37 517.86 Z" />
</g>
<g id="Group-000000" fill="#000000">
<path fill="#000000" opacity="1.00" d=" M 667.13 546.05 C 668.38 543.99 670.75 546.14 671.32 547.68 C 679.43 563.02 688.24 577.99 697.27 592.81 C 698.43 594.86 699.97 596.76 700.62 599.07 C 697.94 602.29 695.30 597.17 693.83 595.15 C 688.27 586.33 682.59 577.57 677.57 568.42 C 674.32 563.04 671.90 557.18 668.34 551.99 C 663.96 558.23 660.67 565.45 655.10 570.74 C 651.85 567.50 650.47 562.98 647.64 559.46 C 644.18 558.65 640.55 558.80 637.04 559.19 C 632.33 559.79 627.64 558.36 622.94 559.03 C 620.85 559.42 619.88 556.54 620.99 555.11 C 623.15 553.61 625.70 554.89 628.07 554.80 C 635.03 554.70 642.00 554.65 648.95 554.28 C 652.56 555.99 652.75 560.84 655.77 563.25 C 659.27 557.34 662.92 551.49 667.13 546.05 Z" />
</g>
<g id="Group-000000" fill="#000000">
<path fill="#000000" opacity="1.00" d=" M 366.12 636.93 C 365.85 634.23 369.92 634.12 370.49 636.51 C 370.96 639.70 370.96 642.95 371.54 646.13 C 374.39 664.47 377.11 682.82 380.21 701.10 C 378.45 703.21 376.66 705.45 376.47 708.33 C 374.91 701.62 374.04 694.79 372.84 688.03 C 371.93 678.59 369.70 669.34 368.75 659.91 C 367.84 652.26 366.17 644.64 366.12 636.93 Z" />
</g>
<g id="Group-000000" fill="#000000">
<path fill="rgba(0,0,0,0)" opacity="1.00" d=" M 719.00 756.69 C 724.51 750.79 728.54 743.66 733.08 737.01 C 736.34 743.99 738.23 751.59 739.35 759.19 C 739.21 762.04 737.00 764.32 735.84 766.84 C 725.24 784.14 713.69 800.85 702.40 817.69 C 702.24 817.57 701.92 817.33 701.76 817.21 C 701.54 815.89 701.40 814.56 701.26 813.25 C 700.39 805.17 700.40 797.03 699.55 788.95 C 698.73 785.22 701.34 782.11 703.30 779.25 C 707.79 773.39 711.67 767.10 716.30 761.35 C 717.45 759.95 718.25 758.32 719.00 756.69 Z" />
</g>
<g id="Group-000000" fill="#000000">
<path fill="#000000" opacity="1.00" d=" M 367.22 828.28 C 368.20 827.51 369.23 826.82 370.24 826.11 C 370.47 827.28 370.70 828.44 370.94 829.63 C 371.11 829.57 371.45 829.46 371.62 829.40 C 396.56 829.39 421.50 829.31 446.44 829.28 C 447.81 830.70 449.74 830.97 451.58 831.37 C 451.46 831.91 451.23 833.00 451.11 833.55 C 425.42 833.31 399.72 833.70 374.03 833.53 C 372.60 833.48 371.17 833.61 369.89 834.25 C 369.02 834.64 368.18 835.08 367.33 835.51 C 366.99 835.26 366.31 834.77 365.97 834.53 C 365.74 834.36 365.27 834.02 365.03 833.86 C 362.20 833.68 359.36 833.78 356.52 833.82 C 357.28 831.53 359.45 830.48 361.37 829.36 C 363.01 829.34 364.66 829.35 366.31 829.34 C 366.54 829.07 366.99 828.54 367.22 828.28 Z" />
</g>
<g id="Group-000000" fill="#000000">
<path fill="#000000" opacity="1.00" d=" M 927.96 827.42 C 953.98 827.74 979.95 826.02 1005.97 826.27 C 1011.98 826.47 1018.01 825.57 1024.00 826.26 L 1024.00 830.86 C 1010.66 831.43 997.31 830.76 983.97 831.28 C 958.31 831.49 932.67 832.39 907.02 831.90 C 878.66 832.57 850.31 831.73 821.95 832.34 C 816.89 832.30 811.84 832.56 806.78 832.45 C 807.20 830.99 807.64 829.55 808.08 828.11 C 848.04 827.19 887.99 827.84 927.96 827.42 Z" />
</g>
<g id="Group-000000" fill="#000000">
<path fill="rgba(0,0,0,0)" opacity="1.00" d=" M 907.02 831.90 C 932.67 832.39 958.31 831.49 983.97 831.28 C 997.31 830.76 1010.66 831.43 1024.00 830.86 L 1024.00 838.31 C 970.01 838.10 916.02 837.63 862.02 837.38 C 835.99 837.18 809.96 837.31 783.94 836.75 C 783.67 835.29 783.42 833.83 783.20 832.38 C 791.06 832.73 798.92 832.06 806.78 832.45 C 811.84 832.56 816.89 832.30 821.95 832.34 C 850.31 831.73 878.66 832.57 907.02 831.90 Z" />
<path fill="rgba(0,0,0,0)" opacity="1.00" d=" M 742.93 832.79 C 744.28 832.41 745.68 832.17 747.10 832.41 C 752.43 833.09 757.77 831.93 763.11 832.30 C 768.01 832.73 772.94 832.54 777.86 832.46 C 778.36 833.85 778.82 835.26 779.25 836.70 C 753.90 836.55 728.55 836.53 703.21 836.14 C 703.19 835.32 703.15 833.68 703.13 832.85 C 709.79 832.52 716.46 832.74 723.12 832.58 C 729.72 833.02 736.33 832.06 742.93 832.79 Z" />
</g>
<g id="Group-000000" fill="#000000">
<path fill="rgba(0,0,0,0)" opacity="1.00" d=" M 222.45 833.29 C 223.88 832.61 227.01 832.14 227.70 833.80 C 226.23 834.44 223.43 834.53 222.45 833.29 Z" />
</g>
<g id="Group-000000" fill="#000000">
<path fill="rgba(0,0,0,0)" opacity="1.00" d=" M 234.73 833.36 C 236.94 833.04 239.17 832.98 241.40 833.03 C 241.03 836.28 236.50 834.52 234.73 833.36 Z" />
</g>
<g id="Group-000000" fill="#000000">
<path fill="rgba(0,0,0,0)" opacity="1.00" d=" M 241.74 835.00 C 242.58 832.52 245.50 833.13 247.52 833.01 C 247.32 836.03 243.71 834.57 241.74 835.00 Z" />
</g>
<g id="Group-000000" fill="#000000">
<path fill="rgba(0,0,0,0)" opacity="1.00" d=" M 249.63 833.07 C 253.16 833.25 256.69 833.30 260.22 833.10 C 260.09 834.48 259.36 835.10 258.02 834.96 C 255.44 834.98 252.85 834.94 250.29 834.62 C 250.13 834.23 249.80 833.46 249.63 833.07 Z" />
</g>
<g id="Group-000000" fill="#000000">
<path fill="rgba(0,0,0,0)" opacity="1.00" d=" M 261.93 833.25 C 266.26 832.74 270.61 833.54 274.95 833.09 C 276.74 833.37 279.81 832.39 280.29 834.87 C 274.14 834.80 267.98 835.09 261.84 834.84 C 261.86 834.44 261.91 833.65 261.93 833.25 Z" />
</g>
<g id="Group-000000" fill="#000000">
<path fill="rgba(0,0,0,0)" opacity="1.00" d=" M 282.59 833.57 C 286.71 833.46 290.84 833.18 294.96 833.48 C 298.01 833.65 301.13 833.32 304.14 833.76 C 304.37 834.02 304.83 834.54 305.06 834.80 C 297.33 835.04 289.57 835.26 281.86 834.60 C 282.04 834.34 282.41 833.83 282.59 833.57 Z" />
</g>
<g id="Group-000000" fill="#000000">
<path fill="rgba(0,0,0,0)" opacity="1.00" d=" M 306.58 833.57 C 308.97 833.49 311.36 833.65 313.75 833.56 C 314.80 833.34 315.59 833.96 316.18 834.79 C 312.73 835.12 309.26 835.05 305.83 834.70 C 306.02 834.42 306.39 833.86 306.58 833.57 Z" />
</g>
<g id="Group-000000" fill="#000000">
<path fill="rgba(0,0,0,0)" opacity="1.00" d=" M 319.04 833.07 C 320.75 833.60 324.27 832.35 324.40 834.98 C 322.26 835.01 320.13 834.98 318.00 834.90 C 318.26 834.44 318.78 833.52 319.04 833.07 Z" />
</g>
</g></svg>