<svg xmlns="http://www.w3.org/2000/svg" viewBox="0 0 1024 1024" version="1.1">
<g id="Parent-Group"><g id="Group-rgba(0,0,0,0)" fill="rgba(0,0,0,0)">
<path fill="rgba(0,0,0,0)" opacity="1.00" d=" M 0.00 0.00 L 1024.00 0.00 L 1024.00 1024.00 L 0.00 1024.00 L 0.00 0.00 M 702.26 96.19 C 701.08 97.86 701.36 100.09 701.06 102.02 C 699.90 116.68 698.97 131.38 699.08 146.09 C 699.05 148.12 699.25 150.20 700.19 152.05 C 701.49 153.00 703.21 152.52 703.58 150.91 C 704.52 146.32 704.01 141.58 704.27 136.93 C 704.84 123.96 705.59 110.98 705.62 98.00 C 706.33 95.86 703.41 94.64 702.26 96.19 M 297.14 99.13 C 295.75 99.79 296.24 101.75 295.85 102.99 C 294.43 119.83 293.38 136.82 294.56 153.69 C 294.67 156.88 299.30 156.06 298.84 153.12 C 298.85 136.74 299.82 120.38 300.09 104.00 C 300.32 101.99 300.25 97.54 297.14 99.13 M 752.01 107.96 C 749.26 115.15 746.19 122.21 743.38 129.37 C 740.88 135.64 737.13 141.43 735.55 148.03 C 734.72 149.78 736.74 150.70 737.84 151.52 C 744.18 140.55 748.89 128.69 753.28 116.83 C 752.61 116.77 751.28 116.64 750.61 116.58 C 751.36 116.54 752.86 116.46 753.61 116.42 C 754.82 112.19 756.74 108.20 757.94 103.97 C 758.04 102.59 757.36 101.79 755.90 101.58 C 753.83 103.13 752.99 105.68 752.01 107.96 M 646.10 105.11 C 646.01 107.46 647.19 109.58 648.10 111.67 C 654.00 124.16 659.83 136.68 665.89 149.09 C 667.00 151.43 668.33 153.67 669.97 155.69 C 671.32 154.81 673.03 153.88 672.05 151.99 C 669.36 144.66 665.39 137.86 662.20 130.74 C 658.27 122.67 654.80 114.36 650.33 106.58 C 649.61 105.04 647.42 102.98 646.10 105.11 M 346.74 107.64 C 341.12 118.12 337.21 129.43 332.31 140.25 C 330.62 144.72 327.85 149.04 328.08 153.99 C 331.48 154.43 332.17 150.76 333.39 148.42 C 339.28 135.03 345.26 121.66 350.51 108.02 C 351.20 105.23 347.21 105.45 346.74 107.64 M 245.77 107.70 C 246.16 110.20 246.84 112.66 247.97 114.93 C 253.97 127.97 259.57 141.19 265.90 154.07 C 266.77 155.75 267.77 157.37 269.07 158.77 C 270.86 158.80 272.37 157.26 271.43 155.52 C 268.57 148.01 264.63 140.97 261.36 133.64 C 257.25 125.28 254.29 116.32 249.43 108.35 C 248.75 106.84 246.98 107.77 245.77 107.70 M 611.31 122.95 C 613.94 128.51 618.95 132.49 622.67 137.31 C 627.39 143.57 632.73 149.33 637.72 155.38 C 639.93 158.20 642.11 161.10 645.04 163.23 C 645.78 162.52 646.49 161.78 647.16 161.00 C 647.32 158.82 645.63 157.15 644.48 155.50 C 635.84 144.58 626.65 134.09 616.99 124.07 C 615.54 122.60 612.57 119.61 611.31 122.95 M 211.14 125.93 C 213.75 131.56 218.87 135.53 222.61 140.40 C 227.42 146.86 233.09 152.63 238.14 158.90 C 240.31 161.60 242.63 164.17 245.15 166.54 C 246.03 165.78 247.40 165.30 247.65 164.02 C 247.13 161.66 245.46 159.80 244.03 157.94 C 235.23 147.15 226.14 136.56 216.43 126.58 C 215.10 124.92 212.28 123.01 211.14 125.93 M 789.57 125.50 C 783.85 134.48 778.19 143.51 772.73 152.66 C 769.18 158.28 765.46 163.96 763.55 170.40 C 762.76 172.33 763.84 174.89 766.17 174.84 C 768.56 172.84 769.61 169.78 771.31 167.25 C 778.76 155.95 784.87 143.84 791.06 131.84 C 790.95 131.29 790.71 130.18 790.59 129.62 C 790.95 129.58 791.68 129.49 792.04 129.44 C 792.64 127.82 794.77 125.78 792.77 124.33 C 791.93 122.79 790.12 124.58 789.57 125.50 M 390.68 127.62 C 383.20 139.23 375.83 150.92 368.72 162.76 C 366.84 166.31 364.61 169.91 364.20 173.98 C 363.89 175.64 366.00 176.21 366.84 177.27 C 369.52 174.33 371.20 170.70 373.33 167.38 C 380.67 156.09 386.95 144.15 393.06 132.17 C 392.54 132.35 391.49 132.71 390.96 132.89 C 393.24 131.38 395.96 128.83 394.40 125.84 C 392.72 125.43 391.40 126.12 390.68 127.62 M 586.71 150.25 C 595.88 160.74 605.09 171.21 613.87 182.04 C 615.53 184.06 617.45 185.85 619.45 187.53 C 620.24 186.84 620.90 186.05 621.43 185.15 C 619.95 181.96 617.29 179.54 615.20 176.77 C 609.16 169.81 603.94 162.17 597.61 155.47 C 594.29 151.98 591.46 147.62 586.92 145.63 C 584.42 146.37 585.22 148.96 586.71 150.25 M 187.50 152.45 C 190.62 156.95 194.72 160.67 198.21 164.87 C 206.33 173.68 213.68 183.20 222.28 191.56 C 226.20 190.02 223.17 186.51 221.38 184.57 C 213.73 176.19 206.95 167.06 199.22 158.76 C 195.93 155.24 192.90 151.36 188.72 148.83 C 188.26 149.91 186.40 151.19 187.50 152.45 M 812.86 158.88 C 807.07 166.38 801.48 174.02 795.67 181.50 C 792.45 185.51 789.06 189.45 786.56 193.98 C 787.41 194.79 788.26 195.59 789.13 196.40 C 792.89 192.71 795.92 188.38 799.29 184.36 C 807.53 174.25 815.40 163.77 821.93 152.45 C 821.39 151.94 820.31 150.92 819.77 150.42 C 816.94 152.77 815.13 156.04 812.86 158.88 M 418.29 153.02 C 409.38 163.92 401.27 175.49 392.27 186.33 C 390.25 189.01 387.95 191.51 386.36 194.47 C 385.64 196.16 387.58 196.96 388.64 197.78 C 400.41 184.22 411.86 170.22 421.23 154.86 C 422.76 153.30 419.39 151.32 418.29 153.02 M 713.05 199.34 C 699.38 200.17 685.68 200.52 671.99 200.50 C 666.06 200.78 659.54 199.81 654.29 203.19 C 649.78 205.79 648.50 211.22 647.48 215.94 C 646.02 227.21 645.50 238.61 645.84 249.96 C 645.62 267.97 646.07 285.97 647.05 303.93 C 647.13 306.62 648.30 309.19 648.08 311.89 C 647.44 317.65 648.92 323.33 649.47 329.03 C 649.48 330.75 650.57 332.10 651.53 333.42 C 650.88 333.78 649.57 334.52 648.92 334.88 C 650.56 340.25 655.55 343.55 660.74 344.96 C 663.38 343.71 666.24 344.79 669.01 344.81 C 678.12 345.03 687.23 344.41 696.34 344.50 C 714.17 344.55 731.87 342.10 749.57 340.27 C 750.04 340.94 750.99 342.30 751.46 342.98 C 754.34 341.02 756.63 338.09 757.70 334.77 C 758.03 332.48 758.61 330.25 759.65 328.18 C 759.29 325.78 759.14 323.36 759.13 320.95 C 769.40 320.77 779.67 320.71 789.94 320.76 C 802.30 321.01 814.68 320.23 827.04 321.09 C 833.99 321.05 840.76 322.71 847.70 322.94 C 846.86 352.62 846.18 382.35 845.15 412.00 C 844.95 436.32 845.60 460.66 846.69 484.96 C 848.97 535.63 850.32 586.33 850.89 637.04 C 850.77 655.01 852.02 673.04 850.21 690.95 C 851.10 708.95 850.42 727.00 851.27 745.02 C 851.40 748.43 851.64 751.99 853.44 755.01 C 835.61 754.43 817.77 754.70 799.94 755.31 C 786.63 756.09 773.32 755.57 760.01 755.24 C 738.35 754.78 716.69 755.20 695.04 754.31 C 684.37 754.24 673.69 754.18 663.03 753.73 C 634.40 752.04 605.72 753.41 577.07 753.69 C 569.72 753.81 562.36 753.11 555.03 753.83 C 556.29 755.73 556.95 758.55 559.12 759.57 C 586.74 760.42 614.39 760.07 642.03 760.35 C 690.01 761.20 738.00 761.79 785.99 761.87 C 798.65 761.81 811.27 760.51 823.94 760.65 C 835.06 760.72 846.24 759.97 857.33 760.77 C 858.36 759.57 860.00 758.72 860.40 757.10 C 859.86 755.60 857.78 755.93 856.58 755.31 C 855.86 736.52 856.85 717.78 856.47 698.99 C 857.15 689.00 857.97 678.99 857.73 668.96 C 857.34 639.87 857.30 610.76 856.80 581.67 C 856.49 518.30 851.51 454.94 853.82 391.56 C 854.22 369.04 854.49 346.50 854.82 323.99 C 857.31 322.81 860.49 321.93 861.48 319.02 C 861.59 315.01 857.63 313.08 854.49 311.77 C 854.91 297.21 853.74 282.64 854.29 268.08 C 854.27 264.26 850.87 260.89 847.04 260.95 C 832.08 260.10 817.09 260.92 802.25 262.87 C 802.12 256.55 802.59 250.20 802.06 243.90 C 801.23 238.63 793.33 237.43 790.30 241.41 C 788.37 243.80 788.16 247.00 788.12 249.95 C 788.06 254.75 788.05 259.56 788.48 264.35 C 783.87 264.11 779.21 263.91 774.68 264.91 C 772.78 264.54 770.85 264.15 768.92 264.46 C 765.36 264.89 761.84 263.96 758.29 263.99 C 759.16 252.34 760.00 240.63 759.08 228.96 C 758.14 223.97 757.13 218.97 756.82 213.89 C 756.68 208.65 751.46 205.97 747.70 203.32 C 743.15 202.27 738.61 201.08 734.03 200.17 C 727.07 199.36 720.05 199.12 713.05 199.34 M 847.96 201.75 C 839.38 206.42 830.61 210.73 821.62 214.53 C 817.25 216.38 812.78 218.02 808.65 220.35 C 809.07 221.77 810.02 223.62 811.85 222.74 C 824.19 218.43 836.21 213.15 847.43 206.41 C 849.30 205.12 852.94 204.18 851.75 201.18 C 850.67 199.89 849.13 201.45 847.96 201.75 M 271.92 203.32 C 267.50 203.21 262.75 204.50 259.72 207.87 C 257.03 210.79 256.38 214.84 255.63 218.59 C 254.37 227.73 253.97 236.97 253.54 246.17 C 254.07 263.09 253.81 280.05 254.54 296.97 C 254.79 302.10 254.45 307.35 255.83 312.36 C 255.06 318.57 256.21 324.80 256.90 330.96 C 256.87 332.78 258.32 334.02 259.23 335.43 C 258.54 335.77 257.15 336.44 256.46 336.78 C 257.50 340.22 259.88 343.14 263.02 344.88 C 265.52 346.12 268.23 347.76 271.04 346.32 C 278.32 347.36 285.72 346.78 293.05 346.63 C 304.06 346.62 315.11 346.67 326.10 345.62 C 336.63 344.41 347.21 343.65 357.74 342.47 C 358.45 343.45 359.17 344.43 359.90 345.41 C 366.23 340.32 368.13 331.65 367.47 323.93 C 381.00 323.63 394.54 323.62 408.06 323.74 C 418.40 323.35 428.75 323.49 439.08 324.18 C 443.61 324.77 448.14 325.46 452.73 325.49 C 452.16 354.33 451.76 383.20 450.60 412.01 C 450.12 437.99 451.35 463.98 452.14 489.95 C 453.99 535.62 454.95 581.31 456.15 627.01 C 455.98 645.61 457.02 664.21 456.38 682.81 C 455.08 691.82 456.44 700.87 456.09 709.92 C 456.45 720.56 456.01 731.20 456.59 741.84 C 456.85 746.57 456.33 751.56 458.56 755.93 C 434.71 755.07 410.86 756.07 387.02 756.68 C 370.74 756.29 354.46 755.60 338.17 755.71 C 303.81 755.25 269.45 754.58 235.09 753.99 C 219.06 753.82 203.02 754.42 186.98 754.78 C 177.99 755.03 168.99 754.51 160.00 754.98 C 161.31 757.40 162.50 761.18 165.88 761.07 C 189.29 761.60 212.70 761.33 236.11 761.47 C 257.08 761.85 278.04 761.75 299.01 761.86 C 311.68 762.09 324.39 762.48 337.04 762.23 C 339.06 762.58 341.10 762.56 343.14 762.48 C 366.41 762.66 389.72 763.60 412.96 761.98 C 424.97 761.49 437.01 761.67 449.03 761.45 C 453.75 761.48 458.49 761.09 463.21 761.55 C 464.11 760.49 465.05 759.48 465.88 758.38 C 465.43 756.86 463.40 756.77 462.26 755.95 C 461.40 744.65 462.18 733.32 461.97 722.03 C 462.50 711.99 461.51 701.93 462.57 691.92 C 463.88 674.31 462.87 656.65 462.83 639.01 C 462.85 617.35 461.98 595.70 461.92 574.04 C 461.18 520.36 457.71 466.69 458.64 412.97 C 459.14 384.18 459.46 355.38 459.76 326.59 C 462.47 325.64 465.70 324.25 466.29 321.07 C 465.86 317.53 462.44 315.87 459.55 314.62 C 459.93 299.76 458.70 284.89 459.00 270.03 C 458.52 266.53 455.44 263.69 451.88 263.65 C 437.09 262.83 422.17 263.40 407.57 265.95 C 407.45 260.26 407.71 254.57 407.50 248.88 C 407.49 246.71 406.85 244.22 404.74 243.19 C 401.02 240.82 395.39 242.69 394.24 247.05 C 392.69 253.71 393.50 260.65 394.01 267.40 C 384.69 267.50 375.39 268.06 366.08 267.55 C 367.47 254.89 368.09 242.00 366.71 229.30 C 365.16 224.24 365.08 218.92 364.14 213.76 C 362.78 208.42 356.55 208.00 352.84 205.02 C 347.70 205.02 342.87 203.22 337.85 202.52 C 330.58 201.97 323.29 201.60 316.02 202.15 C 301.34 203.14 286.63 203.34 271.92 203.32 M 451.44 202.53 C 439.25 208.96 426.80 214.91 414.03 220.11 C 411.87 220.67 408.95 222.94 411.92 224.83 C 425.06 220.49 437.77 214.77 449.70 207.75 C 451.45 206.67 453.39 205.74 454.67 204.06 C 454.40 202.32 452.92 201.65 451.44 202.53 M 561.37 203.56 C 559.79 204.11 559.79 206.14 560.62 207.32 C 563.49 208.85 566.86 208.50 570.01 208.77 C 574.62 208.86 579.29 209.67 583.89 208.99 C 585.77 208.64 585.82 205.37 583.86 205.08 C 579.35 203.85 574.63 203.76 570.01 203.30 C 567.15 203.25 564.14 202.66 561.37 203.56 M 168.41 206.43 C 165.60 206.74 166.05 211.05 168.75 211.13 C 175.09 212.13 181.58 211.96 187.98 212.33 C 189.96 212.74 192.12 211.18 191.21 209.05 C 189.44 207.56 187.00 207.52 184.82 207.18 C 179.37 206.69 173.88 205.94 168.41 206.43 M 606.13 237.11 C 600.27 243.04 596.89 251.13 596.06 259.37 C 582.35 259.45 568.65 258.99 554.95 258.86 C 552.81 258.70 550.88 260.13 550.17 262.11 C 549.35 265.28 552.44 267.82 551.86 270.99 C 551.18 285.71 550.83 300.49 552.45 315.16 C 550.75 316.39 547.42 317.03 548.15 319.83 C 548.40 322.32 550.74 323.36 552.77 324.19 C 550.38 329.50 551.47 335.39 551.24 341.01 C 551.44 359.02 550.46 377.02 550.45 395.02 C 550.21 412.36 550.20 429.73 549.82 447.06 C 550.45 453.70 550.31 460.40 549.79 467.05 C 550.11 478.03 549.72 489.03 549.85 500.02 C 550.05 519.73 551.15 539.36 551.25 559.07 C 551.30 565.02 552.00 571.00 551.43 576.95 C 552.84 585.89 551.19 594.95 552.42 603.91 C 552.89 629.55 553.25 655.20 553.57 680.86 C 553.72 691.40 554.72 701.94 554.26 712.47 C 554.62 722.29 554.23 732.16 555.41 741.94 C 555.78 745.08 555.98 748.47 558.03 751.07 C 558.40 750.94 559.13 750.69 559.50 750.57 C 562.06 742.63 562.09 734.20 562.30 725.94 C 562.53 710.96 562.68 695.97 562.16 680.99 C 561.94 650.65 560.96 620.32 559.94 589.99 C 559.58 554.67 557.25 519.41 557.78 484.08 C 558.21 457.04 557.61 430.00 558.09 402.97 C 558.88 384.66 559.81 366.35 559.87 348.01 C 559.84 339.53 560.23 330.97 558.88 322.57 C 568.55 321.50 578.29 322.01 587.99 321.81 C 605.56 321.27 623.23 321.38 640.64 318.75 C 642.88 318.62 643.31 316.13 642.64 314.38 C 641.79 311.52 638.31 312.00 636.00 311.98 C 610.28 312.96 584.53 313.09 558.79 313.94 C 557.56 298.73 557.99 283.46 558.07 268.22 C 570.78 268.11 583.48 268.93 596.20 268.89 C 596.49 277.93 597.44 286.95 598.00 295.98 C 598.23 300.16 598.85 304.95 602.35 307.75 C 607.19 310.75 614.27 306.65 614.41 300.99 C 614.77 290.79 613.42 280.58 611.65 270.55 C 622.08 269.81 632.47 268.47 642.96 268.46 C 642.79 265.09 642.72 261.71 642.19 258.38 C 638.32 258.29 634.46 258.44 630.60 258.32 C 629.61 251.76 628.84 244.68 624.52 239.33 C 620.40 233.76 611.33 232.06 606.13 237.11 M 214.03 240.12 C 207.85 245.94 204.52 254.32 203.80 262.69 C 189.87 262.98 175.95 262.32 162.02 262.49 C 159.98 262.33 158.30 263.87 157.62 265.69 C 156.20 268.99 160.17 271.63 159.38 274.96 C 158.41 289.54 158.26 304.17 159.58 318.73 C 157.88 320.13 154.72 321.07 155.25 323.86 C 155.58 326.25 158.14 326.86 160.04 327.55 C 159.29 329.28 158.21 330.97 158.17 332.93 C 158.01 340.97 158.33 349.02 158.03 357.06 C 157.26 387.68 157.13 418.31 156.43 448.93 C 156.93 453.65 156.91 458.41 156.69 463.15 C 156.24 483.76 156.22 504.38 156.59 524.98 C 157.54 546.29 157.09 567.66 157.95 588.99 C 157.50 601.64 159.13 614.29 158.49 626.94 C 159.04 642.60 159.30 658.28 159.28 673.95 C 159.50 689.97 160.13 705.97 160.10 721.98 C 160.25 730.99 159.74 740.16 161.95 748.98 C 162.14 750.55 163.23 751.73 164.13 752.97 C 166.20 749.64 166.35 745.62 166.99 741.87 C 168.35 727.28 167.84 712.61 168.13 697.98 C 167.67 675.32 167.88 652.65 166.96 630.01 C 166.76 613.99 165.89 597.98 165.81 581.96 C 165.46 551.97 164.12 522.00 164.73 492.01 C 165.34 464.34 164.65 436.67 165.10 409.00 C 166.05 381.36 168.05 353.64 166.13 325.99 C 193.46 324.56 220.97 325.75 248.15 322.13 C 252.24 322.41 251.09 315.85 247.94 315.48 C 243.99 315.03 240.00 315.48 236.04 315.50 C 212.68 316.56 189.29 317.14 165.92 317.88 C 165.21 302.63 165.11 287.37 165.54 272.11 C 178.31 271.92 191.09 272.47 203.86 272.23 C 204.24 281.18 205.06 290.11 205.44 299.06 C 205.74 303.15 206.20 307.81 209.41 310.75 C 212.34 313.34 216.96 312.09 219.66 309.77 C 222.29 307.68 222.31 304.04 222.38 300.99 C 222.23 292.04 221.20 283.12 219.88 274.27 C 230.30 273.21 240.74 272.52 251.20 272.11 C 251.22 268.63 251.03 265.15 250.47 261.72 C 246.45 261.99 242.42 262.27 238.39 262.08 C 237.53 255.15 236.54 247.66 231.89 242.13 C 227.62 237.06 219.18 235.44 214.03 240.12 M 605.07 392.22 C 601.98 393.03 599.44 395.75 599.06 398.96 C 598.53 402.60 598.70 406.29 598.57 409.96 C 597.29 445.33 594.80 480.65 594.46 516.06 C 594.36 535.14 593.83 554.21 592.72 573.26 C 591.23 587.75 591.87 602.36 590.98 616.89 C 590.71 622.16 590.42 627.69 592.63 632.64 C 599.14 622.40 598.93 609.72 599.82 598.03 C 600.33 583.56 602.84 569.26 603.27 554.80 C 604.40 526.54 603.66 498.21 605.64 469.97 C 606.85 447.22 608.60 424.50 609.38 401.73 C 626.17 399.67 643.12 400.76 659.99 400.88 C 680.96 402.04 701.98 402.22 722.97 403.10 C 724.43 403.14 725.90 402.86 727.37 402.64 C 729.81 403.69 732.48 403.43 735.08 403.30 C 739.76 403.31 744.48 404.03 749.15 403.45 C 751.06 403.76 753.00 403.96 754.95 403.83 C 761.31 403.49 767.65 404.32 774.01 404.33 C 783.34 404.56 792.59 406.92 801.95 405.95 C 805.93 405.85 809.91 404.81 813.89 405.29 C 817.37 406.71 816.19 411.32 815.76 414.20 C 813.95 421.69 813.38 429.37 812.84 437.03 C 812.90 452.40 812.94 467.79 811.86 483.14 C 812.05 493.77 811.25 504.39 811.17 515.03 C 808.80 554.64 807.85 594.31 807.09 633.98 C 806.88 636.48 807.60 638.90 808.88 641.04 C 811.14 638.49 812.23 635.21 812.97 631.95 C 815.63 617.79 815.54 603.35 816.17 589.01 C 817.03 572.34 817.02 555.64 818.34 539.00 C 821.06 503.12 820.65 467.11 821.75 431.17 C 822.27 424.05 824.32 417.15 824.90 410.05 C 825.22 405.69 823.47 400.61 818.99 399.09 C 808.96 395.43 798.12 398.49 787.81 396.69 C 782.75 397.05 777.94 394.50 772.89 395.63 C 767.27 394.70 761.56 395.59 755.92 394.79 C 741.29 394.70 726.71 393.61 712.08 393.30 C 684.69 392.52 657.42 389.93 630.00 390.78 C 621.68 390.81 613.26 390.50 605.07 392.22 M 241.04 396.09 C 229.64 396.18 218.22 395.84 206.86 396.91 C 203.61 397.67 200.54 400.10 199.27 403.23 C 197.57 410.74 199.20 418.43 199.18 426.03 C 199.46 430.02 199.20 434.04 199.61 438.03 C 201.49 454.97 196.57 472.10 199.90 488.92 C 199.50 492.82 199.88 497.01 203.09 499.71 C 210.33 498.04 217.83 499.06 225.18 498.67 C 236.78 498.91 248.39 498.38 259.98 499.02 C 260.46 498.86 261.42 498.54 261.90 498.38 C 263.69 498.78 265.53 498.92 267.37 498.94 C 292.94 499.90 318.55 500.01 344.16 500.87 C 364.13 500.67 384.08 502.24 404.05 501.79 C 408.16 501.61 412.38 501.66 416.28 500.16 C 417.24 501.13 418.17 502.13 419.11 503.14 C 421.97 500.32 424.83 497.02 425.16 492.83 C 426.91 489.11 427.29 485.04 427.10 481.00 C 427.67 465.58 423.99 450.41 424.19 435.01 C 424.31 427.64 426.38 420.44 426.32 413.08 C 426.11 408.25 424.54 402.37 419.58 400.40 C 411.59 398.32 403.28 398.69 395.11 399.03 C 385.44 399.90 375.74 399.99 366.06 399.32 C 350.01 399.24 334.02 397.48 317.97 397.06 C 307.73 396.82 297.41 395.25 287.21 396.75 C 285.23 396.00 283.13 395.69 281.02 395.82 C 274.29 396.02 267.53 395.03 260.83 396.09 C 254.33 394.83 247.63 396.35 241.04 396.09 M 699.40 466.76 C 693.43 468.40 687.10 470.08 682.46 474.43 C 674.26 480.96 669.23 491.47 670.10 502.01 C 670.10 510.81 675.68 518.38 682.03 523.96 C 690.29 531.60 702.26 532.93 713.04 532.62 C 720.71 532.33 728.14 529.05 733.37 523.41 C 741.25 515.88 744.65 504.61 743.96 493.92 C 742.54 482.93 733.84 474.43 724.42 469.52 C 716.84 465.33 707.72 464.91 699.40 466.76 M 199.29 547.47 C 197.75 554.96 199.25 562.56 199.22 570.11 C 199.22 578.76 200.55 587.35 200.07 596.01 C 199.29 605.66 198.57 615.36 198.95 625.05 C 199.47 628.36 200.57 631.59 200.10 635.01 C 199.70 637.76 201.28 640.13 202.84 642.23 C 209.76 640.60 216.92 641.60 223.94 641.24 C 243.27 641.55 262.62 641.06 281.94 642.11 C 284.37 642.48 286.84 642.58 289.27 642.04 C 290.83 642.29 292.39 642.62 293.98 642.63 C 304.98 642.67 315.98 642.69 326.97 643.16 C 335.38 643.31 343.79 643.84 352.20 643.69 C 371.16 643.72 390.13 645.26 409.08 644.30 C 411.51 644.29 413.89 643.76 416.21 643.05 C 417.14 643.95 418.07 644.84 419.02 645.75 C 421.14 643.30 423.80 640.99 424.50 637.68 C 425.07 635.35 425.99 633.13 426.69 630.85 C 428.48 614.52 424.74 598.30 424.26 582.01 C 423.83 573.59 426.26 565.36 426.38 556.98 C 426.18 551.96 424.57 545.66 419.25 543.85 C 402.61 540.54 385.77 545.40 369.01 543.91 C 354.92 544.02 340.89 542.87 326.83 542.20 C 313.58 542.05 300.29 540.38 287.06 541.60 C 285.06 541.25 283.06 540.78 281.02 540.85 C 274.02 540.98 267.01 540.24 260.04 541.12 C 258.09 540.44 256.02 540.53 253.99 540.64 C 238.99 541.32 223.95 540.11 208.95 540.94 C 204.80 540.66 200.60 543.55 199.29 547.47 M 599.69 630.74 C 597.38 632.53 601.30 634.07 602.92 634.04 C 630.91 636.69 659.11 635.59 687.14 637.51 C 715.04 638.46 743.01 638.29 770.85 640.28 C 780.53 640.53 790.62 642.17 799.97 638.78 C 799.92 637.32 799.86 635.88 799.77 634.45 C 796.48 632.71 792.69 632.47 789.05 632.59 C 779.98 632.76 771.06 630.44 762.02 630.60 C 747.13 628.11 731.96 629.38 716.95 628.59 C 704.97 628.00 692.97 628.36 681.01 628.15 C 656.95 628.44 632.87 627.56 608.82 628.68 C 605.73 628.99 602.42 629.13 599.69 630.74 M 281.04 817.29 C 264.12 819.03 247.10 818.53 230.13 817.85 C 215.07 818.12 200.04 816.70 184.97 817.14 C 157.63 817.76 130.28 817.21 102.95 818.24 C 100.00 818.37 96.91 818.09 94.11 819.21 C 92.35 819.78 91.40 822.08 92.59 823.64 C 93.59 825.59 96.18 825.05 97.98 825.16 C 119.97 824.52 141.97 824.80 163.96 824.71 C 181.62 824.90 199.30 824.22 216.92 825.54 C 227.66 825.67 238.41 825.84 249.12 826.18 C 266.80 827.35 284.34 823.91 302.01 824.17 C 318.67 824.10 335.34 824.66 351.97 825.52 C 377.26 827.14 402.61 826.48 427.94 827.07 C 436.96 827.13 445.96 827.80 454.99 827.79 C 471.37 828.06 487.70 826.63 504.06 825.98 C 507.99 825.56 512.25 825.96 515.80 823.90 C 526.22 823.92 536.63 823.45 547.05 823.50 C 570.71 823.97 594.38 823.71 618.04 824.30 C 624.68 824.54 631.24 825.82 637.90 825.84 C 644.36 825.83 650.82 826.42 657.29 826.19 C 659.47 826.53 661.69 826.68 663.87 826.21 C 664.85 826.38 665.85 826.53 666.86 826.65 C 679.30 826.77 691.71 825.78 704.10 824.76 C 711.89 824.60 719.71 824.89 727.50 824.63 C 759.96 826.33 792.48 826.13 824.98 826.35 C 839.99 826.87 855.02 827.44 870.03 826.52 C 881.98 825.83 893.96 825.47 905.88 824.40 C 908.92 824.62 910.25 820.45 908.90 818.23 C 906.32 816.37 902.97 816.85 900.00 816.86 C 887.96 817.55 875.89 817.24 863.87 818.16 C 848.25 818.78 832.61 818.41 816.99 818.18 C 791.04 818.23 765.12 818.12 739.19 817.52 C 723.81 816.88 708.35 816.27 693.00 817.85 C 677.70 819.14 662.35 818.57 647.02 818.17 C 635.64 818.58 624.36 816.76 613.02 816.45 C 597.01 816.59 581.02 816.63 565.02 816.78 C 555.01 816.86 545.00 816.48 535.00 817.14 C 526.67 817.07 518.36 818.16 510.03 817.71 C 492.67 818.10 475.31 818.70 457.95 819.33 C 428.61 819.23 399.27 818.59 369.94 818.22 C 363.93 818.54 358.03 816.97 352.04 817.18 C 345.36 816.47 338.66 816.57 331.97 816.13 C 315.00 815.74 297.94 815.12 281.04 817.29 Z" />
<path fill="rgba(0,0,0,0)" opacity="1.00" d=" M 711.03 209.14 C 719.13 208.15 727.28 209.17 735.34 210.13 C 740.28 212.35 745.75 213.31 751.14 212.71 C 751.26 213.11 751.49 213.91 751.61 214.31 C 750.90 214.42 749.48 214.63 748.77 214.74 C 749.02 219.26 750.86 223.59 750.63 228.14 C 751.27 240.97 750.78 253.90 748.76 266.60 C 746.99 279.04 749.48 291.51 749.17 303.97 C 749.65 313.45 749.55 322.96 749.23 332.44 C 739.76 331.15 730.34 334.07 720.89 334.57 C 709.30 335.64 697.62 335.12 686.00 335.86 C 675.97 336.13 665.50 337.29 655.87 333.79 C 657.45 324.04 655.66 314.16 655.91 304.36 C 654.81 286.93 654.59 269.47 654.20 252.02 C 654.38 240.95 655.02 229.89 656.05 218.87 C 656.51 215.76 657.18 211.85 660.33 210.34 C 666.17 211.08 672.13 211.82 677.99 210.82 C 689.01 210.63 700.05 210.29 711.03 209.14 M 726.73 248.65 C 719.19 258.46 712.23 268.76 703.77 277.83 C 698.39 284.01 692.18 289.37 686.18 294.93 C 682.34 288.40 678.38 281.94 674.81 275.26 C 672.63 271.55 670.75 267.44 667.35 264.67 C 664.33 262.28 659.45 263.20 657.53 266.52 C 655.73 269.43 656.67 273.05 658.01 275.94 C 662.92 286.18 668.51 296.07 674.15 305.92 C 675.74 308.57 677.42 311.37 680.13 313.03 C 683.83 315.04 688.76 315.03 692.07 312.23 C 711.29 297.41 726.96 278.49 740.42 258.42 C 744.12 253.78 741.69 245.86 735.94 244.31 C 732.22 243.28 728.79 245.78 726.73 248.65 Z" />
<path fill="rgba(0,0,0,0)" opacity="1.00" d=" M 279.07 213.40 C 291.33 212.35 303.70 212.74 315.94 211.23 C 323.99 210.30 332.07 211.22 340.07 212.17 C 344.39 213.10 348.48 215.13 352.96 215.30 C 355.41 215.05 357.92 214.38 360.27 215.57 C 359.26 215.88 357.25 216.49 356.24 216.79 C 357.08 220.72 357.87 224.66 358.58 228.61 C 359.30 242.42 358.88 256.30 357.01 270.01 C 355.36 282.68 357.98 295.32 357.60 307.99 C 358.18 317.11 357.84 326.27 357.55 335.40 C 351.49 333.10 345.11 335.26 338.88 335.31 C 323.10 337.96 307.05 337.37 291.10 338.04 C 281.74 338.30 272.06 339.17 263.12 335.75 C 264.54 326.22 263.34 316.56 263.59 306.97 C 262.73 289.99 262.74 272.99 262.36 256.00 C 262.43 243.87 263.33 231.77 263.97 219.66 C 264.15 216.80 265.76 214.40 267.75 212.46 C 271.48 213.15 275.28 213.30 279.07 213.40 M 295.43 244.10 C 293.37 250.36 293.24 257.36 295.24 263.64 C 296.35 267.31 300.15 271.77 304.21 268.99 C 308.44 270.93 312.39 273.74 317.06 274.54 C 324.83 275.65 333.55 272.52 337.64 265.54 C 342.58 257.89 341.04 247.35 335.69 240.32 C 331.85 234.93 325.22 232.50 318.92 231.54 C 309.42 228.77 298.50 234.75 295.43 244.10 M 298.87 276.66 C 292.17 278.90 287.99 286.08 288.19 292.98 C 288.20 297.06 288.70 302.11 292.56 304.47 C 294.25 305.60 296.05 304.46 297.50 303.51 C 303.60 307.31 312.34 308.16 317.75 302.71 C 324.99 295.90 322.20 282.77 313.51 278.55 C 308.98 276.60 303.72 274.92 298.87 276.66 Z" />
<path fill="rgba(0,0,0,0)" opacity="1.00" d=" M 308.07 244.75 C 311.37 244.05 314.65 243.25 317.77 241.93 C 321.14 242.52 324.90 241.99 327.97 243.77 C 334.09 248.18 334.11 258.64 328.12 263.19 C 324.48 266.06 319.30 266.90 315.06 264.89 C 311.49 263.21 307.67 261.88 304.48 259.54 C 301.29 254.23 306.08 249.41 308.07 244.75 Z" />
<path fill="rgba(0,0,0,0)" opacity="1.00" d=" M 794.31 244.85 C 794.80 244.77 795.80 244.59 796.29 244.50 C 796.56 250.78 796.28 257.06 796.16 263.34 C 795.66 263.48 794.65 263.75 794.15 263.89 C 793.91 257.56 793.57 251.16 794.31 244.85 Z" />
<path fill="rgba(0,0,0,0)" opacity="1.00" d=" M 399.34 249.94 C 398.78 248.84 401.46 245.92 401.55 248.20 C 402.09 253.45 401.62 258.83 401.69 264.13 C 401.93 265.69 400.90 266.79 399.85 267.77 C 399.07 261.86 399.36 255.88 399.34 249.94 Z" />
<path fill="rgba(0,0,0,0)" opacity="1.00" d=" M 610.67 259.33 C 611.39 254.92 612.83 250.54 615.97 247.23 C 618.39 250.73 619.18 254.97 619.82 259.10 C 616.77 259.20 613.72 259.26 610.67 259.33 Z" />
<path fill="rgba(0,0,0,0)" opacity="1.00" d=" M 223.70 250.34 C 226.36 253.89 227.15 258.35 227.90 262.61 C 224.94 262.76 221.98 262.81 219.03 262.74 C 219.11 258.18 221.00 253.95 223.70 250.34 Z" />
<path fill="rgba(0,0,0,0)" opacity="1.00" d=" M 802.64 273.97 C 817.44 271.37 832.52 272.15 847.44 270.96 C 848.07 284.57 848.03 298.21 848.08 311.83 C 832.77 310.84 817.44 310.47 802.11 311.10 C 802.42 298.73 802.51 286.35 802.64 273.97 Z" />
<path fill="rgba(0,0,0,0)" opacity="1.00" d=" M 408.11 276.97 C 416.68 275.78 425.27 274.52 433.94 274.42 C 440.11 274.22 446.30 274.32 452.46 273.74 C 452.95 287.42 453.07 301.13 453.11 314.82 C 437.99 313.64 422.81 313.04 407.66 314.06 C 407.94 301.70 407.96 289.33 408.11 276.97 Z" />
<path fill="rgba(0,0,0,0)" opacity="1.00" d=" M 757.00 274.54 C 769.71 276.68 782.64 275.18 795.44 274.79 C 795.22 286.92 795.17 299.05 795.21 311.19 C 783.05 311.04 770.88 311.81 758.72 311.32 C 759.07 299.04 757.36 286.81 757.00 274.54 Z" />
<path fill="rgba(0,0,0,0)" opacity="1.00" d=" M 365.18 277.98 C 377.10 279.48 389.13 278.40 401.08 277.81 C 400.96 289.90 400.76 302.00 400.85 314.09 C 389.54 314.10 378.24 314.39 366.93 314.29 C 367.27 302.16 365.66 290.09 365.18 277.98 Z" />
<path fill="rgba(0,0,0,0)" opacity="1.00" d=" M 299.50 289.16 C 301.92 288.18 303.98 286.58 306.11 285.11 C 309.05 285.84 313.79 285.23 314.61 289.06 C 316.83 295.69 307.88 300.67 302.58 297.43 C 300.42 295.24 300.22 291.98 299.50 289.16 Z" />
<path fill="rgba(0,0,0,0)" opacity="1.00" d=" M 260.15 405.65 C 260.37 405.44 260.81 405.03 261.02 404.82 C 262.29 405.42 263.62 405.69 265.02 405.62 C 274.70 405.70 284.36 406.12 294.00 406.79 C 309.02 406.85 324.01 407.82 339.03 407.92 C 350.33 408.71 361.65 408.94 372.98 408.76 C 386.84 408.66 400.60 406.10 414.48 406.81 C 415.18 408.87 416.03 410.88 416.95 412.86 C 415.53 416.00 415.74 419.45 415.38 422.79 C 414.18 429.06 414.48 435.52 415.20 441.83 C 415.96 452.89 417.02 463.93 417.73 475.00 C 417.11 481.57 417.80 488.21 416.65 494.74 C 408.50 493.65 400.24 494.46 392.06 493.73 C 373.78 491.77 355.42 490.36 337.02 490.12 C 310.36 488.36 283.67 488.45 256.98 488.19 C 245.64 488.25 234.31 488.80 222.97 488.63 C 216.83 488.77 210.70 489.37 204.55 489.08 C 206.19 480.52 206.22 471.75 207.38 463.12 C 209.56 444.25 209.91 425.17 209.06 406.22 C 226.06 405.02 243.14 405.18 260.15 405.65 M 229.51 444.51 C 225.91 449.67 222.27 455.42 222.43 461.96 C 222.58 467.30 224.04 473.14 228.32 476.70 C 231.43 479.25 234.12 482.66 238.14 483.82 C 244.66 485.36 251.78 484.89 257.78 481.80 C 264.50 478.20 270.11 471.73 270.78 463.90 C 278.25 462.30 285.50 459.80 292.97 458.14 C 303.97 455.20 315.42 453.59 325.86 448.92 C 327.91 447.97 331.14 447.66 331.47 444.92 C 330.89 442.89 329.69 440.00 327.04 440.63 C 307.84 442.53 289.08 447.38 270.68 453.01 C 269.42 448.42 268.25 443.56 264.99 439.93 C 261.43 436.05 256.11 434.29 250.97 433.90 C 242.52 432.86 234.28 437.75 229.51 444.51 Z" />
<path fill="rgba(0,0,0,0)" opacity="1.00" d=" M 244.34 443.19 C 248.07 441.40 252.28 442.69 255.98 443.90 C 258.36 444.74 261.54 445.92 261.56 448.95 C 262.09 454.38 263.57 460.47 260.45 465.41 C 256.88 472.17 248.64 473.58 242.05 475.87 C 236.59 472.54 230.15 468.07 230.05 460.97 C 230.58 452.81 237.17 446.33 244.34 443.19 Z" />
<path fill="rgba(0,0,0,0)" opacity="1.00" d=" M 209.08 550.28 C 223.74 549.32 238.43 550.22 253.10 550.26 C 260.40 550.24 267.67 550.72 274.96 550.75 C 279.04 550.69 283.10 551.74 287.17 551.05 C 289.11 551.37 291.07 551.71 293.06 551.70 C 303.70 551.71 314.35 552.09 324.99 552.28 C 332.42 552.80 339.89 552.22 347.31 553.06 C 357.21 553.41 367.13 553.45 377.03 552.94 C 389.60 552.44 402.10 550.12 414.71 550.65 C 415.28 552.53 416.12 554.33 416.72 556.22 C 415.82 560.41 415.87 564.73 415.07 568.94 C 413.88 577.46 415.66 585.99 415.79 594.52 C 416.82 602.32 417.03 610.19 417.76 618.01 C 417.06 624.59 417.87 631.30 416.40 637.80 C 408.30 636.46 400.05 637.48 391.90 636.71 C 378.30 635.31 364.68 634.21 351.02 633.71 C 330.36 633.31 309.73 631.49 289.05 631.85 C 269.07 630.82 249.04 631.30 229.03 631.66 C 220.93 631.30 212.84 632.42 204.74 631.91 C 205.94 625.72 206.11 619.41 206.76 613.16 C 207.49 603.77 208.99 594.44 209.04 585.00 C 209.24 573.43 209.95 561.84 209.08 550.28 M 225.44 594.45 C 220.70 602.63 221.75 614.51 229.40 620.59 C 233.07 624.26 237.64 627.58 243.07 627.56 C 255.66 628.78 269.88 619.99 270.99 606.66 C 278.14 605.07 285.15 602.93 292.27 601.22 C 303.46 598.12 315.09 596.41 325.83 591.86 C 327.89 590.91 331.24 590.68 331.43 587.85 C 331.03 585.71 329.74 582.89 327.05 583.48 C 307.87 585.38 289.12 590.25 270.72 595.84 C 269.32 590.90 268.14 585.42 264.10 581.89 C 258.65 577.23 250.87 576.37 244.03 577.57 C 235.43 579.65 229.27 586.83 225.44 594.45 Z" />
<path fill="rgba(0,0,0,0)" opacity="1.00" d=" M 237.06 591.11 C 241.20 587.74 246.48 584.33 252.07 585.92 C 255.34 586.81 259.48 587.35 261.41 590.46 C 262.19 596.83 264.03 604.27 259.83 609.88 C 255.89 615.46 248.61 616.57 242.65 618.88 C 237.56 616.11 232.19 612.48 230.64 606.54 C 229.14 600.62 232.96 595.00 237.06 591.11 Z" />
</g>
<g id="Group-000000" fill="#000000">
<path fill="#000000" opacity="1.00" d=" M 702.26 96.19 C 703.41 94.64 706.33 95.86 705.62 98.00 C 705.59 110.98 704.84 123.96 704.27 136.93 C 704.01 141.58 704.52 146.32 703.58 150.91 C 703.21 152.52 701.49 153.00 700.19 152.05 C 699.25 150.20 699.05 148.12 699.08 146.09 C 698.97 131.38 699.90 116.68 701.06 102.02 C 701.36 100.09 701.08 97.86 702.26 96.19 Z" />
<path fill="#000000" opacity="1.00" d=" M 297.14 99.13 C 300.25 97.54 300.32 101.99 300.09 104.00 C 299.82 120.38 298.85 136.74 298.84 153.12 C 299.30 156.06 294.67 156.88 294.56 153.69 C 293.38 136.82 294.43 119.83 295.85 102.99 C 296.24 101.75 295.75 99.79 297.14 99.13 Z" />
<path fill="#000000" opacity="1.00" d=" M 752.01 107.96 C 752.99 105.68 753.83 103.13 755.90 101.58 C 757.36 101.79 758.04 102.59 757.94 103.97 C 756.74 108.20 754.82 112.19 753.61 116.42 C 752.86 116.46 751.36 116.54 750.61 116.58 C 751.28 116.64 752.61 116.77 753.28 116.83 C 748.89 128.69 744.18 140.55 737.84 151.52 C 736.74 150.70 734.72 149.78 735.55 148.03 C 737.13 141.43 740.88 135.64 743.38 129.37 C 746.19 122.21 749.26 115.15 752.01 107.96 Z" />
<path fill="#000000" opacity="1.00" d=" M 646.10 105.11 C 647.42 102.98 649.61 105.04 650.33 106.58 C 654.80 114.36 658.27 122.67 662.20 130.74 C 665.39 137.86 669.36 144.66 672.05 151.99 C 673.03 153.88 671.32 154.81 669.97 155.69 C 668.33 153.67 667.00 151.43 665.89 149.09 C 659.83 136.68 654.00 124.16 648.10 111.67 C 647.19 109.58 646.01 107.46 646.10 105.11 Z" />
<path fill="#000000" opacity="1.00" d=" M 346.74 107.64 C 347.21 105.45 351.20 105.23 350.51 108.02 C 345.26 121.66 339.28 135.03 333.39 148.42 C 332.17 150.76 331.48 154.43 328.08 153.99 C 327.85 149.04 330.62 144.72 332.31 140.25 C 337.21 129.43 341.12 118.12 346.74 107.64 Z" />
<path fill="#000000" opacity="1.00" d=" M 245.77 107.70 C 246.98 107.77 248.75 106.84 249.43 108.35 C 254.29 116.32 257.25 125.28 261.36 133.64 C 264.63 140.97 268.57 148.01 271.43 155.52 C 272.37 157.26 270.86 158.80 269.07 158.77 C 267.77 157.37 266.77 155.75 265.90 154.07 C 259.57 141.19 253.97 127.97 247.97 114.93 C 246.84 112.66 246.16 110.20 245.77 107.70 Z" />
<path fill="#000000" opacity="1.00" d=" M 611.31 122.95 C 612.57 119.61 615.54 122.60 616.99 124.07 C 626.65 134.09 635.84 144.58 644.48 155.50 C 645.63 157.15 647.32 158.82 647.16 161.00 C 646.49 161.78 645.78 162.52 645.04 163.23 C 642.11 161.10 639.93 158.20 637.72 155.38 C 632.73 149.33 627.39 143.57 622.67 137.31 C 618.95 132.49 613.94 128.51 611.31 122.95 Z" />
<path fill="#000000" opacity="1.00" d=" M 211.14 125.93 C 212.28 123.01 215.10 124.92 216.43 126.58 C 226.14 136.56 235.23 147.15 244.03 157.94 C 245.46 159.80 247.13 161.66 247.65 164.02 C 247.40 165.30 246.03 165.78 245.15 166.54 C 242.63 164.17 240.31 161.60 238.14 158.90 C 233.09 152.63 227.42 146.86 222.61 140.40 C 218.87 135.53 213.75 131.56 211.14 125.93 Z" />
<path fill="#000000" opacity="1.00" d=" M 789.57 125.50 C 790.12 124.58 791.93 122.79 792.77 124.33 C 794.77 125.78 792.64 127.82 792.04 129.44 C 791.68 129.49 790.95 129.58 790.59 129.62 C 790.71 130.18 790.95 131.29 791.06 131.84 C 784.87 143.84 778.76 155.95 771.31 167.25 C 769.61 169.78 768.56 172.84 766.17 174.84 C 763.84 174.89 762.76 172.33 763.55 170.40 C 765.46 163.96 769.18 158.28 772.73 152.66 C 778.19 143.51 783.85 134.48 789.57 125.50 Z" />
<path fill="#000000" opacity="1.00" d=" M 390.68 127.62 C 391.40 126.12 392.72 125.43 394.40 125.84 C 395.96 128.83 393.24 131.38 390.96 132.89 C 391.49 132.71 392.54 132.35 393.06 132.17 C 386.95 144.15 380.67 156.09 373.33 167.38 C 371.20 170.70 369.52 174.33 366.84 177.27 C 366.00 176.21 363.89 175.64 364.20 173.98 C 364.61 169.91 366.84 166.31 368.72 162.76 C 375.83 150.92 383.20 139.23 390.68 127.62 Z" />
<path fill="#000000" opacity="1.00" d=" M 586.71 150.25 C 585.22 148.96 584.42 146.37 586.92 145.63 C 591.46 147.62 594.29 151.98 597.61 155.47 C 603.94 162.17 609.16 169.81 615.20 176.77 C 617.29 179.54 619.95 181.96 621.43 185.15 C 620.90 186.05 620.24 186.84 619.45 187.53 C 617.45 185.85 615.53 184.06 613.87 182.04 C 605.09 171.21 595.88 160.74 586.71 150.25 Z" />
<path fill="#000000" opacity="1.00" d=" M 187.50 152.45 C 186.40 151.19 188.26 149.91 188.72 148.83 C 192.90 151.36 195.93 155.24 199.22 158.76 C 206.95 167.06 213.73 176.19 221.38 184.57 C 223.17 186.51 226.20 190.02 222.28 191.56 C 213.68 183.20 206.33 173.68 198.21 164.87 C 194.72 160.67 190.62 156.95 187.50 152.45 Z" />
<path fill="#000000" opacity="1.00" d=" M 812.86 158.88 C 815.13 156.04 816.94 152.77 819.77 150.42 C 820.31 150.92 821.39 151.94 821.93 152.45 C 815.40 163.77 807.53 174.25 799.29 184.36 C 795.92 188.38 792.89 192.71 789.13 196.40 C 788.26 195.59 787.41 194.79 786.56 193.98 C 789.06 189.45 792.45 185.51 795.67 181.50 C 801.48 174.02 807.07 166.38 812.86 158.88 Z" />
<path fill="#000000" opacity="1.00" d=" M 418.29 153.02 C 419.39 151.32 422.76 153.30 421.23 154.86 C 411.86 170.22 400.41 184.22 388.64 197.78 C 387.58 196.96 385.64 196.16 386.36 194.47 C 387.95 191.51 390.25 189.01 392.27 186.33 C 401.27 175.49 409.38 163.92 418.29 153.02 Z" />
<path fill="#000000" opacity="1.00" d=" M 713.05 199.34 C 720.05 199.12 727.07 199.36 734.03 200.17 C 738.61 201.08 743.15 202.27 747.70 203.32 C 751.46 205.97 756.68 208.65 756.82 213.89 C 757.13 218.97 758.14 223.97 759.08 228.96 C 760.00 240.63 759.16 252.34 758.29 263.99 C 761.84 263.96 765.36 264.89 768.92 264.46 C 770.85 264.15 772.78 264.54 774.68 264.91 C 779.21 263.91 783.87 264.11 788.48 264.35 C 788.05 259.56 788.06 254.75 788.12 249.95 C 788.16 247.00 788.37 243.80 790.30 241.41 C 793.33 237.43 801.23 238.63 802.06 243.90 C 802.59 250.20 802.12 256.55 802.25 262.87 C 817.09 260.92 832.08 260.10 847.04 260.95 C 850.87 260.89 854.27 264.26 854.29 268.08 C 853.74 282.64 854.91 297.21 854.49 311.77 C 857.63 313.08 861.59 315.01 861.48 319.02 C 860.49 321.93 857.31 322.81 854.82 323.99 C 854.49 346.50 854.22 369.04 853.82 391.56 C 851.51 454.94 856.49 518.30 856.80 581.67 C 857.30 610.76 857.34 639.87 857.73 668.96 C 857.97 678.99 857.15 689.00 856.47 698.99 C 856.85 717.78 855.86 736.52 856.58 755.31 C 857.78 755.93 859.86 755.60 860.40 757.10 C 860.00 758.72 858.36 759.57 857.33 760.77 C 846.24 759.97 835.06 760.72 823.94 760.65 C 811.27 760.51 798.65 761.81 785.99 761.87 C 738.00 761.79 690.01 761.20 642.03 760.35 C 614.39 760.07 586.74 760.42 559.12 759.57 C 556.95 758.55 556.29 755.73 555.03 753.83 C 562.36 753.11 569.72 753.81 577.07 753.69 C 605.72 753.41 634.40 752.04 663.03 753.73 C 673.69 754.18 684.37 754.24 695.04 754.31 C 716.69 755.20 738.35 754.78 760.01 755.24 C 773.32 755.57 786.63 756.09 799.94 755.31 C 817.77 754.70 835.61 754.43 853.44 755.01 C 851.64 751.99 851.40 748.43 851.27 745.02 C 850.42 727.00 851.10 708.95 850.21 690.95 C 852.02 673.04 850.77 655.01 850.89 637.04 C 850.32 586.33 848.97 535.63 846.69 484.96 C 845.60 460.66 844.95 436.32 845.15 412.00 C 846.18 382.35 846.86 352.62 847.70 322.94 C 840.76 322.71 833.99 321.05 827.04 321.09 C 814.68 320.23 802.30 321.01 789.94 320.76 C 779.67 320.71 769.40 320.77 759.13 320.95 C 759.14 323.36 759.29 325.78 759.65 328.18 C 758.61 330.25 758.03 332.48 757.70 334.77 C 756.63 338.09 754.34 341.02 751.46 342.98 C 750.99 342.30 750.04 340.94 749.57 340.27 C 731.87 342.10 714.17 344.55 696.34 344.50 C 687.23 344.41 678.12 345.03 669.01 344.81 C 666.24 344.79 663.38 343.71 660.74 344.96 C 655.55 343.55 650.56 340.25 648.92 334.88 C 649.57 334.52 650.88 333.78 651.53 333.42 C 650.57 332.10 649.48 330.75 649.47 329.03 C 648.92 323.33 647.44 317.65 648.08 311.89 C 648.30 309.19 647.13 306.62 647.05 303.93 C 646.07 285.97 645.62 267.97 645.84 249.96 C 645.50 238.61 646.02 227.21 647.48 215.94 C 648.50 211.22 649.78 205.79 654.29 203.19 C 659.54 199.81 666.06 200.78 671.99 200.50 C 685.68 200.52 699.38 200.17 713.05 199.34 M 711.03 209.14 C 700.05 210.29 689.01 210.63 677.99 210.82 C 672.13 211.82 666.17 211.08 660.33 210.34 C 657.18 211.85 656.51 215.76 656.05 218.87 C 655.02 229.89 654.38 240.95 654.20 252.02 C 654.59 269.47 654.81 286.93 655.91 304.36 C 655.66 314.16 657.45 324.04 655.87 333.79 C 665.50 337.29 675.97 336.13 686.00 335.86 C 697.62 335.12 709.30 335.64 720.89 334.57 C 730.34 334.07 739.76 331.15 749.23 332.44 C 749.55 322.96 749.65 313.45 749.17 303.97 C 749.48 291.51 746.99 279.04 748.76 266.60 C 750.78 253.90 751.27 240.97 750.63 228.14 C 750.86 223.59 749.02 219.26 748.77 214.74 C 749.48 214.63 750.90 214.42 751.61 214.31 C 751.49 213.91 751.26 213.11 751.14 212.71 C 745.75 213.31 740.28 212.35 735.34 210.13 C 727.28 209.17 719.13 208.15 711.03 209.14 M 794.31 244.85 C 793.57 251.16 793.91 257.56 794.15 263.89 C 794.65 263.75 795.66 263.48 796.16 263.34 C 796.28 257.06 796.56 250.78 796.29 244.50 C 795.80 244.59 794.80 244.77 794.31 244.85 M 802.64 273.97 C 802.51 286.35 802.42 298.73 802.11 311.10 C 817.44 310.47 832.77 310.84 848.08 311.83 C 848.03 298.21 848.07 284.57 847.44 270.96 C 832.52 272.15 817.44 271.37 802.64 273.97 M 757.00 274.54 C 757.36 286.81 759.07 299.04 758.72 311.32 C 770.88 311.81 783.05 311.04 795.21 311.19 C 795.17 299.05 795.22 286.92 795.44 274.79 C 782.64 275.18 769.71 276.68 757.00 274.54 Z" />
<path fill="#000000" opacity="1.00" d=" M 847.96 201.75 C 849.13 201.45 850.67 199.89 851.75 201.18 C 852.94 204.18 849.30 205.12 847.43 206.41 C 836.21 213.15 824.19 218.43 811.85 222.74 C 810.02 223.62 809.07 221.77 808.65 220.35 C 812.78 218.02 817.25 216.38 821.62 214.53 C 830.61 210.73 839.38 206.42 847.96 201.75 Z" />
<path fill="#000000" opacity="1.00" d=" M 271.92 203.32 C 286.63 203.34 301.34 203.14 316.02 202.15 C 323.29 201.60 330.58 201.97 337.85 202.52 C 342.87 203.22 347.70 205.02 352.84 205.02 C 356.55 208.00 362.78 208.42 364.14 213.76 C 365.08 218.92 365.16 224.24 366.71 229.30 C 368.09 242.00 367.47 254.89 366.08 267.55 C 375.39 268.06 384.69 267.50 394.01 267.40 C 393.50 260.65 392.69 253.71 394.24 247.05 C 395.39 242.69 401.02 240.82 404.74 243.19 C 406.85 244.22 407.49 246.71 407.50 248.88 C 407.71 254.57 407.45 260.26 407.57 265.95 C 422.17 263.40 437.09 262.83 451.88 263.65 C 455.44 263.69 458.52 266.53 459.00 270.03 C 458.70 284.89 459.93 299.76 459.55 314.62 C 462.44 315.87 465.86 317.53 466.29 321.07 C 465.70 324.25 462.47 325.64 459.76 326.59 C 459.46 355.38 459.14 384.18 458.64 412.97 C 457.71 466.69 461.18 520.36 461.92 574.04 C 461.98 595.70 462.85 617.35 462.83 639.01 C 462.87 656.65 463.88 674.31 462.57 691.92 C 461.51 701.93 462.50 711.99 461.97 722.03 C 462.18 733.32 461.40 744.65 462.26 755.95 C 463.40 756.77 465.43 756.86 465.88 758.38 C 465.05 759.48 464.11 760.49 463.21 761.55 C 458.49 761.09 453.75 761.48 449.03 761.45 C 437.01 761.67 424.97 761.49 412.96 761.98 C 389.72 763.60 366.41 762.66 343.14 762.48 C 341.10 762.56 339.06 762.58 337.04 762.23 C 324.39 762.48 311.68 762.09 299.01 761.86 C 278.04 761.75 257.08 761.85 236.11 761.47 C 212.70 761.33 189.29 761.60 165.88 761.07 C 162.50 761.18 161.31 757.40 160.00 754.98 C 168.99 754.51 177.99 755.03 186.98 754.78 C 203.02 754.42 219.06 753.82 235.09 753.99 C 269.45 754.58 303.81 755.25 338.17 755.71 C 354.46 755.60 370.74 756.29 387.02 756.68 C 410.86 756.07 434.71 755.07 458.56 755.93 C 456.33 751.56 456.85 746.57 456.59 741.84 C 456.01 731.20 456.45 720.56 456.09 709.92 C 456.44 700.87 455.08 691.82 456.38 682.81 C 457.02 664.21 455.98 645.61 456.15 627.01 C 454.95 581.31 453.99 535.62 452.14 489.95 C 451.35 463.98 450.12 437.99 450.60 412.01 C 451.76 383.20 452.16 354.33 452.73 325.49 C 448.14 325.46 443.61 324.77 439.08 324.18 C 428.75 323.49 418.40 323.35 408.06 323.74 C 394.54 323.62 381.00 323.63 367.47 323.93 C 368.13 331.65 366.23 340.32 359.90 345.41 C 359.17 344.43 358.45 343.45 357.74 342.47 C 347.21 343.65 336.63 344.41 326.10 345.62 C 315.11 346.67 304.06 346.62 293.05 346.63 C 285.72 346.78 278.32 347.36 271.04 346.32 C 268.23 347.76 265.52 346.12 263.02 344.88 C 259.88 343.14 257.50 340.22 256.46 336.78 C 257.15 336.44 258.54 335.77 259.23 335.43 C 258.32 334.02 256.87 332.78 256.90 330.96 C 256.21 324.80 255.06 318.57 255.83 312.36 C 254.45 307.35 254.79 302.10 254.54 296.97 C 253.81 280.05 254.07 263.09 253.54 246.17 C 253.97 236.97 254.37 227.73 255.63 218.59 C 256.38 214.84 257.03 210.79 259.72 207.87 C 262.75 204.50 267.50 203.21 271.92 203.32 M 279.07 213.40 C 275.28 213.30 271.48 213.15 267.75 212.46 C 265.76 214.40 264.15 216.80 263.97 219.66 C 263.33 231.77 262.43 243.87 262.36 256.00 C 262.74 272.99 262.73 289.99 263.59 306.97 C 263.34 316.56 264.54 326.22 263.12 335.75 C 272.06 339.17 281.74 338.30 291.10 338.04 C 307.05 337.37 323.10 337.96 338.88 335.31 C 345.11 335.26 351.49 333.10 357.55 335.40 C 357.84 326.27 358.18 317.11 357.60 307.99 C 357.98 295.32 355.36 282.68 357.01 270.01 C 358.88 256.30 359.30 242.42 358.58 228.61 C 357.87 224.66 357.08 220.72 356.24 216.79 C 357.25 216.49 359.26 215.88 360.27 215.57 C 357.92 214.38 355.41 215.05 352.96 215.30 C 348.48 215.13 344.39 213.10 340.07 212.17 C 332.07 211.22 323.99 210.30 315.94 211.23 C 303.70 212.74 291.33 212.35 279.07 213.40 M 399.34 249.94 C 399.36 255.88 399.07 261.86 399.85 267.77 C 400.90 266.79 401.93 265.69 401.69 264.13 C 401.62 258.83 402.09 253.45 401.55 248.20 C 401.46 245.92 398.78 248.84 399.34 249.94 M 408.11 276.97 C 407.96 289.33 407.94 301.70 407.66 314.06 C 422.81 313.04 437.99 313.64 453.11 314.82 C 453.07 301.13 452.95 287.42 452.46 273.74 C 446.30 274.32 440.11 274.22 433.94 274.42 C 425.27 274.52 416.68 275.78 408.11 276.97 M 365.18 277.98 C 365.66 290.09 367.27 302.16 366.93 314.29 C 378.24 314.39 389.54 314.10 400.85 314.09 C 400.76 302.00 400.96 289.90 401.08 277.81 C 389.13 278.40 377.10 279.48 365.18 277.98 Z" />
<path fill="#000000" opacity="1.00" d=" M 451.44 202.53 C 452.92 201.65 454.40 202.32 454.67 204.06 C 453.39 205.74 451.45 206.67 449.70 207.75 C 437.77 214.77 425.06 220.49 411.92 224.83 C 408.95 222.94 411.87 220.67 414.03 220.11 C 426.80 214.91 439.25 208.96 451.44 202.53 Z" />
<path fill="#000000" opacity="1.00" d=" M 561.37 203.56 C 564.14 202.66 567.15 203.25 570.01 203.30 C 574.63 203.76 579.35 203.85 583.86 205.08 C 585.82 205.37 585.77 208.64 583.89 208.99 C 579.29 209.67 574.62 208.86 570.01 208.77 C 566.86 208.50 563.49 208.85 560.62 207.32 C 559.79 206.14 559.79 204.11 561.37 203.56 Z" />
<path fill="#000000" opacity="1.00" d=" M 168.41 206.43 C 173.88 205.94 179.37 206.69 184.82 207.18 C 187.00 207.52 189.44 207.56 191.21 209.05 C 192.12 211.18 189.96 212.74 187.98 212.33 C 181.58 211.96 175.09 212.13 168.75 211.13 C 166.05 211.05 165.60 206.74 168.41 206.43 Z" />
<path fill="#000000" opacity="1.00" d=" M 295.43 244.10 C 298.50 234.75 309.42 228.77 318.92 231.54 C 325.22 232.50 331.85 234.93 335.69 240.32 C 341.04 247.35 342.58 257.89 337.64 265.54 C 333.55 272.52 324.83 275.65 317.06 274.54 C 312.39 273.74 308.44 270.93 304.21 268.99 C 300.15 271.77 296.35 267.31 295.24 263.64 C 293.24 257.36 293.37 250.36 295.43 244.10 M 308.07 244.75 C 306.08 249.41 301.29 254.23 304.48 259.54 C 307.67 261.88 311.49 263.21 315.06 264.89 C 319.30 266.90 324.48 266.06 328.12 263.19 C 334.11 258.64 334.09 248.18 327.97 243.77 C 324.90 241.99 321.14 242.52 317.77 241.93 C 314.65 243.25 311.37 244.05 308.07 244.75 Z" />
<path fill="#000000" opacity="1.00" d=" M 606.13 237.11 C 611.33 232.06 620.40 233.76 624.52 239.33 C 628.84 244.68 629.61 251.76 630.60 258.32 C 634.46 258.44 638.32 258.29 642.19 258.38 C 642.72 261.71 642.79 265.09 642.96 268.46 C 632.47 268.47 622.08 269.81 611.65 270.55 C 613.42 280.58 614.77 290.79 614.41 300.99 C 614.27 306.65 607.19 310.75 602.35 307.75 C 598.85 304.95 598.23 300.16 598.00 295.98 C 597.44 286.95 596.49 277.93 596.20 268.89 C 583.48 268.93 570.78 268.11 558.07 268.22 C 557.99 283.46 557.56 298.73 558.79 313.94 C 584.53 313.09 610.28 312.96 636.00 311.98 C 638.31 312.00 641.79 311.52 642.64 314.38 C 643.31 316.13 642.88 318.62 640.64 318.75 C 623.23 321.38 605.56 321.27 587.99 321.81 C 578.29 322.01 568.55 321.50 558.88 322.57 C 560.23 330.97 559.84 339.53 559.87 348.01 C 559.81 366.35 558.88 384.66 558.09 402.97 C 557.61 430.00 558.21 457.04 557.78 484.08 C 557.25 519.41 559.58 554.67 559.94 589.99 C 560.96 620.32 561.94 650.65 562.16 680.99 C 562.68 695.97 562.53 710.96 562.30 725.94 C 562.09 734.20 562.06 742.63 559.50 750.57 C 559.13 750.69 558.40 750.94 558.03 751.07 C 555.98 748.47 555.78 745.08 555.41 741.94 C 554.23 732.16 554.62 722.29 554.26 712.47 C 554.72 701.94 553.72 691.40 553.57 680.86 C 553.25 655.20 552.89 629.55 552.42 603.91 C 551.19 594.95 552.84 585.89 551.43 576.95 C 552.00 571.00 551.30 565.02 551.25 559.07 C 551.15 539.36 550.05 519.73 549.85 500.02 C 549.72 489.03 550.11 478.03 549.79 467.05 C 550.31 460.40 550.45 453.70 549.82 447.06 C 550.20 429.73 550.21 412.36 550.45 395.02 C 550.46 377.02 551.44 359.02 551.24 341.01 C 551.47 335.39 550.38 329.50 552.77 324.19 C 550.74 323.36 548.40 322.32 548.15 319.83 C 547.42 317.03 550.75 316.39 552.45 315.16 C 550.83 300.49 551.18 285.71 551.86 270.99 C 552.44 267.82 549.35 265.28 550.17 262.11 C 550.88 260.13 552.81 258.70 554.95 258.86 C 568.65 258.99 582.35 259.45 596.06 259.37 C 596.89 251.13 600.27 243.04 606.13 237.11 M 610.67 259.33 C 613.72 259.26 616.77 259.20 619.82 259.10 C 619.18 254.97 618.39 250.73 615.97 247.23 C 612.83 250.54 611.39 254.92 610.67 259.33 Z" />
<path fill="#000000" opacity="1.00" d=" M 214.03 240.12 C 219.18 235.44 227.62 237.06 231.89 242.13 C 236.54 247.66 237.53 255.15 238.39 262.08 C 242.42 262.27 246.45 261.99 250.47 261.72 C 251.03 265.15 251.22 268.63 251.20 272.11 C 240.74 272.52 230.30 273.21 219.88 274.27 C 221.20 283.12 222.23 292.04 222.38 300.99 C 222.31 304.04 222.29 307.68 219.66 309.77 C 216.96 312.09 212.34 313.34 209.41 310.75 C 206.20 307.81 205.74 303.15 205.44 299.06 C 205.06 290.11 204.24 281.18 203.86 272.23 C 191.09 272.47 178.31 271.92 165.54 272.11 C 165.11 287.37 165.21 302.63 165.92 317.88 C 189.29 317.14 212.68 316.56 236.04 315.50 C 240.00 315.48 243.99 315.03 247.94 315.48 C 251.09 315.85 252.24 322.41 248.15 322.13 C 220.97 325.75 193.46 324.56 166.13 325.99 C 168.05 353.64 166.05 381.36 165.10 409.00 C 164.65 436.67 165.34 464.34 164.73 492.01 C 164.12 522.00 165.46 551.97 165.81 581.96 C 165.89 597.98 166.76 613.99 166.96 630.01 C 167.88 652.65 167.67 675.32 168.13 697.98 C 167.84 712.61 168.35 727.28 166.99 741.87 C 166.35 745.62 166.20 749.64 164.13 752.97 C 163.23 751.73 162.14 750.55 161.95 748.98 C 159.74 740.16 160.25 730.99 160.10 721.98 C 160.13 705.97 159.50 689.97 159.28 673.95 C 159.30 658.28 159.04 642.60 158.49 626.94 C 159.13 614.29 157.50 601.64 157.95 588.99 C 157.09 567.66 157.54 546.29 156.59 524.98 C 156.22 504.38 156.24 483.76 156.69 463.15 C 156.91 458.41 156.93 453.65 156.43 448.93 C 157.13 418.31 157.26 387.68 158.03 357.06 C 158.33 349.02 158.01 340.97 158.17 332.93 C 158.21 330.97 159.29 329.28 160.04 327.55 C 158.14 326.86 155.58 326.25 155.25 323.86 C 154.72 321.07 157.88 320.13 159.58 318.73 C 158.26 304.17 158.41 289.54 159.38 274.96 C 160.17 271.63 156.20 268.99 157.62 265.69 C 158.30 263.87 159.98 262.33 162.02 262.49 C 175.95 262.32 189.87 262.98 203.80 262.69 C 204.52 254.32 207.85 245.94 214.03 240.12 M 223.70 250.34 C 221.00 253.95 219.11 258.18 219.03 262.74 C 221.98 262.81 224.94 262.76 227.90 262.61 C 227.15 258.35 226.36 253.89 223.70 250.34 Z" />
<path fill="#000000" opacity="1.00" d=" M 726.73 248.65 C 728.79 245.78 732.22 243.28 735.94 244.31 C 741.69 245.86 744.12 253.78 740.42 258.42 C 726.96 278.49 711.29 297.41 692.07 312.23 C 688.76 315.03 683.83 315.04 680.13 313.03 C 677.42 311.37 675.74 308.57 674.15 305.92 C 668.51 296.07 662.92 286.18 658.01 275.94 C 656.67 273.05 655.73 269.43 657.53 266.52 C 659.45 263.20 664.33 262.28 667.35 264.67 C 670.75 267.44 672.63 271.55 674.81 275.26 C 678.38 281.94 682.34 288.40 686.18 294.93 C 692.18 289.37 698.39 284.01 703.77 277.83 C 712.23 268.76 719.19 258.46 726.73 248.65 Z" />
<path fill="#000000" opacity="1.00" d=" M 298.87 276.66 C 303.72 274.92 308.98 276.60 313.51 278.55 C 322.20 282.77 324.99 295.90 317.75 302.71 C 312.34 308.16 303.60 307.31 297.50 303.51 C 296.05 304.46 294.25 305.60 292.56 304.47 C 288.70 302.11 288.20 297.06 288.19 292.98 C 287.99 286.08 292.17 278.90 298.87 276.66 M 299.50 289.16 C 300.22 291.98 300.42 295.24 302.58 297.43 C 307.88 300.67 316.83 295.69 314.61 289.06 C 313.79 285.23 309.05 285.84 306.11 285.11 C 303.98 286.58 301.92 288.18 299.50 289.16 Z" />
<path fill="#000000" opacity="1.00" d=" M 605.07 392.22 C 613.26 390.50 621.68 390.81 630.00 390.78 C 657.42 389.93 684.69 392.52 712.08 393.30 C 726.71 393.61 741.29 394.70 755.92 394.79 C 761.56 395.59 767.27 394.70 772.89 395.63 C 777.94 394.50 782.75 397.05 787.81 396.69 C 798.12 398.49 808.96 395.43 818.99 399.09 C 823.47 400.61 825.22 405.69 824.90 410.05 C 824.32 417.15 822.27 424.05 821.75 431.17 C 820.65 467.11 821.06 503.12 818.34 539.00 C 817.02 555.64 817.03 572.34 816.17 589.01 C 815.54 603.35 815.63 617.79 812.97 631.95 C 812.23 635.21 811.14 638.49 808.88 641.04 C 807.60 638.90 806.88 636.48 807.09 633.98 C 807.85 594.31 808.80 554.64 811.17 515.03 C 811.25 504.39 812.05 493.77 811.86 483.14 C 812.94 467.79 812.90 452.40 812.84 437.03 C 813.38 429.37 813.95 421.69 815.76 414.20 C 816.19 411.32 817.37 406.71 813.89 405.29 C 809.91 404.81 805.93 405.85 801.95 405.95 C 792.59 406.92 783.34 404.56 774.01 404.33 C 767.65 404.32 761.31 403.49 754.95 403.83 C 753.00 403.96 751.06 403.76 749.15 403.45 C 744.48 404.03 739.76 403.31 735.08 403.30 C 732.48 403.43 729.81 403.69 727.37 402.64 C 725.90 402.86 724.43 403.14 722.97 403.10 C 701.98 402.22 680.96 402.04 659.99 400.88 C 643.12 400.76 626.17 399.67 609.38 401.73 C 608.60 424.50 606.85 447.22 605.64 469.97 C 603.66 498.21 604.40 526.54 603.27 554.80 C 602.84 569.26 600.33 583.56 599.82 598.03 C 598.93 609.72 599.14 622.40 592.63 632.64 C 590.42 627.69 590.71 622.16 590.98 616.89 C 591.87 602.36 591.23 587.75 592.72 573.26 C 593.83 554.21 594.36 535.14 594.46 516.06 C 594.80 480.65 597.29 445.33 598.57 409.96 C 598.70 406.29 598.53 402.60 599.06 398.96 C 599.44 395.75 601.98 393.03 605.07 392.22 Z" />
<path fill="#000000" opacity="1.00" d=" M 241.04 396.09 C 247.63 396.35 254.33 394.83 260.83 396.09 C 267.53 395.03 274.29 396.02 281.02 395.82 C 283.13 395.69 285.23 396.00 287.21 396.75 C 297.41 395.25 307.73 396.82 317.97 397.06 C 334.02 397.48 350.01 399.24 366.06 399.32 C 375.74 399.99 385.44 399.90 395.11 399.03 C 403.28 398.69 411.59 398.32 419.58 400.40 C 424.54 402.37 426.11 408.25 426.32 413.08 C 426.38 420.44 424.31 427.64 424.19 435.01 C 423.99 450.41 427.67 465.58 427.10 481.00 C 427.29 485.04 426.91 489.11 425.16 492.83 C 424.83 497.02 421.97 500.32 419.11 503.14 C 418.17 502.13 417.24 501.13 416.28 500.16 C 412.38 501.66 408.16 501.61 404.05 501.79 C 384.08 502.24 364.13 500.67 344.16 500.87 C 318.55 500.01 292.94 499.90 267.37 498.94 C 265.53 498.92 263.69 498.78 261.90 498.38 C 261.42 498.54 260.46 498.86 259.98 499.02 C 248.39 498.38 236.78 498.91 225.18 498.67 C 217.83 499.06 210.33 498.04 203.09 499.71 C 199.88 497.01 199.50 492.82 199.90 488.92 C 196.57 472.10 201.49 454.97 199.61 438.03 C 199.20 434.04 199.46 430.02 199.18 426.03 C 199.20 418.43 197.57 410.74 199.27 403.23 C 200.54 400.10 203.61 397.67 206.86 396.91 C 218.22 395.84 229.64 396.18 241.04 396.09 M 260.15 405.65 C 243.14 405.18 226.06 405.02 209.06 406.22 C 209.91 425.17 209.56 444.25 207.38 463.12 C 206.22 471.75 206.19 480.52 204.55 489.08 C 210.70 489.37 216.83 488.77 222.97 488.63 C 234.31 488.80 245.64 488.25 256.98 488.19 C 283.67 488.45 310.36 488.36 337.02 490.12 C 355.42 490.36 373.78 491.77 392.06 493.73 C 400.24 494.46 408.50 493.65 416.65 494.74 C 417.80 488.21 417.11 481.57 417.73 475.00 C 417.02 463.93 415.96 452.89 415.20 441.83 C 414.48 435.52 414.18 429.06 415.38 422.79 C 415.74 419.45 415.53 416.00 416.95 412.86 C 416.03 410.88 415.18 408.87 414.48 406.81 C 400.60 406.10 386.84 408.66 372.98 408.76 C 361.65 408.94 350.33 408.71 339.03 407.92 C 324.01 407.82 309.02 406.85 294.00 406.79 C 284.36 406.12 274.70 405.70 265.02 405.62 C 263.62 405.69 262.29 405.42 261.02 404.82 C 260.81 405.03 260.37 405.44 260.15 405.65 Z" />
<path fill="#000000" opacity="1.00" d=" M 229.51 444.51 C 234.28 437.75 242.52 432.86 250.97 433.90 C 256.11 434.29 261.43 436.05 264.99 439.93 C 268.25 443.56 269.42 448.42 270.68 453.01 C 289.08 447.38 307.84 442.53 327.04 440.63 C 329.69 440.00 330.89 442.89 331.47 444.92 C 331.14 447.66 327.91 447.97 325.86 448.92 C 315.42 453.59 303.97 455.20 292.97 458.14 C 285.50 459.80 278.25 462.30 270.78 463.90 C 270.11 471.73 264.50 478.20 257.78 481.80 C 251.78 484.89 244.66 485.36 238.14 483.82 C 234.12 482.66 231.43 479.25 228.32 476.70 C 224.04 473.14 222.58 467.30 222.43 461.96 C 222.27 455.42 225.91 449.67 229.51 444.51 M 244.34 443.19 C 237.17 446.33 230.58 452.81 230.05 460.97 C 230.15 468.07 236.59 472.54 242.05 475.87 C 248.64 473.58 256.88 472.17 260.45 465.41 C 263.57 460.47 262.09 454.38 261.56 448.95 C 261.54 445.92 258.36 444.74 255.98 443.90 C 252.28 442.69 248.07 441.40 244.34 443.19 Z" />
<path fill="#000000" opacity="1.00" d=" M 699.40 466.76 C 707.72 464.91 716.84 465.33 724.42 469.52 C 733.84 474.43 742.54 482.93 743.96 493.92 C 744.65 504.61 741.25 515.88 733.37 523.41 C 728.14 529.05 720.71 532.33 713.04 532.62 C 702.26 532.93 690.29 531.60 682.03 523.96 C 675.68 518.38 670.10 510.81 670.10 502.01 C 669.23 491.47 674.26 480.96 682.46 474.43 C 687.10 470.08 693.43 468.40 699.40 466.76 Z" />
<path fill="#000000" opacity="1.00" d=" M 199.29 547.47 C 200.60 543.55 204.80 540.66 208.95 540.94 C 223.95 540.11 238.99 541.32 253.99 540.64 C 256.02 540.53 258.09 540.44 260.04 541.12 C 267.01 540.24 274.02 540.98 281.02 540.85 C 283.06 540.78 285.06 541.25 287.06 541.60 C 300.29 540.38 313.58 542.05 326.83 542.20 C 340.89 542.87 354.92 544.02 369.01 543.91 C 385.77 545.40 402.61 540.54 419.25 543.85 C 424.57 545.66 426.18 551.96 426.38 556.98 C 426.26 565.36 423.83 573.59 424.26 582.01 C 424.74 598.30 428.48 614.52 426.69 630.85 C 425.99 633.13 425.07 635.35 424.50 637.68 C 423.80 640.99 421.14 643.30 419.02 645.75 C 418.07 644.84 417.14 643.95 416.21 643.05 C 413.89 643.76 411.51 644.29 409.08 644.30 C 390.13 645.26 371.16 643.72 352.20 643.69 C 343.79 643.84 335.38 643.31 326.97 643.16 C 315.98 642.69 304.98 642.67 293.98 642.63 C 292.39 642.62 290.83 642.29 289.27 642.04 C 286.84 642.58 284.37 642.48 281.94 642.11 C 262.62 641.06 243.27 641.55 223.94 641.24 C 216.92 641.60 209.76 640.60 202.84 642.23 C 201.28 640.13 199.70 637.76 200.10 635.01 C 200.57 631.59 199.47 628.36 198.95 625.05 C 198.57 615.36 199.29 605.66 200.07 596.01 C 200.55 587.35 199.22 578.76 199.22 570.11 C 199.25 562.56 197.75 554.96 199.29 547.47 M 209.08 550.28 C 209.95 561.84 209.24 573.43 209.04 585.00 C 208.99 594.44 207.49 603.77 206.76 613.16 C 206.11 619.41 205.94 625.72 204.74 631.91 C 212.84 632.42 220.93 631.30 229.03 631.66 C 249.04 631.30 269.07 630.82 289.05 631.85 C 309.73 631.49 330.36 633.31 351.02 633.71 C 364.68 634.21 378.30 635.31 391.90 636.71 C 400.05 637.48 408.30 636.46 416.40 637.80 C 417.87 631.30 417.06 624.59 417.76 618.01 C 417.03 610.19 416.82 602.32 415.79 594.52 C 415.66 585.99 413.88 577.46 415.07 568.94 C 415.87 564.73 415.82 560.41 416.72 556.22 C 416.12 554.33 415.28 552.53 414.71 550.65 C 402.10 550.12 389.60 552.44 377.03 552.94 C 367.13 553.45 357.21 553.41 347.31 553.06 C 339.89 552.22 332.42 552.80 324.99 552.28 C 314.35 552.09 303.70 551.71 293.06 551.70 C 291.07 551.71 289.11 551.37 287.17 551.05 C 283.10 551.74 279.04 550.69 274.96 550.75 C 267.67 550.72 260.40 550.24 253.10 550.26 C 238.43 550.22 223.74 549.32 209.08 550.28 Z" />
<path fill="#000000" opacity="1.00" d=" M 225.44 594.45 C 229.27 586.83 235.43 579.65 244.03 577.57 C 250.87 576.37 258.65 577.23 264.10 581.89 C 268.14 585.42 269.32 590.90 270.72 595.84 C 289.12 590.25 307.87 585.38 327.05 583.48 C 329.74 582.89 331.03 585.71 331.43 587.85 C 331.24 590.68 327.89 590.91 325.83 591.86 C 315.09 596.41 303.46 598.12 292.27 601.22 C 285.15 602.93 278.14 605.07 270.99 606.66 C 269.88 619.99 255.66 628.78 243.07 627.56 C 237.64 627.58 233.07 624.26 229.40 620.59 C 221.75 614.51 220.70 602.63 225.44 594.45 M 237.06 591.11 C 232.96 595.00 229.14 600.62 230.64 606.54 C 232.19 612.48 237.56 616.11 242.65 618.88 C 248.61 616.57 255.89 615.46 259.83 609.88 C 264.03 604.27 262.19 596.83 261.41 590.46 C 259.48 587.35 255.34 586.81 252.07 585.92 C 246.48 584.33 241.20 587.74 237.06 591.11 Z" />
<path fill="#000000" opacity="1.00" d=" M 599.69 630.74 C 602.42 629.13 605.73 628.99 608.82 628.68 C 632.87 627.56 656.95 628.44 681.01 628.15 C 692.97 628.36 704.97 628.00 716.95 628.59 C 731.96 629.38 747.13 628.11 762.02 630.60 C 771.06 630.44 779.98 632.76 789.05 632.59 C 792.69 632.47 796.48 632.71 799.77 634.45 C 799.86 635.88 799.92 637.32 799.97 638.78 C 790.62 642.17 780.53 640.53 770.85 640.28 C 743.01 638.29 715.04 638.46 687.14 637.51 C 659.11 635.59 630.91 636.69 602.92 634.04 C 601.30 634.07 597.38 632.53 599.69 630.74 Z" />
<path fill="#000000" opacity="1.00" d=" M 281.04 817.29 C 297.94 815.12 315.00 815.74 331.97 816.13 C 338.66 816.57 345.36 816.47 352.04 817.18 C 358.03 816.97 363.93 818.54 369.94 818.22 C 399.27 818.59 428.61 819.23 457.95 819.33 C 475.31 818.70 492.67 818.10 510.03 817.71 C 518.36 818.16 526.67 817.07 535.00 817.14 C 545.00 816.48 555.01 816.86 565.02 816.78 C 581.02 816.63 597.01 816.59 613.02 816.45 C 624.36 816.76 635.64 818.58 647.02 818.17 C 662.35 818.57 677.70 819.14 693.00 817.85 C 708.35 816.27 723.81 816.88 739.19 817.52 C 765.12 818.12 791.04 818.23 816.99 818.18 C 832.61 818.41 848.25 818.78 863.87 818.16 C 875.89 817.24 887.96 817.55 900.00 816.86 C 902.97 816.85 906.32 816.37 908.90 818.23 C 910.25 820.45 908.92 824.62 905.88 824.40 C 893.96 825.47 881.98 825.83 870.03 826.52 C 855.02 827.44 839.99 826.87 824.98 826.35 C 792.48 826.13 759.96 826.33 727.50 824.63 C 719.71 824.89 711.89 824.60 704.10 824.76 C 691.71 825.78 679.30 826.77 666.86 826.65 C 665.85 826.53 664.85 826.38 663.87 826.21 C 661.69 826.68 659.47 826.53 657.29 826.19 C 650.82 826.42 644.36 825.83 637.90 825.84 C 631.24 825.82 624.68 824.54 618.04 824.30 C 594.38 823.71 570.71 823.97 547.05 823.50 C 536.63 823.45 526.22 823.92 515.80 823.90 C 512.25 825.96 507.99 825.56 504.06 825.98 C 487.70 826.63 471.37 828.06 454.99 827.79 C 445.96 827.80 436.96 827.13 427.94 827.07 C 402.61 826.48 377.26 827.14 351.97 825.52 C 335.34 824.66 318.67 824.10 302.01 824.17 C 284.34 823.91 266.80 827.35 249.12 826.18 C 238.41 825.84 227.66 825.67 216.92 825.54 C 199.30 824.22 181.62 824.90 163.96 824.71 C 141.97 824.80 119.97 824.52 97.98 825.16 C 96.18 825.05 93.59 825.59 92.59 823.64 C 91.40 822.08 92.35 819.78 94.11 819.21 C 96.91 818.09 100.00 818.37 102.95 818.24 C 130.28 817.21 157.63 817.76 184.97 817.14 C 200.04 816.70 215.07 818.12 230.13 817.85 C 247.10 818.53 264.12 819.03 281.04 817.29 Z" />
</g>
</g></svg>