<svg xmlns="http://www.w3.org/2000/svg" version="1.1" viewBox="0.00 0.00 1024.00 1024.00">
<g id="Parent-Group"><g fill="rgba(0,0,0,0)" id="Group-rgba(0,0,0,0)">
<path d="   M 1024.00 0.00   L 1024.00 829.70   L 807.32 828.95   A 0.48 0.48 0.0 0 1 806.84 828.47   L 806.77 817.01   A 0.61 0.61 0.0 0 1 807.37 816.40   L 928.58 815.51   Q 929.26 815.50 929.29 814.83   L 929.33 813.92   A 1.67 1.67 0.0 0 0 927.66 812.17   L 790.79 812.18   Q 789.89 812.18 789.95 811.28   L 790.12 808.78   Q 790.18 807.85 791.12 807.84   Q 807.73 807.79 821.60 806.64   A 1.89 1.82 24.7 0 0 822.49 806.33   Q 823.42 805.70 823.51 804.78   A 0.83 0.83 0.0 0 0 822.66 803.86   L 790.76 804.71   Q 790.04 804.72 790.04 804.00   L 790.05 801.26   A 0.70 0.70 0.0 0 1 790.75 800.57   C 834.60 800.46 879.45 800.76 922.00 800.49   Q 924.79 800.47 927.25 800.33   Q 928.49 800.25 928.44 799.01   L 928.42 798.62   Q 928.36 797.06 926.80 797.06   L 878.93 796.97   Q 878.39 796.97 878.45 796.42   L 882.85 760.87   Q 882.91 760.39 883.39 760.37   L 887.05 760.24   Q 887.82 760.21 887.83 759.44   L 887.91 751.69   Q 887.92 750.93 887.39 750.37   L 886.95 749.91   Q 886.61 749.56 886.60 749.07   L 886.45 739.15   A 1.54 1.54 0.0 0 0 884.91 737.63   L 825.15 737.67   Q 823.21 737.67 823.21 739.61   L 823.18 749.09   Q 823.18 749.69 822.67 750.01   L 822.12 750.35   Q 821.64 750.66 821.64 751.24   L 821.73 758.70   A 1.38 1.37 3.6 0 0 822.93 760.05   L 825.43 760.39   Q 825.99 760.47 826.06 761.03   L 830.84 796.94   A 0.16 0.16 0.0 0 1 830.67 797.12   L 824.65 796.97   Q 824.47 796.97 824.43 796.80   Q 814.87 762.43 801.27 724.49   Q 795.09 707.22 788.48 689.15   A 7.27 7.25 37.4 0 1 788.06 686.06   C 790.25 658.65 788.95 630.62 776.49 606.27   C 769.27 592.19 758.64 583.19 743.19 580.37   Q 742.13 580.18 741.54 579.23   Q 730.90 562.10 712.13 555.71   C 697.03 550.57 680.45 548.34 664.59 546.93   Q 647.04 545.37 630.25 544.58   A 2.28 2.26 -14.4 0 1 628.40 543.49   Q 624.85 537.62 620.29 530.99   C 618.14 527.85 617.07 524.34 615.68 520.88   Q 614.71 518.46 614.88 515.92   Q 615.44 507.57 615.91 498.75   Q 615.94 498.14 616.55 498.08   Q 631.37 496.63 638.06 483.43   C 644.62 470.47 645.54 452.71 640.07 439.41   A 1.20 1.20 0.0 0 1 640.23 438.24   Q 642.62 435.12 644.27 431.65   C 651.69 415.95 654.88 396.71 651.02 379.72   C 647.14 362.60 634.17 348.78 618.98 340.20   Q 611.50 335.98 603.39 335.11   A 0.96 0.95 -11.1 0 1 602.64 334.61   C 594.53 319.88 578.83 310.53 562.73 305.71   C 547.12 301.04 530.75 299.68 514.32 299.79   C 484.09 299.99 449.04 305.74 428.15 329.49   Q 413.75 345.86 415.22 367.53   C 416.17 381.54 423.08 395.45 434.60 403.68   A 1.73 1.72 25.0 0 1 435.27 405.52   Q 431.98 418.40 430.08 433.06   Q 429.94 434.15 428.84 434.03   Q 424.38 433.56 420.24 436.97   A 1.57 1.56 45.9 0 1 418.20 436.93   C 416.18 435.13 413.79 433.07 411.21 432.19   Q 399.20 428.06 390.65 436.62   Q 390.24 437.03 389.67 437.04   Q 379.67 437.33 374.78 444.65   Q 374.32 445.34 373.50 445.45   C 340.02 449.75 335.54 501.24 331.95 526.21   A 0.83 0.83 0.0 0 1 330.76 526.83   C 327.21 525.04 326.35 528.40 325.37 530.72   Q 294.82 603.08 279.27 678.02   C 273.76 704.55 270.17 732.53 272.69 758.91   Q 274.13 773.94 280.11 785.80   C 298.53 822.30 348.83 800.75 373.89 786.25   Q 391.54 776.05 406.55 765.15   A 0.66 0.66 0.0 0 1 407.60 765.63   Q 409.20 785.19 411.96 805.03   Q 413.10 813.21 415.20 822.16   Q 415.68 824.18 415.19 829.49   Q 415.15 829.91 414.73 829.91   L 219.66 829.82   Q 218.73 829.82 218.86 828.90   L 229.58 750.96   A 0.62 0.61 4.0 0 0 228.97 750.26   L 205.46 750.26   A 0.40 0.40 0.0 0 1 205.07 749.79   Q 211.03 716.82 217.61 682.50   Q 218.32 678.75 217.98 675.81   C 217.65 672.91 217.51 669.00 216.42 666.32   C 215.83 664.88 214.00 664.78 213.18 666.06   Q 210.59 670.13 208.03 674.05   Q 206.67 676.14 206.21 678.55   Q 199.61 713.48 192.80 749.67   A 0.57 0.57 0.0 0 1 192.25 750.13   L 163.78 750.28   A 1.52 1.52 0.0 0 1 162.34 749.25   Q 153.21 722.27 144.45 697.22   Q 144.01 695.94 142.62 696.00   Q 141.99 696.03 141.80 697.51   A 1.10 1.05 -53.2 0 0 141.86 698.01   L 159.77 749.70   Q 159.88 750.04 159.55 750.16   Q 156.97 751.05 156.24 748.72   Q 154.57 743.36 152.72 738.22   Q 144.72 715.92 137.20 694.37   Q 135.27 688.84 133.45 682.47   Q 133.31 681.95 133.64 681.53   Q 138.87 674.89 142.14 666.26   A 2.13 2.10 -2.0 0 1 143.25 665.09   Q 146.37 663.67 149.14 662.09   C 153.49 659.62 160.04 653.34 160.93 647.77   C 162.06 640.72 153.18 640.59 148.64 640.16   A 0.80 0.80 0.0 0 1 147.95 639.12   C 149.92 633.08 155.57 618.80 149.99 613.76   C 144.77 609.05 137.36 620.71 133.93 613.22   Q 132.62 610.36 131.20 607.53   C 127.54 600.26 121.66 601.79 118.08 607.52   Q 115.91 610.97 114.03 614.40   C 112.54 617.09 109.07 621.21 106.27 616.90   Q 103.52 612.66 103.77 607.75   C 110.72 474.18 117.12 341.58 124.11 206.50   C 124.89 191.49 131.45 182.53 146.63 180.50   Q 191.12 174.55 236.21 168.41   Q 236.64 168.35 236.72 168.78   L 242.26 198.17   Q 242.43 199.04 241.57 199.27   C 235.50 200.91 229.40 203.22 223.04 205.91   Q 221.46 206.58 221.22 208.15   Q 213.92 255.16 206.99 301.51   A 2.21 2.20 -3.5 0 0 209.76 303.96   L 315.06 274.83   A 1.77 1.77 0.0 0 0 316.36 273.00   Q 316.31 272.11 315.83 271.35   Q 291.89 233.09 268.62 195.19   A 1.71 1.70 -19.7 0 0 266.94 194.40   Q 256.76 195.80 246.42 198.02   A 0.71 0.70 -11.2 0 1 245.58 197.46   L 239.93 168.11   A 0.28 0.27 82.1 0 1 240.17 167.79   L 265.98 164.35   A 1.63 1.62 80.1 0 0 267.35 162.39   Q 267.32 162.24 267.28 162.09   A 1.35 1.34 80.6 0 0 265.79 161.02   Q 206.21 169.07 145.99 177.17   C 130.39 179.27 121.88 188.75 121.03 204.25   Q 115.19 309.80 108.96 440.51   C 106.44 493.40 103.52 546.30 100.87 599.24   Q 100.78 601.02 99.72 599.60   C 95.93 594.59 93.04 595.40 87.53 596.25   A 1.23 1.23 0.0 0 1 86.24 595.56   C 81.71 585.91 69.15 582.09 59.30 584.81   Q 54.83 586.05 55.68 590.14   C 56.35 593.38 60.36 595.17 59.74 598.78   Q 59.23 601.73 58.62 604.71   C 56.73 614.04 63.17 618.61 69.63 623.63   Q 73.00 626.25 70.72 629.99   Q 68.16 634.20 65.78 638.18   C 62.48 643.70 58.45 654.03 62.40 659.78   C 65.35 664.08 72.00 663.49 76.18 661.94   C 82.53 659.58 89.89 655.83 96.60 655.68   A 1.96 1.96 0.0 0 1 98.52 657.09   Q 99.16 659.30 97.77 661.35   Q 93.26 668.05 89.51 674.22   C 86.02 679.96 75.79 701.06 91.59 700.10   Q 94.36 699.93 96.59 698.80   A 0.59 0.59 0.0 0 1 97.44 699.35   L 92.89 803.74   Q 92.86 804.33 92.26 804.34   L 43.79 804.44   A 0.52 0.52 0.0 0 0 43.27 804.96   L 43.27 829.16   A 0.67 0.67 0.0 0 1 42.59 829.83   L 4.51 829.78   A 1.15 1.15 0.0 0 0 3.36 831.04   L 3.43 831.77   Q 3.56 833.09 4.88 833.09   L 130.68 832.88   A 1.25 1.25 0.0 0 1 131.92 833.96   L 135.86 862.64   Q 135.90 862.98 136.26 862.98   L 212.70 862.99   Q 214.24 862.99 214.45 861.47   L 218.38 833.46   A 0.51 0.50 -86.1 0 1 218.88 833.02   L 414.90 833.31   Q 415.14 833.31 415.14 833.55   L 415.16 837.34   Q 415.17 837.56 414.94 837.56   C 399.37 837.80 384.82 837.54 370.21 839.64   Q 369.09 839.80 367.94 839.49   C 346.99 833.79 326.45 842.10 309.13 854.19   A 1.27 1.25 -44.9 0 1 307.70 854.20   C 292.13 843.42 271.27 841.46 253.32 846.81   C 236.57 851.81 221.93 860.55 208.82 871.40   Q 207.88 872.17 207.86 873.20   A 1.48 1.47 1.4 0 0 209.29 874.69   Q 271.88 876.72 335.27 880.02   Q 339.59 880.24 343.78 879.55   Q 368.63 875.45 394.63 871.19   C 396.35 870.91 397.53 869.32 396.51 867.64   Q 391.80 859.85 386.98 854.32   Q 385.38 852.49 387.49 853.70   Q 402.12 862.15 415.45 869.69   Q 417.02 870.57 418.76 870.57   Q 559.58 870.50 696.39 870.54   C 700.20 870.54 702.42 867.73 702.91 864.22   Q 705.16 848.14 707.56 833.87   A 0.93 0.92 4.7 0 1 708.48 833.10   L 785.93 832.97   A 0.53 0.53 0.0 0 1 786.46 833.49   L 786.66 845.77   Q 786.69 847.43 788.34 847.44   Q 806.84 847.62 827.27 847.47   Q 832.78 847.43 838.76 846.59   Q 839.71 846.45 838.84 846.87   Q 836.94 847.77 834.89 848.31   Q 827.15 850.33 819.16 852.41   Q 816.15 853.20 813.43 854.81   Q 812.99 855.08 812.99 855.59   Q 812.94 858.49 816.19 859.12   Q 830.41 861.88 844.21 864.85   C 846.76 865.40 848.69 864.01 851.18 863.98   Q 857.20 863.90 863.71 863.90   Q 866.65 863.90 868.92 862.00   A 1.68 1.67 39.4 0 1 870.81 861.82   Q 880.41 867.15 888.55 860.48   Q 888.99 860.12 889.57 860.12   Q 905.90 860.26 922.02 859.97   C 926.48 859.89 931.38 859.96 931.56 854.01   C 931.65 851.07 929.17 848.43 926.44 847.70   Q 926.33 847.67 926.44 847.67   L 982.01 847.73   Q 984.04 847.74 984.04 845.72   L 984.09 833.67   Q 984.09 833.06 984.70 833.06   L 1024.00 833.15   L 1024.00 1024.00   L 0.00 1024.00   L 0.00 0.00   L 1024.00 0.00   Z   M 883.33 806.95   L 883.36 804.81   A 0.47 0.47 0.0 0 0 882.90 804.34   L 877.52 804.26   A 31.71 1.30 0.8 0 0 845.80 805.12   L 845.79 805.60   A 31.71 1.30 0.8 0 0 877.48 807.34   L 882.86 807.42   A 0.47 0.47 0.0 0 0 883.33 806.95   Z   M 851.4393 820.5461   A 1.48 1.48 0.0 0 0 849.9490 819.0765   L 811.6899 819.3436   A 1.48 1.48 0.0 0 0 810.2203 820.8339   L 810.2207 820.8939   A 1.48 1.48 0.0 0 0 811.7110 822.3635   L 849.9701 822.0964   A 1.48 1.48 0.0 0 0 851.4397 820.6061   L 851.4393 820.5461   Z   M 878.09 822.52   Q 883.70 823.52 890.49 823.67   Q 905.96 824.02 919.25 823.70   Q 922.63 823.61 925.33 823.15   Q 930.20 822.30 925.28 821.77   Q 922.08 821.42 918.72 821.28   Q 898.29 820.38 878.65 821.46   Q 878.18 821.49 877.85 821.88   A 0.40 0.39 24.7 0 0 878.09 822.52   Z   M 832.10 824.05   Q 819.69 824.00 810.94 824.51   Q 809.80 824.58 809.79 825.72   L 809.79 826.01   Q 809.78 827.41 811.17 827.47   Q 829.24 828.25 848.31 827.11   A 1.75 1.64 3.8 0 0 849.90 825.81   Q 849.92 825.72 849.89 825.64   A 1.42 1.30 82.0 0 0 848.76 824.71   Q 842.27 824.09 832.10 824.05   Z   M 202.41 882.72   A 1.31 1.31 0.0 0 0 200.22 883.17   L 194.76 898.15   A 1.31 1.31 0.0 0 0 195.03 899.50   L 206.88 912.13   A 1.31 1.31 0.0 0 0 209.05 911.71   L 214.85 897.10   A 1.31 1.31 0.0 0 0 214.59 895.72   L 202.41 882.72   Z" />
<path d="   M 312.11 271.67   A 0.45 0.45 0.0 0 1 311.84 272.34   L 211.11 300.02   A 0.41 0.40 86.3 0 1 210.60 299.57   L 224.25 209.77   A 1.25 1.25 0.0 0 1 224.98 208.81   C 238.23 202.99 251.38 200.02 265.65 197.95   A 0.95 0.94 69.7 0 1 266.59 198.39   L 312.11 271.67   Z" />
<path d="   M 518.30 559.41   L 517.97 554.02   A 0.73 0.73 0.0 0 1 518.63 553.25   Q 519.03 553.21 519.41 553.32   Q 520.16 553.55 520.15 554.33   L 520.12 558.57   Q 520.11 559.56 521.05 559.26   C 527.70 557.11 535.69 553.46 540.83 548.48   A 1.43 1.43 0.0 0 0 540.98 546.59   Q 540.34 545.76 539.27 546.09   C 504.22 557.09 463.04 551.76 441.35 520.45   Q 439.27 517.46 437.67 514.17   A 0.88 0.87 60.6 0 1 437.98 513.05   C 445.28 508.34 455.59 497.62 451.25 488.57   C 447.69 481.13 437.92 483.84 432.81 487.75   A 0.49 0.49 0.0 0 1 432.02 487.40   C 431.19 476.46 430.45 465.11 430.95 454.44   Q 432.38 423.94 441.22 393.35   Q 443.04 387.05 445.66 380.60   A 0.32 0.32 0.0 0 1 446.19 380.50   C 454.18 388.95 467.93 392.34 479.50 393.41   C 506.06 395.85 541.39 392.73 560.18 371.66   A 0.36 0.36 0.0 0 1 560.81 371.87   Q 563.46 400.48 580.61 423.47   Q 580.97 423.94 580.95 424.53   Q 580.75 430.34 580.81 435.44   C 580.90 442.99 582.66 460.42 590.65 462.61   Q 594.59 463.69 596.46 460.33   A 0.66 0.66 0.0 0 1 597.61 460.31   C 598.78 462.29 601.55 463.02 602.79 460.63   Q 603.46 459.33 603.60 457.96   C 604.09 453.01 603.42 447.18 605.33 442.60   C 609.35 432.97 625.96 428.98 633.64 436.13   C 644.56 446.31 641.43 469.16 636.19 480.93   C 629.26 496.52 612.46 498.25 597.90 492.91   A 2.22 2.22 0.0 0 0 595.22 493.87   Q 593.27 497.21 593.91 501.61   Q 594.19 503.59 594.54 501.62   Q 594.97 499.21 594.89 496.36   A 0.74 0.73 8.8 0 1 595.87 495.65   Q 601.36 497.57 608.04 497.95   Q 608.54 497.98 608.56 498.47   L 608.79 503.97   A 0.39 0.39 0.0 0 0 609.24 504.34   Q 609.45 504.31 609.61 504.16   Q 609.68 504.09 609.71 503.99   Q 610.54 501.29 610.40 498.34   Q 610.38 497.93 610.79 497.96   L 612.29 498.08   A 0.58 0.57 3.1 0 1 612.83 498.67   C 612.72 504.33 612.68 509.98 612.19 515.62   Q 611.87 519.25 611.89 522.92   C 611.90 524.59 612.59 525.96 612.95 527.54   A 0.82 0.81 -28.1 0 1 612.71 528.31   C 601.59 538.80 587.88 547.87 574.00 555.97   Q 547.52 571.43 523.06 581.75   A 1.16 1.14 -32.9 0 1 521.78 581.49   C 516.60 576.03 511.03 569.58 507.40 562.55   Q 507.03 561.83 507.84 561.91   C 508.53 561.97 509.12 562.02 509.81 561.90   Q 514.12 561.16 517.86 560.03   Q 518.33 559.89 518.30 559.41   Z   M 461.99 408.80   Q 465.77 411.25 470.23 411.57   Q 471.93 411.70 472.42 410.06   Q 472.47 409.86 472.51 409.66   Q 472.97 407.29 470.60 406.85   Q 466.58 406.09 462.72 403.95   C 461.58 403.32 460.22 403.31 459.11 404.03   Q 454.83 406.79 449.86 407.18   A 1.62 1.62 0.0 0 0 448.45 408.30   C 447.93 409.94 448.72 411.48 450.50 411.73   C 454.59 412.32 457.32 410.91 460.53 408.80   Q 461.26 408.33 461.99 408.80   Z   M 530.33 423.95   Q 533.68 427.33 539.12 427.90   Q 540.93 428.09 541.14 426.28   L 541.23 425.60   Q 541.43 423.87 539.74 423.42   Q 534.57 422.06 531.24 418.87   A 1.91 1.91 0.0 0 0 528.86 418.67   Q 524.73 421.44 519.46 421.37   Q 517.45 421.34 517.48 423.35   L 517.48 423.60   Q 517.51 425.77 519.67 425.95   C 523.25 426.24 526.43 425.69 529.10 423.83   A 0.97 0.96 50.3 0 1 530.33 423.95   Z   M 457.8511 443.5858   A 7.14 5.63 107.6 0 0 465.3765 438.4823   A 7.14 5.63 107.6 0 0 462.1689 429.9742   A 7.14 5.63 107.6 0 0 454.6435 435.0777   A 7.14 5.63 107.6 0 0 457.8511 443.5858   Z   M 478.08 467.32   L 493.09 438.45   Q 493.67 437.34 492.86 436.39   Q 492.46 435.93 491.81 435.90   Q 490.91 435.85 490.50 436.64   Q 482.61 451.70 474.90 466.95   Q 474.53 467.67 474.32 468.45   A 2.04 2.04 0.0 0 0 475.90 471.00   L 487.97 473.28   Q 489.48 473.57 489.81 472.07   L 489.93 471.55   Q 490.17 470.46 489.06 470.27   L 478.70 468.55   A 0.85 0.85 0.0 0 1 478.08 467.32   Z   M 523.8543 456.9092   A 6.99 5.48 109.0 0 0 531.3114 452.0841   A 6.99 5.48 109.0 0 0 528.4057 443.6908   A 6.99 5.48 109.0 0 0 520.9486 448.5159   A 6.99 5.48 109.0 0 0 523.8543 456.9092   Z   M 618.85 460.97   C 618.83 458.22 618.82 454.82 621.74 453.35   C 623.07 452.68 625.87 451.44 624.99 449.52   A 1.70 1.70 0.0 0 0 622.88 448.63   Q 614.76 451.52 615.03 460.53   A 1.93 1.93 0.0 0 0 616.75 462.39   L 617.22 462.44   Q 618.85 462.61 618.85 460.97   Z   M 439.06 470.10   C 437.37 469.72 435.54 469.73 433.74 469.62   A 0.43 0.43 0.0 0 0 433.41 470.36   Q 436.02 472.90 439.22 472.16   A 0.94 0.93 1.0 0 0 439.90 471.51   Q 440.22 470.36 439.06 470.10   Z   M 436.40 477.89   L 435.16 477.87   A 0.27 0.27 0.0 0 0 434.89 478.14   L 434.87 479.50   A 2.37 0.77 -89.4 0 0 435.62 481.88   L 435.86 481.88   A 2.37 0.77 -89.4 0 0 436.65 479.52   L 436.67 478.16   A 0.27 0.27 0.0 0 0 436.40 477.89   Z   M 523.79 488.65   C 510.97 495.98 496.69 498.58 481.66 497.80   A 1.84 1.83 -6.9 0 0 479.81 500.16   Q 480.52 502.54 482.38 504.71   Q 491.79 515.66 505.98 515.26   C 519.32 514.87 528.83 505.98 530.45 492.82   Q 530.72 490.65 530.28 488.57   Q 530.15 487.96 529.70 487.53   C 527.67 485.63 525.65 487.58 523.79 488.65   Z   M 605.5205 502.9963   A 2.24 1.08 76.3 0 0 606.0393 500.5642   A 2.24 1.08 76.3 0 0 604.4595 498.6437   A 2.24 1.08 76.3 0 0 603.9407 501.0758   A 2.24 1.08 76.3 0 0 605.5205 502.9963   Z   M 598.64 499.60   C 598.76 501.74 598.55 503.66 598.07 505.72   Q 597.82 506.80 598.92 506.87   L 599.52 506.91   Q 600.53 506.98 600.71 505.98   C 601.12 503.71 601.35 500.51 599.46 499.15   Q 598.57 498.51 598.64 499.60   Z" />
<path d="   M 394.07 436.58   C 403.55 431.81 413.57 434.18 419.07 443.01   C 423.62 450.31 425.99 459.79 425.82 468.27   C 425.75 471.67 424.27 474.72 420.26 474.05   C 418.15 473.70 417.02 471.21 416.62 469.34   C 414.59 459.69 412.15 450.38 405.31 443.24   C 402.29 440.09 398.56 438.42 394.36 437.31   Q 394.00 437.21 393.93 436.87   A 0.27 0.26 71.2 0 1 394.07 436.58   Z" />
<path d="   M 377.27 444.62   Q 385.01 438.18 394.64 440.61   C 410.64 444.66 414.66 468.01 412.75 481.63   C 412.42 483.98 411.00 487.51 408.20 487.73   C 404.71 488.00 403.29 485.61 403.24 482.49   C 403.02 466.10 395.07 447.30 377.41 445.12   A 0.28 0.28 0.0 0 1 377.27 444.62   Z" />
<path d="   M 381.97 469.44   Q 381.25 469.59 380.62 469.95   Q 375.11 473.10 369.57 476.27   C 362.97 480.05 364.61 485.54 366.44 491.34   Q 370.23 503.31 375.54 511.97   Q 378.50 516.79 383.19 514.75   Q 384.42 514.21 383.77 515.38   Q 379.60 522.90 377.59 529.91   A 1.31 1.29 41.2 0 0 377.66 530.83   Q 378.28 532.19 379.50 531.70   A 1.07 1.06 -2.6 0 0 380.11 531.04   Q 382.87 522.32 387.54 514.01   C 388.09 513.03 388.97 512.43 389.94 511.95   Q 398.87 507.48 408.27 502.74   Q 409.12 502.32 409.79 502.99   Q 411.13 504.36 413.05 505.41   Q 414.88 506.42 416.19 504.79   Q 417.29 503.41 418.59 502.31   Q 425.07 496.80 432.61 491.30   C 436.20 488.68 446.34 483.64 448.79 490.35   C 450.45 494.90 446.59 501.62 443.50 504.97   C 440.03 508.74 435.79 512.08 432.97 516.27   Q 430.77 519.53 428.71 522.85   C 423.03 532.02 412.58 539.77 401.48 539.92   Q 400.57 539.93 400.52 540.84   L 400.49 541.34   A 1.11 1.10 -89.5 0 0 401.62 542.50   L 403.36 542.45   A 0.50 0.49 -80.9 0 1 403.84 543.12   L 399.18 555.57   Q 398.74 556.75 397.50 556.64   C 374.84 554.64 350.92 547.06 333.83 531.76   Q 333.21 531.20 333.36 530.37   Q 335.92 516.23 338.41 500.73   Q 339.10 496.45 340.51 490.98   Q 344.43 475.85 350.09 465.99   C 356.95 454.02 369.65 444.06 383.80 449.97   C 390.59 452.81 395.17 460.12 397.63 466.86   Q 401.16 476.54 400.32 487.96   C 400.08 491.18 398.54 497.99 394.38 498.29   C 389.65 498.64 387.75 493.68 387.27 489.84   C 386.45 483.37 386.03 475.72 382.93 469.89   A 0.88 0.88 0.0 0 0 381.97 469.44   Z" />
<path d="   M 486.30 501.37   C 500.24 501.80 513.04 498.33 525.48 491.97   Q 528.12 490.62 526.48 493.09   Q 524.94 495.39 522.02 496.85   Q 510.17 502.77 496.39 503.94   C 493.54 504.18 488.07 504.50 486.00 501.96   A 0.37 0.36 -18.4 0 1 486.30 501.37   Z" />
<path d="   M 425.13 493.58   Q 418.95 497.90 414.59 503.73   Q 414.09 504.40 413.36 503.98   Q 412.18 503.30 411.31 502.30   Q 410.77 501.68 411.47 501.24   Q 418.55 496.81 425.00 493.37   Q 426.85 492.39 425.13 493.58   Z" />
<path d="   M 406.23 556.92   L 402.22 556.89   Q 401.48 556.88 401.72 556.19   L 406.22 543.03   Q 406.41 542.47 406.98 542.31   Q 410.23 541.38 413.37 540.07   C 423.55 535.82 430.65 526.63 435.22 516.73   A 0.45 0.45 0.0 0 1 436.02 516.69   Q 446.09 534.16 462.63 543.33   Q 463.82 544.00 462.47 544.21   C 440.48 547.66 419.92 556.25 405.18 572.57   Q 404.69 573.11 404.81 572.39   Q 405.72 567.02 406.81 561.46   Q 407.21 559.42 406.95 557.55   A 0.73 0.73 0.0 0 0 406.23 556.92   Z" />
<path d="   M 632.15 556.33   C 613.96 580.14 594.97 603.70 576.58 626.99   Q 575.96 627.78 575.20 627.13   L 525.29 584.40   Q 524.97 584.12 525.36 583.96   C 551.41 572.87 577.56 558.83 600.83 541.96   Q 608.47 536.42 615.17 530.09   A 0.47 0.46 -38.1 0 1 615.88 530.17   L 632.19 555.49   Q 632.46 555.92 632.15 556.33   Z" />
<path d="   M 369.72 729.25   L 369.93 729.41   A 0.36 0.35 40.7 0 0 370.41 729.38   Q 378.52 720.73 381.79 709.84   Q 382.27 708.26 382.28 709.91   Q 382.43 724.19 378.77 737.26   Q 378.58 737.95 379.52 738.02   A 0.88 0.87 -78.3 0 0 380.41 737.43   Q 385.57 722.18 385.32 704.86   C 385.25 700.69 385.08 696.85 385.79 692.58   Q 394.69 638.55 403.45 581.44   C 403.71 579.71 404.17 578.02 405.33 576.65   C 419.88 559.61 440.81 550.27 462.84 546.73   Q 463.44 546.64 463.47 547.24   C 464.50 570.82 470.69 596.11 481.89 616.51   Q 482.51 617.62 483.50 618.38   A 1.93 1.93 0.0 0 0 486.08 618.16   Q 494.40 609.25 503.05 601.45   A 0.27 0.27 0.0 0 1 503.50 601.60   Q 505.39 611.95 507.64 622.49   Q 508.18 625.04 507.68 627.62   Q 501.37 660.06 495.25 691.55   A 0.61 0.61 0.0 0 1 494.65 692.04   Q 459.57 692.08 421.98 692.05   C 418.54 692.05 415.35 694.30 415.36 698.05   Q 415.38 750.20 415.33 802.63   Q 415.33 803.87 415.01 802.67   Q 414.55 801.01 414.32 799.03   Q 410.61 766.69 408.64 738.16   A 1.18 1.17 17.6 0 0 408.19 737.30   Q 407.42 736.67 406.84 736.92   Q 405.35 737.55 405.43 739.07   Q 405.97 750.03 407.02 760.42   A 0.79 0.78 -21.4 0 1 406.70 761.14   Q 387.00 775.32 366.61 786.43   C 346.64 797.32 311.27 811.77 291.25 794.80   C 278.52 784.01 275.59 763.09 275.36 747.52   C 274.80 710.74 282.19 675.08 291.86 638.67   Q 306.23 584.54 328.57 532.06   Q 328.81 531.49 329.24 531.93   C 347.69 550.64 376.98 559.02 402.70 560.32   Q 403.28 560.35 403.20 560.92   Q 394.08 620.59 383.87 684.09   Q 383.86 684.16 382.51 694.04   C 380.77 706.82 377.13 718.27 369.70 729.08   Q 369.63 729.18 369.72 729.25   Z" />
<path d="   M 519.17 585.42   Q 516.31 586.94 513.49 588.98   Q 497.54 600.51 485.02 614.32   A 0.42 0.40 48.6 0 1 484.38 614.27   Q 482.92 612.14 481.75 609.78   C 472.04 590.10 467.94 568.46 466.00 546.06   A 0.28 0.27 9.7 0 1 466.39 545.79   Q 475.19 549.70 486.19 552.28   Q 492.52 553.77 497.61 553.85   A 0.94 0.93 76.1 0 1 498.41 554.34   Q 506.80 570.12 519.40 584.12   Q 520.13 584.92 519.17 585.42   Z" />
<path d="   M 783.62 783.49   Q 785.24 783.82 783.83 782.95   C 770.56 774.71 757.94 767.55 743.28 763.87   Q 741.98 763.54 743.30 763.32   C 752.58 761.73 761.24 761.50 770.33 761.85   Q 771.45 761.89 770.47 761.35   Q 767.53 759.73 762.06 759.11   Q 747.16 757.42 735.56 762.08   Q 733.53 762.90 731.23 762.94   Q 725.07 763.06 718.77 764.73   A 0.57 0.57 0.0 0 1 718.06 764.09   Q 722.68 733.74 727.87 700.38   C 728.53 696.16 726.71 692.07 721.86 692.06   Q 624.87 692.05 535.13 692.09   A 0.45 0.44 86.3 0 1 534.69 691.70   L 528.03 631.02   A 2.76 2.71 -36.0 0 1 528.27 629.58   L 540.70 602.89   A 0.33 0.33 0.0 0 1 541.21 602.77   Q 557.60 616.02 574.29 631.13   Q 576.24 632.89 577.87 630.83   L 635.89 557.55   A 2.25 2.23 -42.8 0 0 636.00 554.92   L 631.56 548.24   A 0.40 0.39 75.0 0 1 631.91 547.63   C 653.49 548.70 674.92 550.16 696.07 554.33   C 713.30 557.73 727.67 563.42 737.93 578.58   Q 742.32 585.05 745.59 592.19   Q 765.32 635.28 782.20 680.61   C 796.47 718.95 810.29 757.24 821.32 796.34   Q 821.51 797.04 820.79 797.04   L 788.76 796.92   Q 786.68 796.91 786.68 798.99   L 786.74 829.15   A 0.70 0.69 0.0 0 1 786.04 829.84   L 708.69 829.82   A 0.55 0.55 0.0 0 1 708.15 829.18   L 717.29 769.96   A 1.29 1.27 83.6 0 1 718.08 768.96   C 739.14 760.75 759.83 773.65 778.45 781.83   Q 781.02 782.96 783.62 783.49   Z" />
<path d="   M 516.10 553.57   A 0.47 0.47 0.0 0 1 516.62 554.00   L 516.91 557.28   A 2.23 1.12 84.8 0 1 516.00 559.60   L 515.70 559.63   A 2.23 1.12 84.8 0 1 514.39 557.51   L 514.09 554.23   A 0.47 0.47 0.0 0 1 514.51 553.71   L 516.10 553.57   Z" />
<path d="   M 510.67 554.30   Q 510.54 553.88 510.98 553.92   L 512.68 554.09   Q 513.06 554.13 513.05 554.51   L 512.98 559.48   Q 512.97 560.21 512.27 559.98   L 511.92 559.87   A 0.77 0.77 0.0 0 1 511.38 559.12   Q 511.42 556.76 510.67 554.30   Z" />
<path d="   M 502.94 554.21   L 504.45 554.18   Q 504.86 554.17 504.86 554.58   Q 504.88 556.98 506.41 558.72   A 0.70 0.70 0.0 0 1 506.44 559.60   L 506.23 559.87   Q 506.05 560.11 505.82 559.91   Q 503.17 557.61 502.52 554.74   Q 502.41 554.23 502.94 554.21   Z" />
<path d="   M 507.09 555.43   Q 507.17 556.27 506.85 557.21   Q 506.55 558.12 506.23 557.22   Q 505.77 555.92 505.71 554.57   Q 505.70 554.16 506.09 554.24   Q 507.46 554.48 508.87 554.20   Q 509.26 554.12 509.30 554.51   L 509.82 559.39   Q 509.93 560.39 508.99 560.05   Q 508.61 559.91 508.32 559.60   Q 507.63 558.87 507.62 557.85   L 507.60 555.22   A 0.07 0.02 88.1 0 0 507.57 555.14   L 507.31 555.17   Q 507.07 555.19 507.09 555.43   Z" />
<path d="   M 124.09 681.46   C 120.00 682.74 109.26 688.77 111.41 694.53   C 114.80 703.62 128.08 687.84 130.44 684.94   A 0.47 0.46 -35.6 0 1 131.24 685.07   L 154.20 749.87   A 0.26 0.26 0.0 0 1 153.95 750.22   L 121.94 750.22   Q 121.09 750.22 121.20 751.07   L 127.85 803.67   A 0.54 0.53 -4.2 0 1 127.32 804.27   L 97.54 804.43   Q 96.13 804.44 96.19 803.03   L 100.85 697.42   Q 100.87 696.83 101.45 696.70   Q 103.86 696.18 106.56 695.07   Q 108.55 694.25 109.27 692.82   Q 110.17 691.03 108.31 691.78   L 102.98 693.93   Q 101.38 694.57 102.30 693.11   Q 104.90 689.01 108.78 685.22   A 1.61 1.60 53.2 0 0 109.05 683.28   Q 105.21 676.54 101.35 669.80   Q 100.38 668.11 98.99 666.58   A 0.79 0.78 45.3 0 1 98.99 665.51   C 102.29 661.94 104.20 654.76 98.23 652.88   C 94.83 651.81 90.33 653.43 86.93 654.39   A 0.47 0.47 0.0 0 1 86.34 654.05   C 84.34 646.26 78.74 638.49 73.25 632.92   Q 72.80 632.47 73.18 631.96   C 78.91 624.43 68.59 619.13 64.42 614.88   C 62.60 613.04 61.39 610.96 61.61 608.26   Q 61.91 604.49 62.66 600.90   C 63.65 596.11 61.65 593.31 58.87 589.93   A 1.09 1.09 0.0 0 1 59.42 588.19   Q 76.22 583.56 84.88 598.15   A 2.52 2.52 0.0 0 0 87.72 599.30   Q 90.39 598.57 93.01 598.08   C 98.83 597.00 100.18 606.34 100.77 610.00   C 101.63 615.35 104.45 623.75 111.32 621.42   C 116.70 619.59 119.01 610.11 123.61 606.32   A 2.01 2.01 0.0 0 1 125.99 606.19   Q 127.70 607.31 128.55 609.42   Q 130.18 613.41 132.30 616.40   C 136.20 621.90 141.45 617.68 145.84 616.08   A 2.12 2.10 61.2 0 1 148.25 616.79   C 151.04 620.44 146.07 633.74 144.90 638.14   C 142.49 647.13 155.19 641.08 157.74 646.24   A 1.28 1.25 43.3 0 1 157.78 647.27   Q 152.97 659.06 141.81 662.45   Q 141.22 662.63 141.30 663.25   C 141.38 663.95 141.26 664.92 140.97 665.56   C 135.70 677.22 126.53 686.45 116.17 694.45   A 1.02 1.02 0.0 0 1 114.59 694.00   Q 114.28 693.17 114.54 692.27   Q 115.17 690.10 116.46 689.06   Q 120.23 686.00 124.76 682.81   Q 128.74 680.01 124.09 681.46   Z" />
<path d="   M 71.48 635.48   Q 72.52 636.16 73.34 637.09   Q 80.51 645.25 84.00 655.15   A 0.45 0.45 0.0 0 1 83.76 655.71   C 79.83 657.39 69.99 661.81 66.14 658.86   C 59.99 654.15 67.86 640.38 70.94 635.60   A 0.39 0.39 0.0 0 1 71.48 635.48   Z" />
<path d="   M 105.87 684.40   Q 102.58 687.78 100.00 691.60   Q 96.77 696.39 91.65 697.13   C 84.98 698.09 85.90 691.56 87.17 687.67   Q 90.39 677.82 96.87 669.01   Q 97.35 668.36 97.74 669.05   L 106.00 683.37   Q 106.32 683.93 105.87 684.40   Z" />
<path d="   M 211.15 675.05   L 212.99 672.17   A 0.66 0.66 0.0 0 1 214.19 672.40   L 214.82 675.64   A 0.66 0.66 0.0 0 1 214.08 676.42   L 211.61 676.06   A 0.66 0.66 0.0 0 1 211.15 675.05   Z" />
<rect x="-2.59" y="-20.48" transform="translate(208.22,699.75) rotate(10.9)" width="5.18" height="40.96" rx="0.65" />
<path d="   M 524.87 722.85   L 524.85 724.01   A 0.44 0.44 0.0 0 1 524.42 724.45   L 481.58 725.17   A 0.44 0.44 0.0 0 1 481.13 724.73   L 481.14 721.12   A 0.44 0.44 0.0 0 1 481.60 720.68   L 524.44 722.40   A 0.44 0.44 0.0 0 1 524.87 722.85   Z" />
<path d="   M 196.07 749.79   L 199.81 730.92   A 0.38 0.38 0.0 0 1 200.26 730.62   L 204.66 731.54   A 0.38 0.38 0.0 0 1 204.96 731.99   L 201.51 749.85   A 0.38 0.38 0.0 0 1 201.14 750.16   L 196.45 750.24   A 0.38 0.38 0.0 0 1 196.07 749.79   Z" />
<path d="   M 555.47 732.10   L 555.54 733.26   A 0.43 0.43 0.0 0 1 555.12 733.71   L 493.64 735.63   A 0.43 0.43 0.0 0 1 493.20 735.21   L 493.12 732.17   A 0.43 0.43 0.0 0 1 493.55 731.73   L 555.04 731.69   A 0.43 0.43 0.0 0 1 555.47 732.10   Z" />
<rect x="-28.08" y="-4.22" transform="translate(854.90,745.50) rotate(-0.1)" width="56.16" height="8.44" rx="0.75" />
<rect x="-29.32" y="-1.76" transform="translate(854.94,755.11) rotate(-0.1)" width="58.64" height="3.52" rx="0.94" />
<path d="   M 829.87 760.57   L 879.16 760.52   A 0.34 0.34 0.0 0 1 879.50 760.90   L 874.98 796.62   A 0.34 0.34 0.0 0 1 874.64 796.92   L 834.47 796.97   A 0.34 0.34 0.0 0 1 834.13 796.67   L 829.53 760.95   A 0.34 0.34 0.0 0 1 829.87 760.57   Z" />
<ellipse cx="0.00" cy="0.00" transform="translate(576.51,785.06) rotate(-3.3)" rx="19.18" ry="13.75" />
<path d="   M 893.61 839.97   L 893.55 840.27   Q 893.51 840.54 893.78 840.54   Q 935.47 841.00 979.46 839.13   Q 980.60 839.09 980.61 840.22   L 980.63 843.27   A 1.09 1.09 0.0 0 1 979.54 844.37   Q 939.85 844.34 926.15 844.16   Q 909.01 843.93 893.80 844.89   Q 893.10 844.94 892.73 845.54   L 892.56 845.82   A 0.43 0.43 0.0 0 0 892.92 846.47   Q 908.87 846.69 925.05 847.42   Q 925.11 847.42 925.16 847.46   Q 925.22 847.49 925.16 847.53   Q 925.13 847.56 925.08 847.56   Q 909.49 847.22 892.87 847.75   C 892.35 847.77 891.83 848.05 891.33 848.16   Q 890.78 848.28 890.41 847.85   Q 881.19 836.99 867.55 843.63   Q 866.59 844.10 865.52 844.10   L 790.57 844.10   Q 789.99 844.10 789.98 843.52   L 789.96 841.47   Q 789.95 840.83 790.59 840.79   C 804.62 840.03 819.72 840.67 833.41 840.77   Q 834.22 840.78 835.01 840.59   Q 836.47 840.23 836.44 839.71   A 1.29 1.27 0.3 0 0 835.26 838.54   Q 811.60 836.54 790.30 837.58   Q 789.88 837.60 789.88 837.18   L 789.91 832.77   A 0.31 0.30 0.0 0 1 790.22 832.47   Q 804.30 832.65 816.01 832.68   Q 897.46 832.86 979.87 832.85   Q 980.70 832.85 980.77 833.68   Q 980.82 834.24 980.65 834.77   A 1.26 1.25 7.4 0 1 979.49 835.66   Q 936.12 837.08 894.24 839.40   A 0.68 0.68 0.0 0 0 893.61 839.97   Z" />
<path d="   M 306.93 858.33   A 1.73 1.72 -43.0 0 0 309.03 858.40   C 324.30 847.56 343.15 838.75 361.86 841.63   Q 369.18 842.76 376.68 849.01   Q 386.18 856.92 392.64 867.50   Q 392.86 867.86 392.44 867.93   L 340.24 876.60   Q 339.18 876.78 338.95 875.73   C 337.29 868.33 328.33 864.74 321.67 863.35   Q 299.91 858.80 281.05 865.33   Q 280.49 865.53 280.07 865.11   Q 274.90 859.89 267.00 858.23   C 255.41 855.80 244.40 857.43 232.32 859.87   Q 230.26 860.28 232.12 859.31   Q 241.34 854.50 250.40 851.35   C 268.42 845.09 291.62 845.86 306.93 858.33   Z   M 372.03 858.58   L 373.81 858.49   A 0.67 0.67 0.0 0 0 374.44 857.79   L 374.39 856.66   A 4.03 1.41 87.3 0 0 372.79 852.70   L 372.49 852.71   A 4.03 1.41 87.3 0 0 371.27 856.80   L 371.33 857.94   A 0.67 0.67 0.0 0 0 372.03 858.58   Z   M 366.99 858.53   Q 367.52 856.01 366.69 853.99   A 1.66 1.66 0.0 0 0 363.76 853.72   Q 362.28 856.02 362.21 858.67   Q 362.17 860.34 363.84 860.39   L 364.62 860.41   A 2.36 2.34 -83.3 0 0 366.99 858.53   Z   M 358.03 866.20   Q 350.33 868.15 343.31 870.04   Q 343.16 870.08 343.19 870.23   L 343.24 870.51   A 0.41 0.41 0.0 0 0 343.68 870.84   Q 355.77 869.76 367.79 867.90   Q 373.12 867.07 377.48 865.53   A 1.29 1.28 68.3 0 0 378.22 863.80   Q 377.75 862.72 376.50 862.84   Q 368.27 863.60 358.03 866.20   Z" />
<path d="   M 872.48 857.35   C 873.35 853.94 873.55 849.53 871.90 846.34   A 0.70 0.70 0.0 0 1 872.37 845.34   Q 877.63 844.15 882.10 845.98   C 886.95 847.96 889.64 853.77 885.72 858.03   C 882.84 861.18 876.70 860.77 873.35 859.20   A 1.61 1.60 20.0 0 1 872.48 857.35   Z" />
<path d="   M 869.02 855.69   C 868.02 858.41 865.27 860.33 862.20 860.32   Q 855.60 860.30 849.93 860.42   Q 849.29 860.44 849.28 859.80   L 849.09 848.25   Q 849.09 847.84 849.50 847.84   L 867.57 847.76   A 1.00 1.00 0.0 0 1 868.52 848.44   Q 870.06 852.90 869.02 855.69   Z" />
<path d="   M 844.93 861.51   Q 832.33 858.16 820.21 856.25   Q 818.19 855.93 820.19 855.52   Q 832.61 852.98 844.79 848.99   A 0.55 0.55 0.0 0 1 845.51 849.50   L 845.78 860.85   A 0.67 0.67 0.0 0 1 844.93 861.51   Z" />
<path d="   M 892.45 851.38   Q 908.27 850.73 925.03 850.98   Q 927.39 851.01 928.08 853.57   Q 928.21 854.07 927.86 854.61   Q 926.76 856.30 924.74 856.32   L 891.77 856.66   A 0.58 0.58 0.0 0 1 891.19 856.01   L 891.64 852.12   Q 891.73 851.41 892.45 851.38   Z" />
<path d="   M 365.36 857.19   Q 365.56 857.84 365.15 858.45   Q 364.83 858.91 364.67 858.38   Q 364.48 857.74 364.88 857.12   Q 365.20 856.62 365.36 857.19   Z" />
<path d="   M 281.38 869.10   Q 287.61 866.38 295.27 865.67   C 305.49 864.72 330.42 864.30 335.62 875.88   A 0.54 0.54 0.0 0 1 335.07 876.64   Q 326.76 875.88 318.46 875.52   Q 266.72 873.29 216.36 871.44   Q 214.72 871.38 216.04 870.41   Q 219.87 867.57 224.50 866.10   Q 230.77 864.10 237.16 862.55   Q 248.82 859.74 262.41 860.92   C 268.78 861.48 273.89 863.78 278.37 868.49   A 2.70 2.69 -33.5 0 0 281.38 869.10   Z" />
<path d="   M 206.39 908.27   L 197.89 899.04   A 0.38 0.38 0.0 0 1 197.81 898.65   L 202.27 886.92   A 0.38 0.38 0.0 0 1 202.90 886.79   L 211.77 895.96   A 0.38 0.38 0.0 0 1 211.85 896.37   L 207.02 908.16   A 0.38 0.38 0.0 0 1 206.39 908.27   Z" />
</g>
<g fill="#000000" id="Group-000000">
<path d="   M 1024.00 829.70   L 1024.00 833.15   L 984.70 833.06   Q 984.09 833.06 984.09 833.67   L 984.04 845.72   Q 984.04 847.74 982.01 847.73   L 926.44 847.67   Q 926.33 847.67 926.44 847.70   C 929.17 848.43 931.65 851.07 931.56 854.01   C 931.38 859.96 926.48 859.89 922.02 859.97   Q 905.90 860.26 889.57 860.12   Q 888.99 860.12 888.55 860.48   Q 880.41 867.15 870.81 861.82   A 1.68 1.67 39.4 0 0 868.92 862.00   Q 866.65 863.90 863.71 863.90   Q 857.20 863.90 851.18 863.98   C 848.69 864.01 846.76 865.40 844.21 864.85   Q 830.41 861.88 816.19 859.12   Q 812.94 858.49 812.99 855.59   Q 812.99 855.08 813.43 854.81   Q 816.15 853.20 819.16 852.41   Q 827.15 850.33 834.89 848.31   Q 836.94 847.77 838.84 846.87   Q 839.71 846.45 838.76 846.59   Q 832.78 847.43 827.27 847.47   Q 806.84 847.62 788.34 847.44   Q 786.69 847.43 786.66 845.77   L 786.46 833.49   A 0.53 0.53 0.0 0 0 785.93 832.97   L 708.48 833.10   A 0.93 0.92 4.7 0 0 707.56 833.87   Q 705.16 848.14 702.91 864.22   C 702.42 867.73 700.20 870.54 696.39 870.54   Q 559.58 870.50 418.76 870.57   Q 417.02 870.57 415.45 869.69   Q 402.12 862.15 387.49 853.70   Q 385.38 852.49 386.98 854.32   Q 391.80 859.85 396.51 867.64   C 397.53 869.32 396.35 870.91 394.63 871.19   Q 368.63 875.45 343.78 879.55   Q 339.59 880.24 335.27 880.02   Q 271.88 876.72 209.29 874.69   A 1.48 1.47 1.4 0 1 207.86 873.20   Q 207.88 872.17 208.82 871.40   C 221.93 860.55 236.57 851.81 253.32 846.81   C 271.27 841.46 292.13 843.42 307.70 854.20   A 1.27 1.25 -44.9 0 0 309.13 854.19   C 326.45 842.10 346.99 833.79 367.94 839.49   Q 369.09 839.80 370.21 839.64   C 384.82 837.54 399.37 837.80 414.94 837.56   Q 415.17 837.56 415.16 837.34   L 415.14 833.55   Q 415.14 833.31 414.90 833.31   L 218.88 833.02   A 0.51 0.50 -86.1 0 0 218.38 833.46   L 214.45 861.47   Q 214.24 862.99 212.70 862.99   L 136.26 862.98   Q 135.90 862.98 135.86 862.64   L 131.92 833.96   A 1.25 1.25 0.0 0 0 130.68 832.88   L 4.88 833.09   Q 3.56 833.09 3.43 831.77   L 3.36 831.04   A 1.15 1.15 0.0 0 1 4.51 829.78   L 42.59 829.83   A 0.67 0.67 0.0 0 0 43.27 829.16   L 43.27 804.96   A 0.52 0.52 0.0 0 1 43.79 804.44   L 92.26 804.34   Q 92.86 804.33 92.89 803.74   L 97.44 699.35   A 0.59 0.59 0.0 0 0 96.59 698.80   Q 94.36 699.93 91.59 700.10   C 75.79 701.06 86.02 679.96 89.51 674.22   Q 93.26 668.05 97.77 661.35   Q 99.16 659.30 98.52 657.09   A 1.96 1.96 0.0 0 0 96.60 655.68   C 89.89 655.83 82.53 659.58 76.18 661.94   C 72.00 663.49 65.35 664.08 62.40 659.78   C 58.45 654.03 62.48 643.70 65.78 638.18   Q 68.16 634.20 70.72 629.99   Q 73.00 626.25 69.63 623.63   C 63.17 618.61 56.73 614.04 58.62 604.71   Q 59.23 601.73 59.74 598.78   C 60.36 595.17 56.35 593.38 55.68 590.14   Q 54.83 586.05 59.30 584.81   C 69.15 582.09 81.71 585.91 86.24 595.56   A 1.23 1.23 0.0 0 0 87.53 596.25   C 93.04 595.40 95.93 594.59 99.72 599.60   Q 100.78 601.02 100.87 599.24   C 103.52 546.30 106.44 493.40 108.96 440.51   Q 115.19 309.80 121.03 204.25   C 121.88 188.75 130.39 179.27 145.99 177.17   Q 206.21 169.07 265.79 161.02   A 1.35 1.34 80.6 0 1 267.28 162.09   Q 267.32 162.24 267.35 162.39   A 1.63 1.62 80.1 0 1 265.98 164.35   L 240.17 167.79   A 0.28 0.27 82.1 0 0 239.93 168.11   L 245.58 197.46   A 0.71 0.70 -11.2 0 0 246.42 198.02   Q 256.76 195.80 266.94 194.40   A 1.71 1.70 -19.7 0 1 268.62 195.19   Q 291.89 233.09 315.83 271.35   Q 316.31 272.11 316.36 273.00   A 1.77 1.77 0.0 0 1 315.06 274.83   L 209.76 303.96   A 2.21 2.20 -3.5 0 1 206.99 301.51   Q 213.92 255.16 221.22 208.15   Q 221.46 206.58 223.04 205.91   C 229.40 203.22 235.50 200.91 241.57 199.27   Q 242.43 199.04 242.26 198.17   L 236.72 168.78   Q 236.64 168.35 236.21 168.41   Q 191.12 174.55 146.63 180.50   C 131.45 182.53 124.89 191.49 124.11 206.50   C 117.12 341.58 110.72 474.18 103.77 607.75   Q 103.52 612.66 106.27 616.90   C 109.07 621.21 112.54 617.09 114.03 614.40   Q 115.91 610.97 118.08 607.52   C 121.66 601.79 127.54 600.26 131.20 607.53   Q 132.62 610.36 133.93 613.22   C 137.36 620.71 144.77 609.05 149.99 613.76   C 155.57 618.80 149.92 633.08 147.95 639.12   A 0.80 0.80 0.0 0 0 148.64 640.16   C 153.18 640.59 162.06 640.72 160.93 647.77   C 160.04 653.34 153.49 659.62 149.14 662.09   Q 146.37 663.67 143.25 665.09   A 2.13 2.10 -2.0 0 0 142.14 666.26   Q 138.87 674.89 133.64 681.53   Q 133.31 681.95 133.45 682.47   Q 135.27 688.84 137.20 694.37   Q 144.72 715.92 152.72 738.22   Q 154.57 743.36 156.24 748.72   Q 156.97 751.05 159.55 750.16   Q 159.88 750.04 159.77 749.70   L 141.86 698.01   A 1.10 1.05 -53.2 0 1 141.80 697.51   Q 141.99 696.03 142.62 696.00   Q 144.01 695.94 144.45 697.22   Q 153.21 722.27 162.34 749.25   A 1.52 1.52 0.0 0 0 163.78 750.28   L 192.25 750.13   A 0.57 0.57 0.0 0 0 192.80 749.67   Q 199.61 713.48 206.21 678.55   Q 206.67 676.14 208.03 674.05   Q 210.59 670.13 213.18 666.06   C 214.00 664.78 215.83 664.88 216.42 666.32   C 217.51 669.00 217.65 672.91 217.98 675.81   Q 218.32 678.75 217.61 682.50   Q 211.03 716.82 205.07 749.79   A 0.40 0.40 0.0 0 0 205.46 750.26   L 228.97 750.26   A 0.62 0.61 4.0 0 1 229.58 750.96   L 218.86 828.90   Q 218.73 829.82 219.66 829.82   L 414.73 829.91   Q 415.15 829.91 415.19 829.49   Q 415.68 824.18 415.20 822.16   Q 413.10 813.21 411.96 805.03   Q 409.20 785.19 407.60 765.63   A 0.66 0.66 0.0 0 0 406.55 765.15   Q 391.54 776.05 373.89 786.25   C 348.83 800.75 298.53 822.30 280.11 785.80   Q 274.13 773.94 272.69 758.91   C 270.17 732.53 273.76 704.55 279.27 678.02   Q 294.82 603.08 325.37 530.72   C 326.35 528.40 327.21 525.04 330.76 526.83   A 0.83 0.83 0.0 0 0 331.95 526.21   C 335.54 501.24 340.02 449.75 373.50 445.45   Q 374.32 445.34 374.78 444.65   Q 379.67 437.33 389.67 437.04   Q 390.24 437.03 390.65 436.62   Q 399.20 428.06 411.21 432.19   C 413.79 433.07 416.18 435.13 418.20 436.93   A 1.57 1.56 45.9 0 0 420.24 436.97   Q 424.38 433.56 428.84 434.03   Q 429.94 434.15 430.08 433.06   Q 431.98 418.40 435.27 405.52   A 1.73 1.72 25.0 0 0 434.60 403.68   C 423.08 395.45 416.17 381.54 415.22 367.53   Q 413.75 345.86 428.15 329.49   C 449.04 305.74 484.09 299.99 514.32 299.79   C 530.75 299.68 547.12 301.04 562.73 305.71   C 578.83 310.53 594.53 319.88 602.64 334.61   A 0.96 0.95 -11.1 0 0 603.39 335.11   Q 611.50 335.98 618.98 340.20   C 634.17 348.78 647.14 362.60 651.02 379.72   C 654.88 396.71 651.69 415.95 644.27 431.65   Q 642.62 435.12 640.23 438.24   A 1.20 1.20 0.0 0 0 640.07 439.41   C 645.54 452.71 644.62 470.47 638.06 483.43   Q 631.37 496.63 616.55 498.08   Q 615.94 498.14 615.91 498.75   Q 615.44 507.57 614.88 515.92   Q 614.71 518.46 615.68 520.88   C 617.07 524.34 618.14 527.85 620.29 530.99   Q 624.85 537.62 628.40 543.49   A 2.28 2.26 -14.4 0 0 630.25 544.58   Q 647.04 545.37 664.59 546.93   C 680.45 548.34 697.03 550.57 712.13 555.71   Q 730.90 562.10 741.54 579.23   Q 742.13 580.18 743.19 580.37   C 758.64 583.19 769.27 592.19 776.49 606.27   C 788.95 630.62 790.25 658.65 788.06 686.06   A 7.27 7.25 37.4 0 0 788.48 689.15   Q 795.09 707.22 801.27 724.49   Q 814.87 762.43 824.43 796.80   Q 824.47 796.97 824.65 796.97   L 830.67 797.12   A 0.16 0.16 0.0 0 0 830.84 796.94   L 826.06 761.03   Q 825.99 760.47 825.43 760.39   L 822.93 760.05   A 1.38 1.37 3.6 0 1 821.73 758.70   L 821.64 751.24   Q 821.64 750.66 822.12 750.35   L 822.67 750.01   Q 823.18 749.69 823.18 749.09   L 823.21 739.61   Q 823.21 737.67 825.15 737.67   L 884.91 737.63   A 1.54 1.54 0.0 0 1 886.45 739.15   L 886.60 749.07   Q 886.61 749.56 886.95 749.91   L 887.39 750.37   Q 887.92 750.93 887.91 751.69   L 887.83 759.44   Q 887.82 760.21 887.05 760.24   L 883.39 760.37   Q 882.91 760.39 882.85 760.87   L 878.45 796.42   Q 878.39 796.97 878.93 796.97   L 926.80 797.06   Q 928.36 797.06 928.42 798.62   L 928.44 799.01   Q 928.49 800.25 927.25 800.33   Q 924.79 800.47 922.00 800.49   C 879.45 800.76 834.60 800.46 790.75 800.57   A 0.70 0.70 0.0 0 0 790.05 801.26   L 790.04 804.00   Q 790.04 804.72 790.76 804.71   L 822.66 803.86   A 0.83 0.83 0.0 0 1 823.51 804.78   Q 823.42 805.70 822.49 806.33   A 1.89 1.82 24.7 0 1 821.60 806.64   Q 807.73 807.79 791.12 807.84   Q 790.18 807.85 790.12 808.78   L 789.95 811.28   Q 789.89 812.18 790.79 812.18   L 927.66 812.17   A 1.67 1.67 0.0 0 1 929.33 813.92   L 929.29 814.83   Q 929.26 815.50 928.58 815.51   L 807.37 816.40   A 0.61 0.61 0.0 0 0 806.77 817.01   L 806.84 828.47   A 0.48 0.48 0.0 0 0 807.32 828.95   L 1024.00 829.70   Z   M 312.11 271.67   L 266.59 198.39   A 0.95 0.94 69.7 0 0 265.65 197.95   C 251.38 200.02 238.23 202.99 224.98 208.81   A 1.25 1.25 0.0 0 0 224.25 209.77   L 210.60 299.57   A 0.41 0.40 86.3 0 0 211.11 300.02   L 311.84 272.34   A 0.45 0.45 0.0 0 0 312.11 271.67   Z   M 517.86 560.03   Q 514.12 561.16 509.81 561.90   C 509.12 562.02 508.53 561.97 507.84 561.91   Q 507.03 561.83 507.40 562.55   C 511.03 569.58 516.60 576.03 521.78 581.49   A 1.16 1.14 -32.9 0 0 523.06 581.75   Q 547.52 571.43 574.00 555.97   C 587.88 547.87 601.59 538.80 612.71 528.31   A 0.82 0.81 -28.1 0 0 612.95 527.54   C 612.59 525.96 611.90 524.59 611.89 522.92   Q 611.87 519.25 612.19 515.62   C 612.68 509.98 612.72 504.33 612.83 498.67   A 0.58 0.57 3.1 0 0 612.29 498.08   L 610.79 497.96   Q 610.38 497.93 610.40 498.34   Q 610.54 501.29 609.71 503.99   Q 609.68 504.09 609.61 504.16   Q 609.45 504.31 609.24 504.34   A 0.39 0.39 0.0 0 1 608.79 503.97   L 608.56 498.47   Q 608.54 497.98 608.04 497.95   Q 601.36 497.57 595.87 495.65   A 0.74 0.73 8.8 0 0 594.89 496.36   Q 594.97 499.21 594.54 501.62   Q 594.19 503.59 593.91 501.61   Q 593.27 497.21 595.22 493.87   A 2.22 2.22 0.0 0 1 597.90 492.91   C 612.46 498.25 629.26 496.52 636.19 480.93   C 641.43 469.16 644.56 446.31 633.64 436.13   C 625.96 428.98 609.35 432.97 605.33 442.60   C 603.42 447.18 604.09 453.01 603.60 457.96   Q 603.46 459.33 602.79 460.63   C 601.55 463.02 598.78 462.29 597.61 460.31   A 0.66 0.66 0.0 0 0 596.46 460.33   Q 594.59 463.69 590.65 462.61   C 582.66 460.42 580.90 442.99 580.81 435.44   Q 580.75 430.34 580.95 424.53   Q 580.97 423.94 580.61 423.47   Q 563.46 400.48 560.81 371.87   A 0.36 0.36 0.0 0 0 560.18 371.66   C 541.39 392.73 506.06 395.85 479.50 393.41   C 467.93 392.34 454.18 388.95 446.19 380.50   A 0.32 0.32 0.0 0 0 445.66 380.60   Q 443.04 387.05 441.22 393.35   Q 432.38 423.94 430.95 454.44   C 430.45 465.11 431.19 476.46 432.02 487.40   A 0.49 0.49 0.0 0 0 432.81 487.75   C 437.92 483.84 447.69 481.13 451.25 488.57   C 455.59 497.62 445.28 508.34 437.98 513.05   A 0.88 0.87 60.6 0 0 437.67 514.17   Q 439.27 517.46 441.35 520.45   C 463.04 551.76 504.22 557.09 539.27 546.09   Q 540.34 545.76 540.98 546.59   A 1.43 1.43 0.0 0 1 540.83 548.48   C 535.69 553.46 527.70 557.11 521.05 559.26   Q 520.11 559.56 520.12 558.57   L 520.15 554.33   Q 520.16 553.55 519.41 553.32   Q 519.03 553.21 518.63 553.25   A 0.73 0.73 0.0 0 0 517.97 554.02   L 518.30 559.41   Q 518.33 559.89 517.86 560.03   Z   M 394.07 436.58   A 0.27 0.26 71.2 0 0 393.93 436.87   Q 394.00 437.21 394.36 437.31   C 398.56 438.42 402.29 440.09 405.31 443.24   C 412.15 450.38 414.59 459.69 416.62 469.34   C 417.02 471.21 418.15 473.70 420.26 474.05   C 424.27 474.72 425.75 471.67 425.82 468.27   C 425.99 459.79 423.62 450.31 419.07 443.01   C 413.57 434.18 403.55 431.81 394.07 436.58   Z   M 377.27 444.62   A 0.28 0.28 0.0 0 0 377.41 445.12   C 395.07 447.30 403.02 466.10 403.24 482.49   C 403.29 485.61 404.71 488.00 408.20 487.73   C 411.00 487.51 412.42 483.98 412.75 481.63   C 414.66 468.01 410.64 444.66 394.64 440.61   Q 385.01 438.18 377.27 444.62   Z   M 381.97 469.44   A 0.88 0.88 0.0 0 1 382.93 469.89   C 386.03 475.72 386.45 483.37 387.27 489.84   C 387.75 493.68 389.65 498.64 394.38 498.29   C 398.54 497.99 400.08 491.18 400.32 487.96   Q 401.16 476.54 397.63 466.86   C 395.17 460.12 390.59 452.81 383.80 449.97   C 369.65 444.06 356.95 454.02 350.09 465.99   Q 344.43 475.85 340.51 490.98   Q 339.10 496.45 338.41 500.73   Q 335.92 516.23 333.36 530.37   Q 333.21 531.20 333.83 531.76   C 350.92 547.06 374.84 554.64 397.50 556.64   Q 398.74 556.75 399.18 555.57   L 403.84 543.12   A 0.50 0.49 -80.9 0 0 403.36 542.45   L 401.62 542.50   A 1.11 1.10 -89.5 0 1 400.49 541.34   L 400.52 540.84   Q 400.57 539.93 401.48 539.92   C 412.58 539.77 423.03 532.02 428.71 522.85   Q 430.77 519.53 432.97 516.27   C 435.79 512.08 440.03 508.74 443.50 504.97   C 446.59 501.62 450.45 494.90 448.79 490.35   C 446.34 483.64 436.20 488.68 432.61 491.30   Q 425.07 496.80 418.59 502.31   Q 417.29 503.41 416.19 504.79   Q 414.88 506.42 413.05 505.41   Q 411.13 504.36 409.79 502.99   Q 409.12 502.32 408.27 502.74   Q 398.87 507.48 389.94 511.95   C 388.97 512.43 388.09 513.03 387.54 514.01   Q 382.87 522.32 380.11 531.04   A 1.07 1.06 -2.6 0 1 379.50 531.70   Q 378.28 532.19 377.66 530.83   A 1.31 1.29 41.2 0 1 377.59 529.91   Q 379.60 522.90 383.77 515.38   Q 384.42 514.21 383.19 514.75   Q 378.50 516.79 375.54 511.97   Q 370.23 503.31 366.44 491.34   C 364.61 485.54 362.97 480.05 369.57 476.27   Q 375.11 473.10 380.62 469.95   Q 381.25 469.59 381.97 469.44   Z   M 425.00 493.37   Q 418.55 496.81 411.47 501.24   Q 410.77 501.68 411.31 502.30   Q 412.18 503.30 413.36 503.98   Q 414.09 504.40 414.59 503.73   Q 418.95 497.90 425.13 493.58   Q 426.85 492.39 425.00 493.37   Z   M 406.23 556.92   A 0.73 0.73 0.0 0 1 406.95 557.55   Q 407.21 559.42 406.81 561.46   Q 405.72 567.02 404.81 572.39   Q 404.69 573.11 405.18 572.57   C 419.92 556.25 440.48 547.66 462.47 544.21   Q 463.82 544.00 462.63 543.33   Q 446.09 534.16 436.02 516.69   A 0.45 0.45 0.0 0 0 435.22 516.73   C 430.65 526.63 423.55 535.82 413.37 540.07   Q 410.23 541.38 406.98 542.31   Q 406.41 542.47 406.22 543.03   L 401.72 556.19   Q 401.48 556.88 402.22 556.89   L 406.23 556.92   Z   M 576.58 626.99   C 594.97 603.70 613.96 580.14 632.15 556.33   Q 632.46 555.92 632.19 555.49   L 615.88 530.17   A 0.47 0.46 -38.1 0 0 615.17 530.09   Q 608.47 536.42 600.83 541.96   C 577.56 558.83 551.41 572.87 525.36 583.96   Q 524.97 584.12 525.29 584.40   L 575.20 627.13   Q 575.96 627.78 576.58 626.99   Z   M 369.72 729.25   Q 369.63 729.18 369.70 729.08   C 377.13 718.27 380.77 706.82 382.51 694.04   Q 383.86 684.16 383.87 684.09   Q 394.08 620.59 403.20 560.92   Q 403.28 560.35 402.70 560.32   C 376.98 559.02 347.69 550.64 329.24 531.93   Q 328.81 531.49 328.57 532.06   Q 306.23 584.54 291.86 638.67   C 282.19 675.08 274.80 710.74 275.36 747.52   C 275.59 763.09 278.52 784.01 291.25 794.80   C 311.27 811.77 346.64 797.32 366.61 786.43   Q 387.00 775.32 406.70 761.14   A 0.79 0.78 -21.4 0 0 407.02 760.42   Q 405.97 750.03 405.43 739.07   Q 405.35 737.55 406.84 736.92   Q 407.42 736.67 408.19 737.30   A 1.18 1.17 17.6 0 1 408.64 738.16   Q 410.61 766.69 414.32 799.03   Q 414.55 801.01 415.01 802.67   Q 415.33 803.87 415.33 802.63   Q 415.38 750.20 415.36 698.05   C 415.35 694.30 418.54 692.05 421.98 692.05   Q 459.57 692.08 494.65 692.04   A 0.61 0.61 0.0 0 0 495.25 691.55   Q 501.37 660.06 507.68 627.62   Q 508.18 625.04 507.64 622.49   Q 505.39 611.95 503.50 601.60   A 0.27 0.27 0.0 0 0 503.05 601.45   Q 494.40 609.25 486.08 618.16   A 1.93 1.93 0.0 0 1 483.50 618.38   Q 482.51 617.62 481.89 616.51   C 470.69 596.11 464.50 570.82 463.47 547.24   Q 463.44 546.64 462.84 546.73   C 440.81 550.27 419.88 559.61 405.33 576.65   C 404.17 578.02 403.71 579.71 403.45 581.44   Q 394.69 638.55 385.79 692.58   C 385.08 696.85 385.25 700.69 385.32 704.86   Q 385.57 722.18 380.41 737.43   A 0.88 0.87 -78.3 0 1 379.52 738.02   Q 378.58 737.95 378.77 737.26   Q 382.43 724.19 382.28 709.91   Q 382.27 708.26 381.79 709.84   Q 378.52 720.73 370.41 729.38   A 0.36 0.35 40.7 0 1 369.93 729.41   L 369.72 729.25   Z   M 519.17 585.42   Q 520.13 584.92 519.40 584.12   Q 506.80 570.12 498.41 554.34   A 0.94 0.93 76.1 0 0 497.61 553.85   Q 492.52 553.77 486.19 552.28   Q 475.19 549.70 466.39 545.79   A 0.28 0.27 9.7 0 0 466.00 546.06   C 467.94 568.46 472.04 590.10 481.75 609.78   Q 482.92 612.14 484.38 614.27   A 0.42 0.40 48.6 0 0 485.02 614.32   Q 497.54 600.51 513.49 588.98   Q 516.31 586.94 519.17 585.42   Z   M 783.62 783.49   Q 781.02 782.96 778.45 781.83   C 759.83 773.65 739.14 760.75 718.08 768.96   A 1.29 1.27 83.6 0 0 717.29 769.96   L 708.15 829.18   A 0.55 0.55 0.0 0 0 708.69 829.82   L 786.04 829.84   A 0.70 0.69 0.0 0 0 786.74 829.15   L 786.68 798.99   Q 786.68 796.91 788.76 796.92   L 820.79 797.04   Q 821.51 797.04 821.32 796.34   C 810.29 757.24 796.47 718.95 782.20 680.61   Q 765.32 635.28 745.59 592.19   Q 742.32 585.05 737.93 578.58   C 727.67 563.42 713.30 557.73 696.07 554.33   C 674.92 550.16 653.49 548.70 631.91 547.63   A 0.40 0.39 75.0 0 0 631.56 548.24   L 636.00 554.92   A 2.25 2.23 -42.8 0 1 635.89 557.55   L 577.87 630.83   Q 576.24 632.89 574.29 631.13   Q 557.60 616.02 541.21 602.77   A 0.33 0.33 0.0 0 0 540.70 602.89   L 528.27 629.58   A 2.76 2.71 -36.0 0 0 528.03 631.02   L 534.69 691.70   A 0.45 0.44 86.3 0 0 535.13 692.09   Q 624.87 692.05 721.86 692.06   C 726.71 692.07 728.53 696.16 727.87 700.38   Q 722.68 733.74 718.06 764.09   A 0.57 0.57 0.0 0 0 718.77 764.73   Q 725.07 763.06 731.23 762.94   Q 733.53 762.90 735.56 762.08   Q 747.16 757.42 762.06 759.11   Q 767.53 759.73 770.47 761.35   Q 771.45 761.89 770.33 761.85   C 761.24 761.50 752.58 761.73 743.30 763.32   Q 741.98 763.54 743.28 763.87   C 757.94 767.55 770.56 774.71 783.83 782.95   Q 785.24 783.82 783.62 783.49   Z   M 516.10 553.57   L 514.51 553.71   A 0.47 0.47 0.0 0 0 514.09 554.23   L 514.39 557.51   A 2.23 1.12 84.8 0 0 515.70 559.63   L 516.00 559.60   A 2.23 1.12 84.8 0 0 516.91 557.28   L 516.62 554.00   A 0.47 0.47 0.0 0 0 516.10 553.57   Z   M 510.67 554.30   Q 511.42 556.76 511.38 559.12   A 0.77 0.77 0.0 0 0 511.92 559.87   L 512.27 559.98   Q 512.97 560.21 512.98 559.48   L 513.05 554.51   Q 513.06 554.13 512.68 554.09   L 510.98 553.92   Q 510.54 553.88 510.67 554.30   Z   M 502.94 554.21   Q 502.41 554.23 502.52 554.74   Q 503.17 557.61 505.82 559.91   Q 506.05 560.11 506.23 559.87   L 506.44 559.60   A 0.70 0.70 0.0 0 0 506.41 558.72   Q 504.88 556.98 504.86 554.58   Q 504.86 554.17 504.45 554.18   L 502.94 554.21   Z   M 507.57 555.14   A 0.07 0.02 88.1 0 1 507.60 555.22   L 507.62 557.85   Q 507.63 558.87 508.32 559.60   Q 508.61 559.91 508.99 560.05   Q 509.93 560.39 509.82 559.39   L 509.30 554.51   Q 509.26 554.12 508.87 554.20   Q 507.46 554.48 506.09 554.24   Q 505.70 554.16 505.71 554.57   Q 505.77 555.92 506.23 557.22   Q 506.55 558.12 506.85 557.21   Q 507.17 556.27 507.09 555.43   Q 507.07 555.19 507.31 555.17   L 507.57 555.14   Z   M 124.09 681.46   Q 128.74 680.01 124.76 682.81   Q 120.23 686.00 116.46 689.06   Q 115.17 690.10 114.54 692.27   Q 114.28 693.17 114.59 694.00   A 1.02 1.02 0.0 0 0 116.17 694.45   C 126.53 686.45 135.70 677.22 140.97 665.56   C 141.26 664.92 141.38 663.95 141.30 663.25   Q 141.22 662.63 141.81 662.45   Q 152.97 659.06 157.78 647.27   A 1.28 1.25 43.3 0 0 157.74 646.24   C 155.19 641.08 142.49 647.13 144.90 638.14   C 146.07 633.74 151.04 620.44 148.25 616.79   A 2.12 2.10 61.2 0 0 145.84 616.08   C 141.45 617.68 136.20 621.90 132.30 616.40   Q 130.18 613.41 128.55 609.42   Q 127.70 607.31 125.99 606.19   A 2.01 2.01 0.0 0 0 123.61 606.32   C 119.01 610.11 116.70 619.59 111.32 621.42   C 104.45 623.75 101.63 615.35 100.77 610.00   C 100.18 606.34 98.83 597.00 93.01 598.08   Q 90.39 598.57 87.72 599.30   A 2.52 2.52 0.0 0 1 84.88 598.15   Q 76.22 583.56 59.42 588.19   A 1.09 1.09 0.0 0 0 58.87 589.93   C 61.65 593.31 63.65 596.11 62.66 600.90   Q 61.91 604.49 61.61 608.26   C 61.39 610.96 62.60 613.04 64.42 614.88   C 68.59 619.13 78.91 624.43 73.18 631.96   Q 72.80 632.47 73.25 632.92   C 78.74 638.49 84.34 646.26 86.34 654.05   A 0.47 0.47 0.0 0 0 86.93 654.39   C 90.33 653.43 94.83 651.81 98.23 652.88   C 104.20 654.76 102.29 661.94 98.99 665.51   A 0.79 0.78 45.3 0 0 98.99 666.58   Q 100.38 668.11 101.35 669.80   Q 105.21 676.54 109.05 683.28   A 1.61 1.60 53.2 0 1 108.78 685.22   Q 104.90 689.01 102.30 693.11   Q 101.38 694.57 102.98 693.93   L 108.31 691.78   Q 110.17 691.03 109.27 692.82   Q 108.55 694.25 106.56 695.07   Q 103.86 696.18 101.45 696.70   Q 100.87 696.83 100.85 697.42   L 96.19 803.03   Q 96.13 804.44 97.54 804.43   L 127.32 804.27   A 0.54 0.53 -4.2 0 0 127.85 803.67   L 121.20 751.07   Q 121.09 750.22 121.94 750.22   L 153.95 750.22   A 0.26 0.26 0.0 0 0 154.20 749.87   L 131.24 685.07   A 0.47 0.46 -35.6 0 0 130.44 684.94   C 128.08 687.84 114.80 703.62 111.41 694.53   C 109.26 688.77 120.00 682.74 124.09 681.46   Z   M 71.48 635.48   A 0.39 0.39 0.0 0 0 70.94 635.60   C 67.86 640.38 59.99 654.15 66.14 658.86   C 69.99 661.81 79.83 657.39 83.76 655.71   A 0.45 0.45 0.0 0 0 84.00 655.15   Q 80.51 645.25 73.34 637.09   Q 72.52 636.16 71.48 635.48   Z   M 105.87 684.40   Q 106.32 683.93 106.00 683.37   L 97.74 669.05   Q 97.35 668.36 96.87 669.01   Q 90.39 677.82 87.17 687.67   C 85.90 691.56 84.98 698.09 91.65 697.13   Q 96.77 696.39 100.00 691.60   Q 102.58 687.78 105.87 684.40   Z   M 211.15 675.05   A 0.66 0.66 0.0 0 0 211.61 676.06   L 214.08 676.42   A 0.66 0.66 0.0 0 0 214.82 675.64   L 214.19 672.40   A 0.66 0.66 0.0 0 0 212.99 672.17   L 211.15 675.05   Z   M 214.5130 680.7675   A 0.65 0.65 0.0 0 0 213.9977 680.0063   L 210.1877 679.2726   A 0.65 0.65 0.0 0 0 209.4265 679.7880   L 201.9270 718.7325   A 0.65 0.65 0.0 0 0 202.4423 719.4937   L 206.2523 720.2274   A 0.65 0.65 0.0 0 0 207.0135 719.7120   L 214.5130 680.7675   Z   M 524.87 722.85   A 0.44 0.44 0.0 0 0 524.44 722.40   L 481.60 720.68   A 0.44 0.44 0.0 0 0 481.14 721.12   L 481.13 724.73   A 0.44 0.44 0.0 0 0 481.58 725.17   L 524.42 724.45   A 0.44 0.44 0.0 0 0 524.85 724.01   L 524.87 722.85   Z   M 196.07 749.79   A 0.38 0.38 0.0 0 0 196.45 750.24   L 201.14 750.16   A 0.38 0.38 0.0 0 0 201.51 749.85   L 204.96 731.99   A 0.38 0.38 0.0 0 0 204.66 731.54   L 200.26 730.62   A 0.38 0.38 0.0 0 0 199.81 730.92   L 196.07 749.79   Z   M 555.47 732.10   A 0.43 0.43 0.0 0 0 555.04 731.69   L 493.55 731.73   A 0.43 0.43 0.0 0 0 493.12 732.17   L 493.20 735.21   A 0.43 0.43 0.0 0 0 493.64 735.63   L 555.12 733.71   A 0.43 0.43 0.0 0 0 555.54 733.26   L 555.47 732.10   Z   M 882.9739 741.9810   A 0.75 0.75 0.0 0 0 882.2226 741.2323   L 827.5627 741.3277   A 0.75 0.75 0.0 0 0 826.8140 742.0790   L 826.8261 749.0190   A 0.75 0.75 0.0 0 0 827.5774 749.7677   L 882.2373 749.6723   A 0.75 0.75 0.0 0 0 882.9860 748.9210   L 882.9739 741.9810   Z   M 884.2585 754.2388   A 0.94 0.94 0.0 0 0 883.3169 753.3005   L 826.5570 753.3995   A 0.94 0.94 0.0 0 0 825.6186 754.3412   L 825.6215 755.9812   A 0.94 0.94 0.0 0 0 826.5631 756.9195   L 883.3230 756.8205   A 0.94 0.94 0.0 0 0 884.2614 755.8788   L 884.2585 754.2388   Z   M 829.87 760.57   A 0.34 0.34 0.0 0 0 829.53 760.95   L 834.13 796.67   A 0.34 0.34 0.0 0 0 834.47 796.97   L 874.64 796.92   A 0.34 0.34 0.0 0 0 874.98 796.62   L 879.50 760.90   A 0.34 0.34 0.0 0 0 879.16 760.52   L 829.87 760.57   Z   M 595.6582 783.9559   A 19.18 13.75 -3.3 0 0 575.7185 771.3328   A 19.18 13.75 -3.3 0 0 557.3618 786.1641   A 19.18 13.75 -3.3 0 0 577.3015 798.7872   A 19.18 13.75 -3.3 0 0 595.6582 783.9559   Z   M 893.61 839.97   A 0.68 0.68 0.0 0 1 894.24 839.40   Q 936.12 837.08 979.49 835.66   A 1.26 1.25 7.4 0 0 980.65 834.77   Q 980.82 834.24 980.77 833.68   Q 980.70 832.85 979.87 832.85   Q 897.46 832.86 816.01 832.68   Q 804.30 832.65 790.22 832.47   A 0.31 0.30 0.0 0 0 789.91 832.77   L 789.88 837.18   Q 789.88 837.60 790.30 837.58   Q 811.60 836.54 835.26 838.54   A 1.29 1.27 0.3 0 1 836.44 839.71   Q 836.47 840.23 835.01 840.59   Q 834.22 840.78 833.41 840.77   C 819.72 840.67 804.62 840.03 790.59 840.79   Q 789.95 840.83 789.96 841.47   L 789.98 843.52   Q 789.99 844.10 790.57 844.10   L 865.52 844.10   Q 866.59 844.10 867.55 843.63   Q 881.19 836.99 890.41 847.85   Q 890.78 848.28 891.33 848.16   C 891.83 848.05 892.35 847.77 892.87 847.75   Q 909.49 847.22 925.08 847.56   Q 925.13 847.56 925.16 847.53   Q 925.22 847.49 925.16 847.46   Q 925.11 847.42 925.05 847.42   Q 908.87 846.69 892.92 846.47   A 0.43 0.43 0.0 0 1 892.56 845.82   L 892.73 845.54   Q 893.10 844.94 893.80 844.89   Q 909.01 843.93 926.15 844.16   Q 939.85 844.34 979.54 844.37   A 1.09 1.09 0.0 0 0 980.63 843.27   L 980.61 840.22   Q 980.60 839.09 979.46 839.13   Q 935.47 841.00 893.78 840.54   Q 893.51 840.54 893.55 840.27   L 893.61 839.97   Z   M 306.93 858.33   C 291.62 845.86 268.42 845.09 250.40 851.35   Q 241.34 854.50 232.12 859.31   Q 230.26 860.28 232.32 859.87   C 244.40 857.43 255.41 855.80 267.00 858.23   Q 274.90 859.89 280.07 865.11   Q 280.49 865.53 281.05 865.33   Q 299.91 858.80 321.67 863.35   C 328.33 864.74 337.29 868.33 338.95 875.73   Q 339.18 876.78 340.24 876.60   L 392.44 867.93   Q 392.86 867.86 392.64 867.50   Q 386.18 856.92 376.68 849.01   Q 369.18 842.76 361.86 841.63   C 343.15 838.75 324.30 847.56 309.03 858.40   A 1.73 1.72 -43.0 0 1 306.93 858.33   Z   M 871.90 846.34   C 873.55 849.53 873.35 853.94 872.48 857.35   A 1.61 1.60 20.0 0 0 873.35 859.20   C 876.70 860.77 882.84 861.18 885.72 858.03   C 889.64 853.77 886.95 847.96 882.10 845.98   Q 877.63 844.15 872.37 845.34   A 0.70 0.70 0.0 0 0 871.90 846.34   Z   M 869.02 855.69   Q 870.06 852.90 868.52 848.44   A 1.00 1.00 0.0 0 0 867.57 847.76   L 849.50 847.84   Q 849.09 847.84 849.09 848.25   L 849.28 859.80   Q 849.29 860.44 849.93 860.42   Q 855.60 860.30 862.20 860.32   C 865.27 860.33 868.02 858.41 869.02 855.69   Z   M 844.93 861.51   A 0.67 0.67 0.0 0 0 845.78 860.85   L 845.51 849.50   A 0.55 0.55 0.0 0 0 844.79 848.99   Q 832.61 852.98 820.19 855.52   Q 818.19 855.93 820.21 856.25   Q 832.33 858.16 844.93 861.51   Z   M 892.45 851.38   Q 891.73 851.41 891.64 852.12   L 891.19 856.01   A 0.58 0.58 0.0 0 0 891.77 856.66   L 924.74 856.32   Q 926.76 856.30 927.86 854.61   Q 928.21 854.07 928.08 853.57   Q 927.39 851.01 925.03 850.98   Q 908.27 850.73 892.45 851.38   Z   M 281.38 869.10   A 2.70 2.69 -33.5 0 1 278.37 868.49   C 273.89 863.78 268.78 861.48 262.41 860.92   Q 248.82 859.74 237.16 862.55   Q 230.77 864.10 224.50 866.10   Q 219.87 867.57 216.04 870.41   Q 214.72 871.38 216.36 871.44   Q 266.72 873.29 318.46 875.52   Q 326.76 875.88 335.07 876.64   A 0.54 0.54 0.0 0 0 335.62 875.88   C 330.42 864.30 305.49 864.72 295.27 865.67   Q 287.61 866.38 281.38 869.10   Z" />
<path d="   M 460.53 408.80   C 457.32 410.91 454.59 412.32 450.50 411.73   C 448.72 411.48 447.93 409.94 448.45 408.30   A 1.62 1.62 0.0 0 1 449.86 407.18   Q 454.83 406.79 459.11 404.03   C 460.22 403.31 461.58 403.32 462.72 403.95   Q 466.58 406.09 470.60 406.85   Q 472.97 407.29 472.51 409.66   Q 472.47 409.86 472.42 410.06   Q 471.93 411.70 470.23 411.57   Q 465.77 411.25 461.99 408.80   Q 461.26 408.33 460.53 408.80   Z" />
<path d="   M 529.10 423.83   C 526.43 425.69 523.25 426.24 519.67 425.95   Q 517.51 425.77 517.48 423.60   L 517.48 423.35   Q 517.45 421.34 519.46 421.37   Q 524.73 421.44 528.86 418.67   A 1.91 1.91 0.0 0 1 531.24 418.87   Q 534.57 422.06 539.74 423.42   Q 541.43 423.87 541.23 425.60   L 541.14 426.28   Q 540.93 428.09 539.12 427.90   Q 533.68 427.33 530.33 423.95   A 0.97 0.96 50.3 0 0 529.10 423.83   Z" />
<ellipse cx="0.00" cy="0.00" transform="translate(460.01,436.78) rotate(107.6)" rx="7.14" ry="5.63" />
<path d="   M 478.08 467.32   A 0.85 0.85 0.0 0 0 478.70 468.55   L 489.06 470.27   Q 490.17 470.46 489.93 471.55   L 489.81 472.07   Q 489.48 473.57 487.97 473.28   L 475.90 471.00   A 2.04 2.04 0.0 0 1 474.32 468.45   Q 474.53 467.67 474.90 466.95   Q 482.61 451.70 490.50 436.64   Q 490.91 435.85 491.81 435.90   Q 492.46 435.93 492.86 436.39   Q 493.67 437.34 493.09 438.45   L 478.08 467.32   Z" />
<ellipse cx="0.00" cy="0.00" transform="translate(526.13,450.30) rotate(109.0)" rx="6.99" ry="5.48" />
<path d="   M 621.74 453.35   C 618.82 454.82 618.83 458.22 618.85 460.97   Q 618.85 462.61 617.22 462.44   L 616.75 462.39   A 1.93 1.93 0.0 0 1 615.03 460.53   Q 614.76 451.52 622.88 448.63   A 1.70 1.70 0.0 0 1 624.99 449.52   C 625.87 451.44 623.07 452.68 621.74 453.35   Z" />
<path d="   M 433.74 469.62   C 435.54 469.73 437.37 469.72 439.06 470.10   Q 440.22 470.36 439.90 471.51   A 0.94 0.93 1.0 0 1 439.22 472.16   Q 436.02 472.90 433.41 470.36   A 0.43 0.43 0.0 0 1 433.74 469.62   Z" />
<path d="   M 436.40 477.89   A 0.27 0.27 0.0 0 1 436.67 478.16   L 436.65 479.52   A 2.37 0.77 -89.4 0 1 435.86 481.88   L 435.62 481.88   A 2.37 0.77 -89.4 0 1 434.87 479.50   L 434.89 478.14   A 0.27 0.27 0.0 0 1 435.16 477.87   L 436.40 477.89   Z" />
<path d="   M 523.79 488.65   C 525.65 487.58 527.67 485.63 529.70 487.53   Q 530.15 487.96 530.28 488.57   Q 530.72 490.65 530.45 492.82   C 528.83 505.98 519.32 514.87 505.98 515.26   Q 491.79 515.66 482.38 504.71   Q 480.52 502.54 479.81 500.16   A 1.84 1.83 -6.9 0 1 481.66 497.80   C 496.69 498.58 510.97 495.98 523.79 488.65   Z   M 486.30 501.37   A 0.37 0.36 -18.4 0 0 486.00 501.96   C 488.07 504.50 493.54 504.18 496.39 503.94   Q 510.17 502.77 522.02 496.85   Q 524.94 495.39 526.48 493.09   Q 528.12 490.62 525.48 491.97   C 513.04 498.33 500.24 501.80 486.30 501.37   Z" />
<ellipse cx="0.00" cy="0.00" transform="translate(604.99,500.82) rotate(76.3)" rx="2.24" ry="1.08" />
<path d="   M 598.07 505.72   C 598.55 503.66 598.76 501.74 598.64 499.60   Q 598.57 498.51 599.46 499.15   C 601.35 500.51 601.12 503.71 600.71 505.98   Q 600.53 506.98 599.52 506.91   L 598.92 506.87   Q 597.82 506.80 598.07 505.72   Z" />
<path d="   M 883.33 806.95   A 0.47 0.47 0.0 0 1 882.86 807.42   L 877.48 807.34   A 31.71 1.30 0.8 0 1 845.79 805.60   L 845.80 805.12   A 31.71 1.30 0.8 0 1 877.52 804.26   L 882.90 804.34   A 0.47 0.47 0.0 0 1 883.36 804.81   L 883.33 806.95   Z" />
<rect x="-20.61" y="-1.51" transform="translate(830.83,820.72) rotate(-0.4)" width="41.22" height="3.02" rx="1.48" />
<path d="   M 878.09 822.52   A 0.40 0.39 24.7 0 1 877.85 821.88   Q 878.18 821.49 878.65 821.46   Q 898.29 820.38 918.72 821.28   Q 922.08 821.42 925.28 821.77   Q 930.20 822.30 925.33 823.15   Q 922.63 823.61 919.25 823.70   Q 905.96 824.02 890.49 823.67   Q 883.70 823.52 878.09 822.52   Z" />
<path d="   M 832.10 824.05   Q 842.27 824.09 848.76 824.71   A 1.42 1.30 82.0 0 1 849.89 825.64   Q 849.92 825.72 849.90 825.81   A 1.75 1.64 3.8 0 1 848.31 827.11   Q 829.24 828.25 811.17 827.47   Q 809.78 827.41 809.79 826.01   L 809.79 825.72   Q 809.80 824.58 810.94 824.51   Q 819.69 824.00 832.10 824.05   Z" />
<path d="   M 372.03 858.58   A 0.67 0.67 0.0 0 1 371.33 857.94   L 371.27 856.80   A 4.03 1.41 87.3 0 1 372.49 852.71   L 372.79 852.70   A 4.03 1.41 87.3 0 1 374.39 856.66   L 374.44 857.79   A 0.67 0.67 0.0 0 1 373.81 858.49   L 372.03 858.58   Z" />
<path d="   M 366.99 858.53   A 2.36 2.34 -83.3 0 1 364.62 860.41   L 363.84 860.39   Q 362.17 860.34 362.21 858.67   Q 362.28 856.02 363.76 853.72   A 1.66 1.66 0.0 0 1 366.69 853.99   Q 367.52 856.01 366.99 858.53   Z   M 364.88 857.12   Q 364.48 857.74 364.67 858.38   Q 364.83 858.91 365.15 858.45   Q 365.56 857.84 365.36 857.19   Q 365.20 856.62 364.88 857.12   Z" />
<path d="   M 358.03 866.20   Q 368.27 863.60 376.50 862.84   Q 377.75 862.72 378.22 863.80   A 1.29 1.28 68.3 0 1 377.48 865.53   Q 373.12 867.07 367.79 867.90   Q 355.77 869.76 343.68 870.84   A 0.41 0.41 0.0 0 1 343.24 870.51   L 343.19 870.23   Q 343.16 870.08 343.31 870.04   Q 350.33 868.15 358.03 866.20   Z" />
<path d="   M 202.41 882.72   L 214.59 895.72   A 1.31 1.31 0.0 0 1 214.85 897.10   L 209.05 911.71   A 1.31 1.31 0.0 0 1 206.88 912.13   L 195.03 899.50   A 1.31 1.31 0.0 0 1 194.76 898.15   L 200.22 883.17   A 1.31 1.31 0.0 0 1 202.41 882.72   Z   M 206.39 908.27   A 0.38 0.38 0.0 0 0 207.02 908.16   L 211.85 896.37   A 0.38 0.38 0.0 0 0 211.77 895.96   L 202.90 886.79   A 0.38 0.38 0.0 0 0 202.27 886.92   L 197.81 898.65   A 0.38 0.38 0.0 0 0 197.89 899.04   L 206.39 908.27   Z" />
</g>
</g></svg>