<svg xmlns="http://www.w3.org/2000/svg" viewBox="0 0 1024 1024" version="1.1">
<g id="Parent-Group"><g id="Group-rgba(0,0,0,0)" fill="rgba(0,0,0,0)">
<path fill="rgba(0,0,0,0)" opacity="1.00" d=" M 0.00 0.00 L 1024.00 0.00 L 1024.00 1024.00 L 802.44 1024.00 C 796.47 980.55 790.67 937.06 782.11 894.02 C 778.09 872.65 773.83 851.32 770.73 829.79 C 768.74 818.02 767.57 806.12 765.47 794.37 C 764.01 781.82 761.56 769.42 759.06 757.05 C 752.72 725.68 744.62 694.47 732.00 664.98 C 718.09 633.10 697.38 603.86 669.97 582.21 C 655.94 570.95 640.51 561.41 624.20 553.84 C 612.70 548.31 600.41 544.80 588.29 541.01 C 588.09 520.69 587.53 500.35 587.76 480.03 C 591.68 477.04 596.23 474.92 600.10 471.82 C 614.52 460.64 627.14 446.82 635.68 430.61 C 641.17 420.59 644.95 409.74 648.01 398.77 C 654.13 403.73 662.68 405.76 670.27 403.34 C 678.80 400.87 685.65 394.14 689.18 386.09 C 694.77 373.35 693.38 356.84 683.35 346.64 C 680.52 343.46 676.72 341.46 672.91 339.72 C 673.23 335.95 673.31 332.17 673.84 328.43 C 681.89 326.95 688.38 320.04 689.60 312.00 C 689.90 308.14 692.58 304.93 692.66 301.02 C 693.51 294.65 691.67 288.26 688.67 282.68 C 693.00 278.29 695.10 272.02 694.96 265.92 C 695.30 256.59 691.24 247.87 686.85 239.89 C 691.11 231.29 691.87 221.34 690.64 211.94 C 688.21 196.56 678.00 183.29 664.98 175.15 C 655.55 169.19 644.39 164.89 633.08 166.19 C 626.16 166.87 619.66 169.55 613.38 172.38 C 609.99 173.89 606.69 175.96 602.92 176.25 C 600.96 176.46 599.82 174.69 598.71 173.41 C 592.91 165.28 585.40 158.62 578.64 151.33 C 569.83 142.11 558.36 133.99 545.07 134.12 C 526.62 134.66 510.58 145.51 497.32 157.45 C 504.59 159.36 510.63 164.92 513.06 172.02 C 513.61 173.55 511.60 174.43 510.97 175.60 C 508.25 172.16 506.77 167.68 503.08 165.06 C 500.28 162.89 496.86 161.82 493.49 160.93 C 493.30 160.21 492.92 158.77 492.73 158.04 C 481.77 156.53 469.71 157.61 460.75 164.68 C 450.81 171.58 446.73 183.78 444.91 195.22 C 442.89 205.58 442.83 216.79 437.08 226.01 C 430.99 234.58 420.99 239.18 414.22 247.10 C 407.00 255.26 406.31 268.02 411.46 277.41 C 413.91 282.16 418.07 285.63 422.10 288.99 C 421.24 295.98 420.31 303.65 423.89 310.07 C 426.62 315.25 431.97 318.26 437.22 320.33 C 437.08 325.16 438.41 329.80 439.34 334.49 C 430.12 334.29 421.00 339.27 416.01 346.98 C 410.99 354.52 410.26 364.15 411.75 372.88 C 414.36 387.26 428.02 399.63 443.07 398.12 C 445.31 414.53 450.21 430.76 459.07 444.86 C 467.37 458.21 478.75 469.48 491.74 478.28 C 489.70 497.54 488.25 516.86 485.77 536.08 C 458.65 539.07 430.82 543.06 406.43 556.06 C 405.56 553.60 404.88 551.07 403.83 548.68 C 402.31 548.08 400.62 548.68 399.06 548.73 C 381.93 550.91 364.80 553.77 348.36 559.19 C 339.62 561.90 330.39 565.06 324.09 572.06 C 318.15 578.56 316.59 587.55 314.54 595.80 C 303.92 601.58 293.81 608.25 283.17 613.99 C 284.94 598.23 285.43 582.37 286.46 566.56 C 287.16 548.03 288.40 529.51 288.41 510.97 C 288.69 510.60 289.27 509.87 289.55 509.50 C 289.67 497.77 291.14 486.09 291.25 474.36 C 283.85 472.57 276.34 471.31 268.78 470.40 C 270.50 458.63 272.03 446.84 273.12 435.00 C 273.32 433.80 273.30 432.39 274.24 431.49 C 301.19 406.00 325.42 377.85 351.44 351.45 C 356.08 346.77 361.95 342.80 364.42 336.44 C 367.39 329.68 364.49 320.15 357.08 317.72 C 351.39 315.97 345.01 317.58 340.51 321.42 C 331.09 329.34 323.36 339.00 315.10 348.08 C 309.88 353.78 305.06 360.01 298.63 364.43 C 297.37 355.18 300.92 346.15 303.56 337.44 C 313.54 309.36 320.92 280.40 326.55 251.15 C 327.96 242.16 329.85 233.07 329.04 223.92 C 328.69 218.79 324.50 213.40 318.96 213.87 C 313.25 214.36 309.35 219.58 307.70 224.66 C 303.81 236.62 301.37 248.99 298.11 261.13 C 294.04 275.68 290.93 290.56 285.18 304.58 C 287.36 291.59 290.78 278.84 293.12 265.88 C 295.58 252.62 298.62 239.42 299.60 225.95 C 299.59 222.12 300.11 217.67 297.42 214.55 C 294.26 211.18 288.93 209.16 284.58 211.45 C 279.63 213.43 277.66 218.82 276.34 223.55 C 270.31 248.30 266.47 273.58 259.09 298.01 C 261.62 278.68 265.02 259.45 266.76 240.02 C 267.23 233.16 268.09 226.15 266.63 219.35 C 264.65 212.69 255.61 210.31 250.14 214.14 C 247.36 215.85 245.99 218.97 244.90 221.91 C 240.62 234.94 238.56 248.56 236.90 262.15 C 235.19 274.13 233.02 286.05 230.82 297.95 C 230.48 299.61 229.85 301.20 229.17 302.76 C 228.93 284.84 230.10 266.96 230.14 249.05 C 230.13 245.49 229.50 241.67 227.17 238.86 C 223.82 235.66 218.28 234.64 214.28 237.26 C 209.76 239.96 208.09 245.30 206.84 250.10 C 204.39 260.87 204.15 271.98 203.45 282.96 C 203.18 298.52 202.16 314.07 200.37 329.52 C 197.39 351.24 194.36 373.03 194.09 394.98 C 193.70 417.98 191.18 440.90 186.91 463.49 C 180.20 462.57 173.44 462.11 166.72 461.29 C 165.80 468.72 165.43 476.22 164.67 483.68 C 164.01 488.80 163.13 493.92 163.70 499.10 C 161.98 519.71 160.65 540.37 159.22 561.02 C 158.40 572.70 157.45 584.38 157.12 596.09 C 155.37 628.04 154.24 660.11 156.28 692.09 C 157.22 701.58 157.86 711.37 161.88 720.17 C 167.95 733.85 174.42 748.01 185.70 758.24 C 194.26 766.09 205.94 769.21 217.21 770.53 C 225.50 771.25 233.82 771.86 242.15 771.70 C 241.19 795.90 239.81 820.14 240.93 844.37 C 228.43 843.98 215.64 848.81 207.01 857.97 C 199.50 865.73 195.26 876.27 194.77 887.02 C 193.63 902.87 193.14 918.75 192.78 934.63 C 191.09 964.39 191.80 994.21 191.70 1024.00 L 0.00 1024.00 L 0.00 0.00 Z" />
<path fill="rgba(0,0,0,0)" opacity="1.00" d=" M 282.48 221.41 C 283.39 218.49 285.75 215.47 289.14 215.72 C 292.82 215.54 294.80 219.76 294.88 222.92 C 293.61 239.23 289.72 255.18 286.62 271.20 C 283.89 284.53 281.13 297.85 278.54 311.20 C 277.86 316.67 276.15 322.02 276.06 327.55 C 277.05 329.05 279.05 330.23 280.64 328.80 C 284.33 323.32 286.47 316.99 289.02 310.94 C 297.04 289.74 301.76 267.50 307.66 245.66 C 309.53 238.57 310.91 231.31 313.46 224.41 C 314.44 221.37 317.66 218.57 320.97 219.18 C 325.03 221.68 324.01 227.05 323.96 231.07 C 322.51 248.57 317.95 265.60 314.19 282.69 C 309.51 300.48 304.39 318.18 298.52 335.63 C 295.52 344.50 292.88 353.69 293.23 363.15 C 293.29 366.07 294.93 369.40 298.17 369.72 C 303.14 369.27 306.51 365.12 309.91 361.93 C 319.38 352.02 328.02 341.35 337.69 331.63 C 341.79 327.68 346.06 322.88 352.14 322.46 C 356.49 321.50 360.30 325.89 360.24 330.01 C 360.66 334.61 357.17 338.17 354.28 341.27 C 341.77 353.11 330.24 365.92 318.32 378.34 C 305.54 392.20 292.46 405.77 279.22 419.19 C 275.71 423.28 270.88 426.36 268.15 431.00 C 267.82 439.35 266.45 447.61 265.62 455.91 C 264.90 460.62 264.52 465.40 263.18 469.99 C 239.63 466.62 215.73 466.50 192.09 463.87 C 194.94 447.37 197.74 430.82 198.68 414.08 C 198.85 405.42 199.13 396.78 199.65 388.15 C 200.45 363.53 204.97 339.24 207.03 314.73 C 208.32 302.04 208.09 289.26 209.07 276.55 C 209.87 265.98 209.99 254.99 214.17 245.08 C 215.14 241.91 219.16 240.12 222.10 241.78 C 225.11 243.22 225.02 247.07 225.03 249.92 C 224.67 262.27 223.95 274.60 223.82 286.96 C 223.76 297.65 223.46 308.52 226.04 318.98 C 226.98 319.36 227.95 319.67 228.95 319.93 C 231.60 318.54 231.76 315.17 232.72 312.66 C 235.68 303.50 237.07 293.96 238.72 284.51 C 242.18 265.10 243.75 245.31 249.18 226.28 C 250.06 223.66 250.79 220.74 252.88 218.78 C 255.95 216.72 261.06 217.80 261.87 221.81 C 262.43 228.36 262.14 234.96 261.36 241.49 C 258.39 268.06 253.50 294.39 251.09 321.03 C 250.71 323.02 251.83 325.42 254.09 325.49 C 256.66 325.07 257.06 321.97 258.12 320.04 C 266.79 295.01 272.18 269.01 277.42 243.09 C 279.13 235.87 280.17 228.48 282.48 221.41 M 216.84 345.92 C 218.50 346.61 220.28 346.93 222.08 346.74 C 227.15 346.42 232.13 347.60 237.10 348.39 C 250.64 351.10 264.17 353.92 277.62 357.05 C 278.94 355.88 280.23 353.08 277.89 352.24 C 275.10 351.44 272.23 350.96 269.39 350.37 C 269.29 350.88 269.08 351.90 268.98 352.41 C 268.94 351.85 268.86 350.73 268.82 350.17 C 261.89 348.90 255.06 347.08 248.14 345.71 C 238.55 343.85 228.88 341.29 219.04 342.06 C 216.99 342.04 216.92 344.43 216.84 345.92 M 207.11 348.82 C 206.58 350.07 206.08 351.33 205.61 352.60 C 214.04 356.77 220.30 364.45 224.21 372.86 C 228.69 383.28 227.44 394.88 229.14 405.83 C 230.36 405.94 231.59 406.04 232.82 406.13 C 233.09 405.60 233.64 404.55 233.91 404.03 C 233.15 394.16 233.44 384.06 230.63 374.48 C 227.69 364.61 220.63 356.54 212.61 350.36 C 211.07 349.04 209.02 348.96 207.11 348.82 Z" />
<path fill="rgba(0,0,0,0)" opacity="1.00" d=" M 571.18 269.22 C 573.71 266.31 575.16 262.69 577.48 259.65 C 583.11 270.35 589.44 281.31 599.44 288.54 C 610.10 295.95 624.59 297.26 636.55 292.34 C 640.36 291.08 643.56 288.60 647.02 286.65 C 647.04 302.82 647.15 318.99 647.59 335.15 C 647.47 339.46 646.94 343.88 648.00 348.12 C 649.46 348.59 650.97 348.94 652.51 349.12 C 655.49 344.66 661.09 343.61 666.10 343.81 C 673.42 344.51 679.67 349.47 683.62 355.46 C 691.36 368.46 687.25 387.23 674.57 395.60 C 669.73 398.56 663.49 400.32 658.01 398.13 C 653.21 396.68 650.24 392.25 645.70 390.31 C 644.25 392.80 643.11 395.50 642.77 398.39 C 638.23 415.64 630.32 432.03 619.16 445.97 C 607.39 459.58 593.29 471.57 576.85 479.14 C 562.02 485.92 545.28 488.46 529.13 486.21 C 511.46 484.37 495.31 475.42 482.16 463.81 C 465.77 449.46 455.11 429.31 450.40 408.20 C 448.52 401.53 448.42 394.53 446.86 387.82 C 446.19 387.93 444.83 388.15 444.16 388.26 C 441.96 389.00 443.94 393.08 441.21 392.98 C 427.80 393.45 416.81 380.89 415.99 368.06 C 415.17 358.23 419.34 347.27 428.50 342.63 C 434.20 339.19 441.08 339.59 447.28 341.20 C 447.82 338.20 447.90 335.15 447.70 332.12 C 447.90 316.76 447.59 301.39 447.97 286.04 C 460.92 284.32 474.83 282.66 485.45 274.33 C 489.30 271.62 491.96 267.67 494.48 263.77 C 506.12 271.94 517.89 281.12 532.25 283.75 C 546.64 286.73 561.91 280.31 571.18 269.22 M 483.83 314.82 C 482.71 317.00 481.47 319.79 483.19 322.03 C 483.92 322.03 485.39 322.05 486.12 322.05 C 486.91 320.21 487.51 318.28 488.52 316.54 C 489.63 315.12 491.49 314.75 493.06 314.07 C 497.09 314.58 497.86 319.12 501.02 320.94 C 502.20 320.16 503.49 319.35 503.77 317.83 C 502.22 313.33 497.84 309.64 492.99 309.46 C 489.40 309.85 485.61 311.50 483.83 314.82 M 591.04 310.98 C 587.65 312.24 584.95 315.41 584.67 319.07 C 585.79 319.61 586.93 320.14 588.07 320.67 C 590.09 318.29 592.09 313.81 595.99 315.39 C 599.65 316.33 601.07 319.99 602.22 323.17 C 603.75 323.10 606.16 323.31 606.04 321.09 C 605.91 314.13 597.64 308.10 591.04 310.98 M 494.97 345.78 C 491.83 347.23 492.15 351.09 492.08 353.97 C 492.22 357.78 491.39 362.05 493.61 365.43 C 494.57 367.01 496.58 367.22 498.12 367.97 C 500.00 367.10 502.11 366.09 502.84 363.99 C 503.72 359.29 503.01 354.49 503.01 349.75 C 501.94 346.58 498.22 343.86 494.97 345.78 M 536.41 347.50 C 533.61 361.00 530.32 374.43 528.57 388.12 C 527.86 391.32 530.79 394.23 533.84 394.44 C 537.92 394.28 540.47 390.61 542.36 387.44 C 544.51 383.36 546.51 379.00 546.82 374.33 C 545.38 373.81 543.86 372.55 542.35 373.61 C 540.13 379.17 538.75 385.63 533.79 389.50 C 533.86 387.51 533.93 385.50 534.35 383.55 C 536.70 371.98 539.01 360.39 541.40 348.83 C 542.06 347.17 541.20 344.45 539.00 344.94 C 537.44 344.54 536.81 346.39 536.41 347.50 M 590.24 348.25 C 588.82 351.80 589.36 355.73 589.42 359.45 C 589.29 362.35 589.60 365.95 592.35 367.63 C 595.11 369.03 598.89 367.85 599.83 364.76 C 600.59 360.19 600.02 355.54 599.74 350.95 C 599.78 346.35 592.56 343.98 590.24 348.25 M 424.12 356.11 C 423.86 361.09 423.88 366.15 425.03 371.03 C 425.78 370.98 427.28 370.87 428.02 370.81 C 428.20 368.30 427.98 365.80 427.80 363.30 C 427.30 360.74 427.52 358.13 427.92 355.58 C 426.63 355.62 425.37 355.79 424.12 356.11 M 430.64 357.21 C 431.70 361.47 431.66 366.07 433.76 370.03 C 434.29 369.68 435.35 368.99 435.89 368.65 C 437.02 364.42 434.98 359.98 434.13 355.81 C 432.93 356.14 430.62 355.23 430.64 357.21 M 668.22 362.28 C 669.10 366.13 669.38 370.08 670.10 373.96 C 670.76 373.95 672.09 373.95 672.75 373.94 C 674.21 369.70 672.22 365.41 671.59 361.22 C 670.32 360.91 669.28 361.75 668.22 362.28 M 675.07 360.85 C 676.51 365.38 677.09 370.14 677.24 374.88 C 677.87 374.91 679.14 374.97 679.77 375.00 C 681.44 370.42 679.90 365.50 678.61 361.02 C 677.42 360.95 676.24 360.89 675.07 360.85 M 482.18 393.34 C 482.25 394.78 481.86 397.19 484.04 397.17 C 486.14 397.91 486.85 395.37 487.36 393.95 C 485.85 392.49 483.99 392.42 482.18 393.34 M 588.90 394.84 C 588.82 396.82 591.22 397.10 592.70 397.22 C 593.25 396.08 594.60 394.78 593.51 393.50 C 592.76 390.69 587.97 392.00 588.90 394.84 M 604.61 392.73 C 602.92 392.92 602.44 395.42 603.59 396.45 C 604.60 397.94 606.23 397.39 607.63 396.87 C 607.74 396.10 607.97 394.55 608.09 393.78 C 606.99 393.26 605.91 391.98 604.61 392.73 M 498.57 393.72 C 494.64 394.85 498.91 400.33 501.18 397.24 C 503.40 395.72 500.47 392.52 498.57 393.72 M 513.61 419.87 C 515.27 430.20 524.62 438.57 535.01 439.48 C 547.45 441.26 560.47 430.88 560.95 418.25 C 559.63 417.35 557.11 416.02 556.42 418.36 C 554.77 423.75 551.82 429.05 546.75 431.90 C 538.06 437.45 525.19 433.48 520.68 424.32 C 519.50 422.08 518.98 419.55 517.64 417.40 C 516.04 415.93 512.86 417.59 513.61 419.87 Z" />
<path fill="rgba(0,0,0,0)" opacity="1.00" d=" M 168.91 497.21 C 188.53 499.69 208.23 501.53 227.88 503.84 C 241.31 504.92 254.51 507.75 267.87 509.43 C 273.05 510.14 278.31 509.81 283.47 510.69 C 283.14 534.49 281.70 558.26 280.33 582.03 C 279.58 599.83 277.96 617.60 275.29 635.22 C 273.40 648.12 271.31 661.08 267.24 673.50 C 268.00 674.60 269.03 675.35 270.32 675.75 C 272.01 674.63 272.41 672.52 273.13 670.77 C 278.42 654.38 279.67 637.09 282.71 620.22 C 293.09 615.09 302.60 608.45 312.67 602.76 C 323.47 596.89 333.97 590.44 345.07 585.12 C 347.14 595.70 348.55 606.41 350.88 616.93 C 352.14 629.19 354.52 641.31 356.50 653.47 C 358.28 670.02 361.31 686.43 363.32 702.93 C 363.49 703.38 363.83 704.26 364.01 704.70 C 363.97 707.80 364.40 710.87 365.06 713.89 C 367.79 735.42 370.42 756.96 373.42 778.45 C 375.34 795.96 377.39 813.46 379.36 830.97 C 363.69 833.21 347.96 835.03 332.27 837.17 C 334.15 813.74 336.07 790.30 337.86 766.85 C 338.36 758.77 339.80 750.78 340.08 742.69 C 340.26 741.25 340.56 739.85 340.85 738.45 C 340.50 735.61 340.86 732.76 341.14 729.94 C 338.51 729.17 335.37 727.85 333.00 729.93 C 320.63 738.61 307.99 747.10 294.12 753.21 C 280.50 759.25 266.28 764.21 251.50 766.34 C 241.95 767.02 232.38 766.47 222.85 765.91 C 214.07 765.16 205.06 763.96 197.13 759.92 C 182.66 752.08 175.41 736.34 168.76 722.09 C 162.45 709.38 161.71 694.94 160.84 681.04 C 160.38 676.89 161.24 672.59 160.18 668.54 C 160.41 660.07 159.88 651.58 160.58 643.13 C 161.56 594.39 165.22 545.81 168.91 497.21 M 284.19 623.04 C 283.68 628.35 284.19 633.68 284.32 639.00 C 284.87 650.02 285.11 661.05 285.31 672.08 C 285.05 673.91 286.47 675.20 287.79 676.21 C 288.33 675.84 289.43 675.12 289.97 674.76 C 290.79 671.58 290.33 668.32 290.22 665.10 C 289.87 651.53 289.24 637.97 288.76 624.42 C 287.70 622.86 285.83 623.03 284.19 623.04 Z" />
<path fill="rgba(0,0,0,0)" opacity="1.00" d=" M 497.07 527.15 C 525.51 518.77 553.86 510.03 582.64 502.87 C 582.61 522.00 583.82 541.12 583.54 560.26 C 583.61 562.80 583.29 565.44 584.38 567.83 C 585.47 567.81 586.57 567.79 587.68 567.76 C 587.90 567.04 588.34 565.60 588.56 564.88 C 588.41 558.87 588.54 552.85 588.19 546.84 C 596.35 549.21 604.55 551.50 612.33 554.95 C 606.71 568.82 597.77 581.99 584.66 589.72 C 576.12 594.70 565.77 595.26 556.24 593.45 C 545.04 591.37 533.65 590.53 522.46 588.47 C 502.68 584.84 484.23 574.13 471.58 558.46 C 468.07 553.94 464.13 549.60 461.64 544.42 C 469.45 543.50 477.16 541.64 485.08 541.70 C 484.37 547.78 483.29 553.82 482.95 559.93 C 483.96 560.64 484.98 561.35 486.01 562.07 C 486.45 561.69 487.32 560.93 487.75 560.55 C 489.40 550.41 490.30 540.15 491.09 529.92 C 492.94 528.71 494.94 527.76 497.07 527.15 Z" />
<path fill="rgba(0,0,0,0)" opacity="1.00" d=" M 407.55 561.75 C 422.88 553.78 439.68 548.85 456.60 545.64 C 462.44 556.49 470.22 566.29 479.60 574.29 C 492.15 585.31 508.12 591.80 524.50 594.39 C 535.67 596.07 546.92 597.19 558.04 599.21 C 571.05 601.71 585.12 597.96 595.13 589.26 C 605.09 580.81 613.08 569.66 616.82 557.08 C 627.89 562.02 638.75 567.51 648.97 574.06 C 663.79 583.82 678.32 594.50 689.78 608.19 C 707.30 627.88 720.66 650.97 730.87 675.20 C 741.95 703.15 748.49 732.62 754.72 761.96 C 760.89 791.05 764.08 820.65 768.95 849.97 C 774.23 881.68 781.71 913.01 786.12 944.87 C 790.14 971.19 793.58 997.60 797.06 1024.00 L 487.90 1024.00 C 487.83 1012.66 488.02 1001.32 487.20 990.00 C 486.72 972.33 486.09 954.66 485.07 937.01 C 483.66 916.09 482.70 895.02 478.33 874.44 C 475.41 860.62 470.07 846.33 458.99 836.98 C 453.25 832.57 447.49 827.84 440.47 825.65 C 440.63 816.23 440.27 806.81 440.38 797.39 C 439.61 757.28 436.59 717.22 431.25 677.45 C 426.31 638.36 418.59 599.58 407.55 561.75 M 718.03 785.99 C 717.11 788.66 718.00 791.36 718.49 794.02 C 726.40 841.33 730.72 889.14 734.50 936.92 C 736.57 961.85 737.36 986.87 738.95 1011.82 C 739.50 1012.05 740.60 1012.52 741.16 1012.76 C 741.62 1012.48 742.54 1011.94 743.00 1011.67 C 743.10 1010.40 743.16 1009.15 743.18 1007.91 C 742.29 982.72 740.77 957.55 738.74 932.44 C 737.92 919.81 736.70 907.21 735.59 894.61 C 735.35 891.22 734.95 887.86 734.66 884.48 C 732.57 861.29 729.70 838.19 726.50 815.12 C 725.07 805.78 724.01 796.35 721.77 787.17 C 721.46 785.17 719.38 786.05 718.03 785.99 Z" />
<path fill="rgba(0,0,0,0)" opacity="1.00" d=" M 308.17 752.15 C 318.02 746.81 327.48 740.67 336.18 733.62 C 332.60 768.35 330.27 803.19 326.88 837.94 C 318.99 839.24 311.18 840.99 303.36 842.72 C 303.88 813.54 304.62 784.36 305.71 755.19 C 305.37 753.53 307.02 752.84 308.17 752.15 Z" />
<path fill="rgba(0,0,0,0)" opacity="1.00" d=" M 433.87 838.94 C 437.92 837.85 443.06 837.73 446.25 840.88 C 445.73 842.12 444.65 843.79 443.05 843.25 C 440.16 842.76 437.10 841.74 434.31 843.22 C 427.00 845.74 423.53 853.35 421.18 860.13 C 414.79 878.40 413.64 897.92 412.08 917.05 C 410.73 937.63 410.17 958.37 412.90 978.86 C 414.82 993.85 414.24 1009.05 412.19 1024.00 L 408.47 1024.00 C 409.63 1010.98 410.73 997.87 409.40 984.82 C 408.24 974.23 407.12 963.61 406.91 952.95 C 406.72 935.30 407.78 917.66 409.33 900.08 C 410.95 884.27 413.00 868.17 419.39 853.47 C 422.15 847.08 426.84 840.83 433.87 838.94 Z" />
<path fill="rgba(0,0,0,0)" opacity="1.00" d=" M 371.04 957.29 C 377.73 956.72 384.50 956.05 391.01 954.36 C 392.13 955.24 393.01 956.37 393.43 957.77 C 391.59 958.59 389.63 959.07 387.63 959.24 C 369.88 961.93 351.91 962.77 333.98 962.77 C 320.63 962.23 307.35 960.33 293.96 960.69 C 276.92 960.99 259.90 961.84 242.91 963.14 C 230.15 964.15 217.39 966.21 205.21 970.24 C 202.47 971.04 200.07 972.79 197.20 973.12 C 197.04 971.85 196.91 970.60 196.79 969.35 C 225.39 957.20 257.12 958.79 287.49 956.70 C 292.62 957.07 297.75 956.41 302.87 956.81 C 315.61 957.15 328.25 959.31 341.02 958.85 C 346.07 958.52 351.25 959.16 356.23 958.16 C 361.18 958.29 366.14 957.92 371.04 957.29 Z" />
</g>
<g id="Group-000000" fill="#000000">
<path fill="#000000" opacity="1.00" d=" M 497.32 157.45 C 510.58 145.51 526.62 134.66 545.07 134.12 C 558.36 133.99 569.83 142.11 578.64 151.33 C 585.40 158.62 592.91 165.28 598.71 173.41 C 599.82 174.69 600.96 176.46 602.92 176.25 C 606.69 175.96 609.99 173.89 613.38 172.38 C 619.66 169.55 626.16 166.87 633.08 166.19 C 644.39 164.89 655.55 169.19 664.98 175.15 C 678.00 183.29 688.21 196.56 690.64 211.94 C 691.87 221.34 691.11 231.29 686.85 239.89 C 691.24 247.87 695.30 256.59 694.96 265.92 C 695.10 272.02 693.00 278.29 688.67 282.68 C 691.67 288.26 693.51 294.65 692.66 301.02 C 692.58 304.93 689.90 308.14 689.60 312.00 C 688.38 320.04 681.89 326.95 673.84 328.43 C 673.31 332.17 673.23 335.95 672.91 339.72 C 676.72 341.46 680.52 343.46 683.35 346.64 C 693.38 356.84 694.77 373.35 689.18 386.09 C 685.65 394.14 678.80 400.87 670.27 403.34 C 662.68 405.76 654.13 403.73 648.01 398.77 C 644.95 409.74 641.17 420.59 635.68 430.61 C 627.14 446.82 614.52 460.64 600.10 471.82 C 596.23 474.92 591.68 477.04 587.76 480.03 C 587.53 500.35 588.09 520.69 588.29 541.01 C 600.41 544.80 612.70 548.31 624.20 553.84 C 640.51 561.41 655.94 570.95 669.97 582.21 C 697.38 603.86 718.09 633.10 732.00 664.98 C 744.62 694.47 752.72 725.68 759.06 757.05 C 761.56 769.42 764.01 781.82 765.47 794.37 C 767.57 806.12 768.74 818.02 770.73 829.79 C 773.83 851.32 778.09 872.65 782.11 894.02 C 790.67 937.06 796.47 980.55 802.44 1024.00 L 797.06 1024.00 C 793.58 997.60 790.14 971.19 786.12 944.87 C 781.71 913.01 774.23 881.68 768.95 849.97 C 764.08 820.65 760.89 791.05 754.72 761.96 C 748.49 732.62 741.95 703.15 730.87 675.20 C 720.66 650.97 707.30 627.88 689.78 608.19 C 678.32 594.50 663.79 583.82 648.97 574.06 C 638.75 567.51 627.89 562.02 616.82 557.08 C 613.08 569.66 605.09 580.81 595.13 589.26 C 585.12 597.96 571.05 601.71 558.04 599.21 C 546.92 597.19 535.67 596.07 524.50 594.39 C 508.12 591.80 492.15 585.31 479.60 574.29 C 470.22 566.29 462.44 556.49 456.60 545.64 C 439.68 548.85 422.88 553.78 407.55 561.75 C 418.59 599.58 426.31 638.36 431.25 677.45 C 436.59 717.22 439.61 757.28 440.38 797.39 C 440.27 806.81 440.63 816.23 440.47 825.65 C 447.49 827.84 453.25 832.57 458.99 836.98 C 470.07 846.33 475.41 860.62 478.33 874.44 C 482.70 895.02 483.66 916.09 485.07 937.01 C 486.09 954.66 486.72 972.33 487.20 990.00 C 488.02 1001.32 487.83 1012.66 487.90 1024.00 L 412.19 1024.00 C 414.24 1009.05 414.82 993.85 412.90 978.86 C 410.17 958.37 410.73 937.63 412.08 917.05 C 413.64 897.92 414.79 878.40 421.18 860.13 C 423.53 853.35 427.00 845.74 434.31 843.22 C 437.10 841.74 440.16 842.76 443.05 843.25 C 444.65 843.79 445.73 842.12 446.25 840.88 C 443.06 837.73 437.92 837.85 433.87 838.94 C 426.84 840.83 422.15 847.08 419.39 853.47 C 413.00 868.17 410.95 884.27 409.33 900.08 C 407.78 917.66 406.72 935.30 406.91 952.95 C 407.12 963.61 408.24 974.23 409.40 984.82 C 410.73 997.87 409.63 1010.98 408.47 1024.00 L 191.70 1024.00 C 191.80 994.21 191.09 964.39 192.78 934.63 C 193.14 918.75 193.63 902.87 194.77 887.02 C 195.26 876.27 199.50 865.73 207.01 857.97 C 215.64 848.81 228.43 843.98 240.93 844.37 C 239.81 820.14 241.19 795.90 242.15 771.70 C 233.82 771.86 225.50 771.25 217.21 770.53 C 205.94 769.21 194.26 766.09 185.70 758.24 C 174.42 748.01 167.95 733.85 161.88 720.17 C 157.86 711.37 157.22 701.58 156.28 692.09 C 154.24 660.11 155.37 628.04 157.12 596.09 C 157.45 584.38 158.40 572.70 159.22 561.02 C 160.65 540.37 161.98 519.71 163.70 499.10 C 163.13 493.92 164.01 488.80 164.67 483.68 C 165.43 476.22 165.80 468.72 166.72 461.29 C 173.44 462.11 180.20 462.57 186.91 463.49 C 191.18 440.90 193.70 417.98 194.09 394.98 C 194.36 373.03 197.39 351.24 200.37 329.52 C 202.16 314.07 203.18 298.52 203.45 282.96 C 204.15 271.98 204.39 260.87 206.84 250.10 C 208.09 245.30 209.76 239.96 214.28 237.26 C 218.28 234.64 223.82 235.66 227.17 238.86 C 229.50 241.67 230.13 245.49 230.14 249.05 C 230.10 266.96 228.93 284.84 229.17 302.76 C 229.85 301.20 230.48 299.61 230.82 297.95 C 233.02 286.05 235.19 274.13 236.90 262.15 C 238.56 248.56 240.62 234.94 244.90 221.91 C 245.99 218.97 247.36 215.85 250.14 214.14 C 255.61 210.31 264.65 212.69 266.63 219.35 C 268.09 226.15 267.23 233.16 266.76 240.02 C 265.02 259.45 261.62 278.68 259.09 298.01 C 266.47 273.58 270.31 248.30 276.34 223.55 C 277.66 218.82 279.63 213.43 284.58 211.45 C 288.93 209.16 294.26 211.18 297.42 214.55 C 300.11 217.67 299.59 222.12 299.60 225.95 C 298.62 239.42 295.58 252.62 293.12 265.88 C 290.78 278.84 287.36 291.59 285.18 304.58 C 290.93 290.56 294.04 275.68 298.11 261.13 C 301.37 248.99 303.81 236.62 307.70 224.66 C 309.35 219.58 313.25 214.36 318.96 213.87 C 324.50 213.40 328.69 218.79 329.04 223.92 C 329.85 233.07 327.96 242.16 326.55 251.15 C 320.92 280.40 313.54 309.36 303.56 337.44 C 300.92 346.15 297.37 355.18 298.63 364.43 C 305.06 360.01 309.88 353.78 315.10 348.08 C 323.36 339.00 331.09 329.34 340.51 321.42 C 345.01 317.58 351.39 315.97 357.08 317.72 C 364.49 320.15 367.39 329.68 364.42 336.44 C 361.95 342.80 356.08 346.77 351.44 351.45 C 325.42 377.85 301.19 406.00 274.24 431.49 C 273.30 432.39 273.32 433.80 273.12 435.00 C 272.03 446.84 270.50 458.63 268.78 470.40 C 276.34 471.31 283.85 472.57 291.25 474.36 C 291.14 486.09 289.67 497.77 289.55 509.50 C 289.27 509.87 288.69 510.60 288.41 510.97 C 288.40 529.51 287.16 548.03 286.46 566.56 C 285.43 582.37 284.94 598.23 283.17 613.99 C 293.81 608.25 303.92 601.58 314.54 595.80 C 316.59 587.55 318.15 578.56 324.09 572.06 C 330.39 565.06 339.62 561.90 348.36 559.19 C 364.80 553.77 381.93 550.91 399.06 548.73 C 400.62 548.68 402.31 548.08 403.83 548.68 C 404.88 551.07 405.56 553.60 406.43 556.06 C 430.82 543.06 458.65 539.07 485.77 536.08 C 488.25 516.86 489.70 497.54 491.74 478.28 C 478.75 469.48 467.37 458.21 459.07 444.86 C 450.21 430.76 445.31 414.53 443.07 398.12 C 428.02 399.63 414.36 387.26 411.75 372.88 C 410.26 364.15 410.99 354.52 416.01 346.98 C 421.00 339.27 430.12 334.29 439.34 334.49 C 438.41 329.80 437.08 325.16 437.22 320.33 C 431.97 318.26 426.62 315.25 423.89 310.07 C 420.31 303.65 421.24 295.98 422.10 288.99 C 418.07 285.63 413.91 282.16 411.46 277.41 C 406.31 268.02 407.00 255.26 414.22 247.10 C 420.99 239.18 430.99 234.58 437.08 226.01 C 442.83 216.79 442.89 205.58 444.91 195.22 C 446.73 183.78 450.81 171.58 460.75 164.68 C 469.71 157.61 481.77 156.53 492.73 158.04 C 492.92 158.77 493.30 160.21 493.49 160.93 C 496.86 161.82 500.28 162.89 503.08 165.06 C 506.77 167.68 508.25 172.16 510.97 175.60 C 511.60 174.43 513.61 173.55 513.06 172.02 C 510.63 164.92 504.59 159.36 497.32 157.45 M 282.48 221.41 C 280.17 228.48 279.13 235.87 277.42 243.09 C 272.18 269.01 266.79 295.01 258.12 320.04 C 257.06 321.97 256.66 325.07 254.09 325.49 C 251.83 325.42 250.71 323.02 251.09 321.03 C 253.50 294.39 258.39 268.06 261.36 241.49 C 262.14 234.96 262.43 228.36 261.87 221.81 C 261.06 217.80 255.95 216.72 252.88 218.78 C 250.79 220.74 250.06 223.66 249.18 226.28 C 243.75 245.31 242.18 265.10 238.72 284.51 C 237.07 293.96 235.68 303.50 232.72 312.66 C 231.76 315.17 231.60 318.54 228.95 319.93 C 227.95 319.67 226.98 319.36 226.04 318.98 C 223.46 308.52 223.76 297.65 223.82 286.96 C 223.95 274.60 224.67 262.27 225.03 249.92 C 225.02 247.07 225.11 243.22 222.10 241.78 C 219.16 240.12 215.14 241.91 214.17 245.08 C 209.99 254.99 209.87 265.98 209.07 276.55 C 208.09 289.26 208.32 302.04 207.03 314.73 C 204.97 339.24 200.45 363.53 199.65 388.15 C 199.13 396.78 198.85 405.42 198.68 414.08 C 197.74 430.82 194.94 447.37 192.09 463.87 C 215.73 466.50 239.63 466.62 263.18 469.99 C 264.52 465.40 264.90 460.62 265.62 455.91 C 266.45 447.61 267.82 439.35 268.15 431.00 C 270.88 426.36 275.71 423.28 279.22 419.19 C 292.46 405.77 305.54 392.20 318.32 378.34 C 330.24 365.92 341.77 353.11 354.28 341.27 C 357.17 338.17 360.66 334.61 360.24 330.01 C 360.30 325.89 356.49 321.50 352.14 322.46 C 346.06 322.88 341.79 327.68 337.69 331.63 C 328.02 341.35 319.38 352.02 309.91 361.93 C 306.51 365.12 303.14 369.27 298.17 369.72 C 294.93 369.40 293.29 366.07 293.23 363.15 C 292.88 353.69 295.52 344.50 298.52 335.63 C 304.39 318.18 309.51 300.48 314.19 282.69 C 317.95 265.60 322.51 248.57 323.96 231.07 C 324.01 227.05 325.03 221.68 320.97 219.18 C 317.66 218.57 314.44 221.37 313.46 224.41 C 310.91 231.31 309.53 238.57 307.66 245.66 C 301.76 267.50 297.04 289.74 289.02 310.94 C 286.47 316.99 284.33 323.32 280.64 328.80 C 279.05 330.23 277.05 329.05 276.06 327.55 C 276.15 322.02 277.86 316.67 278.54 311.20 C 281.13 297.85 283.89 284.53 286.62 271.20 C 289.72 255.18 293.61 239.23 294.88 222.92 C 294.80 219.76 292.82 215.54 289.14 215.72 C 285.75 215.47 283.39 218.49 282.48 221.41 M 571.18 269.22 C 561.91 280.31 546.64 286.73 532.25 283.75 C 517.89 281.12 506.12 271.94 494.48 263.77 C 491.96 267.67 489.30 271.62 485.45 274.33 C 474.83 282.66 460.92 284.32 447.97 286.04 C 447.59 301.39 447.90 316.76 447.70 332.12 C 447.90 335.15 447.82 338.20 447.28 341.20 C 441.08 339.59 434.20 339.19 428.50 342.63 C 419.34 347.27 415.17 358.23 415.99 368.06 C 416.81 380.89 427.80 393.45 441.21 392.98 C 443.94 393.08 441.96 389.00 444.16 388.26 C 444.83 388.15 446.19 387.93 446.86 387.82 C 448.42 394.53 448.52 401.53 450.40 408.20 C 455.11 429.31 465.77 449.46 482.16 463.81 C 495.31 475.42 511.46 484.37 529.13 486.21 C 545.28 488.46 562.02 485.92 576.85 479.14 C 593.29 471.57 607.39 459.58 619.16 445.97 C 630.32 432.03 638.23 415.64 642.77 398.39 C 643.11 395.50 644.25 392.80 645.70 390.31 C 650.24 392.25 653.21 396.68 658.01 398.13 C 663.49 400.32 669.73 398.56 674.57 395.60 C 687.25 387.23 691.36 368.46 683.62 355.46 C 679.67 349.47 673.42 344.51 666.10 343.81 C 661.09 343.61 655.49 344.66 652.51 349.12 C 650.97 348.94 649.46 348.59 648.00 348.12 C 646.94 343.88 647.47 339.46 647.59 335.15 C 647.15 318.99 647.04 302.82 647.02 286.65 C 643.56 288.60 640.36 291.08 636.55 292.34 C 624.59 297.26 610.10 295.95 599.44 288.54 C 589.44 281.31 583.11 270.35 577.48 259.65 C 575.16 262.69 573.71 266.31 571.18 269.22 M 168.91 497.21 C 165.22 545.81 161.56 594.39 160.58 643.13 C 159.88 651.58 160.41 660.07 160.18 668.54 C 161.24 672.59 160.38 676.89 160.84 681.04 C 161.71 694.94 162.45 709.38 168.76 722.09 C 175.41 736.34 182.66 752.08 197.13 759.92 C 205.06 763.96 214.07 765.16 222.85 765.91 C 232.38 766.47 241.95 767.02 251.50 766.34 C 266.28 764.21 280.50 759.25 294.12 753.21 C 307.99 747.10 320.63 738.61 333.00 729.93 C 335.37 727.85 338.51 729.17 341.14 729.94 C 340.86 732.76 340.50 735.61 340.85 738.45 C 340.56 739.85 340.26 741.25 340.08 742.69 C 339.80 750.78 338.36 758.77 337.86 766.85 C 336.07 790.30 334.15 813.74 332.27 837.17 C 347.96 835.03 363.69 833.21 379.36 830.97 C 377.39 813.46 375.34 795.96 373.42 778.45 C 370.42 756.96 367.79 735.42 365.06 713.89 C 364.40 710.87 363.97 707.80 364.01 704.70 C 363.83 704.26 363.49 703.38 363.32 702.93 C 361.31 686.43 358.28 670.02 356.50 653.47 C 354.52 641.31 352.14 629.19 350.88 616.93 C 348.55 606.41 347.14 595.70 345.07 585.12 C 333.97 590.44 323.47 596.89 312.67 602.76 C 302.60 608.45 293.09 615.09 282.71 620.22 C 279.67 637.09 278.42 654.38 273.13 670.77 C 272.41 672.52 272.01 674.63 270.32 675.75 C 269.03 675.35 268.00 674.60 267.24 673.50 C 271.31 661.08 273.40 648.12 275.29 635.22 C 277.96 617.60 279.58 599.83 280.33 582.03 C 281.70 558.26 283.14 534.49 283.47 510.69 C 278.31 509.81 273.05 510.14 267.87 509.43 C 254.51 507.75 241.31 504.92 227.88 503.84 C 208.23 501.53 188.53 499.69 168.91 497.21 M 497.07 527.15 C 494.94 527.76 492.94 528.71 491.09 529.92 C 490.30 540.15 489.40 550.41 487.75 560.55 C 487.32 560.93 486.45 561.69 486.01 562.07 C 484.98 561.35 483.96 560.64 482.95 559.93 C 483.29 553.82 484.37 547.78 485.08 541.70 C 477.16 541.64 469.45 543.50 461.64 544.42 C 464.13 549.60 468.07 553.94 471.58 558.46 C 484.23 574.13 502.68 584.84 522.46 588.47 C 533.65 590.53 545.04 591.37 556.24 593.45 C 565.77 595.26 576.12 594.70 584.66 589.72 C 597.77 581.99 606.71 568.82 612.33 554.95 C 604.55 551.50 596.35 549.21 588.19 546.84 C 588.54 552.85 588.41 558.87 588.56 564.88 C 588.34 565.60 587.90 567.04 587.68 567.76 C 586.57 567.79 585.47 567.81 584.38 567.83 C 583.29 565.44 583.61 562.80 583.54 560.26 C 583.82 541.12 582.61 522.00 582.64 502.87 C 553.86 510.03 525.51 518.77 497.07 527.15 M 308.17 752.15 C 307.02 752.84 305.37 753.53 305.71 755.19 C 304.62 784.36 303.88 813.54 303.36 842.72 C 311.18 840.99 318.99 839.24 326.88 837.94 C 330.27 803.19 332.60 768.35 336.18 733.62 C 327.48 740.67 318.02 746.81 308.17 752.15 M 371.04 957.29 C 366.14 957.92 361.18 958.29 356.23 958.16 C 351.25 959.16 346.07 958.52 341.02 958.85 C 328.25 959.31 315.61 957.15 302.87 956.81 C 297.75 956.41 292.62 957.07 287.49 956.70 C 257.12 958.79 225.39 957.20 196.79 969.35 C 196.91 970.60 197.04 971.85 197.20 973.12 C 200.07 972.79 202.47 971.04 205.21 970.24 C 217.39 966.21 230.15 964.15 242.91 963.14 C 259.90 961.84 276.92 960.99 293.96 960.69 C 307.35 960.33 320.63 962.23 333.98 962.77 C 351.91 962.77 369.88 961.93 387.63 959.24 C 389.63 959.07 391.59 958.59 393.43 957.77 C 393.01 956.37 392.13 955.24 391.01 954.36 C 384.50 956.05 377.73 956.72 371.04 957.29 Z" />
<path fill="#000000" opacity="1.00" d=" M 483.83 314.82 C 485.61 311.50 489.40 309.85 492.99 309.46 C 497.84 309.64 502.22 313.33 503.77 317.83 C 503.49 319.35 502.20 320.16 501.02 320.94 C 497.86 319.12 497.09 314.58 493.06 314.07 C 491.49 314.75 489.63 315.12 488.52 316.54 C 487.51 318.28 486.91 320.21 486.12 322.05 C 485.39 322.05 483.92 322.03 483.19 322.03 C 481.47 319.79 482.71 317.00 483.83 314.82 Z" />
<path fill="#000000" opacity="1.00" d=" M 591.04 310.98 C 597.64 308.10 605.91 314.13 606.04 321.09 C 606.16 323.31 603.75 323.10 602.22 323.17 C 601.07 319.99 599.65 316.33 595.99 315.39 C 592.09 313.81 590.09 318.29 588.07 320.67 C 586.93 320.14 585.79 319.61 584.67 319.07 C 584.95 315.41 587.65 312.24 591.04 310.98 Z" />
<path fill="#000000" opacity="1.00" d=" M 216.84 345.92 C 216.92 344.43 216.99 342.04 219.04 342.06 C 228.88 341.29 238.55 343.85 248.14 345.71 C 255.06 347.08 261.89 348.90 268.82 350.17 C 268.86 350.73 268.94 351.85 268.98 352.41 C 269.08 351.90 269.29 350.88 269.39 350.37 C 272.23 350.96 275.10 351.44 277.89 352.24 C 280.23 353.08 278.94 355.88 277.62 357.05 C 264.17 353.92 250.64 351.10 237.10 348.39 C 232.13 347.60 227.15 346.42 222.08 346.74 C 220.28 346.93 218.50 346.61 216.84 345.92 Z" />
<path fill="#000000" opacity="1.00" d=" M 494.97 345.78 C 498.22 343.86 501.94 346.58 503.01 349.75 C 503.01 354.49 503.72 359.29 502.84 363.99 C 502.11 366.09 500.00 367.10 498.12 367.97 C 496.58 367.22 494.57 367.01 493.61 365.43 C 491.39 362.05 492.22 357.78 492.08 353.97 C 492.15 351.09 491.83 347.23 494.97 345.78 Z" />
<path fill="#000000" opacity="1.00" d=" M 536.41 347.50 C 536.81 346.39 537.44 344.54 539.00 344.94 C 541.20 344.45 542.06 347.17 541.40 348.83 C 539.01 360.39 536.70 371.98 534.35 383.55 C 533.93 385.50 533.86 387.51 533.79 389.50 C 538.75 385.63 540.13 379.17 542.35 373.61 C 543.86 372.55 545.38 373.81 546.82 374.33 C 546.51 379.00 544.51 383.36 542.36 387.44 C 540.47 390.61 537.92 394.28 533.84 394.44 C 530.79 394.23 527.86 391.32 528.57 388.12 C 530.32 374.43 533.61 361.00 536.41 347.50 Z" />
<path fill="#000000" opacity="1.00" d=" M 590.24 348.25 C 592.56 343.98 599.78 346.35 599.74 350.95 C 600.02 355.54 600.59 360.19 599.83 364.76 C 598.89 367.85 595.11 369.03 592.35 367.63 C 589.60 365.95 589.29 362.35 589.42 359.45 C 589.36 355.73 588.82 351.80 590.24 348.25 Z" />
<path fill="#000000" opacity="1.00" d=" M 207.11 348.82 C 209.02 348.96 211.07 349.04 212.61 350.36 C 220.63 356.54 227.69 364.61 230.63 374.48 C 233.44 384.06 233.15 394.16 233.91 404.03 C 233.64 404.55 233.09 405.60 232.82 406.13 C 231.59 406.04 230.36 405.94 229.14 405.83 C 227.44 394.88 228.69 383.28 224.21 372.86 C 220.30 364.45 214.04 356.77 205.61 352.60 C 206.08 351.33 206.58 350.07 207.11 348.82 Z" />
<path fill="#000000" opacity="1.00" d=" M 424.12 356.11 C 425.37 355.79 426.63 355.62 427.92 355.58 C 427.52 358.13 427.30 360.74 427.80 363.30 C 427.98 365.80 428.20 368.30 428.02 370.81 C 427.28 370.87 425.78 370.98 425.03 371.03 C 423.88 366.15 423.86 361.09 424.12 356.11 Z" />
<path fill="#000000" opacity="1.00" d=" M 430.64 357.21 C 430.62 355.23 432.93 356.14 434.13 355.81 C 434.98 359.98 437.02 364.42 435.89 368.65 C 435.35 368.99 434.29 369.68 433.76 370.03 C 431.66 366.07 431.70 361.47 430.64 357.21 Z" />
<path fill="#000000" opacity="1.00" d=" M 668.22 362.28 C 669.28 361.75 670.32 360.91 671.59 361.22 C 672.22 365.41 674.21 369.70 672.75 373.94 C 672.09 373.95 670.76 373.95 670.10 373.96 C 669.38 370.08 669.10 366.13 668.22 362.28 Z" />
<path fill="#000000" opacity="1.00" d=" M 675.07 360.85 C 676.24 360.89 677.42 360.95 678.61 361.02 C 679.90 365.50 681.44 370.42 679.77 375.00 C 679.14 374.97 677.87 374.91 677.24 374.88 C 677.09 370.14 676.51 365.38 675.07 360.85 Z" />
<path fill="#000000" opacity="1.00" d=" M 482.18 393.34 C 483.99 392.42 485.85 392.49 487.36 393.95 C 486.85 395.37 486.14 397.91 484.04 397.17 C 481.86 397.19 482.25 394.78 482.18 393.34 Z" />
<path fill="#000000" opacity="1.00" d=" M 588.90 394.84 C 587.97 392.00 592.76 390.69 593.51 393.50 C 594.60 394.78 593.25 396.08 592.70 397.22 C 591.22 397.10 588.82 396.82 588.90 394.84 Z" />
<path fill="#000000" opacity="1.00" d=" M 604.61 392.73 C 605.91 391.98 606.99 393.26 608.09 393.78 C 607.97 394.55 607.74 396.10 607.63 396.87 C 606.23 397.39 604.60 397.94 603.59 396.45 C 602.44 395.42 602.92 392.92 604.61 392.73 Z" />
<path fill="#000000" opacity="1.00" d=" M 498.57 393.72 C 500.47 392.52 503.40 395.72 501.18 397.24 C 498.91 400.33 494.64 394.85 498.57 393.72 Z" />
<path fill="#000000" opacity="1.00" d=" M 513.61 419.87 C 512.86 417.59 516.04 415.93 517.64 417.40 C 518.98 419.55 519.50 422.08 520.68 424.32 C 525.19 433.48 538.06 437.45 546.75 431.90 C 551.82 429.05 554.77 423.75 556.42 418.36 C 557.11 416.02 559.63 417.35 560.95 418.25 C 560.47 430.88 547.45 441.26 535.01 439.48 C 524.62 438.57 515.27 430.20 513.61 419.87 Z" />
<path fill="#000000" opacity="1.00" d=" M 284.19 623.04 C 285.83 623.03 287.70 622.86 288.76 624.42 C 289.24 637.97 289.87 651.53 290.22 665.10 C 290.33 668.32 290.79 671.58 289.97 674.76 C 289.43 675.12 288.33 675.84 287.79 676.21 C 286.47 675.20 285.05 673.91 285.31 672.08 C 285.11 661.05 284.87 650.02 284.32 639.00 C 284.19 633.68 283.68 628.35 284.19 623.04 Z" />
<path fill="#000000" opacity="1.00" d=" M 718.03 785.99 C 719.38 786.05 721.46 785.17 721.77 787.17 C 724.01 796.35 725.07 805.78 726.50 815.12 C 729.70 838.19 732.57 861.29 734.66 884.48 C 734.95 887.86 735.35 891.22 735.59 894.61 C 736.70 907.21 737.92 919.81 738.74 932.44 C 740.77 957.55 742.29 982.72 743.18 1007.91 C 743.16 1009.15 743.10 1010.40 743.00 1011.67 C 742.54 1011.94 741.62 1012.48 741.16 1012.76 C 740.60 1012.52 739.50 1012.05 738.95 1011.82 C 737.36 986.87 736.57 961.85 734.50 936.92 C 730.72 889.14 726.40 841.33 718.49 794.02 C 718.00 791.36 717.11 788.66 718.03 785.99 Z" />
</g>
</g></svg>